<?xml version="1.0" encoding="UTF-8" standalone="no"?>
<!DOCTYPE svg PUBLIC "-//W3C//DTD SVG 1.1//EN"
 "http://www.w3.org/Graphics/SVG/1.1/DTD/svg11.dtd">
<!-- Generated by graphviz version 2.34.0 (20140110.0949)
 -->
<!-- Title: GradleSetup Pages: 1 -->
<svg width="1190pt" height="971pt"
 viewBox="0.00 0.00 1190.00 971.00" xmlns="http://www.w3.org/2000/svg" xmlns:xlink="http://www.w3.org/1999/xlink">
<g id="graph0" class="graph" transform="scale(1 1) rotate(0) translate(4 967)">
<title>GradleSetup</title>
<polygon fill="white" stroke="white" points="-4,4 -4,-967 1186,-967 1186,4 -4,4"/>
<text text-anchor="middle" x="61" y="-947.8" font-family="Times,serif" font-size="14.00">Gradle Build Setup</text>
<g id="clust1" class="cluster"><title>cluster1</title>
<polygon fill="lightgrey" stroke="black" points="8,-227 8,-932 572,-932 572,-227 8,-227"/>
<text text-anchor="middle" x="92.5" y="-234.8" font-family="Times,serif" font-size="14.00">Java Projects / Bnd Projects</text>
</g>
<g id="clust2" class="cluster"><title>cluster101</title>
</g>
<g id="clust3" class="cluster"><title>cluster102</title>
</g>
<g id="clust4" class="cluster"><title>cluster103</title>
</g>
<g id="clust5" class="cluster"><title>cluster104</title>
</g>
<g id="clust6" class="cluster"><title>cluster105</title>
</g>
<g id="clust7" class="cluster"><title>cluster106</title>
</g>
<g id="clust8" class="cluster"><title>cluster107</title>
</g>
<g id="clust9" class="cluster"><title>cluster108</title>
</g>
<g id="clust10" class="cluster"><title>cluster109</title>
</g>
<g id="clust11" class="cluster"><title>cluster110</title>
</g>
<g id="clust12" class="cluster"><title>cluster2</title>
<polygon fill="lightgrey" stroke="black" points="876,-606 876,-841 1174,-841 1174,-606 876,-606"/>
<text text-anchor="middle" x="916.5" y="-613.8" font-family="Times,serif" font-size="14.00">All Projects</text>
</g>
<g id="clust13" class="cluster"><title>cluster201</title>
</g>
<g id="clust14" class="cluster"><title>cluster202</title>
</g>
<g id="clust15" class="cluster"><title>cluster3</title>
<polygon fill="lightgrey" stroke="black" points="802,-849 802,-924 952,-924 952,-849 802,-849"/>
<text text-anchor="middle" x="844.5" y="-856.8" font-family="Times,serif" font-size="14.00">Root Project</text>
</g>
<g id="clust16" class="cluster"><title>cluster4</title>
<polygon fill="lightgrey" stroke="black" points="580,-8 580,-689 868,-689 868,-8 580,-8"/>
<text text-anchor="middle" x="624.5" y="-15.8" font-family="Times,serif" font-size="14.00">Build Project</text>
</g>
<!-- compileJava -->
<g id="node1" class="node"><title>compileJava</title>
<polygon fill="lightcyan" stroke="black" points="414.25,-916 329.75,-916 329.75,-880 414.25,-880 414.25,-916"/>
<text text-anchor="middle" x="372" y="-894.3" font-family="Times,serif" font-size="14.00">compileJava</text>
</g>
<!-- classes -->
<g id="node3" class="node"><title>classes</title>
<polygon fill="lightcyan" stroke="black" points="302,-825 248,-825 248,-789 302,-789 302,-825"/>
<text text-anchor="middle" x="275" y="-803.3" font-family="Times,serif" font-size="14.00">classes</text>
</g>
<!-- compileJava&#45;&gt;classes -->
<g id="edge1" class="edge"><title>compileJava&#45;&gt;classes</title>
<path fill="none" stroke="black" d="M353.253,-879.641C343.375,-870.507 331.047,-859.131 320,-849 313.975,-843.475 307.484,-837.546 301.357,-831.962"/>
<polygon fill="black" stroke="black" points="303.604,-829.274 293.854,-825.128 298.891,-834.45 303.604,-829.274"/>
</g>
<!-- processResources -->
<g id="node2" class="node"><title>processResources</title>
<polygon fill="lightcyan" stroke="black" points="311.25,-916 198.75,-916 198.75,-880 311.25,-880 311.25,-916"/>
<text text-anchor="middle" x="255" y="-894.3" font-family="Times,serif" font-size="14.00">processResources</text>
</g>
<!-- processResources&#45;&gt;classes -->
<g id="edge2" class="edge"><title>processResources&#45;&gt;classes</title>
<path fill="none" stroke="black" d="M258.856,-879.84C261.706,-867.158 265.643,-849.64 268.915,-835.077"/>
<polygon fill="black" stroke="black" points="272.378,-835.632 271.156,-825.107 265.548,-834.097 272.378,-835.632"/>
</g>
<!-- jar -->
<g id="node4" class="node"><title>jar</title>
<polygon fill="cyan" stroke="black" points="407,-753 353,-753 353,-717 407,-717 407,-753"/>
<text text-anchor="middle" x="380" y="-731.3" font-family="Times,serif" font-size="14.00">jar</text>
</g>
<!-- classes&#45;&gt;jar -->
<g id="edge4" class="edge"><title>classes&#45;&gt;jar</title>
<path fill="none" stroke="black" d="M300.686,-788.876C314.288,-779.808 331.172,-768.552 345.861,-758.759"/>
<polygon fill="black" stroke="black" points="347.836,-761.649 354.215,-753.19 343.953,-755.825 347.836,-761.649"/>
</g>
<!-- compileTestJava -->
<g id="node5" class="node"><title>compileTestJava</title>
<polygon fill="lightcyan" stroke="black" points="329,-753 221,-753 221,-717 329,-717 329,-753"/>
<text text-anchor="middle" x="275" y="-731.3" font-family="Times,serif" font-size="14.00">compileTestJava</text>
</g>
<!-- classes&#45;&gt;compileTestJava -->
<g id="edge3" class="edge"><title>classes&#45;&gt;compileTestJava</title>
<path fill="none" stroke="black" d="M275,-788.697C275,-780.983 275,-771.712 275,-763.112"/>
<polygon fill="black" stroke="black" points="278.5,-763.104 275,-753.104 271.5,-763.104 278.5,-763.104"/>
</g>
<!-- test -->
<g id="node8" class="node"><title>test</title>
<polygon fill="lightcyan" stroke="black" points="78,-590 24,-590 24,-554 78,-554 78,-590"/>
<text text-anchor="middle" x="51" y="-568.3" font-family="Times,serif" font-size="14.00">test</text>
</g>
<!-- classes&#45;&gt;test -->
<g id="edge5" class="edge"><title>classes&#45;&gt;test</title>
<path fill="none" stroke="black" d="M247.626,-804.525C194.25,-801.021 79.3459,-790.19 55,-761 17.0097,-715.45 30.9285,-639.862 42.2111,-599.815"/>
<polygon fill="black" stroke="black" points="45.5724,-600.791 45.0616,-590.208 38.8616,-598.799 45.5724,-600.791"/>
</g>
<!-- jar&#45;&gt;compileJava -->
<g id="edge21" class="edge"><title>jar&#45;&gt;compileJava</title>
<path fill="none" stroke="red" d="M379.15,-753.106C377.771,-780.866 375.032,-835.974 373.374,-869.354"/>
<polygon fill="red" stroke="red" points="369.857,-869.609 372.856,-879.77 376.848,-869.956 369.857,-869.609"/>
</g>
<!-- uploadArchives -->
<g id="node9" class="node"><title>uploadArchives</title>
<polygon fill="lightcyan" stroke="black" points="506,-590 404,-590 404,-554 506,-554 506,-590"/>
<text text-anchor="middle" x="455" y="-568.3" font-family="Times,serif" font-size="14.00">uploadArchives</text>
</g>
<!-- jar&#45;&gt;uploadArchives -->
<g id="edge8" class="edge"><title>jar&#45;&gt;uploadArchives</title>
<path fill="none" stroke="black" d="M388.026,-716.77C401.165,-688.566 427.343,-632.371 442.793,-599.205"/>
<polygon fill="black" stroke="black" points="445.981,-600.649 447.031,-590.106 439.636,-597.693 445.981,-600.649"/>
</g>
<!-- assemble -->
<g id="node10" class="node"><title>assemble</title>
<polygon fill="lightcyan" stroke="black" points="385.25,-590 318.75,-590 318.75,-554 385.25,-554 385.25,-590"/>
<text text-anchor="middle" x="352" y="-568.3" font-family="Times,serif" font-size="14.00">assemble</text>
</g>
<!-- jar&#45;&gt;assemble -->
<g id="edge9" class="edge"><title>jar&#45;&gt;assemble</title>
<path fill="none" stroke="black" d="M377.004,-716.77C372.141,-688.808 362.493,-633.333 356.707,-600.064"/>
<polygon fill="black" stroke="black" points="360.137,-599.358 354.975,-590.106 353.24,-600.558 360.137,-599.358"/>
</g>
<!-- p2Entry -->
<g id="node35" class="node"><title>p2Entry</title>
<polygon fill="none" stroke="black" points="690,-681 630,-681 630,-645 690,-645 690,-681"/>
<text text-anchor="middle" x="660" y="-659.3" font-family="Times,serif" font-size="14.00">p2Entry</text>
</g>
<!-- jar&#45;&gt;p2Entry -->
<g id="edge43" class="edge"><title>jar&#45;&gt;p2Entry</title>
<path fill="none" stroke="red" d="M407.102,-727.225C456.689,-714.828 562.23,-688.443 620.06,-673.985"/>
<polygon fill="red" stroke="red" points="621.086,-677.336 629.938,-671.515 619.388,-670.545 621.086,-677.336"/>
</g>
<!-- testClasses -->
<g id="node7" class="node"><title>testClasses</title>
<polygon fill="lightcyan" stroke="black" points="173,-681 97,-681 97,-645 173,-645 173,-681"/>
<text text-anchor="middle" x="135" y="-659.3" font-family="Times,serif" font-size="14.00">testClasses</text>
</g>
<!-- compileTestJava&#45;&gt;testClasses -->
<g id="edge6" class="edge"><title>compileTestJava&#45;&gt;testClasses</title>
<path fill="none" stroke="black" d="M240.752,-716.876C221.939,-707.469 198.415,-695.708 178.334,-685.667"/>
<polygon fill="black" stroke="black" points="179.889,-682.531 169.38,-681.19 176.759,-688.792 179.889,-682.531"/>
</g>
<!-- processTestResources -->
<g id="node6" class="node"><title>processTestResources</title>
<polygon fill="lightcyan" stroke="black" points="203,-753 67,-753 67,-717 203,-717 203,-753"/>
<text text-anchor="middle" x="135" y="-731.3" font-family="Times,serif" font-size="14.00">processTestResources</text>
</g>
<!-- processTestResources&#45;&gt;testClasses -->
<g id="edge7" class="edge"><title>processTestResources&#45;&gt;testClasses</title>
<path fill="none" stroke="black" d="M135,-716.697C135,-708.983 135,-699.712 135,-691.112"/>
<polygon fill="black" stroke="black" points="138.5,-691.104 135,-681.104 131.5,-691.104 138.5,-691.104"/>
</g>
<!-- testClasses&#45;&gt;test -->
<g id="edge10" class="edge"><title>testClasses&#45;&gt;test</title>
<path fill="none" stroke="black" d="M118.804,-644.84C106.137,-631.419 88.3585,-612.582 74.184,-597.564"/>
<polygon fill="black" stroke="black" points="76.5555,-594.977 67.1463,-590.107 71.4648,-599.782 76.5555,-594.977"/>
</g>
<!-- check -->
<g id="node11" class="node"><title>check</title>
<polygon fill="cyan" stroke="black" points="237,-446 183,-446 183,-410 237,-410 237,-446"/>
<text text-anchor="middle" x="210" y="-424.3" font-family="Times,serif" font-size="14.00">check</text>
</g>
<!-- test&#45;&gt;check -->
<g id="edge13" class="edge"><title>test&#45;&gt;check</title>
<path fill="none" stroke="black" d="M49.6065,-553.818C48.0006,-529.127 46.7599,-485.327 57,-474 93.8478,-433.241 128.842,-476.434 179,-454 180.562,-453.301 182.112,-452.504 183.637,-451.634"/>
<polygon fill="black" stroke="black" points="185.652,-454.497 192.02,-446.03 181.761,-448.678 185.652,-454.497"/>
</g>
<!-- findbugsTest -->
<g id="node21" class="node"><title>findbugsTest</title>
<polygon fill="orange" stroke="black" points="156.25,-518 69.75,-518 69.75,-482 156.25,-482 156.25,-518"/>
<text text-anchor="middle" x="113" y="-496.3" font-family="Times,serif" font-size="14.00">findbugsTest</text>
</g>
<!-- test&#45;&gt;findbugsTest -->
<g id="edge30" class="edge"><title>test&#45;&gt;findbugsTest</title>
<path fill="none" stroke="black" d="M66.3258,-553.697C73.7588,-545.305 82.8233,-535.07 90.98,-525.861"/>
<polygon fill="black" stroke="black" points="93.8401,-527.911 97.8504,-518.104 88.6,-523.27 93.8401,-527.911"/>
</g>
<!-- jacocoTestReport -->
<g id="node27" class="node"><title>jacocoTestReport</title>
<polygon fill="orange" stroke="black" points="141,-374 29,-374 29,-338 141,-338 141,-374"/>
<text text-anchor="middle" x="85" y="-352.3" font-family="Times,serif" font-size="14.00">jacocoTestReport</text>
</g>
<!-- test&#45;&gt;jacocoTestReport -->
<g id="edge33" class="edge"><title>test&#45;&gt;jacocoTestReport</title>
<path fill="none" stroke="magenta" d="M48.1861,-553.959C46.9388,-545.566 45.6159,-535.28 45,-526 43.4694,-502.94 41.2105,-496.798 45,-474 50.3282,-441.944 63.341,-406.89 73.0875,-383.591"/>
<polygon fill="magenta" stroke="magenta" points="76.3175,-384.939 77.0327,-374.368 69.8816,-382.186 76.3175,-384.939"/>
</g>
<!-- assemble&#45;&gt;check -->
<g id="edge12" class="edge"><title>assemble&#45;&gt;check</title>
<path fill="none" stroke="black" d="M320.851,-553.823C310.243,-546.536 299.246,-537.131 292,-526 279.06,-506.122 293.648,-493.398 280,-474 271.437,-461.83 258.433,-452.168 245.948,-444.967"/>
<polygon fill="black" stroke="black" points="247.483,-441.818 237.019,-440.157 244.163,-447.981 247.483,-441.818"/>
</g>
<!-- release -->
<g id="node13" class="node"><title>release</title>
<polygon fill="cyan" stroke="black" points="379,-518 325,-518 325,-482 379,-482 379,-518"/>
<text text-anchor="middle" x="352" y="-496.3" font-family="Times,serif" font-size="14.00">release</text>
</g>
<!-- assemble&#45;&gt;release -->
<g id="edge22" class="edge"><title>assemble&#45;&gt;release</title>
<path fill="none" stroke="black" d="M352,-553.697C352,-545.983 352,-536.712 352,-528.112"/>
<polygon fill="black" stroke="black" points="355.5,-528.104 352,-518.104 348.5,-528.104 355.5,-528.104"/>
</g>
<!-- exportX -->
<g id="node15" class="node"><title>exportX</title>
<polygon fill="cyan" stroke="black" points="543.25,-518 446.75,-518 442.75,-514 442.75,-482 539.25,-482 543.25,-486 543.25,-518"/>
<polyline fill="none" stroke="black" points="539.25,-514 442.75,-514 "/>
<polyline fill="none" stroke="black" points="539.25,-514 539.25,-482 "/>
<polyline fill="none" stroke="black" points="539.25,-514 543.25,-518 "/>
<text text-anchor="middle" x="493" y="-496.3" font-family="Times,serif" font-size="14.00">export.&lt;name&gt;</text>
</g>
<!-- assemble&#45;&gt;exportX -->
<g id="edge23" class="edge"><title>assemble&#45;&gt;exportX</title>
<path fill="none" stroke="black" d="M380.467,-553.936C385.275,-551.203 390.248,-548.465 395,-546 410.837,-537.784 428.464,-529.449 444.352,-522.223"/>
<polygon fill="black" stroke="black" points="445.804,-525.408 453.48,-518.105 442.926,-519.027 445.804,-525.408"/>
</g>
<!-- build -->
<g id="node17" class="node"><title>build</title>
<polygon fill="lightcyan" stroke="black" points="449,-374 395,-374 395,-338 449,-338 449,-374"/>
<text text-anchor="middle" x="422" y="-352.3" font-family="Times,serif" font-size="14.00">build</text>
</g>
<!-- assemble&#45;&gt;build -->
<g id="edge11" class="edge"><title>assemble&#45;&gt;build</title>
<path fill="none" stroke="black" d="M377.578,-553.898C383.129,-550.832 389.108,-547.986 395,-546 429.164,-534.484 532.13,-553.019 556,-526 574.244,-505.349 572.087,-424.372 556,-402 534.182,-371.658 490.904,-361.491 459.418,-358.233"/>
<polygon fill="black" stroke="black" points="459.499,-354.727 449.24,-357.374 458.91,-361.703 459.499,-354.727"/>
</g>
<!-- findbugsMain -->
<g id="node20" class="node"><title>findbugsMain</title>
<polygon fill="orange" stroke="black" points="267.25,-518 174.75,-518 174.75,-482 267.25,-482 267.25,-518"/>
<text text-anchor="middle" x="221" y="-496.3" font-family="Times,serif" font-size="14.00">findbugsMain</text>
</g>
<!-- assemble&#45;&gt;findbugsMain -->
<g id="edge29" class="edge"><title>assemble&#45;&gt;findbugsMain</title>
<path fill="none" stroke="black" d="M319.954,-553.876C302.508,-544.554 280.735,-532.919 262.057,-522.939"/>
<polygon fill="black" stroke="black" points="263.639,-519.816 253.169,-518.19 260.34,-525.99 263.639,-519.816"/>
</g>
<!-- checkNeeded -->
<g id="node12" class="node"><title>checkNeeded</title>
<polygon fill="cyan" stroke="black" points="254.25,-374 165.75,-374 165.75,-338 254.25,-338 254.25,-374"/>
<text text-anchor="middle" x="210" y="-352.3" font-family="Times,serif" font-size="14.00">checkNeeded</text>
</g>
<!-- check&#45;&gt;checkNeeded -->
<g id="edge14" class="edge"><title>check&#45;&gt;checkNeeded</title>
<path fill="none" stroke="black" d="M210,-409.697C210,-401.983 210,-392.712 210,-384.112"/>
<polygon fill="black" stroke="black" points="213.5,-384.104 210,-374.104 206.5,-384.104 213.5,-384.104"/>
</g>
<!-- check&#45;&gt;build -->
<g id="edge16" class="edge"><title>check&#45;&gt;build</title>
<path fill="none" stroke="black" d="M237.281,-417.992C274.967,-405.549 343.064,-383.064 385.215,-369.146"/>
<polygon fill="black" stroke="black" points="386.425,-372.432 394.823,-365.973 384.23,-365.785 386.425,-372.432"/>
</g>
<!-- check&#45;&gt;jacocoTestReport -->
<g id="edge34" class="edge"><title>check&#45;&gt;jacocoTestReport</title>
<path fill="none" stroke="magenta" d="M190.16,-409.889C186.552,-407.103 182.743,-404.36 179,-402 165.315,-393.371 149.723,-385.281 135.225,-378.405"/>
<polygon fill="magenta" stroke="magenta" points="136.43,-375.106 125.886,-374.068 133.482,-381.454 136.43,-375.106"/>
</g>
<!-- checkNeeded&#45;&gt;checkNeeded -->
<g id="edge15" class="edge"><title>checkNeeded&#45;&gt;checkNeeded</title>
<path fill="none" stroke="red" d="M254.306,-369.203C264.507,-368.065 272,-363.664 272,-356 272,-351.09 268.925,-347.52 264.032,-345.288"/>
<polygon fill="red" stroke="red" points="264.862,-341.888 254.306,-342.797 263.125,-348.669 264.862,-341.888"/>
</g>
<!-- releaseNeeded -->
<g id="node14" class="node"><title>releaseNeeded</title>
<polygon fill="cyan" stroke="black" points="399.25,-446 304.75,-446 304.75,-410 399.25,-410 399.25,-446"/>
<text text-anchor="middle" x="352" y="-424.3" font-family="Times,serif" font-size="14.00">releaseNeeded</text>
</g>
<!-- release&#45;&gt;releaseNeeded -->
<g id="edge25" class="edge"><title>release&#45;&gt;releaseNeeded</title>
<path fill="none" stroke="black" d="M352,-481.697C352,-473.983 352,-464.712 352,-456.112"/>
<polygon fill="black" stroke="black" points="355.5,-456.104 352,-446.104 348.5,-456.104 355.5,-456.104"/>
</g>
<!-- releaseNeeded&#45;&gt;releaseNeeded -->
<g id="edge26" class="edge"><title>releaseNeeded&#45;&gt;releaseNeeded</title>
<path fill="none" stroke="red" d="M399.326,-441.101C409.571,-439.82 417,-435.453 417,-428 417,-423.225 413.951,-419.717 409.066,-417.476"/>
<polygon fill="red" stroke="red" points="409.889,-414.073 399.326,-414.899 408.098,-420.84 409.889,-414.073"/>
</g>
<!-- export -->
<g id="node16" class="node"><title>export</title>
<polygon fill="cyan" stroke="black" points="520,-446 466,-446 466,-410 520,-410 520,-446"/>
<text text-anchor="middle" x="493" y="-424.3" font-family="Times,serif" font-size="14.00">export</text>
</g>
<!-- exportX&#45;&gt;export -->
<g id="edge24" class="edge"><title>exportX&#45;&gt;export</title>
<path fill="none" stroke="black" d="M493,-481.697C493,-473.983 493,-464.712 493,-456.112"/>
<polygon fill="black" stroke="black" points="496.5,-456.104 493,-446.104 489.5,-456.104 496.5,-456.104"/>
</g>
<!-- buildDependents -->
<g id="node18" class="node"><title>buildDependents</title>
<polygon fill="lightcyan" stroke="black" points="410,-302 302,-302 302,-266 410,-266 410,-302"/>
<text text-anchor="middle" x="356" y="-280.3" font-family="Times,serif" font-size="14.00">buildDependents</text>
</g>
<!-- build&#45;&gt;buildDependents -->
<g id="edge17" class="edge"><title>build&#45;&gt;buildDependents</title>
<path fill="none" stroke="black" d="M405.685,-337.697C397.693,-329.22 387.928,-318.864 379.178,-309.583"/>
<polygon fill="black" stroke="black" points="381.534,-306.979 372.127,-302.104 376.441,-311.781 381.534,-306.979"/>
</g>
<!-- buildNeeded -->
<g id="node19" class="node"><title>buildNeeded</title>
<polygon fill="lightcyan" stroke="black" points="532,-302 446,-302 446,-266 532,-266 532,-302"/>
<text text-anchor="middle" x="489" y="-280.3" font-family="Times,serif" font-size="14.00">buildNeeded</text>
</g>
<!-- build&#45;&gt;buildNeeded -->
<g id="edge19" class="edge"><title>build&#45;&gt;buildNeeded</title>
<path fill="none" stroke="black" d="M438.562,-337.697C446.675,-329.22 456.588,-318.864 465.471,-309.583"/>
<polygon fill="black" stroke="black" points="468.243,-311.749 472.629,-302.104 463.186,-306.908 468.243,-311.749"/>
</g>
<!-- buildDependents&#45;&gt;buildDependents -->
<g id="edge18" class="edge"><title>buildDependents&#45;&gt;buildDependents</title>
<path fill="none" stroke="yellow" d="M410.007,-296.899C420.529,-295.401 428,-291.102 428,-284 428,-279.451 424.934,-276.051 419.964,-273.801"/>
<polygon fill="yellow" stroke="yellow" points="420.575,-270.341 410.007,-271.101 418.742,-277.097 420.575,-270.341"/>
</g>
<!-- buildNeeded&#45;&gt;buildNeeded -->
<g id="edge20" class="edge"><title>buildNeeded&#45;&gt;buildNeeded</title>
<path fill="none" stroke="red" d="M532.036,-297.262C542.355,-296.225 550,-291.805 550,-284 550,-279 546.862,-275.389 541.894,-273.167"/>
<polygon fill="red" stroke="red" points="542.583,-269.732 532.036,-270.738 540.909,-276.529 542.583,-269.732"/>
</g>
<!-- findbugsMain&#45;&gt;check -->
<g id="edge31" class="edge"><title>findbugsMain&#45;&gt;check</title>
<path fill="none" stroke="green" d="M218.281,-481.697C217.069,-473.983 215.612,-464.712 214.261,-456.112"/>
<polygon fill="green" stroke="green" points="217.698,-455.44 212.688,-446.104 210.783,-456.526 217.698,-455.44"/>
</g>
<!-- findbugsTest&#45;&gt;check -->
<g id="edge32" class="edge"><title>findbugsTest&#45;&gt;check</title>
<path fill="none" stroke="green" d="M139.037,-481.948C151.32,-473.727 166.083,-463.588 179,-454 179.729,-453.459 180.464,-452.908 181.204,-452.349"/>
<polygon fill="green" stroke="green" points="183.409,-455.068 189.168,-446.176 179.12,-449.536 183.409,-455.068"/>
</g>
<!-- javadoc -->
<g id="node22" class="node"><title>javadoc</title>
<polygon fill="orange" stroke="black" points="491.25,-916 432.75,-916 432.75,-880 491.25,-880 491.25,-916"/>
<text text-anchor="middle" x="462" y="-894.3" font-family="Times,serif" font-size="14.00">javadoc</text>
</g>
<!-- clean -->
<g id="node23" class="node"><title>clean</title>
<polygon fill="cyan" stroke="black" points="564,-916 510,-916 510,-880 564,-880 564,-916"/>
<text text-anchor="middle" x="537" y="-894.3" font-family="Times,serif" font-size="14.00">clean</text>
</g>
<!-- cleanNeeded -->
<g id="node24" class="node"><title>cleanNeeded</title>
<polygon fill="cyan" stroke="black" points="546,-825 460,-825 460,-789 546,-789 546,-825"/>
<text text-anchor="middle" x="503" y="-803.3" font-family="Times,serif" font-size="14.00">cleanNeeded</text>
</g>
<!-- clean&#45;&gt;cleanNeeded -->
<g id="edge27" class="edge"><title>clean&#45;&gt;cleanNeeded</title>
<path fill="none" stroke="black" d="M530.444,-879.84C525.553,-867.035 518.777,-849.299 513.182,-834.654"/>
<polygon fill="black" stroke="black" points="516.374,-833.2 509.535,-825.107 509.835,-835.698 516.374,-833.2"/>
</g>
<!-- cleanAll -->
<g id="node29" class="node"><title>cleanAll</title>
<polygon fill="orange" stroke="black" points="962,-825 908,-825 908,-789 962,-789 962,-825"/>
<text text-anchor="middle" x="935" y="-803.3" font-family="Times,serif" font-size="14.00">clean</text>
</g>
<!-- clean&#45;&gt;cleanAll -->
<g id="edge35" class="edge"><title>clean&#45;&gt;cleanAll</title>
<path fill="none" stroke="blue" d="M564.043,-890.953C633.532,-875.414 818.432,-834.067 897.877,-816.301"/>
<polygon fill="blue" stroke="blue" points="898.924,-819.654 907.92,-814.056 897.397,-812.822 898.924,-819.654"/>
</g>
<!-- cleanNeeded&#45;&gt;cleanNeeded -->
<g id="edge28" class="edge"><title>cleanNeeded&#45;&gt;cleanNeeded</title>
<path fill="none" stroke="red" d="M546.036,-820.262C556.355,-819.225 564,-814.805 564,-807 564,-802 560.862,-798.389 555.894,-796.167"/>
<polygon fill="red" stroke="red" points="556.583,-792.732 546.036,-793.738 554.909,-799.529 556.583,-792.732"/>
</g>
<!-- cleanAllNeeded -->
<g id="node30" class="node"><title>cleanAllNeeded</title>
<polygon fill="orange" stroke="black" points="978,-753 892,-753 892,-717 978,-717 978,-753"/>
<text text-anchor="middle" x="935" y="-731.3" font-family="Times,serif" font-size="14.00">cleanNeeded</text>
</g>
<!-- cleanNeeded&#45;&gt;cleanAllNeeded -->
<g id="edge36" class="edge"><title>cleanNeeded&#45;&gt;cleanAllNeeded</title>
<path fill="none" stroke="blue" d="M546.001,-799.032C625.55,-786.142 795.444,-758.613 881.977,-744.592"/>
<polygon fill="blue" stroke="blue" points="882.541,-748.046 891.853,-742.991 881.422,-741.136 882.541,-748.046"/>
</g>
<!-- echo -->
<g id="node25" class="node"><title>echo</title>
<polygon fill="cyan" stroke="black" points="180,-916 126,-916 126,-880 180,-880 180,-916"/>
<text text-anchor="middle" x="153" y="-894.3" font-family="Times,serif" font-size="14.00">echo</text>
</g>
<!-- bndproperties -->
<g id="node26" class="node"><title>bndproperties</title>
<polygon fill="cyan" stroke="black" points="107.25,-916 16.75,-916 16.75,-880 107.25,-880 107.25,-916"/>
<text text-anchor="middle" x="62" y="-894.3" font-family="Times,serif" font-size="14.00">bndproperties</text>
</g>
<!-- index -->
<g id="node28" class="node"><title>index</title>
<polygon fill="orange" stroke="black" points="1158,-825 1104,-825 1104,-789 1158,-789 1158,-825"/>
<text text-anchor="middle" x="1131" y="-803.3" font-family="Times,serif" font-size="14.00">index</text>
</g>
<!-- cleanAll&#45;&gt;cleanAllNeeded -->
<g id="edge37" class="edge"><title>cleanAll&#45;&gt;cleanAllNeeded</title>
<path fill="none" stroke="black" d="M935,-788.697C935,-780.983 935,-771.712 935,-763.112"/>
<polygon fill="black" stroke="black" points="938.5,-763.104 935,-753.104 931.5,-763.104 938.5,-763.104"/>
</g>
<!-- distclean -->
<g id="node31" class="node"><title>distclean</title>
<polygon fill="orange" stroke="black" points="1079.25,-753 1014.75,-753 1014.75,-717 1079.25,-717 1079.25,-753"/>
<text text-anchor="middle" x="1047" y="-731.3" font-family="Times,serif" font-size="14.00">distclean</text>
</g>
<!-- cleanAll&#45;&gt;distclean -->
<g id="edge38" class="edge"><title>cleanAll&#45;&gt;distclean</title>
<path fill="none" stroke="black" d="M962.112,-789.055C976.861,-779.837 995.29,-768.319 1011.21,-758.371"/>
<polygon fill="black" stroke="black" points="1013.12,-761.3 1019.75,-753.032 1009.41,-755.364 1013.12,-761.3"/>
</g>
<!-- cleanAllNeeded&#45;&gt;cleanAllNeeded -->
<g id="edge39" class="edge"><title>cleanAllNeeded&#45;&gt;cleanAllNeeded</title>
<path fill="none" stroke="red" d="M978.036,-748.262C988.355,-747.225 996,-742.805 996,-735 996,-730 992.862,-726.389 987.894,-724.167"/>
<polygon fill="red" stroke="red" points="988.583,-720.732 978.036,-721.738 986.909,-727.529 988.583,-720.732"/>
</g>
<!-- distcleanNeeded -->
<g id="node32" class="node"><title>distcleanNeeded</title>
<polygon fill="orange" stroke="black" points="1030,-681 924,-681 924,-645 1030,-645 1030,-681"/>
<text text-anchor="middle" x="977" y="-659.3" font-family="Times,serif" font-size="14.00">distcleanNeeded</text>
</g>
<!-- cleanAllNeeded&#45;&gt;distcleanNeeded -->
<g id="edge40" class="edge"><title>cleanAllNeeded&#45;&gt;distcleanNeeded</title>
<path fill="none" stroke="black" d="M945.382,-716.697C950.265,-708.559 956.187,-698.689 961.579,-689.701"/>
<polygon fill="black" stroke="black" points="964.594,-691.48 966.737,-681.104 958.591,-687.879 964.594,-691.48"/>
</g>
<!-- distclean&#45;&gt;distcleanNeeded -->
<g id="edge41" class="edge"><title>distclean&#45;&gt;distcleanNeeded</title>
<path fill="none" stroke="black" d="M1029.7,-716.697C1021.14,-708.135 1010.66,-697.656 1001.3,-688.304"/>
<polygon fill="black" stroke="black" points="1003.65,-685.701 994.104,-681.104 998.701,-690.65 1003.65,-685.701"/>
</g>
<!-- distcleanNeeded&#45;&gt;distcleanNeeded -->
<g id="edge42" class="edge"><title>distcleanNeeded&#45;&gt;distcleanNeeded</title>
<path fill="none" stroke="red" d="M1030.26,-675.899C1040.63,-674.401 1048,-670.102 1048,-663 1048,-658.451 1044.98,-655.051 1040.08,-652.801"/>
<polygon fill="red" stroke="red" points="1040.83,-649.378 1030.26,-650.101 1038.97,-656.128 1040.83,-649.378"/>
</g>
<!-- init -->
<g id="node33" class="node"><title>init</title>
<polygon fill="lightcyan" stroke="black" points="944,-916 890,-916 890,-880 944,-880 944,-916"/>
<text text-anchor="middle" x="917" y="-894.3" font-family="Times,serif" font-size="14.00">init</text>
</g>
<!-- wrapper -->
<g id="node34" class="node"><title>wrapper</title>
<polygon fill="orange" stroke="black" points="871.25,-916 810.75,-916 810.75,-880 871.25,-880 871.25,-916"/>
<text text-anchor="middle" x="841" y="-894.3" font-family="Times,serif" font-size="14.00">wrapper</text>
</g>
<!-- p2FeaturesTree -->
<g id="node36" class="node"><title>p2FeaturesTree</title>
<polygon fill="none" stroke="black" points="710.25,-590 609.75,-590 609.75,-554 710.25,-554 710.25,-590"/>
<text text-anchor="middle" x="660" y="-568.3" font-family="Times,serif" font-size="14.00">p2FeaturesTree</text>
</g>
<!-- p2Entry&#45;&gt;p2FeaturesTree -->
<g id="edge44" class="edge"><title>p2Entry&#45;&gt;p2FeaturesTree</title>
<path fill="none" stroke="black" d="M660,-644.84C660,-632.281 660,-614.979 660,-600.502"/>
<polygon fill="black" stroke="black" points="663.5,-600.107 660,-590.107 656.5,-600.107 663.5,-600.107"/>
</g>
<!-- p2PluginsPelagic -->
<g id="node39" class="node"><title>p2PluginsPelagic</title>
<polygon fill="none" stroke="black" points="860,-518 750,-518 750,-482 860,-482 860,-518"/>
<text text-anchor="middle" x="805" y="-496.3" font-family="Times,serif" font-size="14.00">p2PluginsPelagic</text>
</g>
<!-- p2Entry&#45;&gt;p2PluginsPelagic -->
<g id="edge47" class="edge"><title>p2Entry&#45;&gt;p2PluginsPelagic</title>
<path fill="none" stroke="black" d="M675.867,-644.969C687.796,-632.121 704.507,-614.03 719,-598 741.021,-573.643 765.875,-545.543 783.18,-525.877"/>
<polygon fill="black" stroke="black" points="785.902,-528.082 789.876,-518.261 780.645,-523.461 785.902,-528.082"/>
</g>
<!-- p2FeatureGradlePlugin -->
<g id="node37" class="node"><title>p2FeatureGradlePlugin</title>
<polygon fill="none" stroke="black" points="731.25,-518 588.75,-518 588.75,-482 731.25,-482 731.25,-518"/>
<text text-anchor="middle" x="660" y="-496.3" font-family="Times,serif" font-size="14.00">p2FeatureGradlePlugin</text>
</g>
<!-- p2FeaturesTree&#45;&gt;p2FeatureGradlePlugin -->
<g id="edge45" class="edge"><title>p2FeaturesTree&#45;&gt;p2FeatureGradlePlugin</title>
<path fill="none" stroke="black" d="M660,-553.697C660,-545.983 660,-536.712 660,-528.112"/>
<polygon fill="black" stroke="black" points="663.5,-528.104 660,-518.104 656.5,-528.104 663.5,-528.104"/>
</g>
<!-- p2Features -->
<g id="node38" class="node"><title>p2Features</title>
<polygon fill="none" stroke="black" points="711,-446 635,-446 635,-410 711,-410 711,-446"/>
<text text-anchor="middle" x="673" y="-424.3" font-family="Times,serif" font-size="14.00">p2Features</text>
</g>
<!-- p2FeatureGradlePlugin&#45;&gt;p2Features -->
<g id="edge46" class="edge"><title>p2FeatureGradlePlugin&#45;&gt;p2Features</title>
<path fill="none" stroke="black" d="M663.213,-481.697C664.646,-473.983 666.368,-464.712 667.965,-456.112"/>
<polygon fill="black" stroke="black" points="671.439,-456.575 669.823,-446.104 664.556,-455.297 671.439,-456.575"/>
</g>
<!-- p2 -->
<g id="node41" class="node"><title>p2</title>
<polygon fill="yellow" stroke="black" points="759,-374 705,-374 705,-338 759,-338 759,-374"/>
<text text-anchor="middle" x="732" y="-352.3" font-family="Times,serif" font-size="14.00">p2</text>
</g>
<!-- p2Features&#45;&gt;p2 -->
<g id="edge49" class="edge"><title>p2Features&#45;&gt;p2</title>
<path fill="none" stroke="black" d="M687.584,-409.697C694.658,-401.305 703.283,-391.07 711.045,-381.861"/>
<polygon fill="black" stroke="black" points="713.815,-384.006 717.583,-374.104 708.463,-379.495 713.815,-384.006"/>
</g>
<!-- p2Plugins -->
<g id="node40" class="node"><title>p2Plugins</title>
<polygon fill="none" stroke="black" points="826.25,-446 755.75,-446 755.75,-410 826.25,-410 826.25,-446"/>
<text text-anchor="middle" x="791" y="-424.3" font-family="Times,serif" font-size="14.00">p2Plugins</text>
</g>
<!-- p2PluginsPelagic&#45;&gt;p2Plugins -->
<g id="edge48" class="edge"><title>p2PluginsPelagic&#45;&gt;p2Plugins</title>
<path fill="none" stroke="black" d="M801.539,-481.697C799.997,-473.983 798.142,-464.712 796.422,-456.112"/>
<polygon fill="black" stroke="black" points="799.814,-455.224 794.421,-446.104 792.95,-456.597 799.814,-455.224"/>
</g>
<!-- p2Plugins&#45;&gt;p2 -->
<g id="edge50" class="edge"><title>p2Plugins&#45;&gt;p2</title>
<path fill="none" stroke="black" d="M776.416,-409.697C769.342,-401.305 760.717,-391.07 752.955,-381.861"/>
<polygon fill="black" stroke="black" points="755.537,-379.495 746.417,-374.104 750.185,-384.006 755.537,-379.495"/>
</g>
<!-- indexBuild -->
<g id="node42" class="node"><title>indexBuild</title>
<polygon fill="yellow" stroke="black" points="759,-302 705,-302 705,-266 759,-266 759,-302"/>
<text text-anchor="middle" x="732" y="-280.3" font-family="Times,serif" font-size="14.00">index</text>
</g>
<!-- p2&#45;&gt;indexBuild -->
<g id="edge51" class="edge"><title>p2&#45;&gt;indexBuild</title>
<path fill="none" stroke="black" d="M732,-337.697C732,-329.983 732,-320.712 732,-312.112"/>
<polygon fill="black" stroke="black" points="735.5,-312.104 732,-302.104 728.5,-312.104 735.5,-312.104"/>
</g>
<!-- distCompositePelagic -->
<g id="node43" class="node"><title>distCompositePelagic</title>
<polygon fill="none" stroke="black" points="799.25,-219 664.75,-219 664.75,-183 799.25,-183 799.25,-219"/>
<text text-anchor="middle" x="732" y="-197.3" font-family="Times,serif" font-size="14.00">distCompositePelagic</text>
</g>
<!-- indexBuild&#45;&gt;distCompositePelagic -->
<g id="edge52" class="edge"><title>indexBuild&#45;&gt;distCompositePelagic</title>
<path fill="none" stroke="black" d="M732,-265.822C732,-255.19 732,-241.306 732,-229.204"/>
<polygon fill="black" stroke="black" points="735.5,-229.153 732,-219.153 728.5,-229.153 735.5,-229.153"/>
</g>
<!-- distZipPelagic -->
<g id="node44" class="node"><title>distZipPelagic</title>
<polygon fill="none" stroke="black" points="779.25,-147 684.75,-147 684.75,-111 779.25,-111 779.25,-147"/>
<text text-anchor="middle" x="732" y="-125.3" font-family="Times,serif" font-size="14.00">distZipPelagic</text>
</g>
<!-- distCompositePelagic&#45;&gt;distZipPelagic -->
<g id="edge53" class="edge"><title>distCompositePelagic&#45;&gt;distZipPelagic</title>
<path fill="none" stroke="black" d="M732,-182.697C732,-174.983 732,-165.712 732,-157.112"/>
<polygon fill="black" stroke="black" points="735.5,-157.104 732,-147.104 728.5,-157.104 735.5,-157.104"/>
</g>
<!-- dist -->
<g id="node45" class="node"><title>dist</title>
<polygon fill="yellow" stroke="black" points="759,-75 705,-75 705,-39 759,-39 759,-75"/>
<text text-anchor="middle" x="732" y="-53.3" font-family="Times,serif" font-size="14.00">dist</text>
</g>
<!-- distZipPelagic&#45;&gt;dist -->
<g id="edge54" class="edge"><title>distZipPelagic&#45;&gt;dist</title>
<path fill="none" stroke="black" d="M732,-110.697C732,-102.983 732,-93.7125 732,-85.1124"/>
<polygon fill="black" stroke="black" points="735.5,-85.1043 732,-75.1043 728.5,-85.1044 735.5,-85.1043"/>
</g>
</g>
</svg>
