<?xml version="1.0" encoding="UTF-8" standalone="no"?>
<!DOCTYPE svg PUBLIC "-//W3C//DTD SVG 1.1//EN"
 "http://www.w3.org/Graphics/SVG/1.1/DTD/svg11.dtd">
<!-- Generated by graphviz version 2.34.0 (20140110.0949)
 -->
<!-- Title: GradleSetup Pages: 1 -->
<svg width="1956pt" height="1076pt"
 viewBox="0.00 0.00 1956.00 1076.00" xmlns="http://www.w3.org/2000/svg" xmlns:xlink="http://www.w3.org/1999/xlink">
<g id="graph0" class="graph" transform="scale(1 1) rotate(0) translate(4 1072)">
<title>GradleSetup</title>
<polygon fill="white" stroke="white" points="-4,4 -4,-1072 1952,-1072 1952,4 -4,4"/>
<text text-anchor="middle" x="61" y="-1052.8" font-family="Times,serif" font-size="14.00">Gradle Build Setup</text>
<g id="clust1" class="cluster"><title>cluster1</title>
<polygon fill="lightgrey" stroke="black" points="376,-443 376,-1037 979,-1037 979,-443 376,-443"/>
<text text-anchor="middle" x="416" y="-450.8" font-family="Times,serif" font-size="14.00">Java Plugin</text>
</g>
<g id="clust2" class="cluster"><title>cluster11</title>
</g>
<g id="clust3" class="cluster"><title>cluster12</title>
</g>
<g id="clust4" class="cluster"><title>cluster13</title>
</g>
<g id="clust5" class="cluster"><title>cluster2</title>
<polygon fill="lightgrey" stroke="black" points="987,-689 987,-902 1574,-902 1574,-689 987,-689"/>
<text text-anchor="middle" x="1030" y="-696.8" font-family="Times,serif" font-size="14.00">Bnd Projects</text>
</g>
<g id="clust6" class="cluster"><title>cluster21</title>
</g>
<g id="clust7" class="cluster"><title>cluster22</title>
</g>
<g id="clust8" class="cluster"><title>cluster23</title>
</g>
<g id="clust9" class="cluster"><title>cluster100</title>
<polygon fill="lightgrey" stroke="black" points="1440,-819 1440,-894 1566,-894 1566,-819 1440,-819"/>
<text text-anchor="middle" x="1502.5" y="-878.8" font-family="Times,serif" font-size="14.00">Class Cycle Checks</text>
</g>
<g id="clust10" class="cluster"><title>cluster3</title>
<polygon fill="lightgrey" stroke="black" points="1268,-954 1268,-1029 1353,-1029 1353,-954 1268,-954"/>
<text text-anchor="middle" x="1310.5" y="-961.8" font-family="Times,serif" font-size="14.00">Root Project</text>
</g>
<g id="clust11" class="cluster"><title>cluster4</title>
<polygon fill="lightgrey" stroke="black" points="8,-598 8,-780 368,-780 368,-598 8,-598"/>
<text text-anchor="middle" x="52" y="-605.8" font-family="Times,serif" font-size="14.00">Java Projects</text>
</g>
<g id="clust12" class="cluster"><title>cluster41</title>
</g>
<g id="clust13" class="cluster"><title>cluster42</title>
</g>
<g id="clust14" class="cluster"><title>cluster5</title>
<polygon fill="lightgrey" stroke="black" points="1642,-788 1642,-1037 1940,-1037 1940,-788 1642,-788"/>
<text text-anchor="middle" x="1682.5" y="-795.8" font-family="Times,serif" font-size="14.00">All Projects</text>
</g>
<g id="clust15" class="cluster"><title>cluster21</title>
</g>
<g id="clust16" class="cluster"><title>cluster22</title>
</g>
<g id="clust17" class="cluster"><title>cluster7</title>
<polygon fill="lightgrey" stroke="black" points="1367,-8 1367,-681 1659,-681 1659,-8 1367,-8"/>
<text text-anchor="middle" x="1411.5" y="-15.8" font-family="Times,serif" font-size="14.00">Build Project</text>
</g>
<!-- compileJava -->
<g id="node1" class="node"><title>compileJava</title>
<polygon fill="lightcyan" stroke="black" points="894.25,-1021 809.75,-1021 809.75,-985 894.25,-985 894.25,-1021"/>
<text text-anchor="middle" x="852" y="-999.3" font-family="Times,serif" font-size="14.00">compileJava</text>
</g>
<!-- classes -->
<g id="node3" class="node"><title>classes</title>
<polygon fill="lightcyan" stroke="black" points="879,-946 825,-946 825,-910 879,-910 879,-946"/>
<text text-anchor="middle" x="852" y="-924.3" font-family="Times,serif" font-size="14.00">classes</text>
</g>
<!-- compileJava&#45;&gt;classes -->
<g id="edge1" class="edge"><title>compileJava&#45;&gt;classes</title>
<path fill="none" stroke="black" d="M852,-984.7C852,-976.245 852,-965.869 852,-956.373"/>
<polygon fill="black" stroke="black" points="855.5,-956.176 852,-946.176 848.5,-956.176 855.5,-956.176"/>
</g>
<!-- processResources -->
<g id="node2" class="node"><title>processResources</title>
<polygon fill="lightcyan" stroke="black" points="791.25,-1021 678.75,-1021 678.75,-985 791.25,-985 791.25,-1021"/>
<text text-anchor="middle" x="735" y="-999.3" font-family="Times,serif" font-size="14.00">processResources</text>
</g>
<!-- processResources&#45;&gt;classes -->
<g id="edge2" class="edge"><title>processResources&#45;&gt;classes</title>
<path fill="none" stroke="black" d="M755.964,-984.948C768.368,-975.264 784.618,-963.264 800,-954 804.88,-951.061 810.159,-948.193 815.418,-945.511"/>
<polygon fill="black" stroke="black" points="817.345,-948.464 824.772,-940.908 814.254,-942.183 817.345,-948.464"/>
</g>
<!-- jar -->
<g id="node4" class="node"><title>jar</title>
<polygon fill="lightcyan" stroke="black" points="886,-863 832,-863 832,-827 886,-827 886,-863"/>
<text text-anchor="middle" x="859" y="-841.3" font-family="Times,serif" font-size="14.00">jar</text>
</g>
<!-- classes&#45;&gt;jar -->
<g id="edge6" class="edge"><title>classes&#45;&gt;jar</title>
<path fill="none" stroke="black" d="M853.485,-909.822C854.403,-899.19 855.603,-885.306 856.649,-873.204"/>
<polygon fill="black" stroke="black" points="860.144,-873.417 857.518,-863.153 853.17,-872.815 860.144,-873.417"/>
</g>
<!-- compileTestJava -->
<g id="node5" class="node"><title>compileTestJava</title>
<polygon fill="lightcyan" stroke="black" points="654,-863 546,-863 546,-827 654,-827 654,-863"/>
<text text-anchor="middle" x="600" y="-841.3" font-family="Times,serif" font-size="14.00">compileTestJava</text>
</g>
<!-- classes&#45;&gt;compileTestJava -->
<g id="edge5" class="edge"><title>classes&#45;&gt;compileTestJava</title>
<path fill="none" stroke="black" d="M824.813,-925.229C780.251,-922.015 693.834,-914.383 666,-902 649.557,-894.684 634.053,-881.957 622.21,-870.483"/>
<polygon fill="black" stroke="black" points="624.508,-867.83 614.982,-863.193 619.537,-872.758 624.508,-867.83"/>
</g>
<!-- test -->
<g id="node8" class="node"><title>test</title>
<polygon fill="lightcyan" stroke="black" points="585,-673 531,-673 531,-637 585,-637 585,-673"/>
<text text-anchor="middle" x="558" y="-651.3" font-family="Times,serif" font-size="14.00">test</text>
</g>
<!-- classes&#45;&gt;test -->
<g id="edge4" class="edge"><title>classes&#45;&gt;test</title>
<path fill="none" stroke="black" d="M831.948,-909.882C828.933,-907.26 825.873,-904.571 823,-902 733.701,-822.109 630.246,-724.595 583.387,-680.151"/>
<polygon fill="black" stroke="black" points="585.762,-677.579 576.1,-673.234 580.943,-682.656 585.762,-677.579"/>
</g>
<!-- javadoc -->
<g id="node14" class="node"><title>javadoc</title>
<polygon fill="lightcyan" stroke="black" points="970.25,-863 911.75,-863 911.75,-827 970.25,-827 970.25,-863"/>
<text text-anchor="middle" x="941" y="-841.3" font-family="Times,serif" font-size="14.00">javadoc</text>
</g>
<!-- classes&#45;&gt;javadoc -->
<g id="edge3" class="edge"><title>classes&#45;&gt;javadoc</title>
<path fill="none" stroke="black" d="M879.077,-918.454C888.642,-914.513 898.998,-909.102 907,-902 916.248,-893.792 923.774,-882.455 929.371,-872.128"/>
<polygon fill="black" stroke="black" points="932.574,-873.55 933.964,-863.047 926.328,-870.391 932.574,-873.55"/>
</g>
<!-- bundle -->
<g id="node16" class="node"><title>bundle</title>
<polygon fill="cyan" stroke="black" points="1530,-764 1476,-764 1476,-728 1530,-728 1530,-764"/>
<text text-anchor="middle" x="1503" y="-742.3" font-family="Times,serif" font-size="14.00">bundle</text>
</g>
<!-- classes&#45;&gt;bundle -->
<g id="edge20" class="edge"><title>classes&#45;&gt;bundle</title>
<path fill="none" stroke="black" d="M879.106,-927.097C1007.07,-927.424 1545.58,-927.289 1570,-902 1605.2,-865.555 1594.77,-832.199 1570,-788 1563.2,-775.866 1551.18,-766.892 1539.18,-760.487"/>
<polygon fill="black" stroke="black" points="1540.62,-757.296 1530.1,-756.08 1537.57,-763.594 1540.62,-757.296"/>
</g>
<!-- checkClassCycle -->
<g id="node23" class="node"><title>checkClassCycle</title>
<polygon fill="cyan" stroke="black" points="1557.25,-863 1448.75,-863 1448.75,-827 1557.25,-827 1557.25,-863"/>
<text text-anchor="middle" x="1503" y="-841.3" font-family="Times,serif" font-size="14.00">checkClassCycle</text>
</g>
<!-- classes&#45;&gt;checkClassCycle -->
<g id="edge18" class="edge"><title>classes&#45;&gt;checkClassCycle</title>
<path fill="none" stroke="black" d="M879.198,-926.859C987.373,-926.159 1383.77,-922.226 1436,-902 1453.16,-895.353 1469.12,-882.416 1481.15,-870.65"/>
<polygon fill="black" stroke="black" points="1483.97,-872.763 1488.46,-863.165 1478.97,-867.872 1483.97,-872.763"/>
</g>
<!-- findbugsMain -->
<g id="node28" class="node"><title>findbugsMain</title>
<polygon fill="cyan" stroke="black" points="117.25,-764 24.75,-764 24.75,-728 117.25,-728 117.25,-764"/>
<text text-anchor="middle" x="71" y="-742.3" font-family="Times,serif" font-size="14.00">findbugsMain</text>
</g>
<!-- classes&#45;&gt;findbugsMain -->
<g id="edge29" class="edge"><title>classes&#45;&gt;findbugsMain</title>
<path fill="none" stroke="black" d="M824.918,-926.98C737.72,-926.694 464.998,-924.017 380,-902 272.681,-874.201 159.358,-805.82 104.569,-769.895"/>
<polygon fill="black" stroke="black" points="106.246,-766.807 95.9744,-764.209 102.384,-772.645 106.246,-766.807"/>
</g>
<!-- uploadArchives -->
<g id="node11" class="node"><title>uploadArchives</title>
<polygon fill="lightcyan" stroke="black" points="842,-764 740,-764 740,-728 842,-728 842,-764"/>
<text text-anchor="middle" x="791" y="-742.3" font-family="Times,serif" font-size="14.00">uploadArchives</text>
</g>
<!-- jar&#45;&gt;uploadArchives -->
<g id="edge9" class="edge"><title>jar&#45;&gt;uploadArchives</title>
<path fill="none" stroke="black" d="M846.843,-826.658C836.303,-811.623 820.906,-789.66 808.948,-772.602"/>
<polygon fill="black" stroke="black" points="811.658,-770.371 803.052,-764.192 805.926,-774.389 811.658,-770.371"/>
</g>
<!-- assemble -->
<g id="node12" class="node"><title>assemble</title>
<polygon fill="lightcyan" stroke="black" points="927.25,-764 860.75,-764 860.75,-728 927.25,-728 927.25,-764"/>
<text text-anchor="middle" x="894" y="-742.3" font-family="Times,serif" font-size="14.00">assemble</text>
</g>
<!-- jar&#45;&gt;assemble -->
<g id="edge10" class="edge"><title>jar&#45;&gt;assemble</title>
<path fill="none" stroke="black" d="M865.257,-826.658C870.533,-812.037 878.173,-790.864 884.25,-774.021"/>
<polygon fill="black" stroke="black" points="887.695,-774.786 887.797,-764.192 881.111,-772.41 887.695,-774.786"/>
</g>
<!-- testClasses -->
<g id="node7" class="node"><title>testClasses</title>
<polygon fill="lightcyan" stroke="black" points="563,-764 487,-764 487,-728 563,-728 563,-764"/>
<text text-anchor="middle" x="525" y="-742.3" font-family="Times,serif" font-size="14.00">testClasses</text>
</g>
<!-- compileTestJava&#45;&gt;testClasses -->
<g id="edge7" class="edge"><title>compileTestJava&#45;&gt;testClasses</title>
<path fill="none" stroke="black" d="M586.592,-826.658C574.86,-811.485 557.673,-789.257 544.433,-772.134"/>
<polygon fill="black" stroke="black" points="547.178,-769.962 538.292,-764.192 541.64,-774.243 547.178,-769.962"/>
</g>
<!-- processTestResources -->
<g id="node6" class="node"><title>processTestResources</title>
<polygon fill="lightcyan" stroke="black" points="528,-863 392,-863 392,-827 528,-827 528,-863"/>
<text text-anchor="middle" x="460" y="-841.3" font-family="Times,serif" font-size="14.00">processTestResources</text>
</g>
<!-- processTestResources&#45;&gt;testClasses -->
<g id="edge8" class="edge"><title>processTestResources&#45;&gt;testClasses</title>
<path fill="none" stroke="black" d="M471.621,-826.658C481.696,-811.623 496.413,-789.66 507.844,-772.602"/>
<polygon fill="black" stroke="black" points="510.821,-774.447 513.48,-764.192 505.006,-770.55 510.821,-774.447"/>
</g>
<!-- testClasses&#45;&gt;test -->
<g id="edge11" class="edge"><title>testClasses&#45;&gt;test</title>
<path fill="none" stroke="black" d="M531.363,-727.84C536.111,-715.035 542.687,-697.299 548.117,-682.654"/>
<polygon fill="black" stroke="black" points="551.462,-683.7 551.657,-673.107 544.898,-681.267 551.462,-683.7"/>
</g>
<!-- findbugsTest -->
<g id="node26" class="node"><title>findbugsTest</title>
<polygon fill="cyan" stroke="black" points="229.25,-764 142.75,-764 142.75,-728 229.25,-728 229.25,-764"/>
<text text-anchor="middle" x="186" y="-742.3" font-family="Times,serif" font-size="14.00">findbugsTest</text>
</g>
<!-- testClasses&#45;&gt;findbugsTest -->
<g id="edge30" class="edge"><title>testClasses&#45;&gt;findbugsTest</title>
<path fill="none" stroke="black" d="M486.817,-757.588C454.265,-766.829 406.045,-779.019 363,-784 336.289,-787.091 268.303,-789.582 242,-784 231.656,-781.805 221.664,-776.457 213.054,-770.443"/>
<polygon fill="black" stroke="black" points="215.029,-767.548 204.944,-764.301 210.803,-773.129 215.029,-767.548"/>
</g>
<!-- check -->
<g id="node9" class="node"><title>check</title>
<polygon fill="cyan" stroke="black" points="585,-590 531,-590 531,-554 585,-554 585,-590"/>
<text text-anchor="middle" x="558" y="-568.3" font-family="Times,serif" font-size="14.00">check</text>
</g>
<!-- test&#45;&gt;check -->
<g id="edge14" class="edge"><title>test&#45;&gt;check</title>
<path fill="none" stroke="black" d="M558,-636.822C558,-626.19 558,-612.306 558,-600.204"/>
<polygon fill="black" stroke="black" points="561.5,-600.153 558,-590.153 554.5,-600.153 561.5,-600.153"/>
</g>
<!-- jacocoTestReport -->
<g id="node29" class="node"><title>jacocoTestReport</title>
<polygon fill="cyan" stroke="black" points="360,-764 248,-764 248,-728 360,-728 360,-764"/>
<text text-anchor="middle" x="304" y="-742.3" font-family="Times,serif" font-size="14.00">jacocoTestReport</text>
</g>
<!-- test&#45;&gt;jacocoTestReport -->
<g id="edge35" class="edge"><title>test&#45;&gt;jacocoTestReport</title>
<path fill="none" stroke="black" d="M530.972,-657.248C495.112,-659.732 430.461,-667.118 380,-689 361.774,-696.904 343.769,-709.877 329.862,-721.348"/>
<polygon fill="black" stroke="black" points="327.531,-718.736 322.177,-727.878 332.064,-724.07 327.531,-718.736"/>
</g>
<!-- checkNeeded -->
<g id="node10" class="node"><title>checkNeeded</title>
<polygon fill="cyan" stroke="black" points="602.25,-518 513.75,-518 513.75,-482 602.25,-482 602.25,-518"/>
<text text-anchor="middle" x="558" y="-496.3" font-family="Times,serif" font-size="14.00">checkNeeded</text>
</g>
<!-- check&#45;&gt;checkNeeded -->
<g id="edge15" class="edge"><title>check&#45;&gt;checkNeeded</title>
<path fill="none" stroke="black" d="M558,-553.697C558,-545.983 558,-536.712 558,-528.112"/>
<polygon fill="black" stroke="black" points="561.5,-528.104 558,-518.104 554.5,-528.104 561.5,-528.104"/>
</g>
<!-- build -->
<g id="node13" class="node"><title>build</title>
<polygon fill="lightcyan" stroke="black" points="773,-518 719,-518 719,-482 773,-482 773,-518"/>
<text text-anchor="middle" x="746" y="-496.3" font-family="Times,serif" font-size="14.00">build</text>
</g>
<!-- check&#45;&gt;build -->
<g id="edge17" class="edge"><title>check&#45;&gt;build</title>
<path fill="none" stroke="black" d="M585.253,-555.715C586.511,-555.118 587.763,-554.543 589,-554 628.934,-536.473 676.626,-521.119 708.885,-511.51"/>
<polygon fill="black" stroke="black" points="710.182,-514.777 718.787,-508.597 708.206,-508.062 710.182,-514.777"/>
</g>
<!-- checkNeeded&#45;&gt;checkNeeded -->
<g id="edge16" class="edge"><title>checkNeeded&#45;&gt;checkNeeded</title>
<path fill="none" stroke="red" d="M602.306,-513.203C612.507,-512.065 620,-507.664 620,-500 620,-495.09 616.925,-491.52 612.032,-489.288"/>
<polygon fill="red" stroke="red" points="612.862,-485.888 602.306,-486.797 611.125,-492.669 612.862,-485.888"/>
</g>
<!-- assemble&#45;&gt;check -->
<g id="edge13" class="edge"><title>assemble&#45;&gt;check</title>
<path fill="none" stroke="black" d="M885.888,-727.822C878.7,-714.719 866.878,-697.518 851,-689 828.231,-676.785 759.62,-688.842 735,-681 704.997,-671.443 633.339,-624.51 590.971,-595.749"/>
<polygon fill="black" stroke="black" points="592.889,-592.821 582.655,-590.082 588.947,-598.606 592.889,-592.821"/>
</g>
<!-- assemble&#45;&gt;build -->
<g id="edge12" class="edge"><title>assemble&#45;&gt;build</title>
<path fill="none" stroke="black" d="M883.593,-727.842C858.011,-685.667 791.938,-576.736 761.622,-526.756"/>
<polygon fill="black" stroke="black" points="764.574,-524.874 756.396,-518.139 758.589,-528.504 764.574,-524.874"/>
</g>
<!-- release -->
<g id="node17" class="node"><title>release</title>
<polygon fill="cyan" stroke="black" points="1374,-863 1320,-863 1320,-827 1374,-827 1374,-863"/>
<text text-anchor="middle" x="1347" y="-841.3" font-family="Times,serif" font-size="14.00">release</text>
</g>
<!-- assemble&#45;&gt;release -->
<g id="edge24" class="edge"><title>assemble&#45;&gt;release</title>
<path fill="none" stroke="black" d="M927.454,-761.176C945.851,-768.253 969.287,-776.116 991,-780 1024.59,-786.008 1267.11,-773.496 1298,-788 1311.79,-794.476 1323.27,-806.87 1331.65,-818.356"/>
<polygon fill="black" stroke="black" points="1328.91,-820.554 1337.44,-826.848 1334.7,-816.613 1328.91,-820.554"/>
</g>
<!-- exportX -->
<g id="node21" class="node"><title>exportX</title>
<polygon fill="cyan" stroke="black" points="1104.25,-863 1007.75,-863 1003.75,-859 1003.75,-827 1100.25,-827 1104.25,-831 1104.25,-863"/>
<polyline fill="none" stroke="black" points="1100.25,-859 1003.75,-859 "/>
<polyline fill="none" stroke="black" points="1100.25,-859 1100.25,-827 "/>
<polyline fill="none" stroke="black" points="1100.25,-859 1104.25,-863 "/>
<text text-anchor="middle" x="1054" y="-841.3" font-family="Times,serif" font-size="14.00">export.&lt;name&gt;</text>
</g>
<!-- assemble&#45;&gt;exportX -->
<g id="edge25" class="edge"><title>assemble&#45;&gt;exportX</title>
<path fill="none" stroke="black" d="M927.504,-760.207C944.606,-767.497 965.449,-777.245 983,-788 998.373,-797.42 1014.24,-809.658 1027.07,-820.29"/>
<polygon fill="black" stroke="black" points="1025.12,-823.227 1035.02,-826.999 1029.63,-817.876 1025.12,-823.227"/>
</g>
<!-- cleanJava -->
<g id="node15" class="node"><title>cleanJava</title>
<polygon fill="lightcyan" stroke="black" points="549,-1021 495,-1021 495,-985 549,-985 549,-1021"/>
<text text-anchor="middle" x="522" y="-999.3" font-family="Times,serif" font-size="14.00">clean</text>
</g>
<!-- bundle&#45;&gt;compileJava -->
<g id="edge21" class="edge"><title>bundle&#45;&gt;compileJava</title>
<path fill="none" stroke="red" d="M1530.19,-750.863C1552.1,-755.563 1581.54,-765.829 1596,-788 1623.67,-830.442 1629.36,-863.862 1596,-902 1584.52,-915.122 1072.24,-976.195 904.535,-995.873"/>
<polygon fill="red" stroke="red" points="903.987,-992.413 894.462,-997.054 904.802,-999.366 903.987,-992.413"/>
</g>
<!-- bundle&#45;&gt;jar -->
<g id="edge22" class="edge"><title>bundle&#45;&gt;jar</title>
<path fill="none" stroke="black" stroke-dasharray="5,2" d="M1475.69,-763.876C1463.93,-770.22 1449.74,-776.693 1436,-780 1406.51,-787.098 916.021,-772.405 890,-788 879.163,-794.495 871.837,-806.267 867.042,-817.347"/>
<polygon fill="black" stroke="black" points="863.746,-816.165 863.454,-826.756 870.287,-818.659 863.746,-816.165"/>
</g>
<!-- bundle&#45;&gt;test -->
<g id="edge23" class="edge"><title>bundle&#45;&gt;test</title>
<path fill="none" stroke="black" d="M1488.47,-727.806C1476.06,-714.508 1456.94,-697.048 1436,-689 1416.08,-681.345 759.763,-661.848 595.154,-657.069"/>
<polygon fill="black" stroke="black" points="595.132,-653.567 585.035,-656.776 594.929,-660.564 595.132,-653.567"/>
</g>
<!-- p2Entry -->
<g id="node35" class="node"><title>p2Entry</title>
<polygon fill="none" stroke="black" points="1533,-673 1473,-673 1473,-637 1533,-637 1533,-673"/>
<text text-anchor="middle" x="1503" y="-651.3" font-family="Times,serif" font-size="14.00">p2Entry</text>
</g>
<!-- bundle&#45;&gt;p2Entry -->
<g id="edge41" class="edge"><title>bundle&#45;&gt;p2Entry</title>
<path fill="none" stroke="red" d="M1503,-727.84C1503,-715.281 1503,-697.979 1503,-683.502"/>
<polygon fill="red" stroke="red" points="1506.5,-683.107 1503,-673.107 1499.5,-683.107 1506.5,-683.107"/>
</g>
<!-- releaseNeeded -->
<g id="node18" class="node"><title>releaseNeeded</title>
<polygon fill="cyan" stroke="black" points="1405.25,-764 1310.75,-764 1310.75,-728 1405.25,-728 1405.25,-764"/>
<text text-anchor="middle" x="1358" y="-742.3" font-family="Times,serif" font-size="14.00">releaseNeeded</text>
</g>
<!-- release&#45;&gt;releaseNeeded -->
<g id="edge27" class="edge"><title>release&#45;&gt;releaseNeeded</title>
<path fill="none" stroke="black" d="M1348.97,-826.658C1350.61,-812.175 1352.98,-791.263 1354.88,-774.499"/>
<polygon fill="black" stroke="black" points="1358.4,-774.522 1356.05,-764.192 1351.45,-773.733 1358.4,-774.522"/>
</g>
<!-- releaseNeeded&#45;&gt;releaseNeeded -->
<g id="edge28" class="edge"><title>releaseNeeded&#45;&gt;releaseNeeded</title>
<path fill="none" stroke="red" d="M1405.33,-762.376C1415.57,-760.775 1423,-755.316 1423,-746 1423,-740.032 1419.95,-735.647 1415.07,-732.844"/>
<polygon fill="red" stroke="red" points="1415.92,-729.44 1405.33,-729.624 1413.72,-736.086 1415.92,-729.44"/>
</g>
<!-- cleanBnd -->
<g id="node19" class="node"><title>cleanBnd</title>
<polygon fill="cyan" stroke="black" points="1286,-863 1232,-863 1232,-827 1286,-827 1286,-863"/>
<text text-anchor="middle" x="1259" y="-841.3" font-family="Times,serif" font-size="14.00">clean</text>
</g>
<!-- bndproperties -->
<g id="node20" class="node"><title>bndproperties</title>
<polygon fill="cyan" stroke="black" points="1213.25,-863 1122.75,-863 1122.75,-827 1213.25,-827 1213.25,-863"/>
<text text-anchor="middle" x="1168" y="-841.3" font-family="Times,serif" font-size="14.00">bndproperties</text>
</g>
<!-- export -->
<g id="node22" class="node"><title>export</title>
<polygon fill="cyan" stroke="black" points="1081,-764 1027,-764 1027,-728 1081,-728 1081,-764"/>
<text text-anchor="middle" x="1054" y="-742.3" font-family="Times,serif" font-size="14.00">export</text>
</g>
<!-- exportX&#45;&gt;export -->
<g id="edge26" class="edge"><title>exportX&#45;&gt;export</title>
<path fill="none" stroke="black" d="M1054,-826.658C1054,-812.175 1054,-791.263 1054,-774.499"/>
<polygon fill="black" stroke="black" points="1057.5,-774.191 1054,-764.192 1050.5,-774.192 1057.5,-774.191"/>
</g>
<!-- checkClassCycle&#45;&gt;bundle -->
<g id="edge19" class="edge"><title>checkClassCycle&#45;&gt;bundle</title>
<path fill="none" stroke="black" d="M1503,-826.658C1503,-812.175 1503,-791.263 1503,-774.499"/>
<polygon fill="black" stroke="black" points="1506.5,-774.191 1503,-764.192 1499.5,-774.192 1506.5,-774.191"/>
</g>
<!-- wrapper -->
<g id="node24" class="node"><title>wrapper</title>
<polygon fill="cyan" stroke="black" points="1340.25,-1021 1279.75,-1021 1279.75,-985 1340.25,-985 1340.25,-1021"/>
<text text-anchor="middle" x="1310" y="-999.3" font-family="Times,serif" font-size="14.00">wrapper</text>
</g>
<!-- findbugstest -->
<g id="node25" class="node"><title>findbugstest</title>
<polygon fill="cyan" stroke="black" points="228.25,-673 145.75,-673 145.75,-637 228.25,-637 228.25,-673"/>
<text text-anchor="middle" x="187" y="-651.3" font-family="Times,serif" font-size="14.00">findbugstest</text>
</g>
<!-- findbugstest&#45;&gt;check -->
<g id="edge34" class="edge"><title>findbugstest&#45;&gt;check</title>
<path fill="none" stroke="green" d="M228.352,-640.137C267.138,-627.582 326.951,-609.361 380,-598 428.186,-587.681 484.654,-580.58 520.852,-576.653"/>
<polygon fill="green" stroke="green" points="521.376,-580.117 530.951,-575.583 520.638,-573.156 521.376,-580.117"/>
</g>
<!-- findbugsTest&#45;&gt;findbugstest -->
<g id="edge32" class="edge"><title>findbugsTest&#45;&gt;findbugstest</title>
<path fill="none" stroke="black" d="M186.193,-727.84C186.334,-715.281 186.528,-697.979 186.691,-683.502"/>
<polygon fill="black" stroke="black" points="190.195,-683.146 186.808,-673.107 183.196,-683.067 190.195,-683.146"/>
</g>
<!-- findbugs -->
<g id="node27" class="node"><title>findbugs</title>
<polygon fill="cyan" stroke="black" points="110,-673 46,-673 46,-637 110,-637 110,-673"/>
<text text-anchor="middle" x="78" y="-651.3" font-family="Times,serif" font-size="14.00">findbugs</text>
</g>
<!-- findbugs&#45;&gt;check -->
<g id="edge33" class="edge"><title>findbugs&#45;&gt;check</title>
<path fill="none" stroke="green" d="M88.472,-636.978C97.6333,-623.779 112.238,-606.37 130,-598 164.837,-581.583 423.073,-575.371 520.733,-573.593"/>
<polygon fill="green" stroke="green" points="520.814,-577.093 530.75,-573.417 520.69,-570.094 520.814,-577.093"/>
</g>
<!-- findbugsMain&#45;&gt;findbugs -->
<g id="edge31" class="edge"><title>findbugsMain&#45;&gt;findbugs</title>
<path fill="none" stroke="black" d="M72.3497,-727.84C73.3471,-715.158 74.725,-697.64 75.8703,-683.077"/>
<polygon fill="black" stroke="black" points="79.3595,-683.351 76.6545,-673.107 72.3811,-682.802 79.3595,-683.351"/>
</g>
<!-- index -->
<g id="node30" class="node"><title>index</title>
<polygon fill="cyan" stroke="black" points="1924,-1021 1870,-1021 1870,-985 1924,-985 1924,-1021"/>
<text text-anchor="middle" x="1897" y="-999.3" font-family="Times,serif" font-size="14.00">index</text>
</g>
<!-- clean -->
<g id="node31" class="node"><title>clean</title>
<polygon fill="lightcyan" stroke="black" points="1784,-1021 1730,-1021 1730,-985 1784,-985 1784,-1021"/>
<text text-anchor="middle" x="1757" y="-999.3" font-family="Times,serif" font-size="14.00">clean</text>
</g>
<!-- cleanNeeded -->
<g id="node32" class="node"><title>cleanNeeded</title>
<polygon fill="cyan" stroke="black" points="1744,-946 1658,-946 1658,-910 1744,-910 1744,-946"/>
<text text-anchor="middle" x="1701" y="-924.3" font-family="Times,serif" font-size="14.00">cleanNeeded</text>
</g>
<!-- clean&#45;&gt;cleanNeeded -->
<g id="edge36" class="edge"><title>clean&#45;&gt;cleanNeeded</title>
<path fill="none" stroke="blue" d="M1743.73,-984.7C1736.75,-975.609 1728.08,-964.296 1720.37,-954.245"/>
<polygon fill="blue" stroke="blue" points="1723.04,-951.98 1714.18,-946.176 1717.49,-956.24 1723.04,-951.98"/>
</g>
<!-- distclean -->
<g id="node33" class="node"><title>distclean</title>
<polygon fill="cyan" stroke="black" points="1845.25,-946 1780.75,-946 1780.75,-910 1845.25,-910 1845.25,-946"/>
<text text-anchor="middle" x="1813" y="-924.3" font-family="Times,serif" font-size="14.00">distclean</text>
</g>
<!-- clean&#45;&gt;distclean -->
<g id="edge38" class="edge"><title>clean&#45;&gt;distclean</title>
<path fill="none" stroke="blue" d="M1770.27,-984.7C1777.25,-975.609 1785.92,-964.296 1793.63,-954.245"/>
<polygon fill="blue" stroke="blue" points="1796.51,-956.24 1799.82,-946.176 1790.96,-951.98 1796.51,-956.24"/>
</g>
<!-- cleanNeeded&#45;&gt;cleanNeeded -->
<g id="edge37" class="edge"><title>cleanNeeded&#45;&gt;cleanNeeded</title>
<path fill="none" stroke="red" d="M1744.04,-941.63C1754.35,-940.565 1762,-936.021 1762,-928 1762,-922.861 1758.86,-919.15 1753.89,-916.866"/>
<polygon fill="red" stroke="red" points="1754.59,-913.432 1744.04,-914.37 1752.87,-920.217 1754.59,-913.432"/>
</g>
<!-- distcleanNeeded -->
<g id="node34" class="node"><title>distcleanNeeded</title>
<polygon fill="cyan" stroke="black" points="1828,-863 1722,-863 1722,-827 1828,-827 1828,-863"/>
<text text-anchor="middle" x="1775" y="-841.3" font-family="Times,serif" font-size="14.00">distcleanNeeded</text>
</g>
<!-- distclean&#45;&gt;distcleanNeeded -->
<g id="edge39" class="edge"><title>distclean&#45;&gt;distcleanNeeded</title>
<path fill="none" stroke="black" d="M1804.94,-909.822C1799.85,-898.976 1793.18,-884.744 1787.42,-872.472"/>
<polygon fill="black" stroke="black" points="1790.46,-870.72 1783.05,-863.153 1784.13,-873.693 1790.46,-870.72"/>
</g>
<!-- distcleanNeeded&#45;&gt;distcleanNeeded -->
<g id="edge40" class="edge"><title>distcleanNeeded&#45;&gt;distcleanNeeded</title>
<path fill="none" stroke="red" d="M1828.26,-859.691C1838.63,-857.985 1846,-853.088 1846,-845 1846,-839.819 1842.98,-835.947 1838.08,-833.385"/>
<polygon fill="red" stroke="red" points="1838.85,-829.959 1828.26,-830.309 1836.75,-836.639 1838.85,-829.959"/>
</g>
<!-- p2FeaturesTree -->
<g id="node36" class="node"><title>p2FeaturesTree</title>
<polygon fill="none" stroke="black" points="1518.25,-590 1417.75,-590 1417.75,-554 1518.25,-554 1518.25,-590"/>
<text text-anchor="middle" x="1468" y="-568.3" font-family="Times,serif" font-size="14.00">p2FeaturesTree</text>
</g>
<!-- p2Entry&#45;&gt;p2FeaturesTree -->
<g id="edge42" class="edge"><title>p2Entry&#45;&gt;p2FeaturesTree</title>
<path fill="none" stroke="black" d="M1495.58,-636.822C1490.89,-625.976 1484.74,-611.744 1479.44,-599.472"/>
<polygon fill="black" stroke="black" points="1482.59,-597.945 1475.41,-590.153 1476.17,-600.721 1482.59,-597.945"/>
</g>
<!-- p2PelagicPlugins -->
<g id="node39" class="node"><title>p2PelagicPlugins</title>
<polygon fill="none" stroke="black" points="1651,-518 1541,-518 1541,-482 1651,-482 1651,-518"/>
<text text-anchor="middle" x="1596" y="-496.3" font-family="Times,serif" font-size="14.00">p2PelagicPlugins</text>
</g>
<!-- p2Entry&#45;&gt;p2PelagicPlugins -->
<g id="edge45" class="edge"><title>p2Entry&#45;&gt;p2PelagicPlugins</title>
<path fill="none" stroke="black" d="M1513.49,-636.746C1529.74,-610.002 1561.13,-558.364 1580.16,-527.058"/>
<polygon fill="black" stroke="black" points="1583.2,-528.789 1585.41,-518.425 1577.22,-525.153 1583.2,-528.789"/>
</g>
<!-- p2FeaturesGradlePlugin -->
<g id="node37" class="node"><title>p2FeaturesGradlePlugin</title>
<polygon fill="none" stroke="black" points="1523,-518 1375,-518 1375,-482 1523,-482 1523,-518"/>
<text text-anchor="middle" x="1449" y="-496.3" font-family="Times,serif" font-size="14.00">p2FeaturesGradlePlugin</text>
</g>
<!-- p2FeaturesTree&#45;&gt;p2FeaturesGradlePlugin -->
<g id="edge43" class="edge"><title>p2FeaturesTree&#45;&gt;p2FeaturesGradlePlugin</title>
<path fill="none" stroke="black" d="M1463.3,-553.697C1461.19,-545.898 1458.64,-536.509 1456.28,-527.829"/>
<polygon fill="black" stroke="black" points="1459.64,-526.838 1453.64,-518.104 1452.88,-528.672 1459.64,-526.838"/>
</g>
<!-- p2Features -->
<g id="node38" class="node"><title>p2Features</title>
<polygon fill="none" stroke="black" points="1501,-435 1425,-435 1425,-399 1501,-399 1501,-435"/>
<text text-anchor="middle" x="1463" y="-413.3" font-family="Times,serif" font-size="14.00">p2Features</text>
</g>
<!-- p2FeaturesGradlePlugin&#45;&gt;p2Features -->
<g id="edge44" class="edge"><title>p2FeaturesGradlePlugin&#45;&gt;p2Features</title>
<path fill="none" stroke="black" d="M1451.97,-481.822C1453.81,-471.19 1456.21,-457.306 1458.3,-445.204"/>
<polygon fill="black" stroke="black" points="1461.78,-445.603 1460.04,-435.153 1454.88,-444.411 1461.78,-445.603"/>
</g>
<!-- p2 -->
<g id="node41" class="node"><title>p2</title>
<polygon fill="cyan" stroke="black" points="1523,-363 1469,-363 1469,-327 1523,-327 1523,-363"/>
<text text-anchor="middle" x="1496" y="-341.3" font-family="Times,serif" font-size="14.00">p2</text>
</g>
<!-- p2Features&#45;&gt;p2 -->
<g id="edge47" class="edge"><title>p2Features&#45;&gt;p2</title>
<path fill="none" stroke="black" d="M1471.16,-398.697C1474.91,-390.728 1479.45,-381.1 1483.62,-372.264"/>
<polygon fill="black" stroke="black" points="1486.84,-373.642 1487.94,-363.104 1480.51,-370.657 1486.84,-373.642"/>
</g>
<!-- p2Plugins -->
<g id="node40" class="node"><title>p2Plugins</title>
<polygon fill="none" stroke="black" points="1617.25,-435 1546.75,-435 1546.75,-399 1617.25,-399 1617.25,-435"/>
<text text-anchor="middle" x="1582" y="-413.3" font-family="Times,serif" font-size="14.00">p2Plugins</text>
</g>
<!-- p2PelagicPlugins&#45;&gt;p2Plugins -->
<g id="edge46" class="edge"><title>p2PelagicPlugins&#45;&gt;p2Plugins</title>
<path fill="none" stroke="black" d="M1593.03,-481.822C1591.19,-471.19 1588.79,-457.306 1586.7,-445.204"/>
<polygon fill="black" stroke="black" points="1590.12,-444.411 1584.96,-435.153 1583.22,-445.603 1590.12,-444.411"/>
</g>
<!-- p2Plugins&#45;&gt;p2 -->
<g id="edge48" class="edge"><title>p2Plugins&#45;&gt;p2</title>
<path fill="none" stroke="black" d="M1560.74,-398.697C1549.91,-389.881 1536.58,-379.032 1524.84,-369.474"/>
<polygon fill="black" stroke="black" points="1526.98,-366.703 1517.01,-363.104 1522.56,-372.132 1526.98,-366.703"/>
</g>
<!-- indexBuild -->
<g id="node42" class="node"><title>indexBuild</title>
<polygon fill="cyan" stroke="black" points="1523,-291 1469,-291 1469,-255 1523,-255 1523,-291"/>
<text text-anchor="middle" x="1496" y="-269.3" font-family="Times,serif" font-size="14.00">index</text>
</g>
<!-- p2&#45;&gt;indexBuild -->
<g id="edge49" class="edge"><title>p2&#45;&gt;indexBuild</title>
<path fill="none" stroke="black" d="M1496,-326.697C1496,-318.983 1496,-309.712 1496,-301.112"/>
<polygon fill="black" stroke="black" points="1499.5,-301.104 1496,-291.104 1492.5,-301.104 1499.5,-301.104"/>
</g>
<!-- distCompositePlugins -->
<g id="node43" class="node"><title>distCompositePlugins</title>
<polygon fill="none" stroke="black" points="1537,-219 1401,-219 1401,-183 1537,-183 1537,-219"/>
<text text-anchor="middle" x="1469" y="-197.3" font-family="Times,serif" font-size="14.00">distCompositePlugins</text>
</g>
<!-- indexBuild&#45;&gt;distCompositePlugins -->
<g id="edge50" class="edge"><title>indexBuild&#45;&gt;distCompositePlugins</title>
<path fill="none" stroke="black" d="M1489.33,-254.697C1486.29,-246.813 1482.62,-237.304 1479.24,-228.546"/>
<polygon fill="black" stroke="black" points="1482.46,-227.175 1475.6,-219.104 1475.93,-229.694 1482.46,-227.175"/>
</g>
<!-- distZipPlugins -->
<g id="node44" class="node"><title>distZipPlugins</title>
<polygon fill="none" stroke="black" points="1559.25,-147 1464.75,-147 1464.75,-111 1559.25,-111 1559.25,-147"/>
<text text-anchor="middle" x="1512" y="-125.3" font-family="Times,serif" font-size="14.00">distZipPlugins</text>
</g>
<!-- indexBuild&#45;&gt;distZipPlugins -->
<g id="edge51" class="edge"><title>indexBuild&#45;&gt;distZipPlugins</title>
<path fill="none" stroke="black" d="M1518.6,-254.963C1529.06,-245.635 1540.4,-233.107 1546,-219 1551.91,-204.13 1550.5,-198.354 1546,-183 1543.2,-173.447 1538.09,-163.984 1532.67,-155.756"/>
<polygon fill="black" stroke="black" points="1535.38,-153.525 1526.75,-147.366 1529.65,-157.557 1535.38,-153.525"/>
</g>
<!-- distCompositePlugins&#45;&gt;distZipPlugins -->
<g id="edge52" class="edge"><title>distCompositePlugins&#45;&gt;distZipPlugins</title>
<path fill="none" stroke="black" d="M1479.63,-182.697C1484.63,-174.559 1490.69,-164.689 1496.21,-155.701"/>
<polygon fill="black" stroke="black" points="1499.24,-157.457 1501.49,-147.104 1493.28,-153.793 1499.24,-157.457"/>
</g>
<!-- dist -->
<g id="node45" class="node"><title>dist</title>
<polygon fill="cyan" stroke="black" points="1539,-75 1485,-75 1485,-39 1539,-39 1539,-75"/>
<text text-anchor="middle" x="1512" y="-53.3" font-family="Times,serif" font-size="14.00">dist</text>
</g>
<!-- distZipPlugins&#45;&gt;dist -->
<g id="edge53" class="edge"><title>distZipPlugins&#45;&gt;dist</title>
<path fill="none" stroke="black" d="M1512,-110.697C1512,-102.983 1512,-93.7125 1512,-85.1124"/>
<polygon fill="black" stroke="black" points="1515.5,-85.1043 1512,-75.1043 1508.5,-85.1044 1515.5,-85.1043"/>
</g>
</g>
</svg>
