<?xml version="1.0" encoding="UTF-8" standalone="no"?>
<!DOCTYPE svg PUBLIC "-//W3C//DTD SVG 1.1//EN"
 "http://www.w3.org/Graphics/SVG/1.1/DTD/svg11.dtd">
<!-- Generated by graphviz version 2.34.0 (20140110.0949)
 -->
<!-- Title: GradleSetup Pages: 1 -->
<svg width="1956pt" height="1049pt"
 viewBox="0.00 0.00 1956.00 1049.00" xmlns="http://www.w3.org/2000/svg" xmlns:xlink="http://www.w3.org/1999/xlink">
<g id="graph0" class="graph" transform="scale(1 1) rotate(0) translate(4 1045)">
<title>GradleSetup</title>
<polygon fill="white" stroke="white" points="-4,4 -4,-1045 1952,-1045 1952,4 -4,4"/>
<text text-anchor="middle" x="61" y="-1025.8" font-family="Times,serif" font-size="14.00">Gradle Build Setup</text>
<g id="clust1" class="cluster"><title>cluster1</title>
<polygon fill="lightgrey" stroke="black" points="376,-443 376,-1010 979,-1010 979,-443 376,-443"/>
<text text-anchor="middle" x="416" y="-450.8" font-family="Times,serif" font-size="14.00">Java Plugin</text>
</g>
<g id="clust2" class="cluster"><title>cluster11</title>
</g>
<g id="clust3" class="cluster"><title>cluster12</title>
</g>
<g id="clust4" class="cluster"><title>cluster13</title>
</g>
<g id="clust5" class="cluster"><title>cluster2</title>
<polygon fill="lightgrey" stroke="black" points="987,-590 987,-875 1574,-875 1574,-590 987,-590"/>
<text text-anchor="middle" x="1030" y="-597.8" font-family="Times,serif" font-size="14.00">Bnd Projects</text>
</g>
<g id="clust6" class="cluster"><title>cluster21</title>
</g>
<g id="clust7" class="cluster"><title>cluster22</title>
</g>
<g id="clust8" class="cluster"><title>cluster23</title>
</g>
<g id="clust9" class="cluster"><title>cluster100</title>
<polygon fill="lightgrey" stroke="black" points="1440,-792 1440,-867 1566,-867 1566,-792 1440,-792"/>
<text text-anchor="middle" x="1502.5" y="-851.8" font-family="Times,serif" font-size="14.00">Class Cycle Checks</text>
</g>
<g id="clust10" class="cluster"><title>cluster3</title>
<polygon fill="lightgrey" stroke="black" points="1268,-927 1268,-1002 1353,-1002 1353,-927 1268,-927"/>
<text text-anchor="middle" x="1310.5" y="-934.8" font-family="Times,serif" font-size="14.00">Root Project</text>
</g>
<g id="clust11" class="cluster"><title>cluster4</title>
<polygon fill="lightgrey" stroke="black" points="8,-590 8,-753 368,-753 368,-590 8,-590"/>
<text text-anchor="middle" x="52" y="-597.8" font-family="Times,serif" font-size="14.00">Java Projects</text>
</g>
<g id="clust12" class="cluster"><title>cluster41</title>
</g>
<g id="clust13" class="cluster"><title>cluster42</title>
</g>
<g id="clust14" class="cluster"><title>cluster5</title>
<polygon fill="lightgrey" stroke="black" points="1642,-761 1642,-1010 1940,-1010 1940,-761 1642,-761"/>
<text text-anchor="middle" x="1682.5" y="-768.8" font-family="Times,serif" font-size="14.00">All Projects</text>
</g>
<g id="clust15" class="cluster"><title>cluster21</title>
</g>
<g id="clust16" class="cluster"><title>cluster22</title>
</g>
<g id="clust17" class="cluster"><title>cluster7</title>
<polygon fill="lightgrey" stroke="black" points="1582,-8 1582,-673 1874,-673 1874,-8 1582,-8"/>
<text text-anchor="middle" x="1626.5" y="-15.8" font-family="Times,serif" font-size="14.00">Build Project</text>
</g>
<!-- compileJava -->
<g id="node1" class="node"><title>compileJava</title>
<polygon fill="lightcyan" stroke="black" points="894.25,-994 809.75,-994 809.75,-958 894.25,-958 894.25,-994"/>
<text text-anchor="middle" x="852" y="-972.3" font-family="Times,serif" font-size="14.00">compileJava</text>
</g>
<!-- classes -->
<g id="node3" class="node"><title>classes</title>
<polygon fill="lightcyan" stroke="black" points="879,-919 825,-919 825,-883 879,-883 879,-919"/>
<text text-anchor="middle" x="852" y="-897.3" font-family="Times,serif" font-size="14.00">classes</text>
</g>
<!-- compileJava&#45;&gt;classes -->
<g id="edge1" class="edge"><title>compileJava&#45;&gt;classes</title>
<path fill="none" stroke="black" d="M852,-957.7C852,-949.245 852,-938.869 852,-929.373"/>
<polygon fill="black" stroke="black" points="855.5,-929.176 852,-919.176 848.5,-929.176 855.5,-929.176"/>
</g>
<!-- processResources -->
<g id="node2" class="node"><title>processResources</title>
<polygon fill="lightcyan" stroke="black" points="791.25,-994 678.75,-994 678.75,-958 791.25,-958 791.25,-994"/>
<text text-anchor="middle" x="735" y="-972.3" font-family="Times,serif" font-size="14.00">processResources</text>
</g>
<!-- processResources&#45;&gt;classes -->
<g id="edge2" class="edge"><title>processResources&#45;&gt;classes</title>
<path fill="none" stroke="black" d="M755.964,-957.948C768.368,-948.264 784.618,-936.264 800,-927 804.88,-924.061 810.159,-921.193 815.418,-918.511"/>
<polygon fill="black" stroke="black" points="817.345,-921.464 824.772,-913.908 814.254,-915.183 817.345,-921.464"/>
</g>
<!-- jar -->
<g id="node4" class="node"><title>jar</title>
<polygon fill="lightcyan" stroke="black" points="886,-836 832,-836 832,-800 886,-800 886,-836"/>
<text text-anchor="middle" x="859" y="-814.3" font-family="Times,serif" font-size="14.00">jar</text>
</g>
<!-- classes&#45;&gt;jar -->
<g id="edge6" class="edge"><title>classes&#45;&gt;jar</title>
<path fill="none" stroke="black" d="M853.485,-882.822C854.403,-872.19 855.603,-858.306 856.649,-846.204"/>
<polygon fill="black" stroke="black" points="860.144,-846.417 857.518,-836.153 853.17,-845.815 860.144,-846.417"/>
</g>
<!-- compileTestJava -->
<g id="node5" class="node"><title>compileTestJava</title>
<polygon fill="lightcyan" stroke="black" points="654,-836 546,-836 546,-800 654,-800 654,-836"/>
<text text-anchor="middle" x="600" y="-814.3" font-family="Times,serif" font-size="14.00">compileTestJava</text>
</g>
<!-- classes&#45;&gt;compileTestJava -->
<g id="edge5" class="edge"><title>classes&#45;&gt;compileTestJava</title>
<path fill="none" stroke="black" d="M824.813,-898.229C780.251,-895.015 693.834,-887.383 666,-875 649.557,-867.684 634.053,-854.957 622.21,-843.483"/>
<polygon fill="black" stroke="black" points="624.508,-840.83 614.982,-836.193 619.537,-845.758 624.508,-840.83"/>
</g>
<!-- test -->
<g id="node8" class="node"><title>test</title>
<polygon fill="lightcyan" stroke="black" points="605,-665 551,-665 551,-629 605,-629 605,-665"/>
<text text-anchor="middle" x="578" y="-643.3" font-family="Times,serif" font-size="14.00">test</text>
</g>
<!-- classes&#45;&gt;test -->
<g id="edge4" class="edge"><title>classes&#45;&gt;test</title>
<path fill="none" stroke="black" d="M831.95,-882.879C828.935,-880.258 825.875,-877.569 823,-875 741.634,-802.276 647.49,-713.796 603.33,-672.03"/>
<polygon fill="black" stroke="black" points="605.599,-669.358 595.93,-665.026 600.787,-674.442 605.599,-669.358"/>
</g>
<!-- javadoc -->
<g id="node13" class="node"><title>javadoc</title>
<polygon fill="lightcyan" stroke="black" points="970.25,-836 911.75,-836 911.75,-800 970.25,-800 970.25,-836"/>
<text text-anchor="middle" x="941" y="-814.3" font-family="Times,serif" font-size="14.00">javadoc</text>
</g>
<!-- classes&#45;&gt;javadoc -->
<g id="edge3" class="edge"><title>classes&#45;&gt;javadoc</title>
<path fill="none" stroke="black" d="M879.077,-891.454C888.642,-887.513 898.998,-882.102 907,-875 916.248,-866.792 923.774,-855.455 929.371,-845.128"/>
<polygon fill="black" stroke="black" points="932.574,-846.55 933.964,-836.047 926.328,-843.391 932.574,-846.55"/>
</g>
<!-- bundle -->
<g id="node15" class="node"><title>bundle</title>
<polygon fill="cyan" stroke="black" points="1530,-737 1476,-737 1476,-701 1530,-701 1530,-737"/>
<text text-anchor="middle" x="1503" y="-715.3" font-family="Times,serif" font-size="14.00">bundle</text>
</g>
<!-- classes&#45;&gt;bundle -->
<g id="edge17" class="edge"><title>classes&#45;&gt;bundle</title>
<path fill="none" stroke="black" d="M879.106,-900.097C1007.07,-900.424 1545.58,-900.289 1570,-875 1605.2,-838.555 1594.77,-805.199 1570,-761 1563.2,-748.866 1551.18,-739.892 1539.18,-733.487"/>
<polygon fill="black" stroke="black" points="1540.62,-730.296 1530.1,-729.08 1537.57,-736.594 1540.62,-730.296"/>
</g>
<!-- checkClassCycle -->
<g id="node23" class="node"><title>checkClassCycle</title>
<polygon fill="cyan" stroke="black" points="1557.25,-836 1448.75,-836 1448.75,-800 1557.25,-800 1557.25,-836"/>
<text text-anchor="middle" x="1503" y="-814.3" font-family="Times,serif" font-size="14.00">checkClassCycle</text>
</g>
<!-- classes&#45;&gt;checkClassCycle -->
<g id="edge15" class="edge"><title>classes&#45;&gt;checkClassCycle</title>
<path fill="none" stroke="black" d="M879.198,-899.859C987.373,-899.159 1383.77,-895.226 1436,-875 1453.16,-868.353 1469.12,-855.416 1481.15,-843.65"/>
<polygon fill="black" stroke="black" points="1483.97,-845.763 1488.46,-836.165 1478.97,-840.872 1483.97,-845.763"/>
</g>
<!-- findbugsMain -->
<g id="node28" class="node"><title>findbugsMain</title>
<polygon fill="cyan" stroke="black" points="117.25,-737 24.75,-737 24.75,-701 117.25,-701 117.25,-737"/>
<text text-anchor="middle" x="71" y="-715.3" font-family="Times,serif" font-size="14.00">findbugsMain</text>
</g>
<!-- classes&#45;&gt;findbugsMain -->
<g id="edge28" class="edge"><title>classes&#45;&gt;findbugsMain</title>
<path fill="none" stroke="black" d="M824.918,-899.98C737.72,-899.694 464.998,-897.017 380,-875 272.681,-847.201 159.358,-778.82 104.569,-742.895"/>
<polygon fill="black" stroke="black" points="106.246,-739.807 95.9744,-737.209 102.384,-745.645 106.246,-739.807"/>
</g>
<!-- uploadArchives -->
<g id="node10" class="node"><title>uploadArchives</title>
<polygon fill="lightcyan" stroke="black" points="877,-737 775,-737 775,-701 877,-701 877,-737"/>
<text text-anchor="middle" x="826" y="-715.3" font-family="Times,serif" font-size="14.00">uploadArchives</text>
</g>
<!-- jar&#45;&gt;uploadArchives -->
<g id="edge9" class="edge"><title>jar&#45;&gt;uploadArchives</title>
<path fill="none" stroke="black" d="M853.1,-799.658C848.126,-785.037 840.923,-763.864 835.193,-747.021"/>
<polygon fill="black" stroke="black" points="838.383,-745.531 831.849,-737.192 831.756,-747.786 838.383,-745.531"/>
</g>
<!-- assemble -->
<g id="node11" class="node"><title>assemble</title>
<polygon fill="lightcyan" stroke="black" points="962.25,-737 895.75,-737 895.75,-701 962.25,-701 962.25,-737"/>
<text text-anchor="middle" x="929" y="-715.3" font-family="Times,serif" font-size="14.00">assemble</text>
</g>
<!-- jar&#45;&gt;assemble -->
<g id="edge10" class="edge"><title>jar&#45;&gt;assemble</title>
<path fill="none" stroke="black" d="M867.156,-799.654C872.87,-788.228 881.06,-773.185 890,-761 894.139,-755.359 898.993,-749.683 903.845,-744.429"/>
<polygon fill="black" stroke="black" points="906.485,-746.732 910.867,-737.086 901.426,-741.894 906.485,-746.732"/>
</g>
<!-- testClasses -->
<g id="node7" class="node"><title>testClasses</title>
<polygon fill="lightcyan" stroke="black" points="568,-737 492,-737 492,-701 568,-701 568,-737"/>
<text text-anchor="middle" x="530" y="-715.3" font-family="Times,serif" font-size="14.00">testClasses</text>
</g>
<!-- compileTestJava&#45;&gt;testClasses -->
<g id="edge7" class="edge"><title>compileTestJava&#45;&gt;testClasses</title>
<path fill="none" stroke="black" d="M587.485,-799.658C576.635,-784.623 560.786,-762.66 548.476,-745.602"/>
<polygon fill="black" stroke="black" points="551.096,-743.252 542.406,-737.192 545.42,-747.349 551.096,-743.252"/>
</g>
<!-- processTestResources -->
<g id="node6" class="node"><title>processTestResources</title>
<polygon fill="lightcyan" stroke="black" points="528,-836 392,-836 392,-800 528,-800 528,-836"/>
<text text-anchor="middle" x="460" y="-814.3" font-family="Times,serif" font-size="14.00">processTestResources</text>
</g>
<!-- processTestResources&#45;&gt;testClasses -->
<g id="edge8" class="edge"><title>processTestResources&#45;&gt;testClasses</title>
<path fill="none" stroke="black" d="M472.515,-799.658C483.365,-784.623 499.214,-762.66 511.524,-745.602"/>
<polygon fill="black" stroke="black" points="514.58,-747.349 517.594,-737.192 508.904,-743.252 514.58,-747.349"/>
</g>
<!-- testClasses&#45;&gt;test -->
<g id="edge11" class="edge"><title>testClasses&#45;&gt;test</title>
<path fill="none" stroke="black" d="M541.865,-700.697C547.503,-692.474 554.354,-682.483 560.569,-673.421"/>
<polygon fill="black" stroke="black" points="563.503,-675.331 566.271,-665.104 557.729,-671.372 563.503,-675.331"/>
</g>
<!-- findbugsTest -->
<g id="node26" class="node"><title>findbugsTest</title>
<polygon fill="cyan" stroke="black" points="229.25,-737 142.75,-737 142.75,-701 229.25,-701 229.25,-737"/>
<text text-anchor="middle" x="186" y="-715.3" font-family="Times,serif" font-size="14.00">findbugsTest</text>
</g>
<!-- testClasses&#45;&gt;findbugsTest -->
<g id="edge29" class="edge"><title>testClasses&#45;&gt;findbugsTest</title>
<path fill="none" stroke="black" d="M491.947,-730.221C458.366,-739.504 407.913,-751.955 363,-757 336.279,-760.002 268.303,-762.582 242,-757 231.656,-754.805 221.664,-749.457 213.054,-743.443"/>
<polygon fill="black" stroke="black" points="215.029,-740.548 204.944,-737.301 210.803,-746.129 215.029,-740.548"/>
</g>
<!-- check -->
<g id="node9" class="node"><title>check</title>
<polygon fill="lightcyan" stroke="black" points="605,-582 551,-582 551,-546 605,-546 605,-582"/>
<text text-anchor="middle" x="578" y="-560.3" font-family="Times,serif" font-size="14.00">check</text>
</g>
<!-- test&#45;&gt;check -->
<g id="edge13" class="edge"><title>test&#45;&gt;check</title>
<path fill="none" stroke="black" d="M578,-628.822C578,-618.19 578,-604.306 578,-592.204"/>
<polygon fill="black" stroke="black" points="581.5,-592.153 578,-582.153 574.5,-592.153 581.5,-592.153"/>
</g>
<!-- jacocoTestReport -->
<g id="node29" class="node"><title>jacocoTestReport</title>
<polygon fill="cyan" stroke="black" points="360,-737 248,-737 248,-701 360,-701 360,-737"/>
<text text-anchor="middle" x="304" y="-715.3" font-family="Times,serif" font-size="14.00">jacocoTestReport</text>
</g>
<!-- test&#45;&gt;jacocoTestReport -->
<g id="edge34" class="edge"><title>test&#45;&gt;jacocoTestReport</title>
<path fill="none" stroke="black" d="M550.897,-653.315C512.57,-661.022 440.464,-676.225 380,-693 374.646,-694.485 369.11,-696.117 363.579,-697.813"/>
<polygon fill="black" stroke="black" points="362.166,-694.587 353.67,-700.917 364.259,-701.267 362.166,-694.587"/>
</g>
<!-- build -->
<g id="node12" class="node"><title>build</title>
<polygon fill="lightcyan" stroke="black" points="716,-510 662,-510 662,-474 716,-474 716,-510"/>
<text text-anchor="middle" x="689" y="-488.3" font-family="Times,serif" font-size="14.00">build</text>
</g>
<!-- check&#45;&gt;build -->
<g id="edge14" class="edge"><title>check&#45;&gt;build</title>
<path fill="none" stroke="black" d="M598.312,-545.832C601.803,-543.111 605.451,-540.405 609,-538 622.852,-528.614 638.799,-519.357 652.793,-511.703"/>
<polygon fill="black" stroke="black" points="654.524,-514.746 661.664,-506.919 651.201,-508.584 654.524,-514.746"/>
</g>
<!-- assemble&#45;&gt;build -->
<g id="edge12" class="edge"><title>assemble&#45;&gt;build</title>
<path fill="none" stroke="black" d="M910.566,-700.718C868.057,-660.866 763.086,-562.456 714.469,-516.877"/>
<polygon fill="black" stroke="black" points="716.857,-514.319 707.168,-510.033 712.07,-519.425 716.857,-514.319"/>
</g>
<!-- release -->
<g id="node17" class="node"><title>release</title>
<polygon fill="cyan" stroke="black" points="1374,-836 1320,-836 1320,-800 1374,-800 1374,-836"/>
<text text-anchor="middle" x="1347" y="-814.3" font-family="Times,serif" font-size="14.00">release</text>
</g>
<!-- assemble&#45;&gt;release -->
<g id="edge22" class="edge"><title>assemble&#45;&gt;release</title>
<path fill="none" stroke="black" d="M954.738,-737.146C965.482,-743.366 978.383,-749.676 991,-753 1024,-761.693 1267.11,-746.496 1298,-761 1311.79,-767.476 1323.27,-779.87 1331.65,-791.356"/>
<polygon fill="black" stroke="black" points="1328.91,-793.554 1337.44,-799.848 1334.7,-789.613 1328.91,-793.554"/>
</g>
<!-- exportX -->
<g id="node21" class="node"><title>exportX</title>
<polygon fill="cyan" stroke="black" points="1104.25,-836 1007.75,-836 1003.75,-832 1003.75,-800 1100.25,-800 1104.25,-804 1104.25,-836"/>
<polyline fill="none" stroke="black" points="1100.25,-832 1003.75,-832 "/>
<polyline fill="none" stroke="black" points="1100.25,-832 1100.25,-800 "/>
<polyline fill="none" stroke="black" points="1100.25,-832 1104.25,-836 "/>
<text text-anchor="middle" x="1054" y="-814.3" font-family="Times,serif" font-size="14.00">export.&lt;name&gt;</text>
</g>
<!-- assemble&#45;&gt;exportX -->
<g id="edge23" class="edge"><title>assemble&#45;&gt;exportX</title>
<path fill="none" stroke="black" d="M951.666,-737.063C961.35,-744.391 972.76,-753.075 983,-761 996.749,-771.64 1011.89,-783.554 1024.64,-793.649"/>
<polygon fill="black" stroke="black" points="1022.63,-796.52 1032.64,-799.988 1026.98,-791.034 1022.63,-796.52"/>
</g>
<!-- cleanJava -->
<g id="node14" class="node"><title>cleanJava</title>
<polygon fill="lightcyan" stroke="black" points="549,-994 495,-994 495,-958 549,-958 549,-994"/>
<text text-anchor="middle" x="522" y="-972.3" font-family="Times,serif" font-size="14.00">clean</text>
</g>
<!-- bundle&#45;&gt;compileJava -->
<g id="edge18" class="edge"><title>bundle&#45;&gt;compileJava</title>
<path fill="none" stroke="red" d="M1530.19,-723.863C1552.1,-728.563 1581.54,-738.829 1596,-761 1623.67,-803.442 1629.36,-836.862 1596,-875 1584.52,-888.122 1072.24,-949.195 904.535,-968.873"/>
<polygon fill="red" stroke="red" points="903.987,-965.413 894.462,-970.054 904.802,-972.366 903.987,-965.413"/>
</g>
<!-- bundle&#45;&gt;jar -->
<g id="edge19" class="edge"><title>bundle&#45;&gt;jar</title>
<path fill="none" stroke="black" stroke-dasharray="5,2" d="M1475.69,-736.876C1463.93,-743.22 1449.74,-749.693 1436,-753 1406.51,-760.098 916.021,-745.405 890,-761 879.163,-767.495 871.837,-779.267 867.042,-790.347"/>
<polygon fill="black" stroke="black" points="863.746,-789.165 863.454,-799.756 870.287,-791.659 863.746,-789.165"/>
</g>
<!-- bundle&#45;&gt;test -->
<g id="edge21" class="edge"><title>bundle&#45;&gt;test</title>
<path fill="none" stroke="black" d="M1475.85,-705.721C1463.88,-700.874 1449.49,-695.802 1436,-693 1275.53,-659.674 758.336,-650.404 615.085,-648.447"/>
<polygon fill="black" stroke="black" points="615.09,-644.947 605.044,-648.313 614.997,-651.946 615.09,-644.947"/>
</g>
<!-- bundleTest -->
<g id="node16" class="node"><title>bundleTest</title>
<polygon fill="cyan" stroke="black" points="1535.25,-665 1458.75,-665 1458.75,-629 1535.25,-629 1535.25,-665"/>
<text text-anchor="middle" x="1497" y="-643.3" font-family="Times,serif" font-size="14.00">bundleTest</text>
</g>
<!-- bundle&#45;&gt;bundleTest -->
<g id="edge20" class="edge"><title>bundle&#45;&gt;bundleTest</title>
<path fill="none" stroke="black" d="M1501.52,-700.697C1500.86,-692.983 1500.06,-683.712 1499.32,-675.112"/>
<polygon fill="black" stroke="black" points="1502.81,-674.769 1498.47,-665.104 1495.83,-675.367 1502.81,-674.769"/>
</g>
<!-- p2Entry -->
<g id="node35" class="node"><title>p2Entry</title>
<polygon fill="none" stroke="black" points="1694,-665 1634,-665 1634,-629 1694,-629 1694,-665"/>
<text text-anchor="middle" x="1664" y="-643.3" font-family="Times,serif" font-size="14.00">p2Entry</text>
</g>
<!-- bundle&#45;&gt;p2Entry -->
<g id="edge40" class="edge"><title>bundle&#45;&gt;p2Entry</title>
<path fill="none" stroke="red" d="M1530.31,-706.125C1556.1,-694.911 1595.08,-677.964 1624.31,-665.257"/>
<polygon fill="red" stroke="red" points="1626.04,-668.322 1633.81,-661.125 1623.25,-661.903 1626.04,-668.322"/>
</g>
<!-- bundleTest&#45;&gt;check -->
<g id="edge25" class="edge"><title>bundleTest&#45;&gt;check</title>
<path fill="none" stroke="black" d="M1458.68,-642.623C1308.88,-629.42 763.855,-581.381 615.502,-568.305"/>
<polygon fill="black" stroke="black" points="615.391,-564.782 605.122,-567.391 614.777,-571.755 615.391,-564.782"/>
</g>
<!-- releaseNeeded -->
<g id="node18" class="node"><title>releaseNeeded</title>
<polygon fill="cyan" stroke="black" points="1405.25,-737 1310.75,-737 1310.75,-701 1405.25,-701 1405.25,-737"/>
<text text-anchor="middle" x="1358" y="-715.3" font-family="Times,serif" font-size="14.00">releaseNeeded</text>
</g>
<!-- release&#45;&gt;releaseNeeded -->
<g id="edge26" class="edge"><title>release&#45;&gt;releaseNeeded</title>
<path fill="none" stroke="black" d="M1348.97,-799.658C1350.61,-785.175 1352.98,-764.263 1354.88,-747.499"/>
<polygon fill="black" stroke="black" points="1358.4,-747.522 1356.05,-737.192 1351.45,-746.733 1358.4,-747.522"/>
</g>
<!-- releaseNeeded&#45;&gt;releaseNeeded -->
<g id="edge27" class="edge"><title>releaseNeeded&#45;&gt;releaseNeeded</title>
<path fill="none" stroke="red" d="M1405.33,-732.101C1415.57,-730.82 1423,-726.453 1423,-719 1423,-714.225 1419.95,-710.717 1415.07,-708.476"/>
<polygon fill="red" stroke="red" points="1415.89,-705.073 1405.33,-705.899 1414.1,-711.84 1415.89,-705.073"/>
</g>
<!-- cleanBnd -->
<g id="node19" class="node"><title>cleanBnd</title>
<polygon fill="cyan" stroke="black" points="1286,-836 1232,-836 1232,-800 1286,-800 1286,-836"/>
<text text-anchor="middle" x="1259" y="-814.3" font-family="Times,serif" font-size="14.00">clean</text>
</g>
<!-- bndproperties -->
<g id="node20" class="node"><title>bndproperties</title>
<polygon fill="cyan" stroke="black" points="1213.25,-836 1122.75,-836 1122.75,-800 1213.25,-800 1213.25,-836"/>
<text text-anchor="middle" x="1168" y="-814.3" font-family="Times,serif" font-size="14.00">bndproperties</text>
</g>
<!-- export -->
<g id="node22" class="node"><title>export</title>
<polygon fill="cyan" stroke="black" points="1081,-737 1027,-737 1027,-701 1081,-701 1081,-737"/>
<text text-anchor="middle" x="1054" y="-715.3" font-family="Times,serif" font-size="14.00">export</text>
</g>
<!-- exportX&#45;&gt;export -->
<g id="edge24" class="edge"><title>exportX&#45;&gt;export</title>
<path fill="none" stroke="black" d="M1054,-799.658C1054,-785.175 1054,-764.263 1054,-747.499"/>
<polygon fill="black" stroke="black" points="1057.5,-747.191 1054,-737.192 1050.5,-747.192 1057.5,-747.191"/>
</g>
<!-- checkClassCycle&#45;&gt;bundle -->
<g id="edge16" class="edge"><title>checkClassCycle&#45;&gt;bundle</title>
<path fill="none" stroke="black" d="M1503,-799.658C1503,-785.175 1503,-764.263 1503,-747.499"/>
<polygon fill="black" stroke="black" points="1506.5,-747.191 1503,-737.192 1499.5,-747.192 1506.5,-747.191"/>
</g>
<!-- wrapper -->
<g id="node24" class="node"><title>wrapper</title>
<polygon fill="cyan" stroke="black" points="1340.25,-994 1279.75,-994 1279.75,-958 1340.25,-958 1340.25,-994"/>
<text text-anchor="middle" x="1310" y="-972.3" font-family="Times,serif" font-size="14.00">wrapper</text>
</g>
<!-- findbugstest -->
<g id="node25" class="node"><title>findbugstest</title>
<polygon fill="cyan" stroke="black" points="228.25,-665 145.75,-665 145.75,-629 228.25,-629 228.25,-665"/>
<text text-anchor="middle" x="187" y="-643.3" font-family="Times,serif" font-size="14.00">findbugstest</text>
</g>
<!-- findbugstest&#45;&gt;check -->
<g id="edge33" class="edge"><title>findbugstest&#45;&gt;check</title>
<path fill="none" stroke="green" d="M228.316,-631.966C267.077,-619.291 326.873,-600.991 380,-590 435.44,-578.531 500.772,-571.518 540.783,-567.945"/>
<polygon fill="green" stroke="green" points="541.218,-571.42 550.877,-567.069 540.612,-564.447 541.218,-571.42"/>
</g>
<!-- findbugsTest&#45;&gt;findbugstest -->
<g id="edge31" class="edge"><title>findbugsTest&#45;&gt;findbugstest</title>
<path fill="none" stroke="black" d="M186.247,-700.697C186.357,-692.983 186.49,-683.712 186.613,-675.112"/>
<polygon fill="black" stroke="black" points="190.112,-675.153 186.756,-665.104 183.113,-675.053 190.112,-675.153"/>
</g>
<!-- findbugs -->
<g id="node27" class="node"><title>findbugs</title>
<polygon fill="cyan" stroke="black" points="110,-665 46,-665 46,-629 110,-629 110,-665"/>
<text text-anchor="middle" x="78" y="-643.3" font-family="Times,serif" font-size="14.00">findbugs</text>
</g>
<!-- findbugs&#45;&gt;check -->
<g id="edge32" class="edge"><title>findbugs&#45;&gt;check</title>
<path fill="none" stroke="green" d="M88.4662,-628.966C97.6241,-615.76 112.227,-598.347 130,-590 166.689,-572.769 439.852,-567.031 540.719,-565.488"/>
<polygon fill="green" stroke="green" points="540.815,-568.987 550.762,-565.34 540.711,-561.988 540.815,-568.987"/>
</g>
<!-- findbugsMain&#45;&gt;findbugs -->
<g id="edge30" class="edge"><title>findbugsMain&#45;&gt;findbugs</title>
<path fill="none" stroke="black" d="M72.7303,-700.697C73.5017,-692.983 74.4288,-683.712 75.2888,-675.112"/>
<polygon fill="black" stroke="black" points="78.7771,-675.403 76.2896,-665.104 71.8118,-674.706 78.7771,-675.403"/>
</g>
<!-- index -->
<g id="node30" class="node"><title>index</title>
<polygon fill="cyan" stroke="black" points="1924,-994 1870,-994 1870,-958 1924,-958 1924,-994"/>
<text text-anchor="middle" x="1897" y="-972.3" font-family="Times,serif" font-size="14.00">index</text>
</g>
<!-- clean -->
<g id="node31" class="node"><title>clean</title>
<polygon fill="lightcyan" stroke="black" points="1784,-994 1730,-994 1730,-958 1784,-958 1784,-994"/>
<text text-anchor="middle" x="1757" y="-972.3" font-family="Times,serif" font-size="14.00">clean</text>
</g>
<!-- cleanNeeded -->
<g id="node32" class="node"><title>cleanNeeded</title>
<polygon fill="cyan" stroke="black" points="1744,-919 1658,-919 1658,-883 1744,-883 1744,-919"/>
<text text-anchor="middle" x="1701" y="-897.3" font-family="Times,serif" font-size="14.00">cleanNeeded</text>
</g>
<!-- clean&#45;&gt;cleanNeeded -->
<g id="edge35" class="edge"><title>clean&#45;&gt;cleanNeeded</title>
<path fill="none" stroke="blue" d="M1743.73,-957.7C1736.75,-948.609 1728.08,-937.296 1720.37,-927.245"/>
<polygon fill="blue" stroke="blue" points="1723.04,-924.98 1714.18,-919.176 1717.49,-929.24 1723.04,-924.98"/>
</g>
<!-- distclean -->
<g id="node33" class="node"><title>distclean</title>
<polygon fill="cyan" stroke="black" points="1845.25,-919 1780.75,-919 1780.75,-883 1845.25,-883 1845.25,-919"/>
<text text-anchor="middle" x="1813" y="-897.3" font-family="Times,serif" font-size="14.00">distclean</text>
</g>
<!-- clean&#45;&gt;distclean -->
<g id="edge37" class="edge"><title>clean&#45;&gt;distclean</title>
<path fill="none" stroke="blue" d="M1770.27,-957.7C1777.25,-948.609 1785.92,-937.296 1793.63,-927.245"/>
<polygon fill="blue" stroke="blue" points="1796.51,-929.24 1799.82,-919.176 1790.96,-924.98 1796.51,-929.24"/>
</g>
<!-- cleanNeeded&#45;&gt;cleanNeeded -->
<g id="edge36" class="edge"><title>cleanNeeded&#45;&gt;cleanNeeded</title>
<path fill="none" stroke="red" d="M1744.04,-914.63C1754.35,-913.565 1762,-909.021 1762,-901 1762,-895.861 1758.86,-892.15 1753.89,-889.866"/>
<polygon fill="red" stroke="red" points="1754.59,-886.432 1744.04,-887.37 1752.87,-893.217 1754.59,-886.432"/>
</g>
<!-- distcleanNeeded -->
<g id="node34" class="node"><title>distcleanNeeded</title>
<polygon fill="cyan" stroke="black" points="1828,-836 1722,-836 1722,-800 1828,-800 1828,-836"/>
<text text-anchor="middle" x="1775" y="-814.3" font-family="Times,serif" font-size="14.00">distcleanNeeded</text>
</g>
<!-- distclean&#45;&gt;distcleanNeeded -->
<g id="edge38" class="edge"><title>distclean&#45;&gt;distcleanNeeded</title>
<path fill="none" stroke="black" d="M1804.94,-882.822C1799.85,-871.976 1793.18,-857.744 1787.42,-845.472"/>
<polygon fill="black" stroke="black" points="1790.46,-843.72 1783.05,-836.153 1784.13,-846.693 1790.46,-843.72"/>
</g>
<!-- distcleanNeeded&#45;&gt;distcleanNeeded -->
<g id="edge39" class="edge"><title>distcleanNeeded&#45;&gt;distcleanNeeded</title>
<path fill="none" stroke="red" d="M1828.26,-832.691C1838.63,-830.985 1846,-826.088 1846,-818 1846,-812.819 1842.98,-808.947 1838.08,-806.385"/>
<polygon fill="red" stroke="red" points="1838.85,-802.959 1828.26,-803.309 1836.75,-809.639 1838.85,-802.959"/>
</g>
<!-- p2FeaturesTree -->
<g id="node36" class="node"><title>p2FeaturesTree</title>
<polygon fill="none" stroke="black" points="1714.25,-582 1613.75,-582 1613.75,-546 1714.25,-546 1714.25,-582"/>
<text text-anchor="middle" x="1664" y="-560.3" font-family="Times,serif" font-size="14.00">p2FeaturesTree</text>
</g>
<!-- p2Entry&#45;&gt;p2FeaturesTree -->
<g id="edge41" class="edge"><title>p2Entry&#45;&gt;p2FeaturesTree</title>
<path fill="none" stroke="black" d="M1664,-628.822C1664,-618.19 1664,-604.306 1664,-592.204"/>
<polygon fill="black" stroke="black" points="1667.5,-592.153 1664,-582.153 1660.5,-592.153 1667.5,-592.153"/>
</g>
<!-- p2PelagicPlugins -->
<g id="node39" class="node"><title>p2PelagicPlugins</title>
<polygon fill="none" stroke="black" points="1866,-510 1756,-510 1756,-474 1866,-474 1866,-510"/>
<text text-anchor="middle" x="1811" y="-488.3" font-family="Times,serif" font-size="14.00">p2PelagicPlugins</text>
</g>
<!-- p2Entry&#45;&gt;p2PelagicPlugins -->
<g id="edge44" class="edge"><title>p2Entry&#45;&gt;p2PelagicPlugins</title>
<path fill="none" stroke="black" d="M1680.58,-628.746C1706.6,-601.657 1757.17,-549.03 1787.12,-517.859"/>
<polygon fill="black" stroke="black" points="1789.85,-520.061 1794.26,-510.425 1784.81,-515.211 1789.85,-520.061"/>
</g>
<!-- p2FeaturesGradlePlugin -->
<g id="node37" class="node"><title>p2FeaturesGradlePlugin</title>
<polygon fill="none" stroke="black" points="1738,-510 1590,-510 1590,-474 1738,-474 1738,-510"/>
<text text-anchor="middle" x="1664" y="-488.3" font-family="Times,serif" font-size="14.00">p2FeaturesGradlePlugin</text>
</g>
<!-- p2FeaturesTree&#45;&gt;p2FeaturesGradlePlugin -->
<g id="edge42" class="edge"><title>p2FeaturesTree&#45;&gt;p2FeaturesGradlePlugin</title>
<path fill="none" stroke="black" d="M1664,-545.697C1664,-537.983 1664,-528.712 1664,-520.112"/>
<polygon fill="black" stroke="black" points="1667.5,-520.104 1664,-510.104 1660.5,-520.104 1667.5,-520.104"/>
</g>
<!-- p2Features -->
<g id="node38" class="node"><title>p2Features</title>
<polygon fill="none" stroke="black" points="1716,-435 1640,-435 1640,-399 1716,-399 1716,-435"/>
<text text-anchor="middle" x="1678" y="-413.3" font-family="Times,serif" font-size="14.00">p2Features</text>
</g>
<!-- p2FeaturesGradlePlugin&#45;&gt;p2Features -->
<g id="edge43" class="edge"><title>p2FeaturesGradlePlugin&#45;&gt;p2Features</title>
<path fill="none" stroke="black" d="M1667.32,-473.7C1668.96,-465.154 1670.97,-454.645 1672.81,-445.067"/>
<polygon fill="black" stroke="black" points="1676.26,-445.656 1674.71,-435.176 1669.39,-444.338 1676.26,-445.656"/>
</g>
<!-- p2 -->
<g id="node41" class="node"><title>p2</title>
<polygon fill="cyan" stroke="black" points="1738,-363 1684,-363 1684,-327 1738,-327 1738,-363"/>
<text text-anchor="middle" x="1711" y="-341.3" font-family="Times,serif" font-size="14.00">p2</text>
</g>
<!-- p2Features&#45;&gt;p2 -->
<g id="edge46" class="edge"><title>p2Features&#45;&gt;p2</title>
<path fill="none" stroke="black" d="M1686.16,-398.697C1689.91,-390.728 1694.45,-381.1 1698.62,-372.264"/>
<polygon fill="black" stroke="black" points="1701.84,-373.642 1702.94,-363.104 1695.51,-370.657 1701.84,-373.642"/>
</g>
<!-- p2Plugins -->
<g id="node40" class="node"><title>p2Plugins</title>
<polygon fill="none" stroke="black" points="1832.25,-435 1761.75,-435 1761.75,-399 1832.25,-399 1832.25,-435"/>
<text text-anchor="middle" x="1797" y="-413.3" font-family="Times,serif" font-size="14.00">p2Plugins</text>
</g>
<!-- p2PelagicPlugins&#45;&gt;p2Plugins -->
<g id="edge45" class="edge"><title>p2PelagicPlugins&#45;&gt;p2Plugins</title>
<path fill="none" stroke="black" d="M1807.68,-473.7C1806.04,-465.154 1804.03,-454.645 1802.19,-445.067"/>
<polygon fill="black" stroke="black" points="1805.61,-444.338 1800.29,-435.176 1798.74,-445.656 1805.61,-444.338"/>
</g>
<!-- p2Plugins&#45;&gt;p2 -->
<g id="edge47" class="edge"><title>p2Plugins&#45;&gt;p2</title>
<path fill="none" stroke="black" d="M1775.74,-398.697C1764.91,-389.881 1751.58,-379.032 1739.84,-369.474"/>
<polygon fill="black" stroke="black" points="1741.98,-366.703 1732.01,-363.104 1737.56,-372.132 1741.98,-366.703"/>
</g>
<!-- indexBuild -->
<g id="node42" class="node"><title>indexBuild</title>
<polygon fill="cyan" stroke="black" points="1738,-291 1684,-291 1684,-255 1738,-255 1738,-291"/>
<text text-anchor="middle" x="1711" y="-269.3" font-family="Times,serif" font-size="14.00">index</text>
</g>
<!-- p2&#45;&gt;indexBuild -->
<g id="edge48" class="edge"><title>p2&#45;&gt;indexBuild</title>
<path fill="none" stroke="black" d="M1711,-326.697C1711,-318.983 1711,-309.712 1711,-301.112"/>
<polygon fill="black" stroke="black" points="1714.5,-301.104 1711,-291.104 1707.5,-301.104 1714.5,-301.104"/>
</g>
<!-- distCompositePlugins -->
<g id="node43" class="node"><title>distCompositePlugins</title>
<polygon fill="none" stroke="black" points="1752,-219 1616,-219 1616,-183 1752,-183 1752,-219"/>
<text text-anchor="middle" x="1684" y="-197.3" font-family="Times,serif" font-size="14.00">distCompositePlugins</text>
</g>
<!-- indexBuild&#45;&gt;distCompositePlugins -->
<g id="edge49" class="edge"><title>indexBuild&#45;&gt;distCompositePlugins</title>
<path fill="none" stroke="black" d="M1704.33,-254.697C1701.29,-246.813 1697.62,-237.304 1694.24,-228.546"/>
<polygon fill="black" stroke="black" points="1697.46,-227.175 1690.6,-219.104 1690.93,-229.694 1697.46,-227.175"/>
</g>
<!-- distZipPlugins -->
<g id="node44" class="node"><title>distZipPlugins</title>
<polygon fill="none" stroke="black" points="1774.25,-147 1679.75,-147 1679.75,-111 1774.25,-111 1774.25,-147"/>
<text text-anchor="middle" x="1727" y="-125.3" font-family="Times,serif" font-size="14.00">distZipPlugins</text>
</g>
<!-- indexBuild&#45;&gt;distZipPlugins -->
<g id="edge50" class="edge"><title>indexBuild&#45;&gt;distZipPlugins</title>
<path fill="none" stroke="black" d="M1733.6,-254.963C1744.06,-245.635 1755.4,-233.107 1761,-219 1766.91,-204.13 1765.5,-198.354 1761,-183 1758.2,-173.447 1753.09,-163.984 1747.67,-155.756"/>
<polygon fill="black" stroke="black" points="1750.38,-153.525 1741.75,-147.366 1744.65,-157.557 1750.38,-153.525"/>
</g>
<!-- distCompositePlugins&#45;&gt;distZipPlugins -->
<g id="edge51" class="edge"><title>distCompositePlugins&#45;&gt;distZipPlugins</title>
<path fill="none" stroke="black" d="M1694.63,-182.697C1699.63,-174.559 1705.69,-164.689 1711.21,-155.701"/>
<polygon fill="black" stroke="black" points="1714.24,-157.457 1716.49,-147.104 1708.28,-153.793 1714.24,-157.457"/>
</g>
<!-- dist -->
<g id="node45" class="node"><title>dist</title>
<polygon fill="cyan" stroke="black" points="1754,-75 1700,-75 1700,-39 1754,-39 1754,-75"/>
<text text-anchor="middle" x="1727" y="-53.3" font-family="Times,serif" font-size="14.00">dist</text>
</g>
<!-- distZipPlugins&#45;&gt;dist -->
<g id="edge52" class="edge"><title>distZipPlugins&#45;&gt;dist</title>
<path fill="none" stroke="black" d="M1727,-110.697C1727,-102.983 1727,-93.7125 1727,-85.1124"/>
<polygon fill="black" stroke="black" points="1730.5,-85.1043 1727,-75.1043 1723.5,-85.1044 1730.5,-85.1043"/>
</g>
</g>
</svg>
