<?xml version="1.0" encoding="UTF-8" standalone="no"?>
<!DOCTYPE svg PUBLIC "-//W3C//DTD SVG 1.1//EN"
 "http://www.w3.org/Graphics/SVG/1.1/DTD/svg11.dtd">
<!-- Generated by graphviz version 2.34.0 (20140110.0949)
 -->
<!-- Title: GradleSetup Pages: 1 -->
<svg width="1126pt" height="1043pt"
 viewBox="0.00 0.00 1126.00 1043.00" xmlns="http://www.w3.org/2000/svg" xmlns:xlink="http://www.w3.org/1999/xlink">
<g id="graph0" class="graph" transform="scale(1 1) rotate(0) translate(4 1039)">
<title>GradleSetup</title>
<polygon fill="white" stroke="white" points="-4,4 -4,-1039 1122,-1039 1122,4 -4,4"/>
<text text-anchor="middle" x="61" y="-1019.8" font-family="Times,serif" font-size="14.00">Gradle Build Setup</text>
<g id="clust1" class="cluster"><title>cluster1</title>
<polygon fill="lightgrey" stroke="black" points="8,-371 8,-1004 804,-1004 804,-371 8,-371"/>
<text text-anchor="middle" x="92.5" y="-378.8" font-family="Times,serif" font-size="14.00">Java Projects / Bnd Projects</text>
</g>
<g id="clust2" class="cluster"><title>cluster101</title>
</g>
<g id="clust3" class="cluster"><title>cluster102</title>
</g>
<g id="clust4" class="cluster"><title>cluster103</title>
</g>
<g id="clust5" class="cluster"><title>cluster104</title>
</g>
<g id="clust6" class="cluster"><title>cluster105</title>
</g>
<g id="clust7" class="cluster"><title>cluster106</title>
</g>
<g id="clust8" class="cluster"><title>cluster107</title>
</g>
<g id="clust9" class="cluster"><title>cluster108</title>
</g>
<g id="clust10" class="cluster"><title>cluster109</title>
</g>
<g id="clust12" class="cluster"><title>cluster2</title>
<polygon fill="lightgrey" stroke="black" points="886,-921 886,-996 1036,-996 1036,-921 886,-921"/>
<text text-anchor="middle" x="928.5" y="-928.8" font-family="Times,serif" font-size="14.00">Root Project</text>
</g>
<g id="clust13" class="cluster"><title>cluster3</title>
<polygon fill="lightgrey" stroke="black" points="812,-678 812,-913 1110,-913 1110,-678 812,-678"/>
<text text-anchor="middle" x="852.5" y="-685.8" font-family="Times,serif" font-size="14.00">All Projects</text>
</g>
<g id="clust14" class="cluster"><title>cluster301</title>
</g>
<g id="clust15" class="cluster"><title>cluster302</title>
</g>
<g id="clust16" class="cluster"><title>cluster4</title>
<polygon fill="lightgrey" stroke="black" points="812,-8 812,-670 1100,-670 1100,-8 812,-8"/>
<text text-anchor="middle" x="856.5" y="-15.8" font-family="Times,serif" font-size="14.00">Build Project</text>
</g>
<!-- compileJava -->
<g id="node1" class="node"><title>compileJava</title>
<polygon fill="lightcyan" stroke="black" points="696.25,-988 611.75,-988 611.75,-952 696.25,-952 696.25,-988"/>
<text text-anchor="middle" x="654" y="-966.3" font-family="Times,serif" font-size="14.00">compileJava</text>
</g>
<!-- compileJava&#45;&gt;compileJava -->
<g id="edge22" class="edge"><title>compileJava&#45;&gt;compileJava</title>
<path fill="none" stroke="red" d="M696.331,-986.577C706.48,-985.282 714,-979.756 714,-970 714,-963.75 710.914,-959.236 706.027,-956.459"/>
<polygon fill="red" stroke="red" points="706.92,-953.07 696.331,-953.423 704.828,-959.751 706.92,-953.07"/>
</g>
<!-- classes -->
<g id="node3" class="node"><title>classes</title>
<polygon fill="lightcyan" stroke="black" points="671,-897 617,-897 617,-861 671,-861 671,-897"/>
<text text-anchor="middle" x="644" y="-875.3" font-family="Times,serif" font-size="14.00">classes</text>
</g>
<!-- compileJava&#45;&gt;classes -->
<g id="edge1" class="edge"><title>compileJava&#45;&gt;classes</title>
<path fill="none" stroke="black" d="M652.072,-951.84C650.647,-939.158 648.679,-921.64 647.042,-907.077"/>
<polygon fill="black" stroke="black" points="650.517,-906.654 645.922,-897.107 643.561,-907.436 650.517,-906.654"/>
</g>
<!-- processResources -->
<g id="node2" class="node"><title>processResources</title>
<polygon fill="lightcyan" stroke="black" points="593.25,-988 480.75,-988 480.75,-952 593.25,-952 593.25,-988"/>
<text text-anchor="middle" x="537" y="-966.3" font-family="Times,serif" font-size="14.00">processResources</text>
</g>
<!-- processResources&#45;&gt;classes -->
<g id="edge2" class="edge"><title>processResources&#45;&gt;classes</title>
<path fill="none" stroke="black" d="M557.631,-951.84C574.062,-938.173 597.246,-918.889 615.457,-903.741"/>
<polygon fill="black" stroke="black" points="617.983,-906.193 623.433,-897.107 613.506,-900.811 617.983,-906.193"/>
</g>
<!-- jar -->
<g id="node4" class="node"><title>jar</title>
<polygon fill="cyan" stroke="black" points="337,-753 283,-753 283,-717 337,-717 337,-753"/>
<text text-anchor="middle" x="310" y="-731.3" font-family="Times,serif" font-size="14.00">jar</text>
</g>
<!-- classes&#45;&gt;jar -->
<g id="edge5" class="edge"><title>classes&#45;&gt;jar</title>
<path fill="none" stroke="black" d="M616.88,-878.687C544.573,-879.881 349.956,-878.7 310,-833 293.521,-814.151 296.182,-784.48 301.31,-762.914"/>
<polygon fill="black" stroke="black" points="304.743,-763.626 303.953,-753.061 297.982,-761.813 304.743,-763.626"/>
</g>
<!-- compileTestJava -->
<g id="node5" class="node"><title>compileTestJava</title>
<polygon fill="lightcyan" stroke="black" points="698,-825 590,-825 590,-789 698,-789 698,-825"/>
<text text-anchor="middle" x="644" y="-803.3" font-family="Times,serif" font-size="14.00">compileTestJava</text>
</g>
<!-- classes&#45;&gt;compileTestJava -->
<g id="edge4" class="edge"><title>classes&#45;&gt;compileTestJava</title>
<path fill="none" stroke="black" d="M644,-860.697C644,-852.983 644,-843.712 644,-835.112"/>
<polygon fill="black" stroke="black" points="647.5,-835.104 644,-825.104 640.5,-835.104 647.5,-835.104"/>
</g>
<!-- test -->
<g id="node8" class="node"><title>test</title>
<polygon fill="lightcyan" stroke="black" points="751,-662 697,-662 697,-626 751,-626 751,-662"/>
<text text-anchor="middle" x="724" y="-640.3" font-family="Times,serif" font-size="14.00">test</text>
</g>
<!-- classes&#45;&gt;test -->
<g id="edge6" class="edge"><title>classes&#45;&gt;test</title>
<path fill="none" stroke="black" d="M671.2,-878.527C705.323,-877.533 762.669,-870.024 790,-833 827.436,-782.288 778.14,-708.519 746.615,-670.21"/>
<polygon fill="black" stroke="black" points="748.938,-667.535 739.813,-662.151 743.589,-672.051 748.938,-667.535"/>
</g>
<!-- javadoc -->
<g id="node20" class="node"><title>javadoc</title>
<polygon fill="lightcyan" stroke="black" points="775.25,-825 716.75,-825 716.75,-789 775.25,-789 775.25,-825"/>
<text text-anchor="middle" x="746" y="-803.3" font-family="Times,serif" font-size="14.00">javadoc</text>
</g>
<!-- classes&#45;&gt;javadoc -->
<g id="edge3" class="edge"><title>classes&#45;&gt;javadoc</title>
<path fill="none" stroke="black" d="M669.107,-860.956C681.443,-852.562 696.519,-842.277 710,-833 710.909,-832.375 711.83,-831.74 712.76,-831.099"/>
<polygon fill="black" stroke="black" points="714.996,-833.808 721.231,-825.242 711.015,-828.05 714.996,-833.808"/>
</g>
<!-- findbugsMain -->
<g id="node25" class="node"><title>findbugsMain</title>
<polygon fill="orange" stroke="black" points="417.25,-825 324.75,-825 324.75,-789 417.25,-789 417.25,-825"/>
<text text-anchor="middle" x="371" y="-803.3" font-family="Times,serif" font-size="14.00">findbugsMain</text>
</g>
<!-- classes&#45;&gt;findbugsMain -->
<g id="edge28" class="edge"><title>classes&#45;&gt;findbugsMain</title>
<path fill="none" stroke="black" d="M616.703,-874.557C574.571,-868.77 491.508,-855.466 424,-833 420.513,-831.84 416.954,-830.509 413.414,-829.079"/>
<polygon fill="black" stroke="black" points="414.718,-825.83 404.148,-825.111 411.963,-832.265 414.718,-825.83"/>
</g>
<!-- uploadArchives -->
<g id="node9" class="node"><title>uploadArchives</title>
<polygon fill="lightcyan" stroke="black" points="375,-662 273,-662 273,-626 375,-626 375,-662"/>
<text text-anchor="middle" x="324" y="-640.3" font-family="Times,serif" font-size="14.00">uploadArchives</text>
</g>
<!-- jar&#45;&gt;uploadArchives -->
<g id="edge9" class="edge"><title>jar&#45;&gt;uploadArchives</title>
<path fill="none" stroke="black" d="M312.699,-716.84C314.694,-704.158 317.45,-686.64 319.741,-672.077"/>
<polygon fill="black" stroke="black" points="323.212,-672.53 321.309,-662.107 316.297,-671.442 323.212,-672.53"/>
</g>
<!-- assemble -->
<g id="node10" class="node"><title>assemble</title>
<polygon fill="lightcyan" stroke="black" points="254.25,-662 187.75,-662 187.75,-626 254.25,-626 254.25,-662"/>
<text text-anchor="middle" x="221" y="-640.3" font-family="Times,serif" font-size="14.00">assemble</text>
</g>
<!-- jar&#45;&gt;assemble -->
<g id="edge10" class="edge"><title>jar&#45;&gt;assemble</title>
<path fill="none" stroke="black" d="M292.84,-716.84C279.419,-703.419 260.582,-684.582 245.564,-669.564"/>
<polygon fill="black" stroke="black" points="247.653,-666.704 238.107,-662.107 242.704,-671.653 247.653,-666.704"/>
</g>
<!-- p2Entry -->
<g id="node34" class="node"><title>p2Entry</title>
<polygon fill="none" stroke="black" points="922,-662 862,-662 862,-626 922,-626 922,-662"/>
<text text-anchor="middle" x="892" y="-640.3" font-family="Times,serif" font-size="14.00">p2Entry</text>
</g>
<!-- jar&#45;&gt;p2Entry -->
<g id="edge39" class="edge"><title>jar&#45;&gt;p2Entry</title>
<path fill="none" stroke="red" d="M336.373,-716.924C358.704,-703.502 392.087,-685.813 424,-678 460.596,-669.04 725.54,-674.043 763,-670 793.101,-666.751 826.662,-660.152 852.005,-654.549"/>
<polygon fill="red" stroke="red" points="852.996,-657.914 861.982,-652.302 851.457,-651.085 852.996,-657.914"/>
</g>
<!-- testClasses -->
<g id="node7" class="node"><title>testClasses</title>
<polygon fill="lightcyan" stroke="black" points="670,-753 594,-753 594,-717 670,-717 670,-753"/>
<text text-anchor="middle" x="632" y="-731.3" font-family="Times,serif" font-size="14.00">testClasses</text>
</g>
<!-- compileTestJava&#45;&gt;testClasses -->
<g id="edge7" class="edge"><title>compileTestJava&#45;&gt;testClasses</title>
<path fill="none" stroke="black" d="M641.034,-788.697C639.711,-780.983 638.122,-771.712 636.648,-763.112"/>
<polygon fill="black" stroke="black" points="640.072,-762.369 634.932,-753.104 633.172,-763.552 640.072,-762.369"/>
</g>
<!-- processTestResources -->
<g id="node6" class="node"><title>processTestResources</title>
<polygon fill="lightcyan" stroke="black" points="572,-825 436,-825 436,-789 572,-789 572,-825"/>
<text text-anchor="middle" x="504" y="-803.3" font-family="Times,serif" font-size="14.00">processTestResources</text>
</g>
<!-- processTestResources&#45;&gt;testClasses -->
<g id="edge8" class="edge"><title>processTestResources&#45;&gt;testClasses</title>
<path fill="none" stroke="black" d="M537.719,-788.899C553.678,-780.667 572.935,-770.534 590,-761 591.528,-760.146 593.082,-759.268 594.649,-758.374"/>
<polygon fill="black" stroke="black" points="596.757,-761.198 603.656,-753.157 593.249,-755.141 596.757,-761.198"/>
</g>
<!-- testClasses&#45;&gt;test -->
<g id="edge11" class="edge"><title>testClasses&#45;&gt;test</title>
<path fill="none" stroke="black" d="M649.739,-716.84C663.739,-703.296 683.441,-684.236 699.034,-669.152"/>
<polygon fill="black" stroke="black" points="701.562,-671.576 706.316,-662.107 696.695,-666.545 701.562,-671.576"/>
</g>
<!-- findbugsTest -->
<g id="node26" class="node"><title>findbugsTest</title>
<polygon fill="orange" stroke="black" points="651.25,-662 564.75,-662 564.75,-626 651.25,-626 651.25,-662"/>
<text text-anchor="middle" x="608" y="-640.3" font-family="Times,serif" font-size="14.00">findbugsTest</text>
</g>
<!-- testClasses&#45;&gt;findbugsTest -->
<g id="edge29" class="edge"><title>testClasses&#45;&gt;findbugsTest</title>
<path fill="none" stroke="black" d="M627.373,-716.84C623.953,-704.158 619.229,-686.64 615.302,-672.077"/>
<polygon fill="black" stroke="black" points="618.596,-670.851 612.613,-662.107 611.838,-672.674 618.596,-670.851"/>
</g>
<!-- check -->
<g id="node11" class="node"><title>check</title>
<polygon fill="cyan" stroke="black" points="623,-590 569,-590 569,-554 623,-554 623,-590"/>
<text text-anchor="middle" x="596" y="-568.3" font-family="Times,serif" font-size="14.00">check</text>
</g>
<!-- test&#45;&gt;check -->
<g id="edge14" class="edge"><title>test&#45;&gt;check</title>
<path fill="none" stroke="black" d="M705.124,-625.911C701.292,-622.992 697.156,-620.198 693,-618 665.905,-603.671 654.095,-612.329 627,-598 625.701,-597.313 624.404,-596.568 623.118,-595.779"/>
<polygon fill="black" stroke="black" points="625.094,-592.89 614.876,-590.089 621.117,-598.651 625.094,-592.89"/>
</g>
<!-- jacocoTestReport -->
<g id="node24" class="node"><title>jacocoTestReport</title>
<polygon fill="orange" stroke="black" points="796,-590 684,-590 684,-554 796,-554 796,-590"/>
<text text-anchor="middle" x="740" y="-568.3" font-family="Times,serif" font-size="14.00">jacocoTestReport</text>
</g>
<!-- test&#45;&gt;jacocoTestReport -->
<g id="edge32" class="edge"><title>test&#45;&gt;jacocoTestReport</title>
<path fill="none" stroke="black" d="M727.955,-625.697C729.718,-617.983 731.837,-608.712 733.803,-600.112"/>
<polygon fill="black" stroke="black" points="737.274,-600.633 736.09,-590.104 730.45,-599.073 737.274,-600.633"/>
</g>
<!-- assemble&#45;&gt;check -->
<g id="edge13" class="edge"><title>assemble&#45;&gt;check</title>
<path fill="none" stroke="black" d="M246.595,-625.949C252.145,-622.879 258.119,-620.019 264,-618 317.878,-599.505 483.66,-582.969 558.569,-576.221"/>
<polygon fill="black" stroke="black" points="559.288,-579.671 568.938,-575.297 558.667,-572.698 559.288,-579.671"/>
</g>
<!-- release -->
<g id="node13" class="node"><title>release</title>
<polygon fill="cyan" stroke="black" points="118,-590 64,-590 64,-554 118,-554 118,-590"/>
<text text-anchor="middle" x="91" y="-568.3" font-family="Times,serif" font-size="14.00">release</text>
</g>
<!-- assemble&#45;&gt;release -->
<g id="edge23" class="edge"><title>assemble&#45;&gt;release</title>
<path fill="none" stroke="black" d="M189.198,-625.876C170.38,-615.743 146.486,-602.877 126.98,-592.374"/>
<polygon fill="black" stroke="black" points="128.545,-589.241 118.08,-587.582 125.226,-595.404 128.545,-589.241"/>
</g>
<!-- exportX -->
<g id="node15" class="node"><title>exportX</title>
<polygon fill="cyan" stroke="black" points="263.25,-590 166.75,-590 162.75,-586 162.75,-554 259.25,-554 263.25,-558 263.25,-590"/>
<polyline fill="none" stroke="black" points="259.25,-586 162.75,-586 "/>
<polyline fill="none" stroke="black" points="259.25,-586 259.25,-554 "/>
<polyline fill="none" stroke="black" points="259.25,-586 263.25,-590 "/>
<text text-anchor="middle" x="213" y="-568.3" font-family="Times,serif" font-size="14.00">export.&lt;name&gt;</text>
</g>
<!-- assemble&#45;&gt;exportX -->
<g id="edge24" class="edge"><title>assemble&#45;&gt;exportX</title>
<path fill="none" stroke="black" d="M219.022,-625.697C218.141,-617.983 217.081,-608.712 216.099,-600.112"/>
<polygon fill="black" stroke="black" points="219.568,-599.642 214.955,-590.104 212.613,-600.437 219.568,-599.642"/>
</g>
<!-- build -->
<g id="node17" class="node"><title>build</title>
<polygon fill="lightcyan" stroke="black" points="435,-518 381,-518 381,-482 435,-482 435,-518"/>
<text text-anchor="middle" x="408" y="-496.3" font-family="Times,serif" font-size="14.00">build</text>
</g>
<!-- assemble&#45;&gt;build -->
<g id="edge12" class="edge"><title>assemble&#45;&gt;build</title>
<path fill="none" stroke="black" d="M243.557,-625.871C276.972,-600.497 339.713,-552.854 377.292,-524.318"/>
<polygon fill="black" stroke="black" points="379.516,-527.024 385.363,-518.189 375.283,-521.449 379.516,-527.024"/>
</g>
<!-- checkNeeded -->
<g id="node12" class="node"><title>checkNeeded</title>
<polygon fill="cyan" stroke="black" points="649.25,-518 560.75,-518 560.75,-482 649.25,-482 649.25,-518"/>
<text text-anchor="middle" x="605" y="-496.3" font-family="Times,serif" font-size="14.00">checkNeeded</text>
</g>
<!-- check&#45;&gt;checkNeeded -->
<g id="edge15" class="edge"><title>check&#45;&gt;checkNeeded</title>
<path fill="none" stroke="black" d="M598.225,-553.697C599.217,-545.983 600.408,-536.712 601.514,-528.112"/>
<polygon fill="black" stroke="black" points="604.997,-528.469 602.801,-518.104 598.054,-527.576 604.997,-528.469"/>
</g>
<!-- check&#45;&gt;build -->
<g id="edge17" class="edge"><title>check&#45;&gt;build</title>
<path fill="none" stroke="black" d="M568.663,-560.821C535.99,-548.656 481.177,-528.247 444.802,-514.703"/>
<polygon fill="black" stroke="black" points="445.658,-511.287 435.065,-511.077 443.215,-517.847 445.658,-511.287"/>
</g>
<!-- checkNeeded&#45;&gt;checkNeeded -->
<g id="edge16" class="edge"><title>checkNeeded&#45;&gt;checkNeeded</title>
<path fill="none" stroke="red" d="M649.306,-513.203C659.507,-512.065 667,-507.664 667,-500 667,-495.09 663.925,-491.52 659.032,-489.288"/>
<polygon fill="red" stroke="red" points="659.862,-485.888 649.306,-486.797 658.125,-492.669 659.862,-485.888"/>
</g>
<!-- releaseNeeded -->
<g id="node14" class="node"><title>releaseNeeded</title>
<polygon fill="cyan" stroke="black" points="119.25,-518 24.75,-518 24.75,-482 119.25,-482 119.25,-518"/>
<text text-anchor="middle" x="72" y="-496.3" font-family="Times,serif" font-size="14.00">releaseNeeded</text>
</g>
<!-- release&#45;&gt;releaseNeeded -->
<g id="edge26" class="edge"><title>release&#45;&gt;releaseNeeded</title>
<path fill="none" stroke="black" d="M86.3034,-553.697C84.1866,-545.898 81.638,-536.509 79.2822,-527.829"/>
<polygon fill="black" stroke="black" points="82.64,-526.838 76.6426,-518.104 75.8844,-528.672 82.64,-526.838"/>
</g>
<!-- releaseNeeded&#45;&gt;releaseNeeded -->
<g id="edge27" class="edge"><title>releaseNeeded&#45;&gt;releaseNeeded</title>
<path fill="none" stroke="red" d="M119.326,-513.101C129.571,-511.82 137,-507.453 137,-500 137,-495.225 133.951,-491.717 129.066,-489.476"/>
<polygon fill="red" stroke="red" points="129.889,-486.073 119.326,-486.899 128.098,-492.84 129.889,-486.073"/>
</g>
<!-- export -->
<g id="node16" class="node"><title>export</title>
<polygon fill="cyan" stroke="black" points="240,-518 186,-518 186,-482 240,-482 240,-518"/>
<text text-anchor="middle" x="213" y="-496.3" font-family="Times,serif" font-size="14.00">export</text>
</g>
<!-- exportX&#45;&gt;export -->
<g id="edge25" class="edge"><title>exportX&#45;&gt;export</title>
<path fill="none" stroke="black" d="M213,-553.697C213,-545.983 213,-536.712 213,-528.112"/>
<polygon fill="black" stroke="black" points="216.5,-528.104 213,-518.104 209.5,-528.104 216.5,-528.104"/>
</g>
<!-- buildDependents -->
<g id="node18" class="node"><title>buildDependents</title>
<polygon fill="lightcyan" stroke="black" points="396,-446 288,-446 288,-410 396,-410 396,-446"/>
<text text-anchor="middle" x="342" y="-424.3" font-family="Times,serif" font-size="14.00">buildDependents</text>
</g>
<!-- build&#45;&gt;buildDependents -->
<g id="edge18" class="edge"><title>build&#45;&gt;buildDependents</title>
<path fill="none" stroke="black" d="M391.685,-481.697C383.693,-473.22 373.928,-462.864 365.178,-453.583"/>
<polygon fill="black" stroke="black" points="367.534,-450.979 358.127,-446.104 362.441,-455.781 367.534,-450.979"/>
</g>
<!-- buildNeeded -->
<g id="node19" class="node"><title>buildNeeded</title>
<polygon fill="lightcyan" stroke="black" points="518,-446 432,-446 432,-410 518,-410 518,-446"/>
<text text-anchor="middle" x="475" y="-424.3" font-family="Times,serif" font-size="14.00">buildNeeded</text>
</g>
<!-- build&#45;&gt;buildNeeded -->
<g id="edge20" class="edge"><title>build&#45;&gt;buildNeeded</title>
<path fill="none" stroke="black" d="M424.562,-481.697C432.675,-473.22 442.588,-462.864 451.471,-453.583"/>
<polygon fill="black" stroke="black" points="454.243,-455.749 458.629,-446.104 449.186,-450.908 454.243,-455.749"/>
</g>
<!-- buildDependents&#45;&gt;buildDependents -->
<g id="edge19" class="edge"><title>buildDependents&#45;&gt;buildDependents</title>
<path fill="none" stroke="yellow" d="M396.007,-440.899C406.529,-439.401 414,-435.102 414,-428 414,-423.451 410.934,-420.051 405.964,-417.801"/>
<polygon fill="yellow" stroke="yellow" points="406.575,-414.341 396.007,-415.101 404.742,-421.097 406.575,-414.341"/>
</g>
<!-- buildNeeded&#45;&gt;buildNeeded -->
<g id="edge21" class="edge"><title>buildNeeded&#45;&gt;buildNeeded</title>
<path fill="none" stroke="red" d="M518.036,-441.262C528.355,-440.225 536,-435.805 536,-428 536,-423 532.862,-419.389 527.894,-417.167"/>
<polygon fill="red" stroke="red" points="528.583,-413.732 518.036,-414.738 526.909,-420.529 528.583,-413.732"/>
</g>
<!-- clean -->
<g id="node21" class="node"><title>clean</title>
<polygon fill="cyan" stroke="black" points="796,-988 742,-988 742,-952 796,-952 796,-988"/>
<text text-anchor="middle" x="769" y="-966.3" font-family="Times,serif" font-size="14.00">clean</text>
</g>
<!-- cleanAll -->
<g id="node30" class="node"><title>cleanAll</title>
<polygon fill="orange" stroke="black" points="898,-897 844,-897 844,-861 898,-861 898,-897"/>
<text text-anchor="middle" x="871" y="-875.3" font-family="Times,serif" font-size="14.00">clean</text>
</g>
<!-- clean&#45;&gt;cleanAll -->
<g id="edge33" class="edge"><title>clean&#45;&gt;cleanAll</title>
<path fill="none" stroke="blue" d="M788.667,-951.84C804.33,-938.173 826.43,-918.889 843.791,-903.741"/>
<polygon fill="blue" stroke="blue" points="846.16,-906.319 851.394,-897.107 841.558,-901.045 846.16,-906.319"/>
</g>
<!-- echo -->
<g id="node22" class="node"><title>echo</title>
<polygon fill="cyan" stroke="black" points="389,-988 335,-988 335,-952 389,-952 389,-988"/>
<text text-anchor="middle" x="362" y="-966.3" font-family="Times,serif" font-size="14.00">echo</text>
</g>
<!-- bndproperties -->
<g id="node23" class="node"><title>bndproperties</title>
<polygon fill="cyan" stroke="black" points="171.25,-988 80.75,-988 80.75,-952 171.25,-952 171.25,-988"/>
<text text-anchor="middle" x="126" y="-966.3" font-family="Times,serif" font-size="14.00">bndproperties</text>
</g>
<!-- findbugsMain&#45;&gt;check -->
<g id="edge30" class="edge"><title>findbugsMain&#45;&gt;check</title>
<path fill="none" stroke="green" d="M374.491,-788.87C380.599,-762.483 395.388,-711.447 424,-678 461.214,-634.498 521.127,-603.709 559.517,-587.154"/>
<polygon fill="green" stroke="green" points="560.928,-590.358 568.787,-583.253 558.212,-583.906 560.928,-590.358"/>
</g>
<!-- findbugsTest&#45;&gt;check -->
<g id="edge31" class="edge"><title>findbugsTest&#45;&gt;check</title>
<path fill="none" stroke="green" d="M605.034,-625.697C603.711,-617.983 602.122,-608.712 600.648,-600.112"/>
<polygon fill="green" stroke="green" points="604.072,-599.369 598.932,-590.104 597.172,-600.552 604.072,-599.369"/>
</g>
<!-- init -->
<g id="node27" class="node"><title>init</title>
<polygon fill="lightcyan" stroke="black" points="1028,-988 974,-988 974,-952 1028,-952 1028,-988"/>
<text text-anchor="middle" x="1001" y="-966.3" font-family="Times,serif" font-size="14.00">init</text>
</g>
<!-- wrapper -->
<g id="node28" class="node"><title>wrapper</title>
<polygon fill="orange" stroke="black" points="955.25,-988 894.75,-988 894.75,-952 955.25,-952 955.25,-988"/>
<text text-anchor="middle" x="925" y="-966.3" font-family="Times,serif" font-size="14.00">wrapper</text>
</g>
<!-- index -->
<g id="node29" class="node"><title>index</title>
<polygon fill="orange" stroke="black" points="1094,-897 1040,-897 1040,-861 1094,-861 1094,-897"/>
<text text-anchor="middle" x="1067" y="-875.3" font-family="Times,serif" font-size="14.00">index</text>
</g>
<!-- cleanAllNeeded -->
<g id="node31" class="node"><title>cleanAllNeeded</title>
<polygon fill="orange" stroke="black" points="914,-825 828,-825 828,-789 914,-789 914,-825"/>
<text text-anchor="middle" x="871" y="-803.3" font-family="Times,serif" font-size="14.00">cleanNeeded</text>
</g>
<!-- cleanAll&#45;&gt;cleanAllNeeded -->
<g id="edge34" class="edge"><title>cleanAll&#45;&gt;cleanAllNeeded</title>
<path fill="none" stroke="blue" d="M871,-860.697C871,-852.983 871,-843.712 871,-835.112"/>
<polygon fill="blue" stroke="blue" points="874.5,-835.104 871,-825.104 867.5,-835.104 874.5,-835.104"/>
</g>
<!-- distclean -->
<g id="node32" class="node"><title>distclean</title>
<polygon fill="orange" stroke="black" points="1015.25,-825 950.75,-825 950.75,-789 1015.25,-789 1015.25,-825"/>
<text text-anchor="middle" x="983" y="-803.3" font-family="Times,serif" font-size="14.00">distclean</text>
</g>
<!-- cleanAll&#45;&gt;distclean -->
<g id="edge36" class="edge"><title>cleanAll&#45;&gt;distclean</title>
<path fill="none" stroke="blue" d="M898.112,-861.055C912.861,-851.837 931.29,-840.319 947.206,-830.371"/>
<polygon fill="blue" stroke="blue" points="949.124,-833.3 955.749,-825.032 945.414,-827.364 949.124,-833.3"/>
</g>
<!-- cleanAllNeeded&#45;&gt;cleanAllNeeded -->
<g id="edge35" class="edge"><title>cleanAllNeeded&#45;&gt;cleanAllNeeded</title>
<path fill="none" stroke="red" d="M914.036,-820.262C924.355,-819.225 932,-814.805 932,-807 932,-802 928.862,-798.389 923.894,-796.167"/>
<polygon fill="red" stroke="red" points="924.583,-792.732 914.036,-793.738 922.909,-799.529 924.583,-792.732"/>
</g>
<!-- distcleanNeeded -->
<g id="node33" class="node"><title>distcleanNeeded</title>
<polygon fill="orange" stroke="black" points="998,-753 892,-753 892,-717 998,-717 998,-753"/>
<text text-anchor="middle" x="945" y="-731.3" font-family="Times,serif" font-size="14.00">distcleanNeeded</text>
</g>
<!-- distclean&#45;&gt;distcleanNeeded -->
<g id="edge37" class="edge"><title>distclean&#45;&gt;distcleanNeeded</title>
<path fill="none" stroke="black" d="M973.607,-788.697C969.235,-780.644 963.943,-770.894 959.105,-761.982"/>
<polygon fill="black" stroke="black" points="962.132,-760.223 954.285,-753.104 955.98,-763.563 962.132,-760.223"/>
</g>
<!-- distcleanNeeded&#45;&gt;distcleanNeeded -->
<g id="edge38" class="edge"><title>distcleanNeeded&#45;&gt;distcleanNeeded</title>
<path fill="none" stroke="red" d="M998.257,-747.899C1008.63,-746.401 1016,-742.102 1016,-735 1016,-730.451 1012.98,-727.051 1008.08,-724.801"/>
<polygon fill="red" stroke="red" points="1008.83,-721.378 998.257,-722.101 1006.97,-728.128 1008.83,-721.378"/>
</g>
<!-- p2FeaturesTree -->
<g id="node35" class="node"><title>p2FeaturesTree</title>
<polygon fill="none" stroke="black" points="942.25,-590 841.75,-590 841.75,-554 942.25,-554 942.25,-590"/>
<text text-anchor="middle" x="892" y="-568.3" font-family="Times,serif" font-size="14.00">p2FeaturesTree</text>
</g>
<!-- p2Entry&#45;&gt;p2FeaturesTree -->
<g id="edge40" class="edge"><title>p2Entry&#45;&gt;p2FeaturesTree</title>
<path fill="none" stroke="black" d="M892,-625.697C892,-617.983 892,-608.712 892,-600.112"/>
<polygon fill="black" stroke="black" points="895.5,-600.104 892,-590.104 888.5,-600.104 895.5,-600.104"/>
</g>
<!-- p2PluginsPelagic -->
<g id="node38" class="node"><title>p2PluginsPelagic</title>
<polygon fill="none" stroke="black" points="1092,-518 982,-518 982,-482 1092,-482 1092,-518"/>
<text text-anchor="middle" x="1037" y="-496.3" font-family="Times,serif" font-size="14.00">p2PluginsPelagic</text>
</g>
<!-- p2Entry&#45;&gt;p2PluginsPelagic -->
<g id="edge43" class="edge"><title>p2Entry&#45;&gt;p2PluginsPelagic</title>
<path fill="none" stroke="black" d="M916.678,-625.837C927.589,-617.836 940.334,-607.907 951,-598 975.494,-575.25 1000.52,-546.245 1017.21,-525.902"/>
<polygon fill="black" stroke="black" points="1020.02,-527.993 1023.61,-518.026 1014.59,-523.578 1020.02,-527.993"/>
</g>
<!-- p2FeatureGradlePlugin -->
<g id="node36" class="node"><title>p2FeatureGradlePlugin</title>
<polygon fill="none" stroke="black" points="963.25,-518 820.75,-518 820.75,-482 963.25,-482 963.25,-518"/>
<text text-anchor="middle" x="892" y="-496.3" font-family="Times,serif" font-size="14.00">p2FeatureGradlePlugin</text>
</g>
<!-- p2FeaturesTree&#45;&gt;p2FeatureGradlePlugin -->
<g id="edge41" class="edge"><title>p2FeaturesTree&#45;&gt;p2FeatureGradlePlugin</title>
<path fill="none" stroke="black" d="M892,-553.697C892,-545.983 892,-536.712 892,-528.112"/>
<polygon fill="black" stroke="black" points="895.5,-528.104 892,-518.104 888.5,-528.104 895.5,-528.104"/>
</g>
<!-- p2Features -->
<g id="node37" class="node"><title>p2Features</title>
<polygon fill="none" stroke="black" points="943,-446 867,-446 867,-410 943,-410 943,-446"/>
<text text-anchor="middle" x="905" y="-424.3" font-family="Times,serif" font-size="14.00">p2Features</text>
</g>
<!-- p2FeatureGradlePlugin&#45;&gt;p2Features -->
<g id="edge42" class="edge"><title>p2FeatureGradlePlugin&#45;&gt;p2Features</title>
<path fill="none" stroke="black" d="M895.213,-481.697C896.646,-473.983 898.368,-464.712 899.965,-456.112"/>
<polygon fill="black" stroke="black" points="903.439,-456.575 901.823,-446.104 896.556,-455.297 903.439,-456.575"/>
</g>
<!-- p2 -->
<g id="node40" class="node"><title>p2</title>
<polygon fill="yellow" stroke="black" points="967,-363 913,-363 913,-327 967,-327 967,-363"/>
<text text-anchor="middle" x="940" y="-341.3" font-family="Times,serif" font-size="14.00">p2</text>
</g>
<!-- p2Features&#45;&gt;p2 -->
<g id="edge45" class="edge"><title>p2Features&#45;&gt;p2</title>
<path fill="none" stroke="black" d="M912.423,-409.822C917.109,-398.976 923.259,-384.744 928.561,-372.472"/>
<polygon fill="black" stroke="black" points="931.834,-373.721 932.588,-363.153 925.409,-370.945 931.834,-373.721"/>
</g>
<!-- p2Plugins -->
<g id="node39" class="node"><title>p2Plugins</title>
<polygon fill="none" stroke="black" points="1058.25,-446 987.75,-446 987.75,-410 1058.25,-410 1058.25,-446"/>
<text text-anchor="middle" x="1023" y="-424.3" font-family="Times,serif" font-size="14.00">p2Plugins</text>
</g>
<!-- p2PluginsPelagic&#45;&gt;p2Plugins -->
<g id="edge44" class="edge"><title>p2PluginsPelagic&#45;&gt;p2Plugins</title>
<path fill="none" stroke="black" d="M1033.54,-481.697C1032,-473.983 1030.14,-464.712 1028.42,-456.112"/>
<polygon fill="black" stroke="black" points="1031.81,-455.224 1026.42,-446.104 1024.95,-456.597 1031.81,-455.224"/>
</g>
<!-- p2Plugins&#45;&gt;p2 -->
<g id="edge46" class="edge"><title>p2Plugins&#45;&gt;p2</title>
<path fill="none" stroke="black" d="M1005.4,-409.822C993.623,-398.331 977.955,-383.041 964.907,-370.307"/>
<polygon fill="black" stroke="black" points="967.178,-367.633 957.577,-363.153 962.289,-372.642 967.178,-367.633"/>
</g>
<!-- indexBuild -->
<g id="node41" class="node"><title>indexBuild</title>
<polygon fill="yellow" stroke="black" points="967,-291 913,-291 913,-255 967,-255 967,-291"/>
<text text-anchor="middle" x="940" y="-269.3" font-family="Times,serif" font-size="14.00">index</text>
</g>
<!-- p2&#45;&gt;indexBuild -->
<g id="edge47" class="edge"><title>p2&#45;&gt;indexBuild</title>
<path fill="none" stroke="black" d="M940,-326.697C940,-318.983 940,-309.712 940,-301.112"/>
<polygon fill="black" stroke="black" points="943.5,-301.104 940,-291.104 936.5,-301.104 943.5,-301.104"/>
</g>
<!-- distCompositePelagic -->
<g id="node42" class="node"><title>distCompositePelagic</title>
<polygon fill="none" stroke="black" points="981.25,-219 846.75,-219 846.75,-183 981.25,-183 981.25,-219"/>
<text text-anchor="middle" x="914" y="-197.3" font-family="Times,serif" font-size="14.00">distCompositePelagic</text>
</g>
<!-- indexBuild&#45;&gt;distCompositePelagic -->
<g id="edge48" class="edge"><title>indexBuild&#45;&gt;distCompositePelagic</title>
<path fill="none" stroke="black" d="M933.573,-254.697C930.645,-246.813 927.113,-237.304 923.86,-228.546"/>
<polygon fill="black" stroke="black" points="927.116,-227.26 920.353,-219.104 920.554,-229.697 927.116,-227.26"/>
</g>
<!-- distZipPelagic -->
<g id="node43" class="node"><title>distZipPelagic</title>
<polygon fill="none" stroke="black" points="1004.25,-147 909.75,-147 909.75,-111 1004.25,-111 1004.25,-147"/>
<text text-anchor="middle" x="957" y="-125.3" font-family="Times,serif" font-size="14.00">distZipPelagic</text>
</g>
<!-- indexBuild&#45;&gt;distZipPelagic -->
<g id="edge49" class="edge"><title>indexBuild&#45;&gt;distZipPelagic</title>
<path fill="none" stroke="black" d="M962.596,-254.963C973.059,-245.635 984.396,-233.107 990,-219 995.907,-204.13 994.398,-198.384 990,-183 987.287,-173.51 982.328,-164.065 977.065,-155.834"/>
<polygon fill="black" stroke="black" points="979.858,-153.717 971.327,-147.434 974.078,-157.666 979.858,-153.717"/>
</g>
<!-- distCompositePelagic&#45;&gt;distZipPelagic -->
<g id="edge50" class="edge"><title>distCompositePelagic&#45;&gt;distZipPelagic</title>
<path fill="none" stroke="black" d="M924.629,-182.697C929.628,-174.559 935.691,-164.689 941.212,-155.701"/>
<polygon fill="black" stroke="black" points="944.241,-157.457 946.493,-147.104 938.277,-153.793 944.241,-157.457"/>
</g>
<!-- dist -->
<g id="node44" class="node"><title>dist</title>
<polygon fill="yellow" stroke="black" points="984,-75 930,-75 930,-39 984,-39 984,-75"/>
<text text-anchor="middle" x="957" y="-53.3" font-family="Times,serif" font-size="14.00">dist</text>
</g>
<!-- distZipPelagic&#45;&gt;dist -->
<g id="edge51" class="edge"><title>distZipPelagic&#45;&gt;dist</title>
<path fill="none" stroke="black" d="M957,-110.697C957,-102.983 957,-93.7125 957,-85.1124"/>
<polygon fill="black" stroke="black" points="960.5,-85.1043 957,-75.1043 953.5,-85.1044 960.5,-85.1043"/>
</g>
</g>
</svg>
