<?xml version="1.0" encoding="UTF-8" standalone="no"?>
<!DOCTYPE svg PUBLIC "-//W3C//DTD SVG 1.1//EN"
 "http://www.w3.org/Graphics/SVG/1.1/DTD/svg11.dtd">
<!-- Generated by graphviz version 2.34.0 (20140110.0949)
 -->
<!-- Title: GradleSetup Pages: 1 -->
<svg width="1840pt" height="1068pt"
 viewBox="0.00 0.00 1840.00 1068.00" xmlns="http://www.w3.org/2000/svg" xmlns:xlink="http://www.w3.org/1999/xlink">
<g id="graph0" class="graph" transform="scale(1 1) rotate(0) translate(4 1064)">
<title>GradleSetup</title>
<polygon fill="white" stroke="white" points="-4,4 -4,-1064 1836,-1064 1836,4 -4,4"/>
<text text-anchor="middle" x="61" y="-1044.8" font-family="Times,serif" font-size="14.00">Gradle Build Setup</text>
<g id="clust1" class="cluster"><title>cluster1</title>
<polygon fill="lightgrey" stroke="black" points="736,-443 736,-1029 1425,-1029 1425,-443 736,-443"/>
<text text-anchor="middle" x="776" y="-450.8" font-family="Times,serif" font-size="14.00">Java Plugin</text>
</g>
<g id="clust2" class="cluster"><title>cluster11</title>
</g>
<g id="clust3" class="cluster"><title>cluster12</title>
</g>
<g id="clust4" class="cluster"><title>cluster13</title>
</g>
<g id="clust5" class="cluster"><title>cluster2</title>
<polygon fill="lightgrey" stroke="black" points="101,-681 101,-894 728,-894 728,-681 101,-681"/>
<text text-anchor="middle" x="144" y="-688.8" font-family="Times,serif" font-size="14.00">Bnd Projects</text>
</g>
<g id="clust6" class="cluster"><title>cluster21</title>
</g>
<g id="clust7" class="cluster"><title>cluster22</title>
</g>
<g id="clust8" class="cluster"><title>cluster23</title>
</g>
<g id="clust9" class="cluster"><title>cluster100</title>
<polygon fill="lightgrey" stroke="black" points="149,-811 149,-886 275,-886 275,-811 149,-811"/>
<text text-anchor="middle" x="211.5" y="-870.8" font-family="Times,serif" font-size="14.00">Class Cycle Checks</text>
</g>
<g id="clust10" class="cluster"><title>cluster3</title>
<polygon fill="lightgrey" stroke="black" points="1433,-946 1433,-1021 1518,-1021 1518,-946 1433,-946"/>
<text text-anchor="middle" x="1475.5" y="-953.8" font-family="Times,serif" font-size="14.00">Root Project</text>
</g>
<g id="clust11" class="cluster"><title>cluster4</title>
<polygon fill="lightgrey" stroke="black" points="1433,-590 1433,-772 1793,-772 1793,-590 1433,-590"/>
<text text-anchor="middle" x="1477" y="-597.8" font-family="Times,serif" font-size="14.00">Java Projects</text>
</g>
<g id="clust12" class="cluster"><title>cluster41</title>
</g>
<g id="clust13" class="cluster"><title>cluster42</title>
</g>
<g id="clust14" class="cluster"><title>cluster5</title>
<polygon fill="lightgrey" stroke="black" points="1526,-780 1526,-1029 1824,-1029 1824,-780 1526,-780"/>
<text text-anchor="middle" x="1566.5" y="-787.8" font-family="Times,serif" font-size="14.00">All Projects</text>
</g>
<g id="clust15" class="cluster"><title>cluster21</title>
</g>
<g id="clust16" class="cluster"><title>cluster22</title>
</g>
<g id="clust17" class="cluster"><title>cluster7</title>
<polygon fill="lightgrey" stroke="black" points="8,-8 8,-673 300,-673 300,-8 8,-8"/>
<text text-anchor="middle" x="52.5" y="-15.8" font-family="Times,serif" font-size="14.00">Build Project</text>
</g>
<!-- compileJava -->
<g id="node1" class="node"><title>compileJava</title>
<polygon fill="lightcyan" stroke="black" points="901.25,-1013 816.75,-1013 816.75,-977 901.25,-977 901.25,-1013"/>
<text text-anchor="middle" x="859" y="-991.3" font-family="Times,serif" font-size="14.00">compileJava</text>
</g>
<!-- classes -->
<g id="node3" class="node"><title>classes</title>
<polygon fill="lightcyan" stroke="black" points="1003,-938 949,-938 949,-902 1003,-902 1003,-938"/>
<text text-anchor="middle" x="976" y="-916.3" font-family="Times,serif" font-size="14.00">classes</text>
</g>
<!-- compileJava&#45;&gt;classes -->
<g id="edge1" class="edge"><title>compileJava&#45;&gt;classes</title>
<path fill="none" stroke="black" d="M874.161,-976.651C883.654,-966.625 896.596,-954.377 910,-946 918.962,-940.399 929.376,-935.734 939.248,-932.011"/>
<polygon fill="black" stroke="black" points="940.609,-935.242 948.864,-928.601 938.27,-928.644 940.609,-935.242"/>
</g>
<!-- processResources -->
<g id="node2" class="node"><title>processResources</title>
<polygon fill="lightcyan" stroke="black" points="1032.25,-1013 919.75,-1013 919.75,-977 1032.25,-977 1032.25,-1013"/>
<text text-anchor="middle" x="976" y="-991.3" font-family="Times,serif" font-size="14.00">processResources</text>
</g>
<!-- processResources&#45;&gt;classes -->
<g id="edge2" class="edge"><title>processResources&#45;&gt;classes</title>
<path fill="none" stroke="black" d="M976,-976.7C976,-968.245 976,-957.869 976,-948.373"/>
<polygon fill="black" stroke="black" points="979.5,-948.176 976,-938.176 972.5,-948.176 979.5,-948.176"/>
</g>
<!-- jar -->
<g id="node4" class="node"><title>jar</title>
<polygon fill="lightcyan" stroke="black" points="893,-855 839,-855 839,-819 893,-819 893,-855"/>
<text text-anchor="middle" x="866" y="-833.3" font-family="Times,serif" font-size="14.00">jar</text>
</g>
<!-- classes&#45;&gt;jar -->
<g id="edge6" class="edge"><title>classes&#45;&gt;jar</title>
<path fill="none" stroke="black" d="M952.672,-901.822C936.63,-890.009 915.134,-874.18 897.564,-861.242"/>
<polygon fill="black" stroke="black" points="899.422,-858.264 889.295,-855.153 895.272,-863.901 899.422,-858.264"/>
</g>
<!-- compileTestJava -->
<g id="node5" class="node"><title>compileTestJava</title>
<polygon fill="lightcyan" stroke="black" points="1319,-855 1211,-855 1211,-819 1319,-819 1319,-855"/>
<text text-anchor="middle" x="1265" y="-833.3" font-family="Times,serif" font-size="14.00">compileTestJava</text>
</g>
<!-- classes&#45;&gt;compileTestJava -->
<g id="edge5" class="edge"><title>classes&#45;&gt;compileTestJava</title>
<path fill="none" stroke="black" d="M1003.19,-918.049C1055.27,-915.893 1167.01,-909.558 1202,-894 1218.12,-886.83 1233.04,-873.99 1244.3,-862.412"/>
<polygon fill="black" stroke="black" points="1246.9,-864.76 1251.15,-855.058 1241.77,-859.988 1246.9,-864.76"/>
</g>
<!-- test -->
<g id="node8" class="node"><title>test</title>
<polygon fill="lightcyan" stroke="black" points="1309,-665 1255,-665 1255,-629 1309,-629 1309,-665"/>
<text text-anchor="middle" x="1282" y="-643.3" font-family="Times,serif" font-size="14.00">test</text>
</g>
<!-- classes&#45;&gt;test -->
<g id="edge4" class="edge"><title>classes&#45;&gt;test</title>
<path fill="none" stroke="black" d="M1003.04,-919.147C1081.66,-919.293 1306,-917.619 1328,-894 1344.14,-876.67 1330.69,-702.135 1320,-681 1318.5,-678.037 1316.61,-675.226 1314.48,-672.589"/>
<polygon fill="black" stroke="black" points="1316.91,-670.07 1307.5,-665.212 1311.83,-674.881 1316.91,-670.07"/>
</g>
<!-- javadoc -->
<g id="node13" class="node"><title>javadoc</title>
<polygon fill="lightcyan" stroke="black" points="1416.25,-855 1357.75,-855 1357.75,-819 1416.25,-819 1416.25,-855"/>
<text text-anchor="middle" x="1387" y="-833.3" font-family="Times,serif" font-size="14.00">javadoc</text>
</g>
<!-- classes&#45;&gt;javadoc -->
<g id="edge3" class="edge"><title>classes&#45;&gt;javadoc</title>
<path fill="none" stroke="black" d="M1003.27,-918.414C1083.21,-916.52 1313.22,-909.748 1343,-894 1355.68,-887.296 1365.9,-875.17 1373.29,-863.913"/>
<polygon fill="black" stroke="black" points="1376.39,-865.552 1378.6,-855.19 1370.41,-861.911 1376.39,-865.552"/>
</g>
<!-- bundle -->
<g id="node15" class="node"><title>bundle</title>
<polygon fill="cyan" stroke="black" points="171,-756 117,-756 117,-720 171,-720 171,-756"/>
<text text-anchor="middle" x="144" y="-734.3" font-family="Times,serif" font-size="14.00">bundle</text>
</g>
<!-- classes&#45;&gt;bundle -->
<g id="edge17" class="edge"><title>classes&#45;&gt;bundle</title>
<path fill="none" stroke="black" d="M948.924,-919.228C809.052,-920.275 173.71,-923.397 145,-894 112.284,-860.502 123.579,-800.934 134.172,-766.21"/>
<polygon fill="black" stroke="black" points="137.634,-766.88 137.387,-756.288 130.975,-764.722 137.634,-766.88"/>
</g>
<!-- checkClassCycle -->
<g id="node23" class="node"><title>checkClassCycle</title>
<polygon fill="cyan" stroke="black" points="266.25,-855 157.75,-855 157.75,-819 266.25,-819 266.25,-855"/>
<text text-anchor="middle" x="212" y="-833.3" font-family="Times,serif" font-size="14.00">checkClassCycle</text>
</g>
<!-- classes&#45;&gt;checkClassCycle -->
<g id="edge15" class="edge"><title>classes&#45;&gt;checkClassCycle</title>
<path fill="none" stroke="black" d="M948.614,-919.064C827.385,-919.206 342.245,-918.242 279,-894 261.814,-887.413 245.86,-874.479 233.835,-862.699"/>
<polygon fill="black" stroke="black" points="236.013,-859.92 226.526,-855.203 231.001,-864.807 236.013,-859.92"/>
</g>
<!-- findbugsMain -->
<g id="node28" class="node"><title>findbugsMain</title>
<polygon fill="cyan" stroke="black" points="1664.25,-756 1571.75,-756 1571.75,-720 1664.25,-720 1664.25,-756"/>
<text text-anchor="middle" x="1618" y="-734.3" font-family="Times,serif" font-size="14.00">findbugsMain</text>
</g>
<!-- classes&#45;&gt;findbugsMain -->
<g id="edge28" class="edge"><title>classes&#45;&gt;findbugsMain</title>
<path fill="none" stroke="black" d="M1003.24,-918.712C1095.22,-917.573 1390.75,-912.497 1429,-894 1489.94,-864.529 1471.57,-814.183 1530,-780 1544.52,-771.504 1551.46,-778.453 1567,-772 1573.61,-769.255 1580.3,-765.647 1586.56,-761.826"/>
<polygon fill="black" stroke="black" points="1588.86,-764.508 1595.37,-756.15 1585.07,-758.624 1588.86,-764.508"/>
</g>
<!-- uploadArchives -->
<g id="node10" class="node"><title>uploadArchives</title>
<polygon fill="lightcyan" stroke="black" points="940,-756 838,-756 838,-720 940,-720 940,-756"/>
<text text-anchor="middle" x="889" y="-734.3" font-family="Times,serif" font-size="14.00">uploadArchives</text>
</g>
<!-- jar&#45;&gt;uploadArchives -->
<g id="edge9" class="edge"><title>jar&#45;&gt;uploadArchives</title>
<path fill="none" stroke="black" d="M870.112,-818.658C873.579,-804.037 878.599,-782.864 882.593,-766.021"/>
<polygon fill="black" stroke="black" points="886.022,-766.729 884.924,-756.192 879.211,-765.114 886.022,-766.729"/>
</g>
<!-- assemble -->
<g id="node11" class="node"><title>assemble</title>
<polygon fill="lightcyan" stroke="black" points="819.25,-756 752.75,-756 752.75,-720 819.25,-720 819.25,-756"/>
<text text-anchor="middle" x="786" y="-734.3" font-family="Times,serif" font-size="14.00">assemble</text>
</g>
<!-- jar&#45;&gt;assemble -->
<g id="edge10" class="edge"><title>jar&#45;&gt;assemble</title>
<path fill="none" stroke="black" d="M851.698,-818.658C839.184,-803.485 820.851,-781.257 806.729,-764.134"/>
<polygon fill="black" stroke="black" points="809.241,-761.679 800.179,-756.192 803.841,-766.133 809.241,-761.679"/>
</g>
<!-- testClasses -->
<g id="node7" class="node"><title>testClasses</title>
<polygon fill="lightcyan" stroke="black" points="1311,-756 1235,-756 1235,-720 1311,-720 1311,-756"/>
<text text-anchor="middle" x="1273" y="-734.3" font-family="Times,serif" font-size="14.00">testClasses</text>
</g>
<!-- compileTestJava&#45;&gt;testClasses -->
<g id="edge7" class="edge"><title>compileTestJava&#45;&gt;testClasses</title>
<path fill="none" stroke="black" d="M1266.43,-818.658C1267.62,-804.175 1269.35,-783.263 1270.73,-766.499"/>
<polygon fill="black" stroke="black" points="1274.25,-766.445 1271.58,-756.192 1267.27,-765.87 1274.25,-766.445"/>
</g>
<!-- processTestResources -->
<g id="node6" class="node"><title>processTestResources</title>
<polygon fill="lightcyan" stroke="black" points="1193,-855 1057,-855 1057,-819 1193,-819 1193,-855"/>
<text text-anchor="middle" x="1125" y="-833.3" font-family="Times,serif" font-size="14.00">processTestResources</text>
</g>
<!-- processTestResources&#45;&gt;testClasses -->
<g id="edge8" class="edge"><title>processTestResources&#45;&gt;testClasses</title>
<path fill="none" stroke="black" d="M1147.14,-818.947C1162.29,-807.509 1183.01,-792.339 1202,-780 1211.88,-773.582 1222.79,-767.028 1233.03,-761.098"/>
<polygon fill="black" stroke="black" points="1234.88,-764.072 1241.82,-756.066 1231.4,-757.998 1234.88,-764.072"/>
</g>
<!-- testClasses&#45;&gt;test -->
<g id="edge11" class="edge"><title>testClasses&#45;&gt;test</title>
<path fill="none" stroke="black" d="M1274.74,-719.84C1276.02,-707.158 1277.79,-689.64 1279.26,-675.077"/>
<polygon fill="black" stroke="black" points="1282.75,-675.409 1280.27,-665.107 1275.78,-674.705 1282.75,-675.409"/>
</g>
<!-- findbugsTest -->
<g id="node26" class="node"><title>findbugsTest</title>
<polygon fill="cyan" stroke="black" points="1776.25,-756 1689.75,-756 1689.75,-720 1776.25,-720 1776.25,-756"/>
<text text-anchor="middle" x="1733" y="-734.3" font-family="Times,serif" font-size="14.00">findbugsTest</text>
</g>
<!-- testClasses&#45;&gt;findbugsTest -->
<g id="edge29" class="edge"><title>testClasses&#45;&gt;findbugsTest</title>
<path fill="none" stroke="black" d="M1311.24,-749.404C1344.42,-758.667 1393.9,-770.987 1438,-776 1463.39,-778.886 1643,-781.305 1668,-776 1679.87,-773.481 1691.67,-767.794 1701.9,-761.567"/>
<polygon fill="black" stroke="black" points="1703.97,-764.401 1710.45,-756.022 1700.15,-758.529 1703.97,-764.401"/>
</g>
<!-- check -->
<g id="node9" class="node"><title>check</title>
<polygon fill="lightcyan" stroke="black" points="1309,-582 1255,-582 1255,-546 1309,-546 1309,-582"/>
<text text-anchor="middle" x="1282" y="-560.3" font-family="Times,serif" font-size="14.00">check</text>
</g>
<!-- test&#45;&gt;check -->
<g id="edge13" class="edge"><title>test&#45;&gt;check</title>
<path fill="none" stroke="black" d="M1282,-628.822C1282,-618.19 1282,-604.306 1282,-592.204"/>
<polygon fill="black" stroke="black" points="1285.5,-592.153 1282,-582.153 1278.5,-592.153 1285.5,-592.153"/>
</g>
<!-- jacocoTestReport -->
<g id="node29" class="node"><title>jacocoTestReport</title>
<polygon fill="cyan" stroke="black" points="1553,-756 1441,-756 1441,-720 1553,-720 1553,-756"/>
<text text-anchor="middle" x="1497" y="-734.3" font-family="Times,serif" font-size="14.00">jacocoTestReport</text>
</g>
<!-- test&#45;&gt;jacocoTestReport -->
<g id="edge34" class="edge"><title>test&#45;&gt;jacocoTestReport</title>
<path fill="none" stroke="black" d="M1309.11,-659.221C1343.48,-673.449 1403.42,-698.263 1446.37,-716.04"/>
<polygon fill="black" stroke="black" points="1445.22,-719.354 1455.8,-719.945 1447.9,-712.886 1445.22,-719.354"/>
</g>
<!-- build -->
<g id="node12" class="node"><title>build</title>
<polygon fill="lightcyan" stroke="black" points="1185,-510 1131,-510 1131,-474 1185,-474 1185,-510"/>
<text text-anchor="middle" x="1158" y="-488.3" font-family="Times,serif" font-size="14.00">build</text>
</g>
<!-- check&#45;&gt;build -->
<g id="edge14" class="edge"><title>check&#45;&gt;build</title>
<path fill="none" stroke="black" d="M1262.15,-545.902C1258.54,-543.114 1254.74,-540.368 1251,-538 1233.23,-526.743 1212.22,-516.355 1194.67,-508.404"/>
<polygon fill="black" stroke="black" points="1195.88,-505.111 1185.32,-504.246 1193.04,-511.507 1195.88,-505.111"/>
</g>
<!-- assemble&#45;&gt;build -->
<g id="edge12" class="edge"><title>assemble&#45;&gt;build</title>
<path fill="none" stroke="black" d="M796.926,-719.881C804.932,-708.13 816.538,-692.619 829,-681 913.211,-602.49 942.979,-591.358 1045,-538 1069.61,-525.127 1098.76,-513.603 1121.29,-505.44"/>
<polygon fill="black" stroke="black" points="1122.58,-508.697 1130.82,-502.043 1120.23,-502.103 1122.58,-508.697"/>
</g>
<!-- bundleTest -->
<g id="node16" class="node"><title>bundleTest</title>
<polygon fill="cyan" stroke="black" points="266.25,-756 189.75,-756 189.75,-720 266.25,-720 266.25,-756"/>
<text text-anchor="middle" x="228" y="-734.3" font-family="Times,serif" font-size="14.00">bundleTest</text>
</g>
<!-- assemble&#45;&gt;bundleTest -->
<g id="edge20" class="edge"><title>assemble&#45;&gt;bundleTest</title>
<path fill="none" stroke="black" d="M760.745,-756.033C747.761,-764.092 731.275,-772.546 715,-776 691.795,-780.925 311.205,-780.925 288,-776 277.032,-773.672 266.285,-768.203 256.986,-762.119"/>
<polygon fill="black" stroke="black" points="258.745,-759.077 248.554,-756.178 254.713,-764.799 258.745,-759.077"/>
</g>
<!-- release -->
<g id="node17" class="node"><title>release</title>
<polygon fill="cyan" stroke="black" points="692,-855 638,-855 638,-819 692,-819 692,-855"/>
<text text-anchor="middle" x="665" y="-833.3" font-family="Times,serif" font-size="14.00">release</text>
</g>
<!-- assemble&#45;&gt;release -->
<g id="edge22" class="edge"><title>assemble&#45;&gt;release</title>
<path fill="none" stroke="black" d="M764.453,-756.274C744.898,-771.949 715.899,-795.196 694.254,-812.548"/>
<polygon fill="black" stroke="black" points="691.967,-809.896 686.354,-818.882 696.345,-815.358 691.967,-809.896"/>
</g>
<!-- exportX -->
<g id="node21" class="node"><title>exportX</title>
<polygon fill="cyan" stroke="black" points="392.25,-855 295.75,-855 291.75,-851 291.75,-819 388.25,-819 392.25,-823 392.25,-855"/>
<polyline fill="none" stroke="black" points="388.25,-851 291.75,-851 "/>
<polyline fill="none" stroke="black" points="388.25,-851 388.25,-819 "/>
<polyline fill="none" stroke="black" points="388.25,-851 392.25,-855 "/>
<text text-anchor="middle" x="342" y="-833.3" font-family="Times,serif" font-size="14.00">export.&lt;name&gt;</text>
</g>
<!-- assemble&#45;&gt;exportX -->
<g id="edge23" class="edge"><title>assemble&#45;&gt;exportX</title>
<path fill="none" stroke="black" d="M760.264,-756.155C749.52,-762.375 736.619,-768.684 724,-772 689.279,-781.123 434.176,-766.284 401,-780 385.306,-786.488 371.338,-799.237 360.937,-810.934"/>
<polygon fill="black" stroke="black" points="358.098,-808.871 354.329,-818.773 363.45,-813.383 358.098,-808.871"/>
</g>
<!-- cleanJava -->
<g id="node14" class="node"><title>cleanJava</title>
<polygon fill="lightcyan" stroke="black" points="798,-1013 744,-1013 744,-977 798,-977 798,-1013"/>
<text text-anchor="middle" x="771" y="-991.3" font-family="Times,serif" font-size="14.00">clean</text>
</g>
<!-- bundle&#45;&gt;compileJava -->
<g id="edge18" class="edge"><title>bundle&#45;&gt;compileJava</title>
<path fill="none" stroke="red" d="M131.293,-756.042C126.796,-763.082 122.288,-771.562 120,-780 106.74,-828.901 85.5417,-856.855 120,-894 224.879,-1007.06 672.181,-880.949 812,-946 823.011,-951.123 832.84,-960.019 840.627,-968.772"/>
<polygon fill="red" stroke="red" points="838.097,-971.203 847.18,-976.658 843.481,-966.73 838.097,-971.203"/>
</g>
<!-- bundle&#45;&gt;jar -->
<g id="edge19" class="edge"><title>bundle&#45;&gt;jar</title>
<path fill="none" stroke="black" stroke-dasharray="5,2" d="M157.993,-756.293C164.041,-762.452 171.648,-768.68 180,-772 208.088,-783.164 694.348,-774.138 724,-780 761.488,-787.411 801.798,-804.241 829.856,-817.527"/>
<polygon fill="black" stroke="black" points="828.352,-820.688 838.88,-821.879 831.393,-814.383 828.352,-820.688"/>
</g>
<!-- bundle&#45;&gt;test -->
<g id="edge21" class="edge"><title>bundle&#45;&gt;test</title>
<path fill="none" stroke="black" d="M149.978,-719.737C155.536,-706.587 165.211,-689.364 180,-681 191.849,-674.299 1053.48,-653.434 1244.69,-648.883"/>
<polygon fill="black" stroke="black" points="1244.89,-652.379 1254.81,-648.642 1244.73,-645.381 1244.89,-652.379"/>
</g>
<!-- p2Entry -->
<g id="node35" class="node"><title>p2Entry</title>
<polygon fill="none" stroke="black" points="174,-665 114,-665 114,-629 174,-629 174,-665"/>
<text text-anchor="middle" x="144" y="-643.3" font-family="Times,serif" font-size="14.00">p2Entry</text>
</g>
<!-- bundle&#45;&gt;p2Entry -->
<g id="edge40" class="edge"><title>bundle&#45;&gt;p2Entry</title>
<path fill="none" stroke="red" d="M144,-719.84C144,-707.281 144,-689.979 144,-675.502"/>
<polygon fill="red" stroke="red" points="147.5,-675.107 144,-665.107 140.5,-675.107 147.5,-675.107"/>
</g>
<!-- bundleTest&#45;&gt;check -->
<g id="edge25" class="edge"><title>bundleTest&#45;&gt;check</title>
<path fill="none" stroke="black" d="M238.508,-719.984C247.535,-706.973 261.798,-689.817 279,-681 322.999,-658.449 1068.65,-585.533 1244.88,-568.556"/>
<polygon fill="black" stroke="black" points="1245.34,-572.028 1254.96,-567.586 1244.67,-565.06 1245.34,-572.028"/>
</g>
<!-- releaseNeeded -->
<g id="node18" class="node"><title>releaseNeeded</title>
<polygon fill="cyan" stroke="black" points="693.25,-756 598.75,-756 598.75,-720 693.25,-720 693.25,-756"/>
<text text-anchor="middle" x="646" y="-734.3" font-family="Times,serif" font-size="14.00">releaseNeeded</text>
</g>
<!-- release&#45;&gt;releaseNeeded -->
<g id="edge26" class="edge"><title>release&#45;&gt;releaseNeeded</title>
<path fill="none" stroke="black" d="M661.603,-818.658C658.739,-804.037 654.592,-782.864 651.293,-766.021"/>
<polygon fill="black" stroke="black" points="654.724,-765.332 649.367,-756.192 647.855,-766.678 654.724,-765.332"/>
</g>
<!-- releaseNeeded&#45;&gt;releaseNeeded -->
<g id="edge27" class="edge"><title>releaseNeeded&#45;&gt;releaseNeeded</title>
<path fill="none" stroke="red" d="M693.326,-754.376C703.571,-752.775 711,-747.316 711,-738 711,-732.032 707.951,-727.647 703.066,-724.844"/>
<polygon fill="red" stroke="red" points="703.919,-721.44 693.326,-721.624 701.722,-728.086 703.919,-721.44"/>
</g>
<!-- cleanBnd -->
<g id="node19" class="node"><title>cleanBnd</title>
<polygon fill="cyan" stroke="black" points="574,-855 520,-855 520,-819 574,-819 574,-855"/>
<text text-anchor="middle" x="547" y="-833.3" font-family="Times,serif" font-size="14.00">clean</text>
</g>
<!-- bndproperties -->
<g id="node20" class="node"><title>bndproperties</title>
<polygon fill="cyan" stroke="black" points="501.25,-855 410.75,-855 410.75,-819 501.25,-819 501.25,-855"/>
<text text-anchor="middle" x="456" y="-833.3" font-family="Times,serif" font-size="14.00">bndproperties</text>
</g>
<!-- export -->
<g id="node22" class="node"><title>export</title>
<polygon fill="cyan" stroke="black" points="369,-756 315,-756 315,-720 369,-720 369,-756"/>
<text text-anchor="middle" x="342" y="-734.3" font-family="Times,serif" font-size="14.00">export</text>
</g>
<!-- exportX&#45;&gt;export -->
<g id="edge24" class="edge"><title>exportX&#45;&gt;export</title>
<path fill="none" stroke="black" d="M342,-818.658C342,-804.175 342,-783.263 342,-766.499"/>
<polygon fill="black" stroke="black" points="345.5,-766.191 342,-756.192 338.5,-766.192 345.5,-766.191"/>
</g>
<!-- checkClassCycle&#45;&gt;bundle -->
<g id="edge16" class="edge"><title>checkClassCycle&#45;&gt;bundle</title>
<path fill="none" stroke="black" d="M199.843,-818.658C189.303,-803.623 173.906,-781.66 161.948,-764.602"/>
<polygon fill="black" stroke="black" points="164.658,-762.371 156.052,-756.192 158.926,-766.389 164.658,-762.371"/>
</g>
<!-- wrapper -->
<g id="node24" class="node"><title>wrapper</title>
<polygon fill="cyan" stroke="black" points="1505.25,-1013 1444.75,-1013 1444.75,-977 1505.25,-977 1505.25,-1013"/>
<text text-anchor="middle" x="1475" y="-991.3" font-family="Times,serif" font-size="14.00">wrapper</text>
</g>
<!-- findbugstest -->
<g id="node25" class="node"><title>findbugstest</title>
<polygon fill="cyan" stroke="black" points="1773.25,-665 1690.75,-665 1690.75,-629 1773.25,-629 1773.25,-665"/>
<text text-anchor="middle" x="1732" y="-643.3" font-family="Times,serif" font-size="14.00">findbugstest</text>
</g>
<!-- findbugstest&#45;&gt;check -->
<g id="edge33" class="edge"><title>findbugstest&#45;&gt;check</title>
<path fill="none" stroke="green" d="M1720.69,-628.986C1710.86,-615.792 1695.34,-598.386 1677,-590 1645,-575.368 1411.28,-568.145 1319.17,-565.843"/>
<polygon fill="green" stroke="green" points="1319.25,-562.344 1309.17,-565.598 1319.08,-569.342 1319.25,-562.344"/>
</g>
<!-- findbugsTest&#45;&gt;findbugstest -->
<g id="edge31" class="edge"><title>findbugsTest&#45;&gt;findbugstest</title>
<path fill="none" stroke="black" d="M1732.81,-719.84C1732.67,-707.281 1732.47,-689.979 1732.31,-675.502"/>
<polygon fill="black" stroke="black" points="1735.8,-675.067 1732.19,-665.107 1728.8,-675.146 1735.8,-675.067"/>
</g>
<!-- findbugs -->
<g id="node27" class="node"><title>findbugs</title>
<polygon fill="cyan" stroke="black" points="1642,-665 1578,-665 1578,-629 1642,-629 1642,-665"/>
<text text-anchor="middle" x="1610" y="-643.3" font-family="Times,serif" font-size="14.00">findbugs</text>
</g>
<!-- findbugs&#45;&gt;check -->
<g id="edge32" class="edge"><title>findbugs&#45;&gt;check</title>
<path fill="none" stroke="green" d="M1577.95,-638.086C1516.75,-622.971 1383.56,-590.081 1318.82,-574.092"/>
<polygon fill="green" stroke="green" points="1319.58,-570.676 1309.03,-571.676 1317.9,-577.471 1319.58,-570.676"/>
</g>
<!-- findbugsMain&#45;&gt;findbugs -->
<g id="edge30" class="edge"><title>findbugsMain&#45;&gt;findbugs</title>
<path fill="none" stroke="black" d="M1616.46,-719.84C1615.32,-707.158 1613.74,-689.64 1612.43,-675.077"/>
<polygon fill="black" stroke="black" points="1615.92,-674.754 1611.54,-665.107 1608.95,-675.381 1615.92,-674.754"/>
</g>
<!-- index -->
<g id="node30" class="node"><title>index</title>
<polygon fill="cyan" stroke="black" points="1808,-1013 1754,-1013 1754,-977 1808,-977 1808,-1013"/>
<text text-anchor="middle" x="1781" y="-991.3" font-family="Times,serif" font-size="14.00">index</text>
</g>
<!-- clean -->
<g id="node31" class="node"><title>clean</title>
<polygon fill="lightcyan" stroke="black" points="1668,-1013 1614,-1013 1614,-977 1668,-977 1668,-1013"/>
<text text-anchor="middle" x="1641" y="-991.3" font-family="Times,serif" font-size="14.00">clean</text>
</g>
<!-- cleanNeeded -->
<g id="node32" class="node"><title>cleanNeeded</title>
<polygon fill="cyan" stroke="black" points="1628,-938 1542,-938 1542,-902 1628,-902 1628,-938"/>
<text text-anchor="middle" x="1585" y="-916.3" font-family="Times,serif" font-size="14.00">cleanNeeded</text>
</g>
<!-- clean&#45;&gt;cleanNeeded -->
<g id="edge35" class="edge"><title>clean&#45;&gt;cleanNeeded</title>
<path fill="none" stroke="blue" d="M1627.73,-976.7C1620.75,-967.609 1612.08,-956.296 1604.37,-946.245"/>
<polygon fill="blue" stroke="blue" points="1607.04,-943.98 1598.18,-938.176 1601.49,-948.24 1607.04,-943.98"/>
</g>
<!-- distclean -->
<g id="node33" class="node"><title>distclean</title>
<polygon fill="cyan" stroke="black" points="1729.25,-938 1664.75,-938 1664.75,-902 1729.25,-902 1729.25,-938"/>
<text text-anchor="middle" x="1697" y="-916.3" font-family="Times,serif" font-size="14.00">distclean</text>
</g>
<!-- clean&#45;&gt;distclean -->
<g id="edge37" class="edge"><title>clean&#45;&gt;distclean</title>
<path fill="none" stroke="blue" d="M1654.27,-976.7C1661.25,-967.609 1669.92,-956.296 1677.63,-946.245"/>
<polygon fill="blue" stroke="blue" points="1680.51,-948.24 1683.82,-938.176 1674.96,-943.98 1680.51,-948.24"/>
</g>
<!-- cleanNeeded&#45;&gt;cleanNeeded -->
<g id="edge36" class="edge"><title>cleanNeeded&#45;&gt;cleanNeeded</title>
<path fill="none" stroke="red" d="M1628.04,-933.63C1638.35,-932.565 1646,-928.021 1646,-920 1646,-914.861 1642.86,-911.15 1637.89,-908.866"/>
<polygon fill="red" stroke="red" points="1638.59,-905.432 1628.04,-906.37 1636.87,-912.217 1638.59,-905.432"/>
</g>
<!-- distcleanNeeded -->
<g id="node34" class="node"><title>distcleanNeeded</title>
<polygon fill="cyan" stroke="black" points="1712,-855 1606,-855 1606,-819 1712,-819 1712,-855"/>
<text text-anchor="middle" x="1659" y="-833.3" font-family="Times,serif" font-size="14.00">distcleanNeeded</text>
</g>
<!-- distclean&#45;&gt;distcleanNeeded -->
<g id="edge38" class="edge"><title>distclean&#45;&gt;distcleanNeeded</title>
<path fill="none" stroke="black" d="M1688.94,-901.822C1683.85,-890.976 1677.18,-876.744 1671.42,-864.472"/>
<polygon fill="black" stroke="black" points="1674.46,-862.72 1667.05,-855.153 1668.13,-865.693 1674.46,-862.72"/>
</g>
<!-- distcleanNeeded&#45;&gt;distcleanNeeded -->
<g id="edge39" class="edge"><title>distcleanNeeded&#45;&gt;distcleanNeeded</title>
<path fill="none" stroke="red" d="M1712.26,-851.691C1722.63,-849.985 1730,-845.088 1730,-837 1730,-831.819 1726.98,-827.947 1722.08,-825.385"/>
<polygon fill="red" stroke="red" points="1722.85,-821.959 1712.26,-822.309 1720.75,-828.639 1722.85,-821.959"/>
</g>
<!-- p2FeaturesTree -->
<g id="node36" class="node"><title>p2FeaturesTree</title>
<polygon fill="none" stroke="black" points="159.25,-582 58.75,-582 58.75,-546 159.25,-546 159.25,-582"/>
<text text-anchor="middle" x="109" y="-560.3" font-family="Times,serif" font-size="14.00">p2FeaturesTree</text>
</g>
<!-- p2Entry&#45;&gt;p2FeaturesTree -->
<g id="edge41" class="edge"><title>p2Entry&#45;&gt;p2FeaturesTree</title>
<path fill="none" stroke="black" d="M136.577,-628.822C131.891,-617.976 125.741,-603.744 120.439,-591.472"/>
<polygon fill="black" stroke="black" points="123.591,-589.945 116.412,-582.153 117.166,-592.721 123.591,-589.945"/>
</g>
<!-- p2PelagicPlugins -->
<g id="node39" class="node"><title>p2PelagicPlugins</title>
<polygon fill="none" stroke="black" points="292,-510 182,-510 182,-474 292,-474 292,-510"/>
<text text-anchor="middle" x="237" y="-488.3" font-family="Times,serif" font-size="14.00">p2PelagicPlugins</text>
</g>
<!-- p2Entry&#45;&gt;p2PelagicPlugins -->
<g id="edge44" class="edge"><title>p2Entry&#45;&gt;p2PelagicPlugins</title>
<path fill="none" stroke="black" d="M154.488,-628.746C170.744,-602.002 202.132,-550.364 221.161,-519.058"/>
<polygon fill="black" stroke="black" points="224.205,-520.789 226.408,-510.425 218.223,-517.153 224.205,-520.789"/>
</g>
<!-- p2FeaturesGradlePlugin -->
<g id="node37" class="node"><title>p2FeaturesGradlePlugin</title>
<polygon fill="none" stroke="black" points="164,-510 16,-510 16,-474 164,-474 164,-510"/>
<text text-anchor="middle" x="90" y="-488.3" font-family="Times,serif" font-size="14.00">p2FeaturesGradlePlugin</text>
</g>
<!-- p2FeaturesTree&#45;&gt;p2FeaturesGradlePlugin -->
<g id="edge42" class="edge"><title>p2FeaturesTree&#45;&gt;p2FeaturesGradlePlugin</title>
<path fill="none" stroke="black" d="M104.303,-545.697C102.187,-537.898 99.638,-528.509 97.2822,-519.829"/>
<polygon fill="black" stroke="black" points="100.64,-518.838 94.6426,-510.104 93.8844,-520.672 100.64,-518.838"/>
</g>
<!-- p2Features -->
<g id="node38" class="node"><title>p2Features</title>
<polygon fill="none" stroke="black" points="142,-435 66,-435 66,-399 142,-399 142,-435"/>
<text text-anchor="middle" x="104" y="-413.3" font-family="Times,serif" font-size="14.00">p2Features</text>
</g>
<!-- p2FeaturesGradlePlugin&#45;&gt;p2Features -->
<g id="edge43" class="edge"><title>p2FeaturesGradlePlugin&#45;&gt;p2Features</title>
<path fill="none" stroke="black" d="M93.3178,-473.7C94.9567,-465.154 96.9721,-454.645 98.809,-445.067"/>
<polygon fill="black" stroke="black" points="102.26,-445.656 100.706,-435.176 95.3851,-444.338 102.26,-445.656"/>
</g>
<!-- p2 -->
<g id="node41" class="node"><title>p2</title>
<polygon fill="cyan" stroke="black" points="164,-363 110,-363 110,-327 164,-327 164,-363"/>
<text text-anchor="middle" x="137" y="-341.3" font-family="Times,serif" font-size="14.00">p2</text>
</g>
<!-- p2Features&#45;&gt;p2 -->
<g id="edge46" class="edge"><title>p2Features&#45;&gt;p2</title>
<path fill="none" stroke="black" d="M112.157,-398.697C115.914,-390.728 120.453,-381.1 124.618,-372.264"/>
<polygon fill="black" stroke="black" points="127.838,-373.642 128.937,-363.104 121.506,-370.657 127.838,-373.642"/>
</g>
<!-- p2Plugins -->
<g id="node40" class="node"><title>p2Plugins</title>
<polygon fill="none" stroke="black" points="258.25,-435 187.75,-435 187.75,-399 258.25,-399 258.25,-435"/>
<text text-anchor="middle" x="223" y="-413.3" font-family="Times,serif" font-size="14.00">p2Plugins</text>
</g>
<!-- p2PelagicPlugins&#45;&gt;p2Plugins -->
<g id="edge45" class="edge"><title>p2PelagicPlugins&#45;&gt;p2Plugins</title>
<path fill="none" stroke="black" d="M233.682,-473.7C232.043,-465.154 230.028,-454.645 228.191,-445.067"/>
<polygon fill="black" stroke="black" points="231.615,-444.338 226.294,-435.176 224.74,-445.656 231.615,-444.338"/>
</g>
<!-- p2Plugins&#45;&gt;p2 -->
<g id="edge47" class="edge"><title>p2Plugins&#45;&gt;p2</title>
<path fill="none" stroke="black" d="M201.742,-398.697C190.911,-389.881 177.582,-379.032 165.84,-369.474"/>
<polygon fill="black" stroke="black" points="167.979,-366.703 158.014,-363.104 163.56,-372.132 167.979,-366.703"/>
</g>
<!-- indexBuild -->
<g id="node42" class="node"><title>indexBuild</title>
<polygon fill="cyan" stroke="black" points="164,-291 110,-291 110,-255 164,-255 164,-291"/>
<text text-anchor="middle" x="137" y="-269.3" font-family="Times,serif" font-size="14.00">index</text>
</g>
<!-- p2&#45;&gt;indexBuild -->
<g id="edge48" class="edge"><title>p2&#45;&gt;indexBuild</title>
<path fill="none" stroke="black" d="M137,-326.697C137,-318.983 137,-309.712 137,-301.112"/>
<polygon fill="black" stroke="black" points="140.5,-301.104 137,-291.104 133.5,-301.104 140.5,-301.104"/>
</g>
<!-- distCompositePlugins -->
<g id="node43" class="node"><title>distCompositePlugins</title>
<polygon fill="none" stroke="black" points="178,-219 42,-219 42,-183 178,-183 178,-219"/>
<text text-anchor="middle" x="110" y="-197.3" font-family="Times,serif" font-size="14.00">distCompositePlugins</text>
</g>
<!-- indexBuild&#45;&gt;distCompositePlugins -->
<g id="edge49" class="edge"><title>indexBuild&#45;&gt;distCompositePlugins</title>
<path fill="none" stroke="black" d="M130.326,-254.697C127.285,-246.813 123.617,-237.304 120.239,-228.546"/>
<polygon fill="black" stroke="black" points="123.462,-227.175 116.597,-219.104 116.931,-229.694 123.462,-227.175"/>
</g>
<!-- distZipPlugins -->
<g id="node44" class="node"><title>distZipPlugins</title>
<polygon fill="none" stroke="black" points="200.25,-147 105.75,-147 105.75,-111 200.25,-111 200.25,-147"/>
<text text-anchor="middle" x="153" y="-125.3" font-family="Times,serif" font-size="14.00">distZipPlugins</text>
</g>
<!-- indexBuild&#45;&gt;distZipPlugins -->
<g id="edge50" class="edge"><title>indexBuild&#45;&gt;distZipPlugins</title>
<path fill="none" stroke="black" d="M159.596,-254.963C170.059,-245.635 181.396,-233.107 187,-219 192.907,-204.13 191.501,-198.354 187,-183 184.199,-173.447 179.089,-163.984 173.667,-155.756"/>
<polygon fill="black" stroke="black" points="176.376,-153.525 167.755,-147.366 170.654,-157.557 176.376,-153.525"/>
</g>
<!-- distCompositePlugins&#45;&gt;distZipPlugins -->
<g id="edge51" class="edge"><title>distCompositePlugins&#45;&gt;distZipPlugins</title>
<path fill="none" stroke="black" d="M120.629,-182.697C125.628,-174.559 131.691,-164.689 137.212,-155.701"/>
<polygon fill="black" stroke="black" points="140.241,-157.457 142.493,-147.104 134.277,-153.793 140.241,-157.457"/>
</g>
<!-- dist -->
<g id="node45" class="node"><title>dist</title>
<polygon fill="cyan" stroke="black" points="180,-75 126,-75 126,-39 180,-39 180,-75"/>
<text text-anchor="middle" x="153" y="-53.3" font-family="Times,serif" font-size="14.00">dist</text>
</g>
<!-- distZipPlugins&#45;&gt;dist -->
<g id="edge52" class="edge"><title>distZipPlugins&#45;&gt;dist</title>
<path fill="none" stroke="black" d="M153,-110.697C153,-102.983 153,-93.7125 153,-85.1124"/>
<polygon fill="black" stroke="black" points="156.5,-85.1043 153,-75.1043 149.5,-85.1044 156.5,-85.1043"/>
</g>
</g>
</svg>
