<?xml version="1.0" encoding="UTF-8" standalone="no"?>
<!DOCTYPE svg PUBLIC "-//W3C//DTD SVG 1.1//EN"
 "http://www.w3.org/Graphics/SVG/1.1/DTD/svg11.dtd">
<!-- Generated by graphviz version 2.34.0 (20140110.0949)
 -->
<!-- Title: GradleSetup Pages: 1 -->
<svg width="1975pt" height="1005pt"
 viewBox="0.00 0.00 1975.00 1005.00" xmlns="http://www.w3.org/2000/svg" xmlns:xlink="http://www.w3.org/1999/xlink">
<g id="graph0" class="graph" transform="scale(1 1) rotate(0) translate(4 1001)">
<title>GradleSetup</title>
<polygon fill="white" stroke="white" points="-4,4 -4,-1001 1971,-1001 1971,4 -4,4"/>
<text text-anchor="middle" x="61" y="-981.8" font-family="Times,serif" font-size="14.00">Gradle Build Setup</text>
<g id="clust1" class="cluster"><title>cluster1</title>
<polygon fill="lightgrey" stroke="black" points="871,-371 871,-966 1560,-966 1560,-371 871,-371"/>
<text text-anchor="middle" x="911" y="-378.8" font-family="Times,serif" font-size="14.00">Java Plugin</text>
</g>
<g id="clust2" class="cluster"><title>cluster11</title>
</g>
<g id="clust3" class="cluster"><title>cluster12</title>
</g>
<g id="clust4" class="cluster"><title>cluster13</title>
</g>
<g id="clust5" class="cluster"><title>cluster2</title>
<polygon fill="lightgrey" stroke="black" points="308,-518 308,-875 863,-875 863,-518 308,-518"/>
<text text-anchor="middle" x="351" y="-525.8" font-family="Times,serif" font-size="14.00">Bnd Projects</text>
</g>
<g id="clust6" class="cluster"><title>cluster21</title>
</g>
<g id="clust7" class="cluster"><title>cluster22</title>
</g>
<g id="clust8" class="cluster"><title>cluster23</title>
</g>
<g id="clust9" class="cluster"><title>cluster100</title>
<polygon fill="lightgrey" stroke="black" points="395,-792 395,-867 521,-867 521,-792 395,-792"/>
<text text-anchor="middle" x="457.5" y="-851.8" font-family="Times,serif" font-size="14.00">Class Cycle Checks</text>
</g>
<g id="clust10" class="cluster"><title>cluster3</title>
<polygon fill="lightgrey" stroke="black" points="1568,-883 1568,-958 1653,-958 1653,-883 1568,-883"/>
<text text-anchor="middle" x="1610.5" y="-890.8" font-family="Times,serif" font-size="14.00">Root Project</text>
</g>
<g id="clust11" class="cluster"><title>cluster4</title>
<polygon fill="lightgrey" stroke="black" points="1568,-518 1568,-681 1928,-681 1928,-518 1568,-518"/>
<text text-anchor="middle" x="1612" y="-525.8" font-family="Times,serif" font-size="14.00">Java Projects</text>
</g>
<g id="clust12" class="cluster"><title>cluster41</title>
</g>
<g id="clust13" class="cluster"><title>cluster42</title>
</g>
<g id="clust14" class="cluster"><title>cluster5</title>
<polygon fill="lightgrey" stroke="black" points="1661,-689 1661,-966 1959,-966 1959,-689 1661,-689"/>
<text text-anchor="middle" x="1701.5" y="-696.8" font-family="Times,serif" font-size="14.00">All Projects</text>
</g>
<g id="clust15" class="cluster"><title>cluster21</title>
</g>
<g id="clust16" class="cluster"><title>cluster22</title>
</g>
<g id="clust17" class="cluster"><title>cluster7</title>
<polygon fill="lightgrey" stroke="black" points="8,-8 8,-673 300,-673 300,-8 8,-8"/>
<text text-anchor="middle" x="52.5" y="-15.8" font-family="Times,serif" font-size="14.00">Build Project</text>
</g>
<!-- compileJava -->
<g id="node1" class="node"><title>compileJava</title>
<polygon fill="lightcyan" stroke="black" points="1036.25,-950 951.75,-950 951.75,-914 1036.25,-914 1036.25,-950"/>
<text text-anchor="middle" x="994" y="-928.3" font-family="Times,serif" font-size="14.00">compileJava</text>
</g>
<!-- classes -->
<g id="node3" class="node"><title>classes</title>
<polygon fill="lightcyan" stroke="black" points="1156,-836 1102,-836 1102,-800 1156,-800 1156,-836"/>
<text text-anchor="middle" x="1129" y="-814.3" font-family="Times,serif" font-size="14.00">classes</text>
</g>
<!-- compileJava&#45;&gt;classes -->
<g id="edge1" class="edge"><title>compileJava&#45;&gt;classes</title>
<path fill="none" stroke="black" d="M1011.52,-913.651C1021.17,-904.315 1033.5,-892.749 1045,-883 1061.64,-868.897 1080.95,-854.08 1096.86,-842.259"/>
<polygon fill="black" stroke="black" points="1099.35,-844.777 1105.31,-836.023 1095.19,-839.144 1099.35,-844.777"/>
</g>
<!-- processResources -->
<g id="node2" class="node"><title>processResources</title>
<polygon fill="lightcyan" stroke="black" points="1167.25,-950 1054.75,-950 1054.75,-914 1167.25,-914 1167.25,-950"/>
<text text-anchor="middle" x="1111" y="-928.3" font-family="Times,serif" font-size="14.00">processResources</text>
</g>
<!-- processResources&#45;&gt;classes -->
<g id="edge2" class="edge"><title>processResources&#45;&gt;classes</title>
<path fill="none" stroke="black" d="M1113.73,-913.99C1116.63,-895.981 1121.24,-867.293 1124.64,-846.152"/>
<polygon fill="black" stroke="black" points="1128.11,-846.599 1126.24,-836.17 1121.2,-845.488 1128.11,-846.599"/>
</g>
<!-- jar -->
<g id="node4" class="node"><title>jar</title>
<polygon fill="lightcyan" stroke="black" points="1144,-764 1090,-764 1090,-728 1144,-728 1144,-764"/>
<text text-anchor="middle" x="1117" y="-742.3" font-family="Times,serif" font-size="14.00">jar</text>
</g>
<!-- classes&#45;&gt;jar -->
<g id="edge6" class="edge"><title>classes&#45;&gt;jar</title>
<path fill="none" stroke="black" d="M1126.03,-799.697C1124.71,-791.983 1123.12,-782.712 1121.65,-774.112"/>
<polygon fill="black" stroke="black" points="1125.07,-773.369 1119.93,-764.104 1118.17,-774.552 1125.07,-773.369"/>
</g>
<!-- compileTestJava -->
<g id="node5" class="node"><title>compileTestJava</title>
<polygon fill="lightcyan" stroke="black" points="1454,-764 1346,-764 1346,-728 1454,-728 1454,-764"/>
<text text-anchor="middle" x="1400" y="-742.3" font-family="Times,serif" font-size="14.00">compileTestJava</text>
</g>
<!-- classes&#45;&gt;compileTestJava -->
<g id="edge5" class="edge"><title>classes&#45;&gt;compileTestJava</title>
<path fill="none" stroke="black" d="M1156.29,-812.576C1196.39,-805.743 1273.38,-791.362 1337,-772 1341.36,-770.673 1345.84,-769.175 1350.31,-767.589"/>
<polygon fill="black" stroke="black" points="1351.85,-770.752 1360.02,-764.006 1349.43,-764.185 1351.85,-770.752"/>
</g>
<!-- test -->
<g id="node8" class="node"><title>test</title>
<polygon fill="lightcyan" stroke="black" points="1444,-593 1390,-593 1390,-557 1444,-557 1444,-593"/>
<text text-anchor="middle" x="1417" y="-571.3" font-family="Times,serif" font-size="14.00">test</text>
</g>
<!-- classes&#45;&gt;test -->
<g id="edge4" class="edge"><title>classes&#45;&gt;test</title>
<path fill="none" stroke="black" d="M1156.12,-817.687C1228.43,-818.881 1423.04,-817.7 1463,-772 1485.12,-746.703 1468.37,-651.829 1455,-621 1451.92,-613.905 1447.35,-607.075 1442.43,-600.973"/>
<polygon fill="black" stroke="black" points="1444.82,-598.39 1435.61,-593.145 1439.54,-602.986 1444.82,-598.39"/>
</g>
<!-- javadoc -->
<g id="node13" class="node"><title>javadoc</title>
<polygon fill="lightcyan" stroke="black" points="1551.25,-764 1492.75,-764 1492.75,-728 1551.25,-728 1551.25,-764"/>
<text text-anchor="middle" x="1522" y="-742.3" font-family="Times,serif" font-size="14.00">javadoc</text>
</g>
<!-- classes&#45;&gt;javadoc -->
<g id="edge3" class="edge"><title>classes&#45;&gt;javadoc</title>
<path fill="none" stroke="black" d="M1156.05,-817.031C1215.76,-816.348 1362.69,-810.527 1478,-772 1480.91,-771.029 1483.84,-769.859 1486.73,-768.561"/>
<polygon fill="black" stroke="black" points="1488.38,-771.651 1495.78,-764.073 1485.27,-765.38 1488.38,-771.651"/>
</g>
<!-- bundle -->
<g id="node15" class="node"><title>bundle</title>
<polygon fill="cyan" stroke="black" points="402,-764 348,-764 348,-728 402,-728 402,-764"/>
<text text-anchor="middle" x="375" y="-742.3" font-family="Times,serif" font-size="14.00">bundle</text>
</g>
<!-- classes&#45;&gt;bundle -->
<g id="edge17" class="edge"><title>classes&#45;&gt;bundle</title>
<path fill="none" stroke="black" d="M1101.72,-814.467C987.072,-803.824 544.154,-762.704 412.262,-750.459"/>
<polygon fill="black" stroke="black" points="412.525,-746.969 402.244,-749.529 411.878,-753.939 412.525,-746.969"/>
</g>
<!-- checkClassCycle -->
<g id="node23" class="node"><title>checkClassCycle</title>
<polygon fill="cyan" stroke="black" points="512.25,-836 403.75,-836 403.75,-800 512.25,-800 512.25,-836"/>
<text text-anchor="middle" x="458" y="-814.3" font-family="Times,serif" font-size="14.00">checkClassCycle</text>
</g>
<!-- classes&#45;&gt;checkClassCycle -->
<g id="edge15" class="edge"><title>classes&#45;&gt;checkClassCycle</title>
<path fill="none" stroke="black" d="M1101.9,-818C908.756,-818 715.609,-818 522.462,-818"/>
<polygon fill="black" stroke="black" points="522.388,-814.5 512.388,-818 522.388,-821.5 522.388,-814.5"/>
</g>
<!-- findbugsMain -->
<g id="node28" class="node"><title>findbugsMain</title>
<polygon fill="cyan" stroke="black" points="1799.25,-665 1706.75,-665 1706.75,-629 1799.25,-629 1799.25,-665"/>
<text text-anchor="middle" x="1753" y="-643.3" font-family="Times,serif" font-size="14.00">findbugsMain</text>
</g>
<!-- classes&#45;&gt;findbugsMain -->
<g id="edge28" class="edge"><title>classes&#45;&gt;findbugsMain</title>
<path fill="none" stroke="black" d="M1156.26,-816.226C1239.56,-813.543 1489.65,-803.041 1564,-772 1617.62,-749.616 1612.69,-714.294 1665,-689 1680.15,-681.676 1686.46,-687.453 1702,-681 1708.61,-678.255 1715.3,-674.647 1721.56,-670.826"/>
<polygon fill="black" stroke="black" points="1723.86,-673.508 1730.37,-665.15 1720.07,-667.624 1723.86,-673.508"/>
</g>
<!-- uploadArchives -->
<g id="node10" class="node"><title>uploadArchives</title>
<polygon fill="lightcyan" stroke="black" points="1168,-665 1066,-665 1066,-629 1168,-629 1168,-665"/>
<text text-anchor="middle" x="1117" y="-643.3" font-family="Times,serif" font-size="14.00">uploadArchives</text>
</g>
<!-- jar&#45;&gt;uploadArchives -->
<g id="edge9" class="edge"><title>jar&#45;&gt;uploadArchives</title>
<path fill="none" stroke="black" d="M1117,-727.658C1117,-713.175 1117,-692.263 1117,-675.499"/>
<polygon fill="black" stroke="black" points="1120.5,-675.191 1117,-665.192 1113.5,-675.192 1120.5,-675.191"/>
</g>
<!-- assemble -->
<g id="node11" class="node"><title>assemble</title>
<polygon fill="lightcyan" stroke="black" points="1047.25,-665 980.75,-665 980.75,-629 1047.25,-629 1047.25,-665"/>
<text text-anchor="middle" x="1014" y="-643.3" font-family="Times,serif" font-size="14.00">assemble</text>
</g>
<!-- jar&#45;&gt;assemble -->
<g id="edge10" class="edge"><title>jar&#45;&gt;assemble</title>
<path fill="none" stroke="black" d="M1098.59,-727.658C1082.18,-712.209 1058.01,-689.446 1039.7,-672.205"/>
<polygon fill="black" stroke="black" points="1041.93,-669.499 1032.25,-665.192 1037.14,-674.595 1041.93,-669.499"/>
</g>
<!-- testClasses -->
<g id="node7" class="node"><title>testClasses</title>
<polygon fill="lightcyan" stroke="black" points="1446,-665 1370,-665 1370,-629 1446,-629 1446,-665"/>
<text text-anchor="middle" x="1408" y="-643.3" font-family="Times,serif" font-size="14.00">testClasses</text>
</g>
<!-- compileTestJava&#45;&gt;testClasses -->
<g id="edge7" class="edge"><title>compileTestJava&#45;&gt;testClasses</title>
<path fill="none" stroke="black" d="M1401.43,-727.658C1402.62,-713.175 1404.35,-692.263 1405.73,-675.499"/>
<polygon fill="black" stroke="black" points="1409.25,-675.445 1406.58,-665.192 1402.27,-674.87 1409.25,-675.445"/>
</g>
<!-- processTestResources -->
<g id="node6" class="node"><title>processTestResources</title>
<polygon fill="lightcyan" stroke="black" points="1328,-764 1192,-764 1192,-728 1328,-728 1328,-764"/>
<text text-anchor="middle" x="1260" y="-742.3" font-family="Times,serif" font-size="14.00">processTestResources</text>
</g>
<!-- processTestResources&#45;&gt;testClasses -->
<g id="edge8" class="edge"><title>processTestResources&#45;&gt;testClasses</title>
<path fill="none" stroke="black" d="M1282.14,-727.947C1297.29,-716.509 1318.01,-701.339 1337,-689 1346.88,-682.582 1357.79,-676.028 1368.03,-670.098"/>
<polygon fill="black" stroke="black" points="1369.88,-673.072 1376.82,-665.066 1366.4,-666.998 1369.88,-673.072"/>
</g>
<!-- testClasses&#45;&gt;test -->
<g id="edge11" class="edge"><title>testClasses&#45;&gt;test</title>
<path fill="none" stroke="black" d="M1410.22,-628.697C1411.22,-620.983 1412.41,-611.712 1413.51,-603.112"/>
<polygon fill="black" stroke="black" points="1417,-603.469 1414.8,-593.104 1410.05,-602.576 1417,-603.469"/>
</g>
<!-- findbugsTest -->
<g id="node26" class="node"><title>findbugsTest</title>
<polygon fill="cyan" stroke="black" points="1911.25,-665 1824.75,-665 1824.75,-629 1911.25,-629 1911.25,-665"/>
<text text-anchor="middle" x="1868" y="-643.3" font-family="Times,serif" font-size="14.00">findbugsTest</text>
</g>
<!-- testClasses&#45;&gt;findbugsTest -->
<g id="edge29" class="edge"><title>testClasses&#45;&gt;findbugsTest</title>
<path fill="none" stroke="black" d="M1446.24,-658.404C1479.42,-667.667 1528.9,-679.987 1573,-685 1598.39,-687.886 1778,-690.305 1803,-685 1814.87,-682.481 1826.67,-676.794 1836.9,-670.567"/>
<polygon fill="black" stroke="black" points="1838.97,-673.401 1845.45,-665.022 1835.15,-667.529 1838.97,-673.401"/>
</g>
<!-- check -->
<g id="node9" class="node"><title>check</title>
<polygon fill="lightcyan" stroke="black" points="1444,-510 1390,-510 1390,-474 1444,-474 1444,-510"/>
<text text-anchor="middle" x="1417" y="-488.3" font-family="Times,serif" font-size="14.00">check</text>
</g>
<!-- test&#45;&gt;check -->
<g id="edge13" class="edge"><title>test&#45;&gt;check</title>
<path fill="none" stroke="black" d="M1417,-556.822C1417,-546.19 1417,-532.306 1417,-520.204"/>
<polygon fill="black" stroke="black" points="1420.5,-520.153 1417,-510.153 1413.5,-520.153 1420.5,-520.153"/>
</g>
<!-- jacocoTestReport -->
<g id="node29" class="node"><title>jacocoTestReport</title>
<polygon fill="cyan" stroke="black" points="1688,-665 1576,-665 1576,-629 1688,-629 1688,-665"/>
<text text-anchor="middle" x="1632" y="-643.3" font-family="Times,serif" font-size="14.00">jacocoTestReport</text>
</g>
<!-- test&#45;&gt;jacocoTestReport -->
<g id="edge34" class="edge"><title>test&#45;&gt;jacocoTestReport</title>
<path fill="none" stroke="black" d="M1444.24,-584.869C1475.66,-595.1 1528.34,-612.25 1569.91,-625.785"/>
<polygon fill="black" stroke="black" points="1569.09,-629.198 1579.68,-628.966 1571.25,-622.542 1569.09,-629.198"/>
</g>
<!-- build -->
<g id="node12" class="node"><title>build</title>
<polygon fill="lightcyan" stroke="black" points="1322,-438 1268,-438 1268,-402 1322,-402 1322,-438"/>
<text text-anchor="middle" x="1295" y="-416.3" font-family="Times,serif" font-size="14.00">build</text>
</g>
<!-- check&#45;&gt;build -->
<g id="edge14" class="edge"><title>check&#45;&gt;build</title>
<path fill="none" stroke="black" d="M1397.13,-473.929C1393.53,-471.138 1389.73,-468.384 1386,-466 1368.71,-454.944 1348.32,-444.636 1331.23,-436.683"/>
<polygon fill="black" stroke="black" points="1332.67,-433.49 1322.12,-432.517 1329.76,-439.857 1332.67,-433.49"/>
</g>
<!-- assemble&#45;&gt;build -->
<g id="edge12" class="edge"><title>assemble&#45;&gt;build</title>
<path fill="none" stroke="black" d="M1025.56,-628.986C1050.14,-593.958 1111.03,-513.126 1180,-466 1203.85,-449.702 1234.46,-438.093 1258.1,-430.753"/>
<polygon fill="black" stroke="black" points="1259.18,-434.082 1267.76,-427.868 1257.18,-427.375 1259.18,-434.082"/>
</g>
<!-- cleanJava -->
<g id="node14" class="node"><title>cleanJava</title>
<polygon fill="lightcyan" stroke="black" points="933,-950 879,-950 879,-914 933,-914 933,-950"/>
<text text-anchor="middle" x="906" y="-928.3" font-family="Times,serif" font-size="14.00">clean</text>
</g>
<!-- bundle&#45;&gt;compileJava -->
<g id="edge18" class="edge"><title>bundle&#45;&gt;compileJava</title>
<path fill="none" stroke="red" d="M370.975,-764.243C365.585,-792.231 359.971,-847.209 391,-875 402.506,-885.305 932.804,-876.912 947,-883 958.441,-887.907 968.511,-897.066 976.366,-906.078"/>
<polygon fill="red" stroke="red" points="973.656,-908.293 982.677,-913.85 979.09,-903.881 973.656,-908.293"/>
</g>
<!-- bundle&#45;&gt;jar -->
<g id="edge19" class="edge"><title>bundle&#45;&gt;jar</title>
<path fill="none" stroke="black" stroke-dasharray="5,2" d="M402.173,-746C628.016,-746 853.86,-746 1079.7,-746"/>
<polygon fill="black" stroke="black" points="1079.78,-749.5 1089.78,-746 1079.78,-742.5 1079.78,-749.5"/>
</g>
<!-- bundle&#45;&gt;test -->
<g id="edge21" class="edge"><title>bundle&#45;&gt;test</title>
<path fill="none" stroke="black" d="M402,-744.896C476.673,-743.879 691.503,-736.011 859,-681 911.538,-663.745 915.196,-637.423 968,-621 1044.71,-597.14 1286.7,-582.628 1379.9,-577.8"/>
<polygon fill="black" stroke="black" points="1380.19,-581.29 1390,-577.285 1379.83,-574.299 1380.19,-581.29"/>
</g>
<!-- bundleTest -->
<g id="node16" class="node"><title>bundleTest</title>
<polygon fill="cyan" stroke="black" points="401.25,-665 324.75,-665 324.75,-629 401.25,-629 401.25,-665"/>
<text text-anchor="middle" x="363" y="-643.3" font-family="Times,serif" font-size="14.00">bundleTest</text>
</g>
<!-- bundle&#45;&gt;bundleTest -->
<g id="edge20" class="edge"><title>bundle&#45;&gt;bundleTest</title>
<path fill="none" stroke="black" d="M372.855,-727.658C371.063,-713.175 368.476,-692.263 366.402,-675.499"/>
<polygon fill="black" stroke="black" points="369.828,-674.686 365.127,-665.192 362.881,-675.546 369.828,-674.686"/>
</g>
<!-- release -->
<g id="node17" class="node"><title>release</title>
<polygon fill="cyan" stroke="black" points="490,-665 436,-665 436,-629 490,-629 490,-665"/>
<text text-anchor="middle" x="463" y="-643.3" font-family="Times,serif" font-size="14.00">release</text>
</g>
<!-- bundle&#45;&gt;release -->
<g id="edge22" class="edge"><title>bundle&#45;&gt;release</title>
<path fill="none" stroke="black" d="M390.733,-727.658C404.623,-712.347 425.031,-689.852 440.621,-672.668"/>
<polygon fill="black" stroke="black" points="443.277,-674.95 447.404,-665.192 438.092,-670.246 443.277,-674.95"/>
</g>
<!-- exportX -->
<g id="node21" class="node"><title>exportX</title>
<polygon fill="cyan" stroke="black" points="665.25,-665 568.75,-665 564.75,-661 564.75,-629 661.25,-629 665.25,-633 665.25,-665"/>
<polyline fill="none" stroke="black" points="661.25,-661 564.75,-661 "/>
<polyline fill="none" stroke="black" points="661.25,-661 661.25,-629 "/>
<polyline fill="none" stroke="black" points="661.25,-661 665.25,-665 "/>
<text text-anchor="middle" x="615" y="-643.3" font-family="Times,serif" font-size="14.00">export.&lt;name&gt;</text>
</g>
<!-- bundle&#45;&gt;exportX -->
<g id="edge23" class="edge"><title>bundle&#45;&gt;exportX</title>
<path fill="none" stroke="black" d="M402.133,-736.461C437.257,-725.121 500.113,-703.844 552,-681 559.632,-677.64 567.622,-673.756 575.25,-669.858"/>
<polygon fill="black" stroke="black" points="577.074,-672.854 584.327,-665.131 573.841,-666.646 577.074,-672.854"/>
</g>
<!-- p2Entry -->
<g id="node35" class="node"><title>p2Entry</title>
<polygon fill="none" stroke="black" points="267,-665 207,-665 207,-629 267,-629 267,-665"/>
<text text-anchor="middle" x="237" y="-643.3" font-family="Times,serif" font-size="14.00">p2Entry</text>
</g>
<!-- bundle&#45;&gt;p2Entry -->
<g id="edge40" class="edge"><title>bundle&#45;&gt;p2Entry</title>
<path fill="none" stroke="red" d="M350.646,-727.882C328.22,-712.118 294.767,-688.604 269.957,-671.166"/>
<polygon fill="red" stroke="red" points="271.769,-668.161 261.575,-665.274 267.743,-673.887 271.769,-668.161"/>
</g>
<!-- bundleTest&#45;&gt;check -->
<g id="edge25" class="edge"><title>bundleTest&#45;&gt;check</title>
<path fill="none" stroke="black" d="M364.117,-628.687C366.999,-600.079 377.291,-543.563 414,-518 454.317,-489.925 1202.77,-491.919 1379.73,-492.787"/>
<polygon fill="black" stroke="black" points="1379.83,-496.287 1389.85,-492.838 1379.86,-489.287 1379.83,-496.287"/>
</g>
<!-- releaseNeeded -->
<g id="node18" class="node"><title>releaseNeeded</title>
<polygon fill="cyan" stroke="black" points="521.25,-593 426.75,-593 426.75,-557 521.25,-557 521.25,-593"/>
<text text-anchor="middle" x="474" y="-571.3" font-family="Times,serif" font-size="14.00">releaseNeeded</text>
</g>
<!-- release&#45;&gt;releaseNeeded -->
<g id="edge26" class="edge"><title>release&#45;&gt;releaseNeeded</title>
<path fill="none" stroke="black" d="M465.719,-628.697C466.931,-620.983 468.388,-611.712 469.739,-603.112"/>
<polygon fill="black" stroke="black" points="473.217,-603.526 471.312,-593.104 466.302,-602.44 473.217,-603.526"/>
</g>
<!-- releaseNeeded&#45;&gt;releaseNeeded -->
<g id="edge27" class="edge"><title>releaseNeeded&#45;&gt;releaseNeeded</title>
<path fill="none" stroke="red" d="M521.326,-588.101C531.571,-586.82 539,-582.453 539,-575 539,-570.225 535.951,-566.717 531.066,-564.476"/>
<polygon fill="red" stroke="red" points="531.889,-561.073 521.326,-561.899 530.098,-567.84 531.889,-561.073"/>
</g>
<!-- cleanBnd -->
<g id="node19" class="node"><title>cleanBnd</title>
<polygon fill="cyan" stroke="black" points="847,-665 793,-665 793,-629 847,-629 847,-665"/>
<text text-anchor="middle" x="820" y="-643.3" font-family="Times,serif" font-size="14.00">clean</text>
</g>
<!-- bndproperties -->
<g id="node20" class="node"><title>bndproperties</title>
<polygon fill="cyan" stroke="black" points="774.25,-665 683.75,-665 683.75,-629 774.25,-629 774.25,-665"/>
<text text-anchor="middle" x="729" y="-643.3" font-family="Times,serif" font-size="14.00">bndproperties</text>
</g>
<!-- export -->
<g id="node22" class="node"><title>export</title>
<polygon fill="cyan" stroke="black" points="642,-593 588,-593 588,-557 642,-557 642,-593"/>
<text text-anchor="middle" x="615" y="-571.3" font-family="Times,serif" font-size="14.00">export</text>
</g>
<!-- exportX&#45;&gt;export -->
<g id="edge24" class="edge"><title>exportX&#45;&gt;export</title>
<path fill="none" stroke="black" d="M615,-628.697C615,-620.983 615,-611.712 615,-603.112"/>
<polygon fill="black" stroke="black" points="618.5,-603.104 615,-593.104 611.5,-603.104 618.5,-603.104"/>
</g>
<!-- checkClassCycle&#45;&gt;bundle -->
<g id="edge16" class="edge"><title>checkClassCycle&#45;&gt;bundle</title>
<path fill="none" stroke="black" d="M437.483,-799.697C427.131,-790.965 414.414,-780.24 403.161,-770.75"/>
<polygon fill="black" stroke="black" points="405.182,-767.876 395.281,-764.104 400.669,-773.227 405.182,-767.876"/>
</g>
<!-- wrapper -->
<g id="node24" class="node"><title>wrapper</title>
<polygon fill="cyan" stroke="black" points="1640.25,-950 1579.75,-950 1579.75,-914 1640.25,-914 1640.25,-950"/>
<text text-anchor="middle" x="1610" y="-928.3" font-family="Times,serif" font-size="14.00">wrapper</text>
</g>
<!-- findbugstest -->
<g id="node25" class="node"><title>findbugstest</title>
<polygon fill="cyan" stroke="black" points="1908.25,-593 1825.75,-593 1825.75,-557 1908.25,-557 1908.25,-593"/>
<text text-anchor="middle" x="1867" y="-571.3" font-family="Times,serif" font-size="14.00">findbugstest</text>
</g>
<!-- findbugstest&#45;&gt;check -->
<g id="edge33" class="edge"><title>findbugstest&#45;&gt;check</title>
<path fill="none" stroke="green" d="M1855.69,-556.986C1845.86,-543.792 1830.34,-526.386 1812,-518 1780,-503.368 1546.28,-496.145 1454.17,-493.843"/>
<polygon fill="green" stroke="green" points="1454.25,-490.344 1444.17,-493.598 1454.08,-497.342 1454.25,-490.344"/>
</g>
<!-- findbugsTest&#45;&gt;findbugstest -->
<g id="edge31" class="edge"><title>findbugsTest&#45;&gt;findbugstest</title>
<path fill="none" stroke="black" d="M1867.75,-628.697C1867.64,-620.983 1867.51,-611.712 1867.39,-603.112"/>
<polygon fill="black" stroke="black" points="1870.89,-603.053 1867.24,-593.104 1863.89,-603.153 1870.89,-603.053"/>
</g>
<!-- findbugs -->
<g id="node27" class="node"><title>findbugs</title>
<polygon fill="cyan" stroke="black" points="1777,-593 1713,-593 1713,-557 1777,-557 1777,-593"/>
<text text-anchor="middle" x="1745" y="-571.3" font-family="Times,serif" font-size="14.00">findbugs</text>
</g>
<!-- findbugs&#45;&gt;check -->
<g id="edge32" class="edge"><title>findbugs&#45;&gt;check</title>
<path fill="none" stroke="green" d="M1712.95,-566.086C1651.75,-550.971 1518.56,-518.081 1453.82,-502.092"/>
<polygon fill="green" stroke="green" points="1454.58,-498.676 1444.03,-499.676 1452.9,-505.471 1454.58,-498.676"/>
</g>
<!-- findbugsMain&#45;&gt;findbugs -->
<g id="edge30" class="edge"><title>findbugsMain&#45;&gt;findbugs</title>
<path fill="none" stroke="black" d="M1751.02,-628.697C1750.14,-620.983 1749.08,-611.712 1748.1,-603.112"/>
<polygon fill="black" stroke="black" points="1751.57,-602.642 1746.95,-593.104 1744.61,-603.437 1751.57,-602.642"/>
</g>
<!-- index -->
<g id="node30" class="node"><title>index</title>
<polygon fill="cyan" stroke="black" points="1943,-950 1889,-950 1889,-914 1943,-914 1943,-950"/>
<text text-anchor="middle" x="1916" y="-928.3" font-family="Times,serif" font-size="14.00">index</text>
</g>
<!-- clean -->
<g id="node31" class="node"><title>clean</title>
<polygon fill="lightcyan" stroke="black" points="1803,-950 1749,-950 1749,-914 1803,-914 1803,-950"/>
<text text-anchor="middle" x="1776" y="-928.3" font-family="Times,serif" font-size="14.00">clean</text>
</g>
<!-- cleanNeeded -->
<g id="node32" class="node"><title>cleanNeeded</title>
<polygon fill="cyan" stroke="black" points="1763,-836 1677,-836 1677,-800 1763,-800 1763,-836"/>
<text text-anchor="middle" x="1720" y="-814.3" font-family="Times,serif" font-size="14.00">cleanNeeded</text>
</g>
<!-- clean&#45;&gt;cleanNeeded -->
<g id="edge35" class="edge"><title>clean&#45;&gt;cleanNeeded</title>
<path fill="none" stroke="blue" d="M1767.49,-913.99C1758.37,-895.734 1743.75,-866.506 1733.14,-845.287"/>
<polygon fill="blue" stroke="blue" points="1736.19,-843.549 1728.59,-836.17 1729.93,-846.68 1736.19,-843.549"/>
</g>
<!-- distclean -->
<g id="node33" class="node"><title>distclean</title>
<polygon fill="cyan" stroke="black" points="1864.25,-836 1799.75,-836 1799.75,-800 1864.25,-800 1864.25,-836"/>
<text text-anchor="middle" x="1832" y="-814.3" font-family="Times,serif" font-size="14.00">distclean</text>
</g>
<!-- clean&#45;&gt;distclean -->
<g id="edge37" class="edge"><title>clean&#45;&gt;distclean</title>
<path fill="none" stroke="blue" d="M1784.51,-913.99C1793.63,-895.734 1808.25,-866.506 1818.86,-845.287"/>
<polygon fill="blue" stroke="blue" points="1822.07,-846.68 1823.41,-836.17 1815.81,-843.549 1822.07,-846.68"/>
</g>
<!-- cleanNeeded&#45;&gt;cleanNeeded -->
<g id="edge36" class="edge"><title>cleanNeeded&#45;&gt;cleanNeeded</title>
<path fill="none" stroke="red" d="M1763.04,-831.262C1773.35,-830.225 1781,-825.805 1781,-818 1781,-813 1777.86,-809.389 1772.89,-807.167"/>
<polygon fill="red" stroke="red" points="1773.58,-803.732 1763.04,-804.738 1771.91,-810.529 1773.58,-803.732"/>
</g>
<!-- distcleanNeeded -->
<g id="node34" class="node"><title>distcleanNeeded</title>
<polygon fill="cyan" stroke="black" points="1847,-764 1741,-764 1741,-728 1847,-728 1847,-764"/>
<text text-anchor="middle" x="1794" y="-742.3" font-family="Times,serif" font-size="14.00">distcleanNeeded</text>
</g>
<!-- distclean&#45;&gt;distcleanNeeded -->
<g id="edge38" class="edge"><title>distclean&#45;&gt;distcleanNeeded</title>
<path fill="none" stroke="black" d="M1822.61,-799.697C1818.24,-791.644 1812.94,-781.894 1808.1,-772.982"/>
<polygon fill="black" stroke="black" points="1811.13,-771.223 1803.29,-764.104 1804.98,-774.563 1811.13,-771.223"/>
</g>
<!-- distcleanNeeded&#45;&gt;distcleanNeeded -->
<g id="edge39" class="edge"><title>distcleanNeeded&#45;&gt;distcleanNeeded</title>
<path fill="none" stroke="red" d="M1847.26,-758.899C1857.63,-757.401 1865,-753.102 1865,-746 1865,-741.451 1861.98,-738.051 1857.08,-735.801"/>
<polygon fill="red" stroke="red" points="1857.83,-732.378 1847.26,-733.101 1855.97,-739.128 1857.83,-732.378"/>
</g>
<!-- p2FeaturesTree -->
<g id="node36" class="node"><title>p2FeaturesTree</title>
<polygon fill="none" stroke="black" points="178.25,-593 77.75,-593 77.75,-557 178.25,-557 178.25,-593"/>
<text text-anchor="middle" x="128" y="-571.3" font-family="Times,serif" font-size="14.00">p2FeaturesTree</text>
</g>
<!-- p2Entry&#45;&gt;p2FeaturesTree -->
<g id="edge41" class="edge"><title>p2Entry&#45;&gt;p2FeaturesTree</title>
<path fill="none" stroke="black" d="M210.336,-628.876C196.216,-619.808 178.689,-608.552 163.439,-598.759"/>
<polygon fill="black" stroke="black" points="165.073,-595.648 154.767,-593.19 161.29,-601.538 165.073,-595.648"/>
</g>
<!-- p2PelagicPlugins -->
<g id="node39" class="node"><title>p2PelagicPlugins</title>
<polygon fill="none" stroke="black" points="292,-510 182,-510 182,-474 292,-474 292,-510"/>
<text text-anchor="middle" x="237" y="-488.3" font-family="Times,serif" font-size="14.00">p2PelagicPlugins</text>
</g>
<!-- p2Entry&#45;&gt;p2PelagicPlugins -->
<g id="edge44" class="edge"><title>p2Entry&#45;&gt;p2PelagicPlugins</title>
<path fill="none" stroke="black" d="M237,-628.746C237,-602.461 237,-552.13 237,-520.688"/>
<polygon fill="black" stroke="black" points="240.5,-520.425 237,-510.425 233.5,-520.425 240.5,-520.425"/>
</g>
<!-- p2FeaturesGradlePlugin -->
<g id="node37" class="node"><title>p2FeaturesGradlePlugin</title>
<polygon fill="none" stroke="black" points="164,-510 16,-510 16,-474 164,-474 164,-510"/>
<text text-anchor="middle" x="90" y="-488.3" font-family="Times,serif" font-size="14.00">p2FeaturesGradlePlugin</text>
</g>
<!-- p2FeaturesTree&#45;&gt;p2FeaturesGradlePlugin -->
<g id="edge42" class="edge"><title>p2FeaturesTree&#45;&gt;p2FeaturesGradlePlugin</title>
<path fill="none" stroke="black" d="M119.941,-556.822C114.853,-545.976 108.176,-531.744 102.419,-519.472"/>
<polygon fill="black" stroke="black" points="105.463,-517.72 98.0472,-510.153 99.1258,-520.693 105.463,-517.72"/>
</g>
<!-- p2Features -->
<g id="node38" class="node"><title>p2Features</title>
<polygon fill="none" stroke="black" points="142,-438 66,-438 66,-402 142,-402 142,-438"/>
<text text-anchor="middle" x="104" y="-416.3" font-family="Times,serif" font-size="14.00">p2Features</text>
</g>
<!-- p2FeaturesGradlePlugin&#45;&gt;p2Features -->
<g id="edge43" class="edge"><title>p2FeaturesGradlePlugin&#45;&gt;p2Features</title>
<path fill="none" stroke="black" d="M93.4607,-473.697C95.0035,-465.983 96.8575,-456.712 98.5775,-448.112"/>
<polygon fill="black" stroke="black" points="102.05,-448.597 100.579,-438.104 95.1859,-447.224 102.05,-448.597"/>
</g>
<!-- p2 -->
<g id="node41" class="node"><title>p2</title>
<polygon fill="cyan" stroke="black" points="164,-363 110,-363 110,-327 164,-327 164,-363"/>
<text text-anchor="middle" x="137" y="-341.3" font-family="Times,serif" font-size="14.00">p2</text>
</g>
<!-- p2Features&#45;&gt;p2 -->
<g id="edge46" class="edge"><title>p2Features&#45;&gt;p2</title>
<path fill="none" stroke="black" d="M111.821,-401.7C115.766,-392.972 120.637,-382.197 125.04,-372.457"/>
<polygon fill="black" stroke="black" points="128.306,-373.73 129.236,-363.176 121.927,-370.846 128.306,-373.73"/>
</g>
<!-- p2Plugins -->
<g id="node40" class="node"><title>p2Plugins</title>
<polygon fill="none" stroke="black" points="258.25,-438 187.75,-438 187.75,-402 258.25,-402 258.25,-438"/>
<text text-anchor="middle" x="223" y="-416.3" font-family="Times,serif" font-size="14.00">p2Plugins</text>
</g>
<!-- p2PelagicPlugins&#45;&gt;p2Plugins -->
<g id="edge45" class="edge"><title>p2PelagicPlugins&#45;&gt;p2Plugins</title>
<path fill="none" stroke="black" d="M233.539,-473.697C231.997,-465.983 230.142,-456.712 228.422,-448.112"/>
<polygon fill="black" stroke="black" points="231.814,-447.224 226.421,-438.104 224.95,-448.597 231.814,-447.224"/>
</g>
<!-- p2Plugins&#45;&gt;p2 -->
<g id="edge47" class="edge"><title>p2Plugins&#45;&gt;p2</title>
<path fill="none" stroke="black" d="M202.619,-401.7C191.373,-392.154 177.242,-380.159 164.976,-369.747"/>
<polygon fill="black" stroke="black" points="167.123,-366.979 157.235,-363.176 162.593,-372.315 167.123,-366.979"/>
</g>
<!-- indexBuild -->
<g id="node42" class="node"><title>indexBuild</title>
<polygon fill="cyan" stroke="black" points="164,-291 110,-291 110,-255 164,-255 164,-291"/>
<text text-anchor="middle" x="137" y="-269.3" font-family="Times,serif" font-size="14.00">index</text>
</g>
<!-- p2&#45;&gt;indexBuild -->
<g id="edge48" class="edge"><title>p2&#45;&gt;indexBuild</title>
<path fill="none" stroke="black" d="M137,-326.697C137,-318.983 137,-309.712 137,-301.112"/>
<polygon fill="black" stroke="black" points="140.5,-301.104 137,-291.104 133.5,-301.104 140.5,-301.104"/>
</g>
<!-- distCompositePlugins -->
<g id="node43" class="node"><title>distCompositePlugins</title>
<polygon fill="none" stroke="black" points="178,-219 42,-219 42,-183 178,-183 178,-219"/>
<text text-anchor="middle" x="110" y="-197.3" font-family="Times,serif" font-size="14.00">distCompositePlugins</text>
</g>
<!-- indexBuild&#45;&gt;distCompositePlugins -->
<g id="edge49" class="edge"><title>indexBuild&#45;&gt;distCompositePlugins</title>
<path fill="none" stroke="black" d="M130.326,-254.697C127.285,-246.813 123.617,-237.304 120.239,-228.546"/>
<polygon fill="black" stroke="black" points="123.462,-227.175 116.597,-219.104 116.931,-229.694 123.462,-227.175"/>
</g>
<!-- distZipPlugins -->
<g id="node44" class="node"><title>distZipPlugins</title>
<polygon fill="none" stroke="black" points="200.25,-147 105.75,-147 105.75,-111 200.25,-111 200.25,-147"/>
<text text-anchor="middle" x="153" y="-125.3" font-family="Times,serif" font-size="14.00">distZipPlugins</text>
</g>
<!-- indexBuild&#45;&gt;distZipPlugins -->
<g id="edge50" class="edge"><title>indexBuild&#45;&gt;distZipPlugins</title>
<path fill="none" stroke="black" d="M159.596,-254.963C170.059,-245.635 181.396,-233.107 187,-219 192.907,-204.13 191.501,-198.354 187,-183 184.199,-173.447 179.089,-163.984 173.667,-155.756"/>
<polygon fill="black" stroke="black" points="176.376,-153.525 167.755,-147.366 170.654,-157.557 176.376,-153.525"/>
</g>
<!-- distCompositePlugins&#45;&gt;distZipPlugins -->
<g id="edge51" class="edge"><title>distCompositePlugins&#45;&gt;distZipPlugins</title>
<path fill="none" stroke="black" d="M120.629,-182.697C125.628,-174.559 131.691,-164.689 137.212,-155.701"/>
<polygon fill="black" stroke="black" points="140.241,-157.457 142.493,-147.104 134.277,-153.793 140.241,-157.457"/>
</g>
<!-- dist -->
<g id="node45" class="node"><title>dist</title>
<polygon fill="cyan" stroke="black" points="180,-75 126,-75 126,-39 180,-39 180,-75"/>
<text text-anchor="middle" x="153" y="-53.3" font-family="Times,serif" font-size="14.00">dist</text>
</g>
<!-- distZipPlugins&#45;&gt;dist -->
<g id="edge52" class="edge"><title>distZipPlugins&#45;&gt;dist</title>
<path fill="none" stroke="black" d="M153,-110.697C153,-102.983 153,-93.7125 153,-85.1124"/>
<polygon fill="black" stroke="black" points="156.5,-85.1043 153,-75.1043 149.5,-85.1044 156.5,-85.1043"/>
</g>
</g>
</svg>
