<?xml version="1.0" encoding="UTF-8" standalone="no"?>
<!DOCTYPE svg PUBLIC "-//W3C//DTD SVG 1.1//EN"
 "http://www.w3.org/Graphics/SVG/1.1/DTD/svg11.dtd">
<!-- Generated by graphviz version 2.34.0 (20140110.0949)
 -->
<!-- Title: GradleSetup Pages: 1 -->
<svg width="1324pt" height="971pt"
 viewBox="0.00 0.00 1324.00 971.00" xmlns="http://www.w3.org/2000/svg" xmlns:xlink="http://www.w3.org/1999/xlink">
<g id="graph0" class="graph" transform="scale(1 1) rotate(0) translate(4 967)">
<title>GradleSetup</title>
<polygon fill="white" stroke="white" points="-4,4 -4,-967 1320,-967 1320,4 -4,4"/>
<text text-anchor="middle" x="61" y="-947.8" font-family="Times,serif" font-size="14.00">Gradle Build Setup</text>
<g id="clust1" class="cluster"><title>cluster1</title>
<polygon fill="lightgrey" stroke="black" points="8,-227 8,-932 706,-932 706,-227 8,-227"/>
<text text-anchor="middle" x="92.5" y="-234.8" font-family="Times,serif" font-size="14.00">Java Projects / Bnd Projects</text>
</g>
<g id="clust2" class="cluster"><title>cluster101</title>
</g>
<g id="clust3" class="cluster"><title>cluster102</title>
</g>
<g id="clust4" class="cluster"><title>cluster103</title>
</g>
<g id="clust5" class="cluster"><title>cluster104</title>
</g>
<g id="clust6" class="cluster"><title>cluster105</title>
</g>
<g id="clust7" class="cluster"><title>cluster106</title>
</g>
<g id="clust8" class="cluster"><title>cluster107</title>
</g>
<g id="clust9" class="cluster"><title>cluster108</title>
</g>
<g id="clust10" class="cluster"><title>cluster109</title>
</g>
<g id="clust11" class="cluster"><title>cluster110</title>
</g>
<g id="clust12" class="cluster"><title>cluster2</title>
<polygon fill="lightgrey" stroke="black" points="1010,-606 1010,-841 1308,-841 1308,-606 1010,-606"/>
<text text-anchor="middle" x="1050.5" y="-613.8" font-family="Times,serif" font-size="14.00">All Projects</text>
</g>
<g id="clust13" class="cluster"><title>cluster201</title>
</g>
<g id="clust14" class="cluster"><title>cluster202</title>
</g>
<g id="clust15" class="cluster"><title>cluster3</title>
<polygon fill="lightgrey" stroke="black" points="936,-849 936,-924 1086,-924 1086,-849 936,-849"/>
<text text-anchor="middle" x="978.5" y="-856.8" font-family="Times,serif" font-size="14.00">Root Project</text>
</g>
<g id="clust16" class="cluster"><title>cluster4</title>
<polygon fill="lightgrey" stroke="black" points="714,-8 714,-689 1002,-689 1002,-8 714,-8"/>
<text text-anchor="middle" x="758.5" y="-15.8" font-family="Times,serif" font-size="14.00">Build Project</text>
</g>
<!-- compileJava -->
<g id="node1" class="node"><title>compileJava</title>
<polygon fill="lightcyan" stroke="black" points="458.25,-916 373.75,-916 373.75,-880 458.25,-880 458.25,-916"/>
<text text-anchor="middle" x="416" y="-894.3" font-family="Times,serif" font-size="14.00">compileJava</text>
</g>
<!-- classes -->
<g id="node3" class="node"><title>classes</title>
<polygon fill="lightcyan" stroke="black" points="329,-825 275,-825 275,-789 329,-789 329,-825"/>
<text text-anchor="middle" x="302" y="-803.3" font-family="Times,serif" font-size="14.00">classes</text>
</g>
<!-- compileJava&#45;&gt;classes -->
<g id="edge1" class="edge"><title>compileJava&#45;&gt;classes</title>
<path fill="none" stroke="black" d="M398.816,-879.826C388.97,-870.328 376.183,-858.55 364,-849 355.774,-842.551 346.546,-836.079 337.774,-830.243"/>
<polygon fill="black" stroke="black" points="339.494,-827.186 329.208,-824.644 335.664,-833.045 339.494,-827.186"/>
</g>
<!-- processResources -->
<g id="node2" class="node"><title>processResources</title>
<polygon fill="lightcyan" stroke="black" points="355.25,-916 242.75,-916 242.75,-880 355.25,-880 355.25,-916"/>
<text text-anchor="middle" x="299" y="-894.3" font-family="Times,serif" font-size="14.00">processResources</text>
</g>
<!-- processResources&#45;&gt;classes -->
<g id="edge2" class="edge"><title>processResources&#45;&gt;classes</title>
<path fill="none" stroke="black" d="M299.578,-879.84C300.002,-867.281 300.585,-849.979 301.073,-835.502"/>
<polygon fill="black" stroke="black" points="304.584,-835.22 301.423,-825.107 297.588,-834.984 304.584,-835.22"/>
</g>
<!-- jar -->
<g id="node4" class="node"><title>jar</title>
<polygon fill="cyan" stroke="black" points="517,-753 463,-753 463,-717 517,-717 517,-753"/>
<text text-anchor="middle" x="490" y="-731.3" font-family="Times,serif" font-size="14.00">jar</text>
</g>
<!-- classes&#45;&gt;jar -->
<g id="edge4" class="edge"><title>classes&#45;&gt;jar</title>
<path fill="none" stroke="black" d="M320.849,-788.86C324.684,-785.946 328.827,-783.166 333,-781 371.489,-761.016 420.028,-748.848 452.87,-742.29"/>
<polygon fill="black" stroke="black" points="453.788,-745.678 462.949,-740.356 452.468,-738.804 453.788,-745.678"/>
</g>
<!-- compileTestJava -->
<g id="node5" class="node"><title>compileTestJava</title>
<polygon fill="lightcyan" stroke="black" points="356,-753 248,-753 248,-717 356,-717 356,-753"/>
<text text-anchor="middle" x="302" y="-731.3" font-family="Times,serif" font-size="14.00">compileTestJava</text>
</g>
<!-- classes&#45;&gt;compileTestJava -->
<g id="edge3" class="edge"><title>classes&#45;&gt;compileTestJava</title>
<path fill="none" stroke="black" d="M302,-788.697C302,-780.983 302,-771.712 302,-763.112"/>
<polygon fill="black" stroke="black" points="305.5,-763.104 302,-753.104 298.5,-763.104 305.5,-763.104"/>
</g>
<!-- test -->
<g id="node8" class="node"><title>test</title>
<polygon fill="lightcyan" stroke="black" points="102,-590 48,-590 48,-554 102,-554 102,-590"/>
<text text-anchor="middle" x="75" y="-568.3" font-family="Times,serif" font-size="14.00">test</text>
</g>
<!-- classes&#45;&gt;test -->
<g id="edge5" class="edge"><title>classes&#45;&gt;test</title>
<path fill="none" stroke="black" d="M274.666,-804.492C221.36,-800.928 106.578,-789.995 82,-761 43.7113,-715.829 56.1438,-640.348 66.6596,-600.143"/>
<polygon fill="black" stroke="black" points="70.1016,-600.828 69.3953,-590.256 63.3551,-598.961 70.1016,-600.828"/>
</g>
<!-- uploadArchives -->
<g id="node9" class="node"><title>uploadArchives</title>
<polygon fill="lightcyan" stroke="black" points="570,-681 468,-681 468,-645 570,-645 570,-681"/>
<text text-anchor="middle" x="519" y="-659.3" font-family="Times,serif" font-size="14.00">uploadArchives</text>
</g>
<!-- jar&#45;&gt;uploadArchives -->
<g id="edge8" class="edge"><title>jar&#45;&gt;uploadArchives</title>
<path fill="none" stroke="black" d="M497.169,-716.697C500.435,-708.813 504.374,-699.304 508.002,-690.546"/>
<polygon fill="black" stroke="black" points="511.32,-691.683 511.914,-681.104 504.853,-689.003 511.32,-691.683"/>
</g>
<!-- assemble -->
<g id="node10" class="node"><title>assemble</title>
<polygon fill="lightcyan" stroke="black" points="449.25,-681 382.75,-681 382.75,-645 449.25,-645 449.25,-681"/>
<text text-anchor="middle" x="416" y="-659.3" font-family="Times,serif" font-size="14.00">assemble</text>
</g>
<!-- jar&#45;&gt;assemble -->
<g id="edge9" class="edge"><title>jar&#45;&gt;assemble</title>
<path fill="none" stroke="black" d="M471.708,-716.697C462.567,-708.05 451.36,-697.449 441.4,-688.027"/>
<polygon fill="black" stroke="black" points="443.752,-685.434 434.082,-681.104 438.941,-690.519 443.752,-685.434"/>
</g>
<!-- p2Entry -->
<g id="node37" class="node"><title>p2Entry</title>
<polygon fill="none" stroke="black" points="824,-681 764,-681 764,-645 824,-645 824,-681"/>
<text text-anchor="middle" x="794" y="-659.3" font-family="Times,serif" font-size="14.00">p2Entry</text>
</g>
<!-- jar&#45;&gt;p2Entry -->
<g id="edge45" class="edge"><title>jar&#45;&gt;p2Entry</title>
<path fill="none" stroke="red" d="M517.246,-727.726C570.947,-715.361 690.701,-687.786 753.615,-673.299"/>
<polygon fill="red" stroke="red" points="754.613,-676.661 763.573,-671.006 753.043,-669.839 754.613,-676.661"/>
</g>
<!-- testClasses -->
<g id="node7" class="node"><title>testClasses</title>
<polygon fill="lightcyan" stroke="black" points="200,-681 124,-681 124,-645 200,-645 200,-681"/>
<text text-anchor="middle" x="162" y="-659.3" font-family="Times,serif" font-size="14.00">testClasses</text>
</g>
<!-- compileTestJava&#45;&gt;testClasses -->
<g id="edge6" class="edge"><title>compileTestJava&#45;&gt;testClasses</title>
<path fill="none" stroke="black" d="M267.752,-716.876C248.939,-707.469 225.415,-695.708 205.334,-685.667"/>
<polygon fill="black" stroke="black" points="206.889,-682.531 196.38,-681.19 203.759,-688.792 206.889,-682.531"/>
</g>
<!-- processTestResources -->
<g id="node6" class="node"><title>processTestResources</title>
<polygon fill="lightcyan" stroke="black" points="230,-753 94,-753 94,-717 230,-717 230,-753"/>
<text text-anchor="middle" x="162" y="-731.3" font-family="Times,serif" font-size="14.00">processTestResources</text>
</g>
<!-- processTestResources&#45;&gt;testClasses -->
<g id="edge7" class="edge"><title>processTestResources&#45;&gt;testClasses</title>
<path fill="none" stroke="black" d="M162,-716.697C162,-708.983 162,-699.712 162,-691.112"/>
<polygon fill="black" stroke="black" points="165.5,-691.104 162,-681.104 158.5,-691.104 165.5,-691.104"/>
</g>
<!-- testClasses&#45;&gt;test -->
<g id="edge10" class="edge"><title>testClasses&#45;&gt;test</title>
<path fill="none" stroke="black" d="M145.226,-644.84C132.107,-631.419 113.693,-612.582 99.012,-597.564"/>
<polygon fill="black" stroke="black" points="101.216,-594.812 91.723,-590.107 96.2104,-599.705 101.216,-594.812"/>
</g>
<!-- check -->
<g id="node11" class="node"><title>check</title>
<polygon fill="cyan" stroke="black" points="227,-446 173,-446 173,-410 227,-410 227,-446"/>
<text text-anchor="middle" x="200" y="-424.3" font-family="Times,serif" font-size="14.00">check</text>
</g>
<!-- test&#45;&gt;check -->
<g id="edge13" class="edge"><title>test&#45;&gt;check</title>
<path fill="none" stroke="black" d="M60.8045,-553.996C45.0457,-532.972 24.2695,-497.138 44,-474 80.5056,-431.189 117.597,-476.873 169,-454 170.563,-453.304 172.114,-452.51 173.64,-451.641"/>
<polygon fill="black" stroke="black" points="175.652,-454.507 182.026,-446.043 171.766,-448.685 175.652,-454.507"/>
</g>
<!-- findbugsTest -->
<g id="node23" class="node"><title>findbugsTest</title>
<polygon fill="orange" stroke="black" points="143.25,-518 56.75,-518 56.75,-482 143.25,-482 143.25,-518"/>
<text text-anchor="middle" x="100" y="-496.3" font-family="Times,serif" font-size="14.00">findbugsTest</text>
</g>
<!-- test&#45;&gt;findbugsTest -->
<g id="edge32" class="edge"><title>test&#45;&gt;findbugsTest</title>
<path fill="none" stroke="black" d="M81.1798,-553.697C83.9953,-545.813 87.3913,-536.304 90.5191,-527.546"/>
<polygon fill="black" stroke="black" points="93.824,-528.699 93.8913,-518.104 87.2318,-526.345 93.824,-528.699"/>
</g>
<!-- jacocoTestReport -->
<g id="node29" class="node"><title>jacocoTestReport</title>
<polygon fill="orange" stroke="black" points="133,-374 21,-374 21,-338 133,-338 133,-374"/>
<text text-anchor="middle" x="77" y="-352.3" font-family="Times,serif" font-size="14.00">jacocoTestReport</text>
</g>
<!-- test&#45;&gt;jacocoTestReport -->
<g id="edge35" class="edge"><title>test&#45;&gt;jacocoTestReport</title>
<path fill="none" stroke="magenta" d="M52.4022,-553.706C44.3677,-546.174 36.2628,-536.631 32,-526 12.3754,-477.057 40.0882,-416.741 59.9424,-383.008"/>
<polygon fill="magenta" stroke="magenta" points="63.076,-384.591 65.2881,-374.23 57.0974,-380.95 63.076,-384.591"/>
</g>
<!-- assemble&#45;&gt;compileJava -->
<g id="edge21" class="edge"><title>assemble&#45;&gt;compileJava</title>
<path fill="none" stroke="red" d="M416,-681.158C416,-721.242 416,-821.3 416,-869.797"/>
<polygon fill="red" stroke="red" points="412.5,-869.867 416,-879.867 419.5,-869.867 412.5,-869.867"/>
</g>
<!-- assemble&#45;&gt;check -->
<g id="edge12" class="edge"><title>assemble&#45;&gt;check</title>
<path fill="none" stroke="black" d="M406.399,-644.888C398.067,-631.823 384.723,-614.641 368,-606 350.752,-597.087 294.87,-611.585 281,-598 241.379,-559.192 295.794,-521.401 267,-474 259.696,-461.976 247.814,-452.461 236.07,-445.337"/>
<polygon fill="black" stroke="black" points="237.627,-442.198 227.194,-440.354 234.2,-448.302 237.627,-442.198"/>
</g>
<!-- release -->
<g id="node13" class="node"><title>release</title>
<polygon fill="cyan" stroke="black" points="387,-590 333,-590 333,-554 387,-554 387,-590"/>
<text text-anchor="middle" x="360" y="-568.3" font-family="Times,serif" font-size="14.00">release</text>
</g>
<!-- assemble&#45;&gt;release -->
<g id="edge22" class="edge"><title>assemble&#45;&gt;release</title>
<path fill="none" stroke="black" d="M405.203,-644.84C396.991,-631.789 385.556,-613.615 376.242,-598.813"/>
<polygon fill="black" stroke="black" points="379.052,-596.707 370.764,-590.107 373.127,-600.435 379.052,-596.707"/>
</g>
<!-- exportX -->
<g id="node15" class="node"><title>exportX</title>
<polygon fill="cyan" stroke="black" points="677.25,-590 580.75,-590 576.75,-586 576.75,-554 673.25,-554 677.25,-558 677.25,-590"/>
<polyline fill="none" stroke="black" points="673.25,-586 576.75,-586 "/>
<polyline fill="none" stroke="black" points="673.25,-586 673.25,-554 "/>
<polyline fill="none" stroke="black" points="673.25,-586 677.25,-590 "/>
<text text-anchor="middle" x="627" y="-568.3" font-family="Times,serif" font-size="14.00">export.&lt;name&gt;</text>
</g>
<!-- assemble&#45;&gt;exportX -->
<g id="edge23" class="edge"><title>assemble&#45;&gt;exportX</title>
<path fill="none" stroke="black" d="M424.124,-644.843C431.319,-631.753 443.144,-614.559 459,-606 480.178,-594.569 543.592,-603.589 567,-598 571.95,-596.818 577.017,-595.277 582.008,-593.54"/>
<polygon fill="black" stroke="black" points="583.321,-596.786 591.458,-590 580.866,-590.23 583.321,-596.786"/>
</g>
<!-- runbundlesX -->
<g id="node17" class="node"><title>runbundlesX</title>
<polygon fill="cyan" stroke="black" points="558.25,-590 435.75,-590 431.75,-586 431.75,-554 554.25,-554 558.25,-558 558.25,-590"/>
<polyline fill="none" stroke="black" points="554.25,-586 431.75,-586 "/>
<polyline fill="none" stroke="black" points="554.25,-586 554.25,-554 "/>
<polyline fill="none" stroke="black" points="554.25,-586 558.25,-590 "/>
<text text-anchor="middle" x="495" y="-568.3" font-family="Times,serif" font-size="14.00">runbundles.&lt;name&gt;</text>
</g>
<!-- assemble&#45;&gt;runbundlesX -->
<g id="edge25" class="edge"><title>assemble&#45;&gt;runbundlesX</title>
<path fill="none" stroke="black" d="M428.062,-644.723C436.305,-633.327 447.737,-618.29 459,-606 461.694,-603.06 464.613,-600.087 467.584,-597.191"/>
<polygon fill="black" stroke="black" points="470.104,-599.626 474.976,-590.218 465.3,-594.534 470.104,-599.626"/>
</g>
<!-- build -->
<g id="node19" class="node"><title>build</title>
<polygon fill="lightcyan" stroke="black" points="511,-374 457,-374 457,-338 511,-338 511,-374"/>
<text text-anchor="middle" x="484" y="-352.3" font-family="Times,serif" font-size="14.00">build</text>
</g>
<!-- assemble&#45;&gt;build -->
<g id="edge11" class="edge"><title>assemble&#45;&gt;build</title>
<path fill="none" stroke="black" d="M423.889,-644.942C431.018,-631.721 442.869,-614.301 459,-606 481.835,-594.248 672.157,-616.472 690,-598 709.145,-578.181 703.862,-497.815 690,-474 653.588,-411.444 569.89,-379.604 521.124,-365.812"/>
<polygon fill="black" stroke="black" points="521.846,-362.381 511.278,-363.138 520.011,-369.136 521.846,-362.381"/>
</g>
<!-- findbugsMain -->
<g id="node22" class="node"><title>findbugsMain</title>
<polygon fill="orange" stroke="black" points="254.25,-518 161.75,-518 161.75,-482 254.25,-482 254.25,-518"/>
<text text-anchor="middle" x="208" y="-496.3" font-family="Times,serif" font-size="14.00">findbugsMain</text>
</g>
<!-- assemble&#45;&gt;findbugsMain -->
<g id="edge31" class="edge"><title>assemble&#45;&gt;findbugsMain</title>
<path fill="none" stroke="black" d="M406.425,-644.838C398.108,-631.744 384.77,-614.548 368,-606 348.336,-595.976 287.874,-609.443 269,-598 242.92,-582.188 226.199,-550.525 216.982,-527.668"/>
<polygon fill="black" stroke="black" points="220.2,-526.285 213.377,-518.18 213.657,-528.771 220.2,-526.285"/>
</g>
<!-- checkNeeded -->
<g id="node12" class="node"><title>checkNeeded</title>
<polygon fill="cyan" stroke="black" points="244.25,-374 155.75,-374 155.75,-338 244.25,-338 244.25,-374"/>
<text text-anchor="middle" x="200" y="-352.3" font-family="Times,serif" font-size="14.00">checkNeeded</text>
</g>
<!-- check&#45;&gt;checkNeeded -->
<g id="edge14" class="edge"><title>check&#45;&gt;checkNeeded</title>
<path fill="none" stroke="black" d="M200,-409.697C200,-401.983 200,-392.712 200,-384.112"/>
<polygon fill="black" stroke="black" points="203.5,-384.104 200,-374.104 196.5,-384.104 203.5,-384.104"/>
</g>
<!-- check&#45;&gt;build -->
<g id="edge16" class="edge"><title>check&#45;&gt;build</title>
<path fill="none" stroke="black" d="M227.231,-420.288C278.44,-407.666 389.129,-380.384 447.019,-366.115"/>
<polygon fill="black" stroke="black" points="447.98,-369.483 456.851,-363.692 446.304,-362.687 447.98,-369.483"/>
</g>
<!-- check&#45;&gt;jacocoTestReport -->
<g id="edge36" class="edge"><title>check&#45;&gt;jacocoTestReport</title>
<path fill="none" stroke="magenta" d="M172.702,-411.465C156.037,-401.98 134.459,-389.7 116.011,-379.201"/>
<polygon fill="magenta" stroke="magenta" points="117.664,-376.115 107.242,-374.211 114.202,-382.199 117.664,-376.115"/>
</g>
<!-- checkNeeded&#45;&gt;checkNeeded -->
<g id="edge15" class="edge"><title>checkNeeded&#45;&gt;checkNeeded</title>
<path fill="none" stroke="red" d="M244.306,-369.203C254.507,-368.065 262,-363.664 262,-356 262,-351.09 258.925,-347.52 254.032,-345.288"/>
<polygon fill="red" stroke="red" points="254.862,-341.888 244.306,-342.797 253.125,-348.669 254.862,-341.888"/>
</g>
<!-- releaseNeeded -->
<g id="node14" class="node"><title>releaseNeeded</title>
<polygon fill="cyan" stroke="black" points="388.25,-518 293.75,-518 293.75,-482 388.25,-482 388.25,-518"/>
<text text-anchor="middle" x="341" y="-496.3" font-family="Times,serif" font-size="14.00">releaseNeeded</text>
</g>
<!-- release&#45;&gt;releaseNeeded -->
<g id="edge27" class="edge"><title>release&#45;&gt;releaseNeeded</title>
<path fill="none" stroke="black" d="M355.303,-553.697C353.187,-545.898 350.638,-536.509 348.282,-527.829"/>
<polygon fill="black" stroke="black" points="351.64,-526.838 345.643,-518.104 344.884,-528.672 351.64,-526.838"/>
</g>
<!-- releaseNeeded&#45;&gt;releaseNeeded -->
<g id="edge28" class="edge"><title>releaseNeeded&#45;&gt;releaseNeeded</title>
<path fill="none" stroke="red" d="M388.326,-513.101C398.571,-511.82 406,-507.453 406,-500 406,-495.225 402.951,-491.717 398.066,-489.476"/>
<polygon fill="red" stroke="red" points="398.889,-486.073 388.326,-486.899 397.098,-492.84 398.889,-486.073"/>
</g>
<!-- export -->
<g id="node16" class="node"><title>export</title>
<polygon fill="cyan" stroke="black" points="654,-518 600,-518 600,-482 654,-482 654,-518"/>
<text text-anchor="middle" x="627" y="-496.3" font-family="Times,serif" font-size="14.00">export</text>
</g>
<!-- exportX&#45;&gt;export -->
<g id="edge24" class="edge"><title>exportX&#45;&gt;export</title>
<path fill="none" stroke="black" d="M627,-553.697C627,-545.983 627,-536.712 627,-528.112"/>
<polygon fill="black" stroke="black" points="630.5,-528.104 627,-518.104 623.5,-528.104 630.5,-528.104"/>
</g>
<!-- runbundles -->
<g id="node18" class="node"><title>runbundles</title>
<polygon fill="cyan" stroke="black" points="533.25,-518 456.75,-518 456.75,-482 533.25,-482 533.25,-518"/>
<text text-anchor="middle" x="495" y="-496.3" font-family="Times,serif" font-size="14.00">runbundles</text>
</g>
<!-- runbundlesX&#45;&gt;runbundles -->
<g id="edge26" class="edge"><title>runbundlesX&#45;&gt;runbundles</title>
<path fill="none" stroke="black" d="M495,-553.697C495,-545.983 495,-536.712 495,-528.112"/>
<polygon fill="black" stroke="black" points="498.5,-528.104 495,-518.104 491.5,-528.104 498.5,-528.104"/>
</g>
<!-- buildDependents -->
<g id="node20" class="node"><title>buildDependents</title>
<polygon fill="lightcyan" stroke="black" points="472,-302 364,-302 364,-266 472,-266 472,-302"/>
<text text-anchor="middle" x="418" y="-280.3" font-family="Times,serif" font-size="14.00">buildDependents</text>
</g>
<!-- build&#45;&gt;buildDependents -->
<g id="edge17" class="edge"><title>build&#45;&gt;buildDependents</title>
<path fill="none" stroke="black" d="M467.685,-337.697C459.693,-329.22 449.928,-318.864 441.178,-309.583"/>
<polygon fill="black" stroke="black" points="443.534,-306.979 434.127,-302.104 438.441,-311.781 443.534,-306.979"/>
</g>
<!-- buildNeeded -->
<g id="node21" class="node"><title>buildNeeded</title>
<polygon fill="lightcyan" stroke="black" points="594,-302 508,-302 508,-266 594,-266 594,-302"/>
<text text-anchor="middle" x="551" y="-280.3" font-family="Times,serif" font-size="14.00">buildNeeded</text>
</g>
<!-- build&#45;&gt;buildNeeded -->
<g id="edge19" class="edge"><title>build&#45;&gt;buildNeeded</title>
<path fill="none" stroke="black" d="M500.562,-337.697C508.675,-329.22 518.588,-318.864 527.471,-309.583"/>
<polygon fill="black" stroke="black" points="530.243,-311.749 534.629,-302.104 525.186,-306.908 530.243,-311.749"/>
</g>
<!-- buildDependents&#45;&gt;buildDependents -->
<g id="edge18" class="edge"><title>buildDependents&#45;&gt;buildDependents</title>
<path fill="none" stroke="yellow" d="M472.007,-296.899C482.529,-295.401 490,-291.102 490,-284 490,-279.451 486.934,-276.051 481.964,-273.801"/>
<polygon fill="yellow" stroke="yellow" points="482.575,-270.341 472.007,-271.101 480.742,-277.097 482.575,-270.341"/>
</g>
<!-- buildNeeded&#45;&gt;buildNeeded -->
<g id="edge20" class="edge"><title>buildNeeded&#45;&gt;buildNeeded</title>
<path fill="none" stroke="red" d="M594.036,-297.262C604.355,-296.225 612,-291.805 612,-284 612,-279 608.862,-275.389 603.894,-273.167"/>
<polygon fill="red" stroke="red" points="604.583,-269.732 594.036,-270.738 602.909,-276.529 604.583,-269.732"/>
</g>
<!-- findbugsMain&#45;&gt;check -->
<g id="edge33" class="edge"><title>findbugsMain&#45;&gt;check</title>
<path fill="none" stroke="green" d="M206.022,-481.697C205.141,-473.983 204.081,-464.712 203.099,-456.112"/>
<polygon fill="green" stroke="green" points="206.568,-455.642 201.955,-446.104 199.613,-456.437 206.568,-455.642"/>
</g>
<!-- findbugsTest&#45;&gt;check -->
<g id="edge34" class="edge"><title>findbugsTest&#45;&gt;check</title>
<path fill="none" stroke="green" d="M127.628,-481.882C140.418,-473.729 155.694,-463.667 169,-454 169.734,-453.467 170.475,-452.922 171.219,-452.369"/>
<polygon fill="green" stroke="green" points="173.409,-455.1 179.212,-446.236 169.148,-449.546 173.409,-455.1"/>
</g>
<!-- javadoc -->
<g id="node24" class="node"><title>javadoc</title>
<polygon fill="orange" stroke="black" points="567.25,-916 508.75,-916 508.75,-880 567.25,-880 567.25,-916"/>
<text text-anchor="middle" x="538" y="-894.3" font-family="Times,serif" font-size="14.00">javadoc</text>
</g>
<!-- clean -->
<g id="node25" class="node"><title>clean</title>
<polygon fill="cyan" stroke="black" points="681,-916 627,-916 627,-880 681,-880 681,-916"/>
<text text-anchor="middle" x="654" y="-894.3" font-family="Times,serif" font-size="14.00">clean</text>
</g>
<!-- cleanNeeded -->
<g id="node26" class="node"><title>cleanNeeded</title>
<polygon fill="cyan" stroke="black" points="680,-825 594,-825 594,-789 680,-789 680,-825"/>
<text text-anchor="middle" x="637" y="-803.3" font-family="Times,serif" font-size="14.00">cleanNeeded</text>
</g>
<!-- clean&#45;&gt;cleanNeeded -->
<g id="edge29" class="edge"><title>clean&#45;&gt;cleanNeeded</title>
<path fill="none" stroke="black" d="M650.722,-879.84C648.3,-867.158 644.954,-849.64 642.172,-835.077"/>
<polygon fill="black" stroke="black" points="645.582,-834.273 640.268,-825.107 638.706,-835.587 645.582,-834.273"/>
</g>
<!-- cleanAll -->
<g id="node31" class="node"><title>cleanAll</title>
<polygon fill="orange" stroke="black" points="1096,-825 1042,-825 1042,-789 1096,-789 1096,-825"/>
<text text-anchor="middle" x="1069" y="-803.3" font-family="Times,serif" font-size="14.00">clean</text>
</g>
<!-- clean&#45;&gt;cleanAll -->
<g id="edge37" class="edge"><title>clean&#45;&gt;cleanAll</title>
<path fill="none" stroke="blue" d="M681.229,-891.16C753.427,-875.677 949.831,-833.557 1032.04,-815.927"/>
<polygon fill="blue" stroke="blue" points="1032.9,-819.322 1041.94,-813.803 1031.43,-812.478 1032.9,-819.322"/>
</g>
<!-- cleanNeeded&#45;&gt;cleanNeeded -->
<g id="edge30" class="edge"><title>cleanNeeded&#45;&gt;cleanNeeded</title>
<path fill="none" stroke="red" d="M680.036,-820.262C690.355,-819.225 698,-814.805 698,-807 698,-802 694.862,-798.389 689.894,-796.167"/>
<polygon fill="red" stroke="red" points="690.583,-792.732 680.036,-793.738 688.909,-799.529 690.583,-792.732"/>
</g>
<!-- cleanAllNeeded -->
<g id="node32" class="node"><title>cleanAllNeeded</title>
<polygon fill="orange" stroke="black" points="1112,-753 1026,-753 1026,-717 1112,-717 1112,-753"/>
<text text-anchor="middle" x="1069" y="-731.3" font-family="Times,serif" font-size="14.00">cleanNeeded</text>
</g>
<!-- cleanNeeded&#45;&gt;cleanAllNeeded -->
<g id="edge38" class="edge"><title>cleanNeeded&#45;&gt;cleanAllNeeded</title>
<path fill="none" stroke="blue" d="M680.001,-799.032C759.55,-786.142 929.444,-758.613 1015.98,-744.592"/>
<polygon fill="blue" stroke="blue" points="1016.54,-748.046 1025.85,-742.991 1015.42,-741.136 1016.54,-748.046"/>
</g>
<!-- echo -->
<g id="node27" class="node"><title>echo</title>
<polygon fill="cyan" stroke="black" points="220,-916 166,-916 166,-880 220,-880 220,-916"/>
<text text-anchor="middle" x="193" y="-894.3" font-family="Times,serif" font-size="14.00">echo</text>
</g>
<!-- bndproperties -->
<g id="node28" class="node"><title>bndproperties</title>
<polygon fill="cyan" stroke="black" points="138.25,-916 47.75,-916 47.75,-880 138.25,-880 138.25,-916"/>
<text text-anchor="middle" x="93" y="-894.3" font-family="Times,serif" font-size="14.00">bndproperties</text>
</g>
<!-- index -->
<g id="node30" class="node"><title>index</title>
<polygon fill="orange" stroke="black" points="1292,-825 1238,-825 1238,-789 1292,-789 1292,-825"/>
<text text-anchor="middle" x="1265" y="-803.3" font-family="Times,serif" font-size="14.00">index</text>
</g>
<!-- cleanAll&#45;&gt;cleanAllNeeded -->
<g id="edge39" class="edge"><title>cleanAll&#45;&gt;cleanAllNeeded</title>
<path fill="none" stroke="black" d="M1069,-788.697C1069,-780.983 1069,-771.712 1069,-763.112"/>
<polygon fill="black" stroke="black" points="1072.5,-763.104 1069,-753.104 1065.5,-763.104 1072.5,-763.104"/>
</g>
<!-- distclean -->
<g id="node33" class="node"><title>distclean</title>
<polygon fill="orange" stroke="black" points="1213.25,-753 1148.75,-753 1148.75,-717 1213.25,-717 1213.25,-753"/>
<text text-anchor="middle" x="1181" y="-731.3" font-family="Times,serif" font-size="14.00">distclean</text>
</g>
<!-- cleanAll&#45;&gt;distclean -->
<g id="edge40" class="edge"><title>cleanAll&#45;&gt;distclean</title>
<path fill="none" stroke="black" d="M1096.11,-789.055C1110.86,-779.837 1129.29,-768.319 1145.21,-758.371"/>
<polygon fill="black" stroke="black" points="1147.12,-761.3 1153.75,-753.032 1143.41,-755.364 1147.12,-761.3"/>
</g>
<!-- cleanAllNeeded&#45;&gt;cleanAllNeeded -->
<g id="edge41" class="edge"><title>cleanAllNeeded&#45;&gt;cleanAllNeeded</title>
<path fill="none" stroke="red" d="M1112.04,-748.262C1122.35,-747.225 1130,-742.805 1130,-735 1130,-730 1126.86,-726.389 1121.89,-724.167"/>
<polygon fill="red" stroke="red" points="1122.58,-720.732 1112.04,-721.738 1120.91,-727.529 1122.58,-720.732"/>
</g>
<!-- distcleanNeeded -->
<g id="node34" class="node"><title>distcleanNeeded</title>
<polygon fill="orange" stroke="black" points="1164,-681 1058,-681 1058,-645 1164,-645 1164,-681"/>
<text text-anchor="middle" x="1111" y="-659.3" font-family="Times,serif" font-size="14.00">distcleanNeeded</text>
</g>
<!-- cleanAllNeeded&#45;&gt;distcleanNeeded -->
<g id="edge42" class="edge"><title>cleanAllNeeded&#45;&gt;distcleanNeeded</title>
<path fill="none" stroke="black" d="M1079.38,-716.697C1084.26,-708.559 1090.19,-698.689 1095.58,-689.701"/>
<polygon fill="black" stroke="black" points="1098.59,-691.48 1100.74,-681.104 1092.59,-687.879 1098.59,-691.48"/>
</g>
<!-- distclean&#45;&gt;distcleanNeeded -->
<g id="edge43" class="edge"><title>distclean&#45;&gt;distcleanNeeded</title>
<path fill="none" stroke="black" d="M1163.7,-716.697C1155.14,-708.135 1144.66,-697.656 1135.3,-688.304"/>
<polygon fill="black" stroke="black" points="1137.65,-685.701 1128.1,-681.104 1132.7,-690.65 1137.65,-685.701"/>
</g>
<!-- distcleanNeeded&#45;&gt;distcleanNeeded -->
<g id="edge44" class="edge"><title>distcleanNeeded&#45;&gt;distcleanNeeded</title>
<path fill="none" stroke="red" d="M1164.26,-675.899C1174.63,-674.401 1182,-670.102 1182,-663 1182,-658.451 1178.98,-655.051 1174.08,-652.801"/>
<polygon fill="red" stroke="red" points="1174.83,-649.378 1164.26,-650.101 1172.97,-656.128 1174.83,-649.378"/>
</g>
<!-- init -->
<g id="node35" class="node"><title>init</title>
<polygon fill="lightcyan" stroke="black" points="1078,-916 1024,-916 1024,-880 1078,-880 1078,-916"/>
<text text-anchor="middle" x="1051" y="-894.3" font-family="Times,serif" font-size="14.00">init</text>
</g>
<!-- wrapper -->
<g id="node36" class="node"><title>wrapper</title>
<polygon fill="orange" stroke="black" points="1005.25,-916 944.75,-916 944.75,-880 1005.25,-880 1005.25,-916"/>
<text text-anchor="middle" x="975" y="-894.3" font-family="Times,serif" font-size="14.00">wrapper</text>
</g>
<!-- p2FeaturesTree -->
<g id="node38" class="node"><title>p2FeaturesTree</title>
<polygon fill="none" stroke="black" points="844.25,-590 743.75,-590 743.75,-554 844.25,-554 844.25,-590"/>
<text text-anchor="middle" x="794" y="-568.3" font-family="Times,serif" font-size="14.00">p2FeaturesTree</text>
</g>
<!-- p2Entry&#45;&gt;p2FeaturesTree -->
<g id="edge46" class="edge"><title>p2Entry&#45;&gt;p2FeaturesTree</title>
<path fill="none" stroke="black" d="M794,-644.84C794,-632.281 794,-614.979 794,-600.502"/>
<polygon fill="black" stroke="black" points="797.5,-600.107 794,-590.107 790.5,-600.107 797.5,-600.107"/>
</g>
<!-- p2PluginsPelagic -->
<g id="node41" class="node"><title>p2PluginsPelagic</title>
<polygon fill="none" stroke="black" points="994,-518 884,-518 884,-482 994,-482 994,-518"/>
<text text-anchor="middle" x="939" y="-496.3" font-family="Times,serif" font-size="14.00">p2PluginsPelagic</text>
</g>
<!-- p2Entry&#45;&gt;p2PluginsPelagic -->
<g id="edge49" class="edge"><title>p2Entry&#45;&gt;p2PluginsPelagic</title>
<path fill="none" stroke="black" d="M809.867,-644.969C821.796,-632.121 838.507,-614.03 853,-598 875.021,-573.643 899.875,-545.543 917.18,-525.877"/>
<polygon fill="black" stroke="black" points="919.902,-528.082 923.876,-518.261 914.645,-523.461 919.902,-528.082"/>
</g>
<!-- p2FeatureGradlePlugin -->
<g id="node39" class="node"><title>p2FeatureGradlePlugin</title>
<polygon fill="none" stroke="black" points="865.25,-518 722.75,-518 722.75,-482 865.25,-482 865.25,-518"/>
<text text-anchor="middle" x="794" y="-496.3" font-family="Times,serif" font-size="14.00">p2FeatureGradlePlugin</text>
</g>
<!-- p2FeaturesTree&#45;&gt;p2FeatureGradlePlugin -->
<g id="edge47" class="edge"><title>p2FeaturesTree&#45;&gt;p2FeatureGradlePlugin</title>
<path fill="none" stroke="black" d="M794,-553.697C794,-545.983 794,-536.712 794,-528.112"/>
<polygon fill="black" stroke="black" points="797.5,-528.104 794,-518.104 790.5,-528.104 797.5,-528.104"/>
</g>
<!-- p2Features -->
<g id="node40" class="node"><title>p2Features</title>
<polygon fill="none" stroke="black" points="845,-446 769,-446 769,-410 845,-410 845,-446"/>
<text text-anchor="middle" x="807" y="-424.3" font-family="Times,serif" font-size="14.00">p2Features</text>
</g>
<!-- p2FeatureGradlePlugin&#45;&gt;p2Features -->
<g id="edge48" class="edge"><title>p2FeatureGradlePlugin&#45;&gt;p2Features</title>
<path fill="none" stroke="black" d="M797.213,-481.697C798.646,-473.983 800.368,-464.712 801.965,-456.112"/>
<polygon fill="black" stroke="black" points="805.439,-456.575 803.823,-446.104 798.556,-455.297 805.439,-456.575"/>
</g>
<!-- p2 -->
<g id="node43" class="node"><title>p2</title>
<polygon fill="yellow" stroke="black" points="893,-374 839,-374 839,-338 893,-338 893,-374"/>
<text text-anchor="middle" x="866" y="-352.3" font-family="Times,serif" font-size="14.00">p2</text>
</g>
<!-- p2Features&#45;&gt;p2 -->
<g id="edge51" class="edge"><title>p2Features&#45;&gt;p2</title>
<path fill="none" stroke="black" d="M821.584,-409.697C828.658,-401.305 837.283,-391.07 845.045,-381.861"/>
<polygon fill="black" stroke="black" points="847.815,-384.006 851.583,-374.104 842.463,-379.495 847.815,-384.006"/>
</g>
<!-- p2Plugins -->
<g id="node42" class="node"><title>p2Plugins</title>
<polygon fill="none" stroke="black" points="960.25,-446 889.75,-446 889.75,-410 960.25,-410 960.25,-446"/>
<text text-anchor="middle" x="925" y="-424.3" font-family="Times,serif" font-size="14.00">p2Plugins</text>
</g>
<!-- p2PluginsPelagic&#45;&gt;p2Plugins -->
<g id="edge50" class="edge"><title>p2PluginsPelagic&#45;&gt;p2Plugins</title>
<path fill="none" stroke="black" d="M935.539,-481.697C933.997,-473.983 932.142,-464.712 930.422,-456.112"/>
<polygon fill="black" stroke="black" points="933.814,-455.224 928.421,-446.104 926.95,-456.597 933.814,-455.224"/>
</g>
<!-- p2Plugins&#45;&gt;p2 -->
<g id="edge52" class="edge"><title>p2Plugins&#45;&gt;p2</title>
<path fill="none" stroke="black" d="M910.416,-409.697C903.342,-401.305 894.717,-391.07 886.955,-381.861"/>
<polygon fill="black" stroke="black" points="889.537,-379.495 880.417,-374.104 884.185,-384.006 889.537,-379.495"/>
</g>
<!-- indexBuild -->
<g id="node44" class="node"><title>indexBuild</title>
<polygon fill="yellow" stroke="black" points="893,-302 839,-302 839,-266 893,-266 893,-302"/>
<text text-anchor="middle" x="866" y="-280.3" font-family="Times,serif" font-size="14.00">index</text>
</g>
<!-- p2&#45;&gt;indexBuild -->
<g id="edge53" class="edge"><title>p2&#45;&gt;indexBuild</title>
<path fill="none" stroke="black" d="M866,-337.697C866,-329.983 866,-320.712 866,-312.112"/>
<polygon fill="black" stroke="black" points="869.5,-312.104 866,-302.104 862.5,-312.104 869.5,-312.104"/>
</g>
<!-- distCompositePelagic -->
<g id="node45" class="node"><title>distCompositePelagic</title>
<polygon fill="none" stroke="black" points="933.25,-219 798.75,-219 798.75,-183 933.25,-183 933.25,-219"/>
<text text-anchor="middle" x="866" y="-197.3" font-family="Times,serif" font-size="14.00">distCompositePelagic</text>
</g>
<!-- indexBuild&#45;&gt;distCompositePelagic -->
<g id="edge54" class="edge"><title>indexBuild&#45;&gt;distCompositePelagic</title>
<path fill="none" stroke="black" d="M866,-265.822C866,-255.19 866,-241.306 866,-229.204"/>
<polygon fill="black" stroke="black" points="869.5,-229.153 866,-219.153 862.5,-229.153 869.5,-229.153"/>
</g>
<!-- distZipPelagic -->
<g id="node46" class="node"><title>distZipPelagic</title>
<polygon fill="none" stroke="black" points="913.25,-147 818.75,-147 818.75,-111 913.25,-111 913.25,-147"/>
<text text-anchor="middle" x="866" y="-125.3" font-family="Times,serif" font-size="14.00">distZipPelagic</text>
</g>
<!-- distCompositePelagic&#45;&gt;distZipPelagic -->
<g id="edge55" class="edge"><title>distCompositePelagic&#45;&gt;distZipPelagic</title>
<path fill="none" stroke="black" d="M866,-182.697C866,-174.983 866,-165.712 866,-157.112"/>
<polygon fill="black" stroke="black" points="869.5,-157.104 866,-147.104 862.5,-157.104 869.5,-157.104"/>
</g>
<!-- dist -->
<g id="node47" class="node"><title>dist</title>
<polygon fill="yellow" stroke="black" points="893,-75 839,-75 839,-39 893,-39 893,-75"/>
<text text-anchor="middle" x="866" y="-53.3" font-family="Times,serif" font-size="14.00">dist</text>
</g>
<!-- distZipPelagic&#45;&gt;dist -->
<g id="edge56" class="edge"><title>distZipPelagic&#45;&gt;dist</title>
<path fill="none" stroke="black" d="M866,-110.697C866,-102.983 866,-93.7125 866,-85.1124"/>
<polygon fill="black" stroke="black" points="869.5,-85.1043 866,-75.1043 862.5,-85.1044 869.5,-85.1043"/>
</g>
</g>
</svg>
