<?xml version="1.0" encoding="UTF-8" standalone="no"?>
<!DOCTYPE svg PUBLIC "-//W3C//DTD SVG 1.1//EN"
 "http://www.w3.org/Graphics/SVG/1.1/DTD/svg11.dtd">
<!-- Generated by graphviz version 2.34.0 (20140110.0949)
 -->
<!-- Title: GradleSetup Pages: 1 -->
<svg width="1156pt" height="1043pt"
 viewBox="0.00 0.00 1156.00 1043.00" xmlns="http://www.w3.org/2000/svg" xmlns:xlink="http://www.w3.org/1999/xlink">
<g id="graph0" class="graph" transform="scale(1 1) rotate(0) translate(4 1039)">
<title>GradleSetup</title>
<polygon fill="white" stroke="white" points="-4,4 -4,-1039 1152,-1039 1152,4 -4,4"/>
<text text-anchor="middle" x="61" y="-1019.8" font-family="Times,serif" font-size="14.00">Gradle Build Setup</text>
<g id="clust1" class="cluster"><title>cluster1</title>
<polygon fill="lightgrey" stroke="black" points="8,-371 8,-1004 834,-1004 834,-371 8,-371"/>
<text text-anchor="middle" x="92.5" y="-378.8" font-family="Times,serif" font-size="14.00">Java Projects / Bnd Projects</text>
</g>
<g id="clust2" class="cluster"><title>cluster11</title>
</g>
<g id="clust3" class="cluster"><title>cluster12</title>
</g>
<g id="clust4" class="cluster"><title>cluster13</title>
</g>
<g id="clust5" class="cluster"><title>cluster14</title>
</g>
<g id="clust6" class="cluster"><title>cluster15</title>
</g>
<g id="clust7" class="cluster"><title>cluster16</title>
</g>
<g id="clust8" class="cluster"><title>cluster17</title>
</g>
<g id="clust9" class="cluster"><title>cluster2</title>
<polygon fill="lightgrey" stroke="black" points="948,-921 948,-996 1033,-996 1033,-921 948,-921"/>
<text text-anchor="middle" x="990.5" y="-928.8" font-family="Times,serif" font-size="14.00">Root Project</text>
</g>
<g id="clust10" class="cluster"><title>cluster3</title>
<polygon fill="lightgrey" stroke="black" points="842,-678 842,-913 1140,-913 1140,-678 842,-678"/>
<text text-anchor="middle" x="882.5" y="-685.8" font-family="Times,serif" font-size="14.00">All Projects</text>
</g>
<g id="clust11" class="cluster"><title>cluster31</title>
</g>
<g id="clust12" class="cluster"><title>cluster32</title>
</g>
<g id="clust13" class="cluster"><title>cluster4</title>
<polygon fill="lightgrey" stroke="black" points="842,-8 842,-670 1134,-670 1134,-8 842,-8"/>
<text text-anchor="middle" x="886.5" y="-15.8" font-family="Times,serif" font-size="14.00">Build Project</text>
</g>
<!-- compileJava -->
<g id="node1" class="node"><title>compileJava</title>
<polygon fill="lightcyan" stroke="black" points="749.25,-988 664.75,-988 664.75,-952 749.25,-952 749.25,-988"/>
<text text-anchor="middle" x="707" y="-966.3" font-family="Times,serif" font-size="14.00">compileJava</text>
</g>
<!-- classes -->
<g id="node3" class="node"><title>classes</title>
<polygon fill="lightcyan" stroke="black" points="617,-897 563,-897 563,-861 617,-861 617,-897"/>
<text text-anchor="middle" x="590" y="-875.3" font-family="Times,serif" font-size="14.00">classes</text>
</g>
<!-- compileJava&#45;&gt;classes -->
<g id="edge1" class="edge"><title>compileJava&#45;&gt;classes</title>
<path fill="none" stroke="black" d="M689.895,-951.724C680.074,-942.194 667.285,-930.419 655,-921 645.92,-914.039 635.631,-907.141 625.96,-901.045"/>
<polygon fill="black" stroke="black" points="627.651,-897.976 617.305,-895.694 623.97,-903.93 627.651,-897.976"/>
</g>
<!-- processResources -->
<g id="node2" class="node"><title>processResources</title>
<polygon fill="lightcyan" stroke="black" points="646.25,-988 533.75,-988 533.75,-952 646.25,-952 646.25,-988"/>
<text text-anchor="middle" x="590" y="-966.3" font-family="Times,serif" font-size="14.00">processResources</text>
</g>
<!-- processResources&#45;&gt;classes -->
<g id="edge2" class="edge"><title>processResources&#45;&gt;classes</title>
<path fill="none" stroke="black" d="M590,-951.84C590,-939.281 590,-921.979 590,-907.502"/>
<polygon fill="black" stroke="black" points="593.5,-907.107 590,-897.107 586.5,-907.107 593.5,-907.107"/>
</g>
<!-- jar -->
<g id="node4" class="node"><title>jar</title>
<polygon fill="lightcyan" stroke="black" points="663,-753 609,-753 609,-717 663,-717 663,-753"/>
<text text-anchor="middle" x="636" y="-731.3" font-family="Times,serif" font-size="14.00">jar</text>
</g>
<!-- classes&#45;&gt;jar -->
<g id="edge6" class="edge"><title>classes&#45;&gt;jar</title>
<path fill="none" stroke="black" d="M589.519,-860.708C589.558,-842.352 591.208,-812.77 600,-789 603.551,-779.399 609.202,-769.851 614.983,-761.559"/>
<polygon fill="black" stroke="black" points="617.863,-763.552 620.973,-753.424 612.226,-759.402 617.863,-763.552"/>
</g>
<!-- bundle -->
<g id="node5" class="node"><title>bundle</title>
<polygon fill="cyan" stroke="black" points="663,-825 609,-825 609,-789 663,-789 663,-825"/>
<text text-anchor="middle" x="636" y="-803.3" font-family="Times,serif" font-size="14.00">bundle</text>
</g>
<!-- classes&#45;&gt;bundle -->
<g id="edge18" class="edge"><title>classes&#45;&gt;bundle</title>
<path fill="none" stroke="black" d="M601.371,-860.697C606.718,-852.559 613.204,-842.689 619.111,-833.701"/>
<polygon fill="black" stroke="black" points="622.193,-835.384 624.76,-825.104 616.343,-831.539 622.193,-835.384"/>
</g>
<!-- compileTestJava -->
<g id="node6" class="node"><title>compileTestJava</title>
<polygon fill="lightcyan" stroke="black" points="509,-825 401,-825 401,-789 509,-789 509,-825"/>
<text text-anchor="middle" x="455" y="-803.3" font-family="Times,serif" font-size="14.00">compileTestJava</text>
</g>
<!-- classes&#45;&gt;compileTestJava -->
<g id="edge5" class="edge"><title>classes&#45;&gt;compileTestJava</title>
<path fill="none" stroke="black" d="M562.681,-863.834C543.805,-854.047 518.337,-840.841 496.908,-829.73"/>
<polygon fill="black" stroke="black" points="498.492,-826.609 488.003,-825.113 495.27,-832.823 498.492,-826.609"/>
</g>
<!-- test -->
<g id="node9" class="node"><title>test</title>
<polygon fill="lightcyan" stroke="black" points="498,-662 444,-662 444,-626 498,-626 498,-662"/>
<text text-anchor="middle" x="471" y="-640.3" font-family="Times,serif" font-size="14.00">test</text>
</g>
<!-- classes&#45;&gt;test -->
<g id="edge4" class="edge"><title>classes&#45;&gt;test</title>
<path fill="none" stroke="black" d="M581.25,-860.867C560.661,-820.555 509.043,-719.488 484.444,-671.323"/>
<polygon fill="black" stroke="black" points="487.429,-669.472 479.763,-662.158 481.195,-672.656 487.429,-669.472"/>
</g>
<!-- findbugsMain -->
<g id="node20" class="node"><title>findbugsMain</title>
<polygon fill="orange" stroke="black" points="117.25,-662 24.75,-662 24.75,-626 117.25,-626 117.25,-662"/>
<text text-anchor="middle" x="71" y="-640.3" font-family="Times,serif" font-size="14.00">findbugsMain</text>
</g>
<!-- classes&#45;&gt;findbugsMain -->
<g id="edge27" class="edge"><title>classes&#45;&gt;findbugsMain</title>
<path fill="none" stroke="black" d="M562.99,-877.042C490.258,-874.079 291.946,-863.358 235,-833 163.934,-795.114 109.585,-713.085 85.159,-671.024"/>
<polygon fill="black" stroke="black" points="88.1258,-669.161 80.1362,-662.202 82.0428,-672.624 88.1258,-669.161"/>
</g>
<!-- javadoc -->
<g id="node24" class="node"><title>javadoc</title>
<polygon fill="lightcyan" stroke="black" points="825.25,-825 766.75,-825 766.75,-789 825.25,-789 825.25,-825"/>
<text text-anchor="middle" x="796" y="-803.3" font-family="Times,serif" font-size="14.00">javadoc</text>
</g>
<!-- classes&#45;&gt;javadoc -->
<g id="edge3" class="edge"><title>classes&#45;&gt;javadoc</title>
<path fill="none" stroke="black" d="M617.015,-874.173C651.841,-868.526 713.662,-856.05 762,-833 763.546,-832.263 765.093,-831.452 766.628,-830.587"/>
<polygon fill="black" stroke="black" points="768.611,-833.474 775.198,-825.176 764.874,-827.555 768.611,-833.474"/>
</g>
<!-- uploadArchives -->
<g id="node11" class="node"><title>uploadArchives</title>
<polygon fill="lightcyan" stroke="black" points="738,-662 636,-662 636,-626 738,-626 738,-662"/>
<text text-anchor="middle" x="687" y="-640.3" font-family="Times,serif" font-size="14.00">uploadArchives</text>
</g>
<!-- jar&#45;&gt;uploadArchives -->
<g id="edge9" class="edge"><title>jar&#45;&gt;uploadArchives</title>
<path fill="none" stroke="black" d="M645.833,-716.84C653.312,-703.789 663.726,-685.615 672.209,-670.813"/>
<polygon fill="black" stroke="black" points="675.262,-672.524 677.197,-662.107 669.188,-669.044 675.262,-672.524"/>
</g>
<!-- assemble -->
<g id="node12" class="node"><title>assemble</title>
<polygon fill="lightcyan" stroke="black" points="617.25,-662 550.75,-662 550.75,-626 617.25,-626 617.25,-662"/>
<text text-anchor="middle" x="584" y="-640.3" font-family="Times,serif" font-size="14.00">assemble</text>
</g>
<!-- jar&#45;&gt;assemble -->
<g id="edge10" class="edge"><title>jar&#45;&gt;assemble</title>
<path fill="none" stroke="black" d="M625.974,-716.84C618.348,-703.789 607.73,-685.615 599.081,-670.813"/>
<polygon fill="black" stroke="black" points="602.062,-668.976 593.995,-662.107 596.018,-672.507 602.062,-668.976"/>
</g>
<!-- p2Entry -->
<g id="node33" class="node"><title>p2Entry</title>
<polygon fill="none" stroke="black" points="954,-662 894,-662 894,-626 954,-626 954,-662"/>
<text text-anchor="middle" x="924" y="-640.3" font-family="Times,serif" font-size="14.00">p2Entry</text>
</g>
<!-- jar&#45;&gt;p2Entry -->
<g id="edge40" class="edge"><title>jar&#45;&gt;p2Entry</title>
<path fill="none" stroke="red" d="M663.094,-725.627C714.056,-709.878 824.398,-675.78 883.952,-657.376"/>
<polygon fill="red" stroke="red" points="885.235,-660.643 893.756,-654.346 883.169,-653.955 885.235,-660.643"/>
</g>
<!-- bundle&#45;&gt;compileJava -->
<g id="edge19" class="edge"><title>bundle&#45;&gt;compileJava</title>
<path fill="none" stroke="red" d="M643.544,-825.106C655.892,-853.107 680.511,-908.934 695.19,-942.22"/>
<polygon fill="red" stroke="red" points="692.164,-944.033 699.402,-951.77 698.569,-941.208 692.164,-944.033"/>
</g>
<!-- bundle&#45;&gt;jar -->
<g id="edge20" class="edge"><title>bundle&#45;&gt;jar</title>
<path fill="none" stroke="black" stroke-dasharray="5,2" d="M636,-788.697C636,-780.983 636,-771.712 636,-763.112"/>
<polygon fill="black" stroke="black" points="639.5,-763.104 636,-753.104 632.5,-763.104 639.5,-763.104"/>
</g>
<!-- bundle&#45;&gt;test -->
<g id="edge21" class="edge"><title>bundle&#45;&gt;test</title>
<path fill="none" stroke="black" d="M624.123,-788.949C617.006,-778.625 607.845,-765.147 600,-753 578.786,-720.151 583.92,-703.177 554,-678 550.082,-674.703 528.112,-666.024 507.761,-658.394"/>
<polygon fill="black" stroke="black" points="508.885,-655.077 498.292,-654.873 506.446,-661.638 508.885,-655.077"/>
</g>
<!-- testClasses -->
<g id="node8" class="node"><title>testClasses</title>
<polygon fill="lightcyan" stroke="black" points="448,-753 372,-753 372,-717 448,-717 448,-753"/>
<text text-anchor="middle" x="410" y="-731.3" font-family="Times,serif" font-size="14.00">testClasses</text>
</g>
<!-- compileTestJava&#45;&gt;testClasses -->
<g id="edge7" class="edge"><title>compileTestJava&#45;&gt;testClasses</title>
<path fill="none" stroke="black" d="M443.876,-788.697C438.645,-780.559 432.3,-770.689 426.522,-761.701"/>
<polygon fill="black" stroke="black" points="429.347,-759.623 420.996,-753.104 423.459,-763.409 429.347,-759.623"/>
</g>
<!-- processTestResources -->
<g id="node7" class="node"><title>processTestResources</title>
<polygon fill="lightcyan" stroke="black" points="383,-825 247,-825 247,-789 383,-789 383,-825"/>
<text text-anchor="middle" x="315" y="-803.3" font-family="Times,serif" font-size="14.00">processTestResources</text>
</g>
<!-- processTestResources&#45;&gt;testClasses -->
<g id="edge8" class="edge"><title>processTestResources&#45;&gt;testClasses</title>
<path fill="none" stroke="black" d="M338.483,-788.697C350.563,-779.796 365.454,-768.823 378.516,-759.199"/>
<polygon fill="black" stroke="black" points="380.813,-761.854 386.787,-753.104 376.66,-756.219 380.813,-761.854"/>
</g>
<!-- testClasses&#45;&gt;test -->
<g id="edge11" class="edge"><title>testClasses&#45;&gt;test</title>
<path fill="none" stroke="black" d="M421.761,-716.84C430.791,-703.666 443.398,-685.272 453.595,-670.394"/>
<polygon fill="black" stroke="black" points="456.508,-672.335 459.275,-662.107 450.734,-668.377 456.508,-672.335"/>
</g>
<!-- findbugsTest -->
<g id="node22" class="node"><title>findbugsTest</title>
<polygon fill="orange" stroke="black" points="222.25,-662 135.75,-662 135.75,-626 222.25,-626 222.25,-662"/>
<text text-anchor="middle" x="179" y="-640.3" font-family="Times,serif" font-size="14.00">findbugsTest</text>
</g>
<!-- testClasses&#45;&gt;findbugsTest -->
<g id="edge28" class="edge"><title>testClasses&#45;&gt;findbugsTest</title>
<path fill="none" stroke="black" d="M371.818,-720.894C336.17,-708.456 281.617,-688.903 235,-670 231.941,-668.76 228.802,-667.453 225.647,-666.115"/>
<polygon fill="black" stroke="black" points="226.766,-662.786 216.198,-662.037 223.993,-669.213 226.766,-662.786"/>
</g>
<!-- jacocoTestReport -->
<g id="node10" class="node"><title>jacocoTestReport</title>
<polygon fill="orange" stroke="black" points="452,-590 340,-590 340,-554 452,-554 452,-590"/>
<text text-anchor="middle" x="396" y="-568.3" font-family="Times,serif" font-size="14.00">jacocoTestReport</text>
</g>
<!-- test&#45;&gt;jacocoTestReport -->
<g id="edge33" class="edge"><title>test&#45;&gt;jacocoTestReport</title>
<path fill="none" stroke="black" d="M452.461,-625.697C443.197,-617.05 431.838,-606.449 421.743,-597.027"/>
<polygon fill="black" stroke="black" points="424.025,-594.369 414.326,-590.104 419.249,-599.486 424.025,-594.369"/>
</g>
<!-- check -->
<g id="node13" class="node"><title>check</title>
<polygon fill="cyan" stroke="black" points="476,-518 422,-518 422,-482 476,-482 476,-518"/>
<text text-anchor="middle" x="449" y="-496.3" font-family="Times,serif" font-size="14.00">check</text>
</g>
<!-- test&#45;&gt;check -->
<g id="edge14" class="edge"><title>test&#45;&gt;check</title>
<path fill="none" stroke="black" d="M470.044,-625.712C468.775,-606.22 466.077,-573.641 461,-546 459.941,-540.234 458.519,-534.125 457.025,-528.33"/>
<polygon fill="black" stroke="black" points="460.321,-527.11 454.321,-518.378 453.566,-528.946 460.321,-527.11"/>
</g>
<!-- assemble&#45;&gt;check -->
<g id="edge13" class="edge"><title>assemble&#45;&gt;check</title>
<path fill="none" stroke="black" d="M557.104,-625.925C547.454,-618.483 537.39,-608.945 531,-598 519.135,-577.675 535.308,-564.686 521,-546 508.674,-529.902 497.11,-536.877 480,-526 479.066,-525.407 478.128,-524.79 477.19,-524.154"/>
<polygon fill="black" stroke="black" points="479,-521.142 468.855,-518.088 474.88,-526.802 479,-521.142"/>
</g>
<!-- release -->
<g id="node15" class="node"><title>release</title>
<polygon fill="cyan" stroke="black" points="629,-590 575,-590 575,-554 629,-554 629,-590"/>
<text text-anchor="middle" x="602" y="-568.3" font-family="Times,serif" font-size="14.00">release</text>
</g>
<!-- assemble&#45;&gt;release -->
<g id="edge22" class="edge"><title>assemble&#45;&gt;release</title>
<path fill="none" stroke="black" d="M588.449,-625.697C590.455,-617.898 592.869,-608.509 595.101,-599.829"/>
<polygon fill="black" stroke="black" points="598.501,-600.661 597.602,-590.104 591.722,-598.918 598.501,-600.661"/>
</g>
<!-- exportX -->
<g id="node17" class="node"><title>exportX</title>
<polygon fill="cyan" stroke="black" points="804.25,-590 707.75,-590 703.75,-586 703.75,-554 800.25,-554 804.25,-558 804.25,-590"/>
<polyline fill="none" stroke="black" points="800.25,-586 703.75,-586 "/>
<polyline fill="none" stroke="black" points="800.25,-586 800.25,-554 "/>
<polyline fill="none" stroke="black" points="800.25,-586 804.25,-590 "/>
<text text-anchor="middle" x="754" y="-568.3" font-family="Times,serif" font-size="14.00">export.&lt;name&gt;</text>
</g>
<!-- assemble&#45;&gt;exportX -->
<g id="edge23" class="edge"><title>assemble&#45;&gt;exportX</title>
<path fill="none" stroke="black" d="M611.28,-625.923C616.399,-623.071 621.784,-620.297 627,-618 654.274,-605.991 662.908,-607.947 691,-598 694.761,-596.668 698.631,-595.251 702.515,-593.793"/>
<polygon fill="black" stroke="black" points="704.051,-596.953 712.144,-590.116 701.554,-590.414 704.051,-596.953"/>
</g>
<!-- build -->
<g id="node23" class="node"><title>build</title>
<polygon fill="lightcyan" stroke="black" points="573,-446 519,-446 519,-410 573,-410 573,-446"/>
<text text-anchor="middle" x="546" y="-424.3" font-family="Times,serif" font-size="14.00">build</text>
</g>
<!-- assemble&#45;&gt;build -->
<g id="edge12" class="edge"><title>assemble&#45;&gt;build</title>
<path fill="none" stroke="black" d="M568.804,-625.87C562.72,-617.951 556.366,-608.078 553,-598 537.052,-550.247 539.326,-490.657 542.567,-456.502"/>
<polygon fill="black" stroke="black" points="546.069,-456.665 543.632,-446.354 539.107,-455.935 546.069,-456.665"/>
</g>
<!-- checkNeeded -->
<g id="node14" class="node"><title>checkNeeded</title>
<polygon fill="cyan" stroke="black" points="482.25,-446 393.75,-446 393.75,-410 482.25,-410 482.25,-446"/>
<text text-anchor="middle" x="438" y="-424.3" font-family="Times,serif" font-size="14.00">checkNeeded</text>
</g>
<!-- check&#45;&gt;checkNeeded -->
<g id="edge15" class="edge"><title>check&#45;&gt;checkNeeded</title>
<path fill="none" stroke="black" d="M446.281,-481.697C445.069,-473.983 443.612,-464.712 442.261,-456.112"/>
<polygon fill="black" stroke="black" points="445.698,-455.44 440.688,-446.104 438.783,-456.526 445.698,-455.44"/>
</g>
<!-- check&#45;&gt;build -->
<g id="edge17" class="edge"><title>check&#45;&gt;build</title>
<path fill="none" stroke="black" d="M469.832,-481.824C473.196,-479.159 476.669,-476.473 480,-474 490.092,-466.509 501.31,-458.682 511.591,-451.697"/>
<polygon fill="black" stroke="black" points="513.628,-454.545 519.963,-446.052 509.715,-448.741 513.628,-454.545"/>
</g>
<!-- checkNeeded&#45;&gt;checkNeeded -->
<g id="edge16" class="edge"><title>checkNeeded&#45;&gt;checkNeeded</title>
<path fill="none" stroke="red" d="M482.306,-441.203C492.507,-440.065 500,-435.664 500,-428 500,-423.09 496.925,-419.52 492.032,-417.288"/>
<polygon fill="red" stroke="red" points="492.862,-413.888 482.306,-414.797 491.125,-420.669 492.862,-413.888"/>
</g>
<!-- releaseNeeded -->
<g id="node16" class="node"><title>releaseNeeded</title>
<polygon fill="cyan" stroke="black" points="660.25,-518 565.75,-518 565.75,-482 660.25,-482 660.25,-518"/>
<text text-anchor="middle" x="613" y="-496.3" font-family="Times,serif" font-size="14.00">releaseNeeded</text>
</g>
<!-- release&#45;&gt;releaseNeeded -->
<g id="edge25" class="edge"><title>release&#45;&gt;releaseNeeded</title>
<path fill="none" stroke="black" d="M604.719,-553.697C605.931,-545.983 607.388,-536.712 608.739,-528.112"/>
<polygon fill="black" stroke="black" points="612.217,-528.526 610.312,-518.104 605.302,-527.44 612.217,-528.526"/>
</g>
<!-- releaseNeeded&#45;&gt;releaseNeeded -->
<g id="edge26" class="edge"><title>releaseNeeded&#45;&gt;releaseNeeded</title>
<path fill="none" stroke="red" d="M660.326,-513.101C670.571,-511.82 678,-507.453 678,-500 678,-495.225 674.951,-491.717 670.066,-489.476"/>
<polygon fill="red" stroke="red" points="670.889,-486.073 660.326,-486.899 669.098,-492.84 670.889,-486.073"/>
</g>
<!-- export -->
<g id="node18" class="node"><title>export</title>
<polygon fill="cyan" stroke="black" points="781,-518 727,-518 727,-482 781,-482 781,-518"/>
<text text-anchor="middle" x="754" y="-496.3" font-family="Times,serif" font-size="14.00">export</text>
</g>
<!-- exportX&#45;&gt;export -->
<g id="edge24" class="edge"><title>exportX&#45;&gt;export</title>
<path fill="none" stroke="black" d="M754,-553.697C754,-545.983 754,-536.712 754,-528.112"/>
<polygon fill="black" stroke="black" points="757.5,-528.104 754,-518.104 750.5,-528.104 757.5,-528.104"/>
</g>
<!-- findbugs -->
<g id="node19" class="node"><title>findbugs</title>
<polygon fill="orange" stroke="black" points="111,-590 47,-590 47,-554 111,-554 111,-590"/>
<text text-anchor="middle" x="79" y="-568.3" font-family="Times,serif" font-size="14.00">findbugs</text>
</g>
<!-- findbugs&#45;&gt;check -->
<g id="edge31" class="edge"><title>findbugs&#45;&gt;check</title>
<path fill="none" stroke="green" d="M109.287,-553.91C115.645,-550.882 122.421,-548.047 129,-546 228.047,-515.179 350.95,-505.405 411.579,-502.353"/>
<polygon fill="green" stroke="green" points="411.983,-505.838 421.808,-501.873 411.655,-498.846 411.983,-505.838"/>
</g>
<!-- findbugsMain&#45;&gt;findbugs -->
<g id="edge29" class="edge"><title>findbugsMain&#45;&gt;findbugs</title>
<path fill="none" stroke="black" d="M72.9775,-625.697C73.8591,-617.983 74.9186,-608.712 75.9014,-600.112"/>
<polygon fill="black" stroke="black" points="79.387,-600.437 77.0452,-590.104 72.4323,-599.642 79.387,-600.437"/>
</g>
<!-- findbugstest -->
<g id="node21" class="node"><title>findbugstest</title>
<polygon fill="orange" stroke="black" points="221.25,-590 138.75,-590 138.75,-554 221.25,-554 221.25,-590"/>
<text text-anchor="middle" x="180" y="-568.3" font-family="Times,serif" font-size="14.00">findbugstest</text>
</g>
<!-- findbugstest&#45;&gt;check -->
<g id="edge32" class="edge"><title>findbugstest&#45;&gt;check</title>
<path fill="none" stroke="green" d="M214.455,-553.951C221.166,-551.029 228.223,-548.223 235,-546 295.488,-526.16 368.545,-513.005 411.756,-506.289"/>
<polygon fill="green" stroke="green" points="412.453,-509.723 421.813,-504.759 411.4,-502.803 412.453,-509.723"/>
</g>
<!-- findbugsTest&#45;&gt;findbugstest -->
<g id="edge30" class="edge"><title>findbugsTest&#45;&gt;findbugstest</title>
<path fill="none" stroke="black" d="M179.247,-625.697C179.357,-617.983 179.49,-608.712 179.613,-600.112"/>
<polygon fill="black" stroke="black" points="183.112,-600.153 179.756,-590.104 176.113,-600.053 183.112,-600.153"/>
</g>
<!-- clean -->
<g id="node25" class="node"><title>clean</title>
<polygon fill="cyan" stroke="black" points="826,-988 772,-988 772,-952 826,-952 826,-988"/>
<text text-anchor="middle" x="799" y="-966.3" font-family="Times,serif" font-size="14.00">clean</text>
</g>
<!-- cleanAll -->
<g id="node29" class="node"><title>cleanAll</title>
<polygon fill="orange" stroke="black" points="918,-897 864,-897 864,-861 918,-861 918,-897"/>
<text text-anchor="middle" x="891" y="-875.3" font-family="Times,serif" font-size="14.00">clean</text>
</g>
<!-- clean&#45;&gt;cleanAll -->
<g id="edge34" class="edge"><title>clean&#45;&gt;cleanAll</title>
<path fill="none" stroke="blue" d="M816.739,-951.84C830.739,-938.296 850.441,-919.236 866.034,-904.152"/>
<polygon fill="blue" stroke="blue" points="868.562,-906.576 873.316,-897.107 863.695,-901.545 868.562,-906.576"/>
</g>
<!-- bndproperties -->
<g id="node26" class="node"><title>bndproperties</title>
<polygon fill="cyan" stroke="black" points="311.25,-988 220.75,-988 220.75,-952 311.25,-952 311.25,-988"/>
<text text-anchor="middle" x="266" y="-966.3" font-family="Times,serif" font-size="14.00">bndproperties</text>
</g>
<!-- wrapper -->
<g id="node27" class="node"><title>wrapper</title>
<polygon fill="orange" stroke="black" points="1020.25,-988 959.75,-988 959.75,-952 1020.25,-952 1020.25,-988"/>
<text text-anchor="middle" x="990" y="-966.3" font-family="Times,serif" font-size="14.00">wrapper</text>
</g>
<!-- index -->
<g id="node28" class="node"><title>index</title>
<polygon fill="orange" stroke="black" points="1124,-897 1070,-897 1070,-861 1124,-861 1124,-897"/>
<text text-anchor="middle" x="1097" y="-875.3" font-family="Times,serif" font-size="14.00">index</text>
</g>
<!-- cleanAllNeeded -->
<g id="node30" class="node"><title>cleanAllNeeded</title>
<polygon fill="orange" stroke="black" points="1028,-825 942,-825 942,-789 1028,-789 1028,-825"/>
<text text-anchor="middle" x="985" y="-803.3" font-family="Times,serif" font-size="14.00">cleanNeeded</text>
</g>
<!-- cleanAll&#45;&gt;cleanAllNeeded -->
<g id="edge35" class="edge"><title>cleanAll&#45;&gt;cleanAllNeeded</title>
<path fill="none" stroke="blue" d="M914.236,-860.697C926.188,-851.796 940.923,-840.823 953.847,-831.199"/>
<polygon fill="blue" stroke="blue" points="956.101,-833.884 962.031,-825.104 951.92,-828.27 956.101,-833.884"/>
</g>
<!-- distclean -->
<g id="node31" class="node"><title>distclean</title>
<polygon fill="orange" stroke="black" points="923.25,-825 858.75,-825 858.75,-789 923.25,-789 923.25,-825"/>
<text text-anchor="middle" x="891" y="-803.3" font-family="Times,serif" font-size="14.00">distclean</text>
</g>
<!-- cleanAll&#45;&gt;distclean -->
<g id="edge37" class="edge"><title>cleanAll&#45;&gt;distclean</title>
<path fill="none" stroke="blue" d="M891,-860.697C891,-852.983 891,-843.712 891,-835.112"/>
<polygon fill="blue" stroke="blue" points="894.5,-835.104 891,-825.104 887.5,-835.104 894.5,-835.104"/>
</g>
<!-- cleanAllNeeded&#45;&gt;cleanAllNeeded -->
<g id="edge36" class="edge"><title>cleanAllNeeded&#45;&gt;cleanAllNeeded</title>
<path fill="none" stroke="red" d="M1028.04,-820.262C1038.35,-819.225 1046,-814.805 1046,-807 1046,-802 1042.86,-798.389 1037.89,-796.167"/>
<polygon fill="red" stroke="red" points="1038.58,-792.732 1028.04,-793.738 1036.91,-799.529 1038.58,-792.732"/>
</g>
<!-- distcleanNeeded -->
<g id="node32" class="node"><title>distcleanNeeded</title>
<polygon fill="orange" stroke="black" points="964,-753 858,-753 858,-717 964,-717 964,-753"/>
<text text-anchor="middle" x="911" y="-731.3" font-family="Times,serif" font-size="14.00">distcleanNeeded</text>
</g>
<!-- distclean&#45;&gt;distcleanNeeded -->
<g id="edge38" class="edge"><title>distclean&#45;&gt;distcleanNeeded</title>
<path fill="none" stroke="black" d="M895.944,-788.697C898.172,-780.898 900.855,-771.509 903.335,-762.829"/>
<polygon fill="black" stroke="black" points="906.731,-763.681 906.113,-753.104 900,-761.758 906.731,-763.681"/>
</g>
<!-- distcleanNeeded&#45;&gt;distcleanNeeded -->
<g id="edge39" class="edge"><title>distcleanNeeded&#45;&gt;distcleanNeeded</title>
<path fill="none" stroke="red" d="M964.257,-747.899C974.632,-746.401 982,-742.102 982,-735 982,-730.451 978.976,-727.051 974.075,-724.801"/>
<polygon fill="red" stroke="red" points="974.827,-721.378 964.257,-722.101 972.971,-728.128 974.827,-721.378"/>
</g>
<!-- p2FeaturesTree -->
<g id="node34" class="node"><title>p2FeaturesTree</title>
<polygon fill="none" stroke="black" points="974.25,-590 873.75,-590 873.75,-554 974.25,-554 974.25,-590"/>
<text text-anchor="middle" x="924" y="-568.3" font-family="Times,serif" font-size="14.00">p2FeaturesTree</text>
</g>
<!-- p2Entry&#45;&gt;p2FeaturesTree -->
<g id="edge41" class="edge"><title>p2Entry&#45;&gt;p2FeaturesTree</title>
<path fill="none" stroke="black" d="M924,-625.697C924,-617.983 924,-608.712 924,-600.112"/>
<polygon fill="black" stroke="black" points="927.5,-600.104 924,-590.104 920.5,-600.104 927.5,-600.104"/>
</g>
<!-- p2PelagicPlugins -->
<g id="node37" class="node"><title>p2PelagicPlugins</title>
<polygon fill="none" stroke="black" points="1126,-518 1016,-518 1016,-482 1126,-482 1126,-518"/>
<text text-anchor="middle" x="1071" y="-496.3" font-family="Times,serif" font-size="14.00">p2PelagicPlugins</text>
</g>
<!-- p2Entry&#45;&gt;p2PelagicPlugins -->
<g id="edge44" class="edge"><title>p2Entry&#45;&gt;p2PelagicPlugins</title>
<path fill="none" stroke="black" d="M948.336,-625.992C959.3,-617.943 972.183,-607.933 983,-598 1007.73,-575.292 1033.21,-546.51 1050.34,-526.214"/>
<polygon fill="black" stroke="black" points="1053.19,-528.262 1056.93,-518.347 1047.83,-523.769 1053.19,-528.262"/>
</g>
<!-- p2FeaturesGradlePlugin -->
<g id="node35" class="node"><title>p2FeaturesGradlePlugin</title>
<polygon fill="none" stroke="black" points="998,-518 850,-518 850,-482 998,-482 998,-518"/>
<text text-anchor="middle" x="924" y="-496.3" font-family="Times,serif" font-size="14.00">p2FeaturesGradlePlugin</text>
</g>
<!-- p2FeaturesTree&#45;&gt;p2FeaturesGradlePlugin -->
<g id="edge42" class="edge"><title>p2FeaturesTree&#45;&gt;p2FeaturesGradlePlugin</title>
<path fill="none" stroke="black" d="M924,-553.697C924,-545.983 924,-536.712 924,-528.112"/>
<polygon fill="black" stroke="black" points="927.5,-528.104 924,-518.104 920.5,-528.104 927.5,-528.104"/>
</g>
<!-- p2Features -->
<g id="node36" class="node"><title>p2Features</title>
<polygon fill="none" stroke="black" points="976,-446 900,-446 900,-410 976,-410 976,-446"/>
<text text-anchor="middle" x="938" y="-424.3" font-family="Times,serif" font-size="14.00">p2Features</text>
</g>
<!-- p2FeaturesGradlePlugin&#45;&gt;p2Features -->
<g id="edge43" class="edge"><title>p2FeaturesGradlePlugin&#45;&gt;p2Features</title>
<path fill="none" stroke="black" d="M927.461,-481.697C929.003,-473.983 930.858,-464.712 932.578,-456.112"/>
<polygon fill="black" stroke="black" points="936.05,-456.597 934.579,-446.104 929.186,-455.224 936.05,-456.597"/>
</g>
<!-- p2 -->
<g id="node39" class="node"><title>p2</title>
<polygon fill="yellow" stroke="black" points="998,-363 944,-363 944,-327 998,-327 998,-363"/>
<text text-anchor="middle" x="971" y="-341.3" font-family="Times,serif" font-size="14.00">p2</text>
</g>
<!-- p2Features&#45;&gt;p2 -->
<g id="edge46" class="edge"><title>p2Features&#45;&gt;p2</title>
<path fill="none" stroke="black" d="M944.998,-409.822C949.417,-398.976 955.216,-384.744 960.215,-372.472"/>
<polygon fill="black" stroke="black" points="963.48,-373.735 964.012,-363.153 956.997,-371.094 963.48,-373.735"/>
</g>
<!-- p2Plugins -->
<g id="node38" class="node"><title>p2Plugins</title>
<polygon fill="none" stroke="black" points="1092.25,-446 1021.75,-446 1021.75,-410 1092.25,-410 1092.25,-446"/>
<text text-anchor="middle" x="1057" y="-424.3" font-family="Times,serif" font-size="14.00">p2Plugins</text>
</g>
<!-- p2PelagicPlugins&#45;&gt;p2Plugins -->
<g id="edge45" class="edge"><title>p2PelagicPlugins&#45;&gt;p2Plugins</title>
<path fill="none" stroke="black" d="M1067.54,-481.697C1066,-473.983 1064.14,-464.712 1062.42,-456.112"/>
<polygon fill="black" stroke="black" points="1065.81,-455.224 1060.42,-446.104 1058.95,-456.597 1065.81,-455.224"/>
</g>
<!-- p2Plugins&#45;&gt;p2 -->
<g id="edge47" class="edge"><title>p2Plugins&#45;&gt;p2</title>
<path fill="none" stroke="black" d="M1038.76,-409.822C1026.56,-398.331 1010.33,-383.041 996.808,-370.307"/>
<polygon fill="black" stroke="black" points="998.891,-367.462 989.212,-363.153 994.092,-372.557 998.891,-367.462"/>
</g>
<!-- indexBuild -->
<g id="node40" class="node"><title>indexBuild</title>
<polygon fill="yellow" stroke="black" points="998,-291 944,-291 944,-255 998,-255 998,-291"/>
<text text-anchor="middle" x="971" y="-269.3" font-family="Times,serif" font-size="14.00">index</text>
</g>
<!-- p2&#45;&gt;indexBuild -->
<g id="edge48" class="edge"><title>p2&#45;&gt;indexBuild</title>
<path fill="none" stroke="black" d="M971,-326.697C971,-318.983 971,-309.712 971,-301.112"/>
<polygon fill="black" stroke="black" points="974.5,-301.104 971,-291.104 967.5,-301.104 974.5,-301.104"/>
</g>
<!-- distCompositePlugins -->
<g id="node41" class="node"><title>distCompositePlugins</title>
<polygon fill="none" stroke="black" points="1012,-219 876,-219 876,-183 1012,-183 1012,-219"/>
<text text-anchor="middle" x="944" y="-197.3" font-family="Times,serif" font-size="14.00">distCompositePlugins</text>
</g>
<!-- indexBuild&#45;&gt;distCompositePlugins -->
<g id="edge49" class="edge"><title>indexBuild&#45;&gt;distCompositePlugins</title>
<path fill="none" stroke="black" d="M964.326,-254.697C961.285,-246.813 957.617,-237.304 954.239,-228.546"/>
<polygon fill="black" stroke="black" points="957.462,-227.175 950.597,-219.104 950.931,-229.694 957.462,-227.175"/>
</g>
<!-- distZipPlugins -->
<g id="node42" class="node"><title>distZipPlugins</title>
<polygon fill="none" stroke="black" points="1034.25,-147 939.75,-147 939.75,-111 1034.25,-111 1034.25,-147"/>
<text text-anchor="middle" x="987" y="-125.3" font-family="Times,serif" font-size="14.00">distZipPlugins</text>
</g>
<!-- indexBuild&#45;&gt;distZipPlugins -->
<g id="edge50" class="edge"><title>indexBuild&#45;&gt;distZipPlugins</title>
<path fill="none" stroke="black" d="M993.596,-254.963C1004.06,-245.635 1015.4,-233.107 1021,-219 1026.91,-204.13 1025.5,-198.354 1021,-183 1018.2,-173.447 1013.09,-163.984 1007.67,-155.756"/>
<polygon fill="black" stroke="black" points="1010.38,-153.525 1001.75,-147.366 1004.65,-157.557 1010.38,-153.525"/>
</g>
<!-- distCompositePlugins&#45;&gt;distZipPlugins -->
<g id="edge51" class="edge"><title>distCompositePlugins&#45;&gt;distZipPlugins</title>
<path fill="none" stroke="black" d="M954.629,-182.697C959.628,-174.559 965.691,-164.689 971.212,-155.701"/>
<polygon fill="black" stroke="black" points="974.241,-157.457 976.493,-147.104 968.277,-153.793 974.241,-157.457"/>
</g>
<!-- dist -->
<g id="node43" class="node"><title>dist</title>
<polygon fill="yellow" stroke="black" points="1014,-75 960,-75 960,-39 1014,-39 1014,-75"/>
<text text-anchor="middle" x="987" y="-53.3" font-family="Times,serif" font-size="14.00">dist</text>
</g>
<!-- distZipPlugins&#45;&gt;dist -->
<g id="edge52" class="edge"><title>distZipPlugins&#45;&gt;dist</title>
<path fill="none" stroke="black" d="M987,-110.697C987,-102.983 987,-93.7125 987,-85.1124"/>
<polygon fill="black" stroke="black" points="990.5,-85.1043 987,-75.1043 983.5,-85.1044 990.5,-85.1043"/>
</g>
</g>
</svg>
