<?xml version="1.0" encoding="UTF-8" standalone="no"?>
<!DOCTYPE svg PUBLIC "-//W3C//DTD SVG 1.1//EN"
 "http://www.w3.org/Graphics/SVG/1.1/DTD/svg11.dtd">
<!-- Generated by graphviz version 2.34.0 (20140110.0949)
 -->
<!-- Title: GradleSetup Pages: 1 -->
<svg width="1864pt" height="1060pt"
 viewBox="0.00 0.00 1864.00 1060.00" xmlns="http://www.w3.org/2000/svg" xmlns:xlink="http://www.w3.org/1999/xlink">
<g id="graph0" class="graph" transform="scale(1 1) rotate(0) translate(4 1056)">
<title>GradleSetup</title>
<polygon fill="white" stroke="white" points="-4,4 -4,-1056 1860,-1056 1860,4 -4,4"/>
<text text-anchor="middle" x="61" y="-1036.8" font-family="Times,serif" font-size="14.00">Gradle Build Setup</text>
<g id="clust1" class="cluster"><title>cluster1</title>
<polygon fill="lightgrey" stroke="black" points="376,-443 376,-1021 979,-1021 979,-443 376,-443"/>
<text text-anchor="middle" x="416" y="-450.8" font-family="Times,serif" font-size="14.00">Java Plugin</text>
</g>
<g id="clust2" class="cluster"><title>cluster11</title>
</g>
<g id="clust3" class="cluster"><title>cluster12</title>
</g>
<g id="clust4" class="cluster"><title>cluster13</title>
</g>
<g id="clust5" class="cluster"><title>cluster2</title>
<polygon fill="lightgrey" stroke="black" points="987,-518 987,-886 1542,-886 1542,-518 987,-518"/>
<text text-anchor="middle" x="1030" y="-525.8" font-family="Times,serif" font-size="14.00">Bnd Projects</text>
</g>
<g id="clust6" class="cluster"><title>cluster21</title>
</g>
<g id="clust7" class="cluster"><title>cluster22</title>
</g>
<g id="clust8" class="cluster"><title>cluster23</title>
</g>
<g id="clust9" class="cluster"><title>cluster100</title>
<polygon fill="lightgrey" stroke="black" points="1302,-803 1302,-878 1428,-878 1428,-803 1302,-803"/>
<text text-anchor="middle" x="1364.5" y="-862.8" font-family="Times,serif" font-size="14.00">Class Cycle Checks</text>
</g>
<g id="clust10" class="cluster"><title>cluster3</title>
<polygon fill="lightgrey" stroke="black" points="1222,-938 1222,-1013 1307,-1013 1307,-938 1222,-938"/>
<text text-anchor="middle" x="1264.5" y="-945.8" font-family="Times,serif" font-size="14.00">Root Project</text>
</g>
<g id="clust11" class="cluster"><title>cluster4</title>
<polygon fill="lightgrey" stroke="black" points="8,-601 8,-764 368,-764 368,-601 8,-601"/>
<text text-anchor="middle" x="52" y="-608.8" font-family="Times,serif" font-size="14.00">Java Projects</text>
</g>
<g id="clust12" class="cluster"><title>cluster41</title>
</g>
<g id="clust13" class="cluster"><title>cluster42</title>
</g>
<g id="clust14" class="cluster"><title>cluster5</title>
<polygon fill="lightgrey" stroke="black" points="1550,-772 1550,-1021 1848,-1021 1848,-772 1550,-772"/>
<text text-anchor="middle" x="1590.5" y="-779.8" font-family="Times,serif" font-size="14.00">All Projects</text>
</g>
<g id="clust15" class="cluster"><title>cluster21</title>
</g>
<g id="clust16" class="cluster"><title>cluster22</title>
</g>
<g id="clust17" class="cluster"><title>cluster7</title>
<polygon fill="lightgrey" stroke="black" points="1550,-8 1550,-684 1842,-684 1842,-8 1550,-8"/>
<text text-anchor="middle" x="1594.5" y="-15.8" font-family="Times,serif" font-size="14.00">Build Project</text>
</g>
<!-- compileJava -->
<g id="node1" class="node"><title>compileJava</title>
<polygon fill="lightcyan" stroke="black" points="894.25,-1005 809.75,-1005 809.75,-969 894.25,-969 894.25,-1005"/>
<text text-anchor="middle" x="852" y="-983.3" font-family="Times,serif" font-size="14.00">compileJava</text>
</g>
<!-- classes -->
<g id="node3" class="node"><title>classes</title>
<polygon fill="lightcyan" stroke="black" points="879,-930 825,-930 825,-894 879,-894 879,-930"/>
<text text-anchor="middle" x="852" y="-908.3" font-family="Times,serif" font-size="14.00">classes</text>
</g>
<!-- compileJava&#45;&gt;classes -->
<g id="edge1" class="edge"><title>compileJava&#45;&gt;classes</title>
<path fill="none" stroke="black" d="M852,-968.7C852,-960.245 852,-949.869 852,-940.373"/>
<polygon fill="black" stroke="black" points="855.5,-940.176 852,-930.176 848.5,-940.176 855.5,-940.176"/>
</g>
<!-- processResources -->
<g id="node2" class="node"><title>processResources</title>
<polygon fill="lightcyan" stroke="black" points="791.25,-1005 678.75,-1005 678.75,-969 791.25,-969 791.25,-1005"/>
<text text-anchor="middle" x="735" y="-983.3" font-family="Times,serif" font-size="14.00">processResources</text>
</g>
<!-- processResources&#45;&gt;classes -->
<g id="edge2" class="edge"><title>processResources&#45;&gt;classes</title>
<path fill="none" stroke="black" d="M755.964,-968.948C768.368,-959.264 784.618,-947.264 800,-938 804.88,-935.061 810.159,-932.193 815.418,-929.511"/>
<polygon fill="black" stroke="black" points="817.345,-932.464 824.772,-924.908 814.254,-926.183 817.345,-932.464"/>
</g>
<!-- jar -->
<g id="node4" class="node"><title>jar</title>
<polygon fill="lightcyan" stroke="black" points="886,-847 832,-847 832,-811 886,-811 886,-847"/>
<text text-anchor="middle" x="859" y="-825.3" font-family="Times,serif" font-size="14.00">jar</text>
</g>
<!-- classes&#45;&gt;jar -->
<g id="edge6" class="edge"><title>classes&#45;&gt;jar</title>
<path fill="none" stroke="black" d="M853.485,-893.822C854.403,-883.19 855.603,-869.306 856.649,-857.204"/>
<polygon fill="black" stroke="black" points="860.144,-857.417 857.518,-847.153 853.17,-856.815 860.144,-857.417"/>
</g>
<!-- compileTestJava -->
<g id="node5" class="node"><title>compileTestJava</title>
<polygon fill="lightcyan" stroke="black" points="654,-847 546,-847 546,-811 654,-811 654,-847"/>
<text text-anchor="middle" x="600" y="-825.3" font-family="Times,serif" font-size="14.00">compileTestJava</text>
</g>
<!-- classes&#45;&gt;compileTestJava -->
<g id="edge5" class="edge"><title>classes&#45;&gt;compileTestJava</title>
<path fill="none" stroke="black" d="M824.813,-909.229C780.251,-906.015 693.834,-898.383 666,-886 649.557,-878.684 634.053,-865.957 622.21,-854.483"/>
<polygon fill="black" stroke="black" points="624.508,-851.83 614.982,-847.193 619.537,-856.758 624.508,-851.83"/>
</g>
<!-- test -->
<g id="node8" class="node"><title>test</title>
<polygon fill="lightcyan" stroke="black" points="605,-676 551,-676 551,-640 605,-640 605,-676"/>
<text text-anchor="middle" x="578" y="-654.3" font-family="Times,serif" font-size="14.00">test</text>
</g>
<!-- classes&#45;&gt;test -->
<g id="edge4" class="edge"><title>classes&#45;&gt;test</title>
<path fill="none" stroke="black" d="M831.95,-893.879C828.935,-891.258 825.875,-888.569 823,-886 741.634,-813.276 647.49,-724.796 603.33,-683.03"/>
<polygon fill="black" stroke="black" points="605.599,-680.358 595.93,-676.026 600.787,-685.442 605.599,-680.358"/>
</g>
<!-- javadoc -->
<g id="node13" class="node"><title>javadoc</title>
<polygon fill="lightcyan" stroke="black" points="970.25,-847 911.75,-847 911.75,-811 970.25,-811 970.25,-847"/>
<text text-anchor="middle" x="941" y="-825.3" font-family="Times,serif" font-size="14.00">javadoc</text>
</g>
<!-- classes&#45;&gt;javadoc -->
<g id="edge3" class="edge"><title>classes&#45;&gt;javadoc</title>
<path fill="none" stroke="black" d="M879.077,-902.454C888.642,-898.513 898.998,-893.102 907,-886 916.248,-877.792 923.774,-866.455 929.371,-856.128"/>
<polygon fill="black" stroke="black" points="932.574,-857.55 933.964,-847.047 926.328,-854.391 932.574,-857.55"/>
</g>
<!-- bundle -->
<g id="node15" class="node"><title>bundle</title>
<polygon fill="cyan" stroke="black" points="1388,-748 1334,-748 1334,-712 1388,-712 1388,-748"/>
<text text-anchor="middle" x="1361" y="-726.3" font-family="Times,serif" font-size="14.00">bundle</text>
</g>
<!-- classes&#45;&gt;bundle -->
<g id="edge17" class="edge"><title>classes&#45;&gt;bundle</title>
<path fill="none" stroke="black" d="M879.33,-910.861C991.643,-910.157 1412.68,-906.175 1432,-886 1467.05,-849.41 1457.33,-815.88 1432,-772 1424.44,-758.906 1410.93,-749.62 1397.71,-743.235"/>
<polygon fill="black" stroke="black" points="1398.79,-739.887 1388.22,-739.086 1395.98,-746.3 1398.79,-739.887"/>
</g>
<!-- checkClassCycle -->
<g id="node23" class="node"><title>checkClassCycle</title>
<polygon fill="cyan" stroke="black" points="1419.25,-847 1310.75,-847 1310.75,-811 1419.25,-811 1419.25,-847"/>
<text text-anchor="middle" x="1365" y="-825.3" font-family="Times,serif" font-size="14.00">checkClassCycle</text>
</g>
<!-- classes&#45;&gt;checkClassCycle -->
<g id="edge15" class="edge"><title>classes&#45;&gt;checkClassCycle</title>
<path fill="none" stroke="black" d="M879.038,-910.473C969.659,-908.571 1259.14,-901.346 1298,-886 1315.12,-879.24 1331.07,-866.297 1343.11,-854.556"/>
<polygon fill="black" stroke="black" points="1345.93,-856.681 1350.43,-847.091 1340.93,-851.78 1345.93,-856.681"/>
</g>
<!-- findbugsMain -->
<g id="node28" class="node"><title>findbugsMain</title>
<polygon fill="cyan" stroke="black" points="117.25,-748 24.75,-748 24.75,-712 117.25,-712 117.25,-748"/>
<text text-anchor="middle" x="71" y="-726.3" font-family="Times,serif" font-size="14.00">findbugsMain</text>
</g>
<!-- classes&#45;&gt;findbugsMain -->
<g id="edge28" class="edge"><title>classes&#45;&gt;findbugsMain</title>
<path fill="none" stroke="black" d="M824.918,-910.98C737.72,-910.694 464.998,-908.017 380,-886 272.681,-858.201 159.358,-789.82 104.569,-753.895"/>
<polygon fill="black" stroke="black" points="106.246,-750.807 95.9744,-748.209 102.384,-756.645 106.246,-750.807"/>
</g>
<!-- uploadArchives -->
<g id="node10" class="node"><title>uploadArchives</title>
<polygon fill="lightcyan" stroke="black" points="842,-748 740,-748 740,-712 842,-712 842,-748"/>
<text text-anchor="middle" x="791" y="-726.3" font-family="Times,serif" font-size="14.00">uploadArchives</text>
</g>
<!-- jar&#45;&gt;uploadArchives -->
<g id="edge9" class="edge"><title>jar&#45;&gt;uploadArchives</title>
<path fill="none" stroke="black" d="M846.843,-810.658C836.303,-795.623 820.906,-773.66 808.948,-756.602"/>
<polygon fill="black" stroke="black" points="811.658,-754.371 803.052,-748.192 805.926,-758.389 811.658,-754.371"/>
</g>
<!-- assemble -->
<g id="node11" class="node"><title>assemble</title>
<polygon fill="lightcyan" stroke="black" points="927.25,-748 860.75,-748 860.75,-712 927.25,-712 927.25,-748"/>
<text text-anchor="middle" x="894" y="-726.3" font-family="Times,serif" font-size="14.00">assemble</text>
</g>
<!-- jar&#45;&gt;assemble -->
<g id="edge10" class="edge"><title>jar&#45;&gt;assemble</title>
<path fill="none" stroke="black" d="M865.257,-810.658C870.533,-796.037 878.173,-774.864 884.25,-758.021"/>
<polygon fill="black" stroke="black" points="887.695,-758.786 887.797,-748.192 881.111,-756.41 887.695,-758.786"/>
</g>
<!-- testClasses -->
<g id="node7" class="node"><title>testClasses</title>
<polygon fill="lightcyan" stroke="black" points="568,-748 492,-748 492,-712 568,-712 568,-748"/>
<text text-anchor="middle" x="530" y="-726.3" font-family="Times,serif" font-size="14.00">testClasses</text>
</g>
<!-- compileTestJava&#45;&gt;testClasses -->
<g id="edge7" class="edge"><title>compileTestJava&#45;&gt;testClasses</title>
<path fill="none" stroke="black" d="M587.485,-810.658C576.635,-795.623 560.786,-773.66 548.476,-756.602"/>
<polygon fill="black" stroke="black" points="551.096,-754.252 542.406,-748.192 545.42,-758.349 551.096,-754.252"/>
</g>
<!-- processTestResources -->
<g id="node6" class="node"><title>processTestResources</title>
<polygon fill="lightcyan" stroke="black" points="528,-847 392,-847 392,-811 528,-811 528,-847"/>
<text text-anchor="middle" x="460" y="-825.3" font-family="Times,serif" font-size="14.00">processTestResources</text>
</g>
<!-- processTestResources&#45;&gt;testClasses -->
<g id="edge8" class="edge"><title>processTestResources&#45;&gt;testClasses</title>
<path fill="none" stroke="black" d="M472.515,-810.658C483.365,-795.623 499.214,-773.66 511.524,-756.602"/>
<polygon fill="black" stroke="black" points="514.58,-758.349 517.594,-748.192 508.904,-754.252 514.58,-758.349"/>
</g>
<!-- testClasses&#45;&gt;test -->
<g id="edge11" class="edge"><title>testClasses&#45;&gt;test</title>
<path fill="none" stroke="black" d="M541.865,-711.697C547.503,-703.474 554.354,-693.483 560.569,-684.421"/>
<polygon fill="black" stroke="black" points="563.503,-686.331 566.271,-676.104 557.729,-682.372 563.503,-686.331"/>
</g>
<!-- findbugsTest -->
<g id="node26" class="node"><title>findbugsTest</title>
<polygon fill="cyan" stroke="black" points="229.25,-748 142.75,-748 142.75,-712 229.25,-712 229.25,-748"/>
<text text-anchor="middle" x="186" y="-726.3" font-family="Times,serif" font-size="14.00">findbugsTest</text>
</g>
<!-- testClasses&#45;&gt;findbugsTest -->
<g id="edge29" class="edge"><title>testClasses&#45;&gt;findbugsTest</title>
<path fill="none" stroke="black" d="M491.947,-741.221C458.366,-750.504 407.913,-762.955 363,-768 336.279,-771.002 268.303,-773.582 242,-768 231.656,-765.805 221.664,-760.457 213.054,-754.443"/>
<polygon fill="black" stroke="black" points="215.029,-751.548 204.944,-748.301 210.803,-757.129 215.029,-751.548"/>
</g>
<!-- check -->
<g id="node9" class="node"><title>check</title>
<polygon fill="lightcyan" stroke="black" points="605,-593 551,-593 551,-557 605,-557 605,-593"/>
<text text-anchor="middle" x="578" y="-571.3" font-family="Times,serif" font-size="14.00">check</text>
</g>
<!-- test&#45;&gt;check -->
<g id="edge13" class="edge"><title>test&#45;&gt;check</title>
<path fill="none" stroke="black" d="M578,-639.822C578,-629.19 578,-615.306 578,-603.204"/>
<polygon fill="black" stroke="black" points="581.5,-603.153 578,-593.153 574.5,-603.153 581.5,-603.153"/>
</g>
<!-- jacocoTestReport -->
<g id="node29" class="node"><title>jacocoTestReport</title>
<polygon fill="cyan" stroke="black" points="360,-748 248,-748 248,-712 360,-712 360,-748"/>
<text text-anchor="middle" x="304" y="-726.3" font-family="Times,serif" font-size="14.00">jacocoTestReport</text>
</g>
<!-- test&#45;&gt;jacocoTestReport -->
<g id="edge34" class="edge"><title>test&#45;&gt;jacocoTestReport</title>
<path fill="none" stroke="black" d="M550.897,-664.315C512.57,-672.022 440.464,-687.225 380,-704 374.646,-705.485 369.11,-707.117 363.579,-708.813"/>
<polygon fill="black" stroke="black" points="362.166,-705.587 353.67,-711.917 364.259,-712.267 362.166,-705.587"/>
</g>
<!-- build -->
<g id="node12" class="node"><title>build</title>
<polygon fill="lightcyan" stroke="black" points="707,-510 653,-510 653,-474 707,-474 707,-510"/>
<text text-anchor="middle" x="680" y="-488.3" font-family="Times,serif" font-size="14.00">build</text>
</g>
<!-- check&#45;&gt;build -->
<g id="edge14" class="edge"><title>check&#45;&gt;build</title>
<path fill="none" stroke="black" d="M583.695,-556.897C588.615,-544.531 596.865,-528.26 609,-518 618.667,-509.826 631.185,-504.258 643.012,-500.495"/>
<polygon fill="black" stroke="black" points="644.044,-503.841 652.706,-497.741 642.13,-497.107 644.044,-503.841"/>
</g>
<!-- assemble&#45;&gt;build -->
<g id="edge12" class="edge"><title>assemble&#45;&gt;build</title>
<path fill="none" stroke="black" d="M878.264,-711.646C840.684,-670.203 745.617,-565.363 702.219,-517.503"/>
<polygon fill="black" stroke="black" points="704.781,-515.118 695.47,-510.061 699.595,-519.82 704.781,-515.118"/>
</g>
<!-- exportX -->
<g id="node21" class="node"><title>exportX</title>
<polygon fill="cyan" stroke="black" points="1104.25,-847 1007.75,-847 1003.75,-843 1003.75,-811 1100.25,-811 1104.25,-815 1104.25,-847"/>
<polyline fill="none" stroke="black" points="1100.25,-843 1003.75,-843 "/>
<polyline fill="none" stroke="black" points="1100.25,-843 1100.25,-811 "/>
<polyline fill="none" stroke="black" points="1100.25,-843 1104.25,-847 "/>
<text text-anchor="middle" x="1054" y="-825.3" font-family="Times,serif" font-size="14.00">export.&lt;name&gt;</text>
</g>
<!-- assemble&#45;&gt;exportX -->
<g id="edge23" class="edge"><title>assemble&#45;&gt;exportX</title>
<path fill="none" stroke="black" d="M927.504,-744.207C944.606,-751.497 965.449,-761.245 983,-772 998.373,-781.42 1014.24,-793.658 1027.07,-804.29"/>
<polygon fill="black" stroke="black" points="1025.12,-807.227 1035.02,-810.999 1029.63,-801.876 1025.12,-807.227"/>
</g>
<!-- cleanJava -->
<g id="node14" class="node"><title>cleanJava</title>
<polygon fill="lightcyan" stroke="black" points="549,-1005 495,-1005 495,-969 549,-969 549,-1005"/>
<text text-anchor="middle" x="522" y="-983.3" font-family="Times,serif" font-size="14.00">clean</text>
</g>
<!-- bundle&#45;&gt;compileJava -->
<g id="edge18" class="edge"><title>bundle&#45;&gt;compileJava</title>
<path fill="none" stroke="red" d="M1388.42,-734.334C1411.33,-738.727 1442.64,-748.838 1458,-772 1486,-814.229 1490.78,-847.367 1458,-886 1440,-907.215 1048.45,-960.319 904.492,-979.203"/>
<polygon fill="red" stroke="red" points="904.025,-975.734 894.564,-980.503 904.934,-982.675 904.025,-975.734"/>
</g>
<!-- bundle&#45;&gt;jar -->
<g id="edge19" class="edge"><title>bundle&#45;&gt;jar</title>
<path fill="none" stroke="black" stroke-dasharray="5,2" d="M1335.13,-748.014C1324.15,-754.296 1310.92,-760.687 1298,-764 1276.04,-769.632 909.417,-760.297 890,-772 879.179,-778.522 871.855,-790.296 867.057,-801.372"/>
<polygon fill="black" stroke="black" points="863.764,-800.184 863.465,-810.775 870.303,-802.682 863.764,-800.184"/>
</g>
<!-- bundle&#45;&gt;test -->
<g id="edge21" class="edge"><title>bundle&#45;&gt;test</title>
<path fill="none" stroke="black" d="M1334,-716.114C1323.07,-711.477 1310.17,-706.723 1298,-704 1165.89,-674.446 743.496,-662.717 615.265,-659.783"/>
<polygon fill="black" stroke="black" points="615.237,-656.281 605.161,-659.556 615.08,-663.279 615.237,-656.281"/>
</g>
<!-- bundleTest -->
<g id="node16" class="node"><title>bundleTest</title>
<polygon fill="cyan" stroke="black" points="1387.25,-676 1310.75,-676 1310.75,-640 1387.25,-640 1387.25,-676"/>
<text text-anchor="middle" x="1349" y="-654.3" font-family="Times,serif" font-size="14.00">bundleTest</text>
</g>
<!-- bundle&#45;&gt;bundleTest -->
<g id="edge20" class="edge"><title>bundle&#45;&gt;bundleTest</title>
<path fill="none" stroke="black" d="M1358.03,-711.697C1356.71,-703.983 1355.12,-694.712 1353.65,-686.112"/>
<polygon fill="black" stroke="black" points="1357.07,-685.369 1351.93,-676.104 1350.17,-686.552 1357.07,-685.369"/>
</g>
<!-- release -->
<g id="node17" class="node"><title>release</title>
<polygon fill="cyan" stroke="black" points="1476,-676 1422,-676 1422,-640 1476,-640 1476,-676"/>
<text text-anchor="middle" x="1449" y="-654.3" font-family="Times,serif" font-size="14.00">release</text>
</g>
<!-- bundle&#45;&gt;release -->
<g id="edge22" class="edge"><title>bundle&#45;&gt;release</title>
<path fill="none" stroke="black" d="M1382.75,-711.697C1393.84,-702.881 1407.47,-692.032 1419.49,-682.474"/>
<polygon fill="black" stroke="black" points="1421.85,-685.069 1427.5,-676.104 1417.49,-679.59 1421.85,-685.069"/>
</g>
<!-- p2Entry -->
<g id="node35" class="node"><title>p2Entry</title>
<polygon fill="none" stroke="black" points="1662,-676 1602,-676 1602,-640 1662,-640 1662,-676"/>
<text text-anchor="middle" x="1632" y="-654.3" font-family="Times,serif" font-size="14.00">p2Entry</text>
</g>
<!-- bundle&#45;&gt;p2Entry -->
<g id="edge40" class="edge"><title>bundle&#45;&gt;p2Entry</title>
<path fill="none" stroke="red" d="M1388.01,-722.231C1422.74,-713.504 1484.91,-697.807 1538,-684 1555.73,-679.389 1575.31,-674.196 1592,-669.743"/>
<polygon fill="red" stroke="red" points="1593.21,-673.042 1601.97,-667.078 1591.4,-666.279 1593.21,-673.042"/>
</g>
<!-- bundleTest&#45;&gt;check -->
<g id="edge25" class="edge"><title>bundleTest&#45;&gt;check</title>
<path fill="none" stroke="black" d="M1310.5,-652.955C1178.66,-639.104 746.24,-593.675 615.667,-579.957"/>
<polygon fill="black" stroke="black" points="615.695,-576.441 605.384,-578.877 614.964,-583.403 615.695,-576.441"/>
</g>
<!-- releaseNeeded -->
<g id="node18" class="node"><title>releaseNeeded</title>
<polygon fill="cyan" stroke="black" points="1507.25,-593 1412.75,-593 1412.75,-557 1507.25,-557 1507.25,-593"/>
<text text-anchor="middle" x="1460" y="-571.3" font-family="Times,serif" font-size="14.00">releaseNeeded</text>
</g>
<!-- release&#45;&gt;releaseNeeded -->
<g id="edge26" class="edge"><title>release&#45;&gt;releaseNeeded</title>
<path fill="none" stroke="black" d="M1451.33,-639.822C1452.78,-629.19 1454.66,-615.306 1456.31,-603.204"/>
<polygon fill="black" stroke="black" points="1459.79,-603.533 1457.67,-593.153 1452.86,-602.591 1459.79,-603.533"/>
</g>
<!-- releaseNeeded&#45;&gt;releaseNeeded -->
<g id="edge27" class="edge"><title>releaseNeeded&#45;&gt;releaseNeeded</title>
<path fill="none" stroke="red" d="M1507.33,-589.921C1517.57,-588.462 1525,-583.488 1525,-575 1525,-569.562 1521.95,-565.567 1517.07,-563.014"/>
<polygon fill="red" stroke="red" points="1517.91,-559.613 1507.33,-560.079 1515.89,-566.315 1517.91,-559.613"/>
</g>
<!-- cleanBnd -->
<g id="node19" class="node"><title>cleanBnd</title>
<polygon fill="cyan" stroke="black" points="1286,-847 1232,-847 1232,-811 1286,-811 1286,-847"/>
<text text-anchor="middle" x="1259" y="-825.3" font-family="Times,serif" font-size="14.00">clean</text>
</g>
<!-- bndproperties -->
<g id="node20" class="node"><title>bndproperties</title>
<polygon fill="cyan" stroke="black" points="1213.25,-847 1122.75,-847 1122.75,-811 1213.25,-811 1213.25,-847"/>
<text text-anchor="middle" x="1168" y="-825.3" font-family="Times,serif" font-size="14.00">bndproperties</text>
</g>
<!-- export -->
<g id="node22" class="node"><title>export</title>
<polygon fill="cyan" stroke="black" points="1081,-748 1027,-748 1027,-712 1081,-712 1081,-748"/>
<text text-anchor="middle" x="1054" y="-726.3" font-family="Times,serif" font-size="14.00">export</text>
</g>
<!-- exportX&#45;&gt;export -->
<g id="edge24" class="edge"><title>exportX&#45;&gt;export</title>
<path fill="none" stroke="black" d="M1054,-810.658C1054,-796.175 1054,-775.263 1054,-758.499"/>
<polygon fill="black" stroke="black" points="1057.5,-758.191 1054,-748.192 1050.5,-758.192 1057.5,-758.191"/>
</g>
<!-- checkClassCycle&#45;&gt;bundle -->
<g id="edge16" class="edge"><title>checkClassCycle&#45;&gt;bundle</title>
<path fill="none" stroke="black" d="M1364.28,-810.658C1363.69,-796.175 1362.83,-775.263 1362.13,-758.499"/>
<polygon fill="black" stroke="black" points="1365.62,-758.039 1361.71,-748.192 1358.62,-758.327 1365.62,-758.039"/>
</g>
<!-- wrapper -->
<g id="node24" class="node"><title>wrapper</title>
<polygon fill="cyan" stroke="black" points="1294.25,-1005 1233.75,-1005 1233.75,-969 1294.25,-969 1294.25,-1005"/>
<text text-anchor="middle" x="1264" y="-983.3" font-family="Times,serif" font-size="14.00">wrapper</text>
</g>
<!-- findbugstest -->
<g id="node25" class="node"><title>findbugstest</title>
<polygon fill="cyan" stroke="black" points="228.25,-676 145.75,-676 145.75,-640 228.25,-640 228.25,-676"/>
<text text-anchor="middle" x="187" y="-654.3" font-family="Times,serif" font-size="14.00">findbugstest</text>
</g>
<!-- findbugstest&#45;&gt;check -->
<g id="edge33" class="edge"><title>findbugstest&#45;&gt;check</title>
<path fill="none" stroke="green" d="M228.316,-642.966C267.077,-630.291 326.873,-611.991 380,-601 435.44,-589.531 500.772,-582.518 540.783,-578.945"/>
<polygon fill="green" stroke="green" points="541.218,-582.42 550.877,-578.069 540.612,-575.447 541.218,-582.42"/>
</g>
<!-- findbugsTest&#45;&gt;findbugstest -->
<g id="edge31" class="edge"><title>findbugsTest&#45;&gt;findbugstest</title>
<path fill="none" stroke="black" d="M186.247,-711.697C186.357,-703.983 186.49,-694.712 186.613,-686.112"/>
<polygon fill="black" stroke="black" points="190.112,-686.153 186.756,-676.104 183.113,-686.053 190.112,-686.153"/>
</g>
<!-- findbugs -->
<g id="node27" class="node"><title>findbugs</title>
<polygon fill="cyan" stroke="black" points="110,-676 46,-676 46,-640 110,-640 110,-676"/>
<text text-anchor="middle" x="78" y="-654.3" font-family="Times,serif" font-size="14.00">findbugs</text>
</g>
<!-- findbugs&#45;&gt;check -->
<g id="edge32" class="edge"><title>findbugs&#45;&gt;check</title>
<path fill="none" stroke="green" d="M88.4662,-639.966C97.6241,-626.76 112.227,-609.347 130,-601 166.689,-583.769 439.852,-578.031 540.719,-576.488"/>
<polygon fill="green" stroke="green" points="540.815,-579.987 550.762,-576.34 540.711,-572.988 540.815,-579.987"/>
</g>
<!-- findbugsMain&#45;&gt;findbugs -->
<g id="edge30" class="edge"><title>findbugsMain&#45;&gt;findbugs</title>
<path fill="none" stroke="black" d="M72.7303,-711.697C73.5017,-703.983 74.4288,-694.712 75.2888,-686.112"/>
<polygon fill="black" stroke="black" points="78.7771,-686.403 76.2896,-676.104 71.8118,-685.706 78.7771,-686.403"/>
</g>
<!-- index -->
<g id="node30" class="node"><title>index</title>
<polygon fill="cyan" stroke="black" points="1832,-1005 1778,-1005 1778,-969 1832,-969 1832,-1005"/>
<text text-anchor="middle" x="1805" y="-983.3" font-family="Times,serif" font-size="14.00">index</text>
</g>
<!-- clean -->
<g id="node31" class="node"><title>clean</title>
<polygon fill="lightcyan" stroke="black" points="1692,-1005 1638,-1005 1638,-969 1692,-969 1692,-1005"/>
<text text-anchor="middle" x="1665" y="-983.3" font-family="Times,serif" font-size="14.00">clean</text>
</g>
<!-- cleanNeeded -->
<g id="node32" class="node"><title>cleanNeeded</title>
<polygon fill="cyan" stroke="black" points="1652,-930 1566,-930 1566,-894 1652,-894 1652,-930"/>
<text text-anchor="middle" x="1609" y="-908.3" font-family="Times,serif" font-size="14.00">cleanNeeded</text>
</g>
<!-- clean&#45;&gt;cleanNeeded -->
<g id="edge35" class="edge"><title>clean&#45;&gt;cleanNeeded</title>
<path fill="none" stroke="blue" d="M1651.73,-968.7C1644.75,-959.609 1636.08,-948.296 1628.37,-938.245"/>
<polygon fill="blue" stroke="blue" points="1631.04,-935.98 1622.18,-930.176 1625.49,-940.24 1631.04,-935.98"/>
</g>
<!-- distclean -->
<g id="node33" class="node"><title>distclean</title>
<polygon fill="cyan" stroke="black" points="1753.25,-930 1688.75,-930 1688.75,-894 1753.25,-894 1753.25,-930"/>
<text text-anchor="middle" x="1721" y="-908.3" font-family="Times,serif" font-size="14.00">distclean</text>
</g>
<!-- clean&#45;&gt;distclean -->
<g id="edge37" class="edge"><title>clean&#45;&gt;distclean</title>
<path fill="none" stroke="blue" d="M1678.27,-968.7C1685.25,-959.609 1693.92,-948.296 1701.63,-938.245"/>
<polygon fill="blue" stroke="blue" points="1704.51,-940.24 1707.82,-930.176 1698.96,-935.98 1704.51,-940.24"/>
</g>
<!-- cleanNeeded&#45;&gt;cleanNeeded -->
<g id="edge36" class="edge"><title>cleanNeeded&#45;&gt;cleanNeeded</title>
<path fill="none" stroke="red" d="M1652.04,-925.63C1662.35,-924.565 1670,-920.021 1670,-912 1670,-906.861 1666.86,-903.15 1661.89,-900.866"/>
<polygon fill="red" stroke="red" points="1662.59,-897.432 1652.04,-898.37 1660.87,-904.217 1662.59,-897.432"/>
</g>
<!-- distcleanNeeded -->
<g id="node34" class="node"><title>distcleanNeeded</title>
<polygon fill="cyan" stroke="black" points="1736,-847 1630,-847 1630,-811 1736,-811 1736,-847"/>
<text text-anchor="middle" x="1683" y="-825.3" font-family="Times,serif" font-size="14.00">distcleanNeeded</text>
</g>
<!-- distclean&#45;&gt;distcleanNeeded -->
<g id="edge38" class="edge"><title>distclean&#45;&gt;distcleanNeeded</title>
<path fill="none" stroke="black" d="M1712.94,-893.822C1707.85,-882.976 1701.18,-868.744 1695.42,-856.472"/>
<polygon fill="black" stroke="black" points="1698.46,-854.72 1691.05,-847.153 1692.13,-857.693 1698.46,-854.72"/>
</g>
<!-- distcleanNeeded&#45;&gt;distcleanNeeded -->
<g id="edge39" class="edge"><title>distcleanNeeded&#45;&gt;distcleanNeeded</title>
<path fill="none" stroke="red" d="M1736.26,-843.691C1746.63,-841.985 1754,-837.088 1754,-829 1754,-823.819 1750.98,-819.947 1746.08,-817.385"/>
<polygon fill="red" stroke="red" points="1746.85,-813.959 1736.26,-814.309 1744.75,-820.639 1746.85,-813.959"/>
</g>
<!-- p2FeaturesTree -->
<g id="node36" class="node"><title>p2FeaturesTree</title>
<polygon fill="none" stroke="black" points="1682.25,-593 1581.75,-593 1581.75,-557 1682.25,-557 1682.25,-593"/>
<text text-anchor="middle" x="1632" y="-571.3" font-family="Times,serif" font-size="14.00">p2FeaturesTree</text>
</g>
<!-- p2Entry&#45;&gt;p2FeaturesTree -->
<g id="edge41" class="edge"><title>p2Entry&#45;&gt;p2FeaturesTree</title>
<path fill="none" stroke="black" d="M1632,-639.822C1632,-629.19 1632,-615.306 1632,-603.204"/>
<polygon fill="black" stroke="black" points="1635.5,-603.153 1632,-593.153 1628.5,-603.153 1635.5,-603.153"/>
</g>
<!-- p2PelagicPlugins -->
<g id="node39" class="node"><title>p2PelagicPlugins</title>
<polygon fill="none" stroke="black" points="1834,-510 1724,-510 1724,-474 1834,-474 1834,-510"/>
<text text-anchor="middle" x="1779" y="-488.3" font-family="Times,serif" font-size="14.00">p2PelagicPlugins</text>
</g>
<!-- p2Entry&#45;&gt;p2PelagicPlugins -->
<g id="edge44" class="edge"><title>p2Entry&#45;&gt;p2PelagicPlugins</title>
<path fill="none" stroke="black" d="M1647.88,-639.985C1659.82,-627.145 1676.54,-609.057 1691,-593 1713.95,-567.515 1739.85,-537.995 1757.57,-517.669"/>
<polygon fill="black" stroke="black" points="1760.24,-519.931 1764.17,-510.092 1754.96,-515.334 1760.24,-519.931"/>
</g>
<!-- p2FeaturesGradlePlugin -->
<g id="node37" class="node"><title>p2FeaturesGradlePlugin</title>
<polygon fill="none" stroke="black" points="1706,-510 1558,-510 1558,-474 1706,-474 1706,-510"/>
<text text-anchor="middle" x="1632" y="-488.3" font-family="Times,serif" font-size="14.00">p2FeaturesGradlePlugin</text>
</g>
<!-- p2FeaturesTree&#45;&gt;p2FeaturesGradlePlugin -->
<g id="edge42" class="edge"><title>p2FeaturesTree&#45;&gt;p2FeaturesGradlePlugin</title>
<path fill="none" stroke="black" d="M1632,-556.822C1632,-546.19 1632,-532.306 1632,-520.204"/>
<polygon fill="black" stroke="black" points="1635.5,-520.153 1632,-510.153 1628.5,-520.153 1635.5,-520.153"/>
</g>
<!-- p2Features -->
<g id="node38" class="node"><title>p2Features</title>
<polygon fill="none" stroke="black" points="1684,-435 1608,-435 1608,-399 1684,-399 1684,-435"/>
<text text-anchor="middle" x="1646" y="-413.3" font-family="Times,serif" font-size="14.00">p2Features</text>
</g>
<!-- p2FeaturesGradlePlugin&#45;&gt;p2Features -->
<g id="edge43" class="edge"><title>p2FeaturesGradlePlugin&#45;&gt;p2Features</title>
<path fill="none" stroke="black" d="M1635.32,-473.7C1636.96,-465.154 1638.97,-454.645 1640.81,-445.067"/>
<polygon fill="black" stroke="black" points="1644.26,-445.656 1642.71,-435.176 1637.39,-444.338 1644.26,-445.656"/>
</g>
<!-- p2 -->
<g id="node41" class="node"><title>p2</title>
<polygon fill="cyan" stroke="black" points="1706,-363 1652,-363 1652,-327 1706,-327 1706,-363"/>
<text text-anchor="middle" x="1679" y="-341.3" font-family="Times,serif" font-size="14.00">p2</text>
</g>
<!-- p2Features&#45;&gt;p2 -->
<g id="edge46" class="edge"><title>p2Features&#45;&gt;p2</title>
<path fill="none" stroke="black" d="M1654.16,-398.697C1657.91,-390.728 1662.45,-381.1 1666.62,-372.264"/>
<polygon fill="black" stroke="black" points="1669.84,-373.642 1670.94,-363.104 1663.51,-370.657 1669.84,-373.642"/>
</g>
<!-- p2Plugins -->
<g id="node40" class="node"><title>p2Plugins</title>
<polygon fill="none" stroke="black" points="1800.25,-435 1729.75,-435 1729.75,-399 1800.25,-399 1800.25,-435"/>
<text text-anchor="middle" x="1765" y="-413.3" font-family="Times,serif" font-size="14.00">p2Plugins</text>
</g>
<!-- p2PelagicPlugins&#45;&gt;p2Plugins -->
<g id="edge45" class="edge"><title>p2PelagicPlugins&#45;&gt;p2Plugins</title>
<path fill="none" stroke="black" d="M1775.68,-473.7C1774.04,-465.154 1772.03,-454.645 1770.19,-445.067"/>
<polygon fill="black" stroke="black" points="1773.61,-444.338 1768.29,-435.176 1766.74,-445.656 1773.61,-444.338"/>
</g>
<!-- p2Plugins&#45;&gt;p2 -->
<g id="edge47" class="edge"><title>p2Plugins&#45;&gt;p2</title>
<path fill="none" stroke="black" d="M1743.74,-398.697C1732.91,-389.881 1719.58,-379.032 1707.84,-369.474"/>
<polygon fill="black" stroke="black" points="1709.98,-366.703 1700.01,-363.104 1705.56,-372.132 1709.98,-366.703"/>
</g>
<!-- indexBuild -->
<g id="node42" class="node"><title>indexBuild</title>
<polygon fill="cyan" stroke="black" points="1706,-291 1652,-291 1652,-255 1706,-255 1706,-291"/>
<text text-anchor="middle" x="1679" y="-269.3" font-family="Times,serif" font-size="14.00">index</text>
</g>
<!-- p2&#45;&gt;indexBuild -->
<g id="edge48" class="edge"><title>p2&#45;&gt;indexBuild</title>
<path fill="none" stroke="black" d="M1679,-326.697C1679,-318.983 1679,-309.712 1679,-301.112"/>
<polygon fill="black" stroke="black" points="1682.5,-301.104 1679,-291.104 1675.5,-301.104 1682.5,-301.104"/>
</g>
<!-- distCompositePlugins -->
<g id="node43" class="node"><title>distCompositePlugins</title>
<polygon fill="none" stroke="black" points="1720,-219 1584,-219 1584,-183 1720,-183 1720,-219"/>
<text text-anchor="middle" x="1652" y="-197.3" font-family="Times,serif" font-size="14.00">distCompositePlugins</text>
</g>
<!-- indexBuild&#45;&gt;distCompositePlugins -->
<g id="edge49" class="edge"><title>indexBuild&#45;&gt;distCompositePlugins</title>
<path fill="none" stroke="black" d="M1672.33,-254.697C1669.29,-246.813 1665.62,-237.304 1662.24,-228.546"/>
<polygon fill="black" stroke="black" points="1665.46,-227.175 1658.6,-219.104 1658.93,-229.694 1665.46,-227.175"/>
</g>
<!-- distZipPlugins -->
<g id="node44" class="node"><title>distZipPlugins</title>
<polygon fill="none" stroke="black" points="1742.25,-147 1647.75,-147 1647.75,-111 1742.25,-111 1742.25,-147"/>
<text text-anchor="middle" x="1695" y="-125.3" font-family="Times,serif" font-size="14.00">distZipPlugins</text>
</g>
<!-- indexBuild&#45;&gt;distZipPlugins -->
<g id="edge50" class="edge"><title>indexBuild&#45;&gt;distZipPlugins</title>
<path fill="none" stroke="black" d="M1701.6,-254.963C1712.06,-245.635 1723.4,-233.107 1729,-219 1734.91,-204.13 1733.5,-198.354 1729,-183 1726.2,-173.447 1721.09,-163.984 1715.67,-155.756"/>
<polygon fill="black" stroke="black" points="1718.38,-153.525 1709.75,-147.366 1712.65,-157.557 1718.38,-153.525"/>
</g>
<!-- distCompositePlugins&#45;&gt;distZipPlugins -->
<g id="edge51" class="edge"><title>distCompositePlugins&#45;&gt;distZipPlugins</title>
<path fill="none" stroke="black" d="M1662.63,-182.697C1667.63,-174.559 1673.69,-164.689 1679.21,-155.701"/>
<polygon fill="black" stroke="black" points="1682.24,-157.457 1684.49,-147.104 1676.28,-153.793 1682.24,-157.457"/>
</g>
<!-- dist -->
<g id="node45" class="node"><title>dist</title>
<polygon fill="cyan" stroke="black" points="1722,-75 1668,-75 1668,-39 1722,-39 1722,-75"/>
<text text-anchor="middle" x="1695" y="-53.3" font-family="Times,serif" font-size="14.00">dist</text>
</g>
<!-- distZipPlugins&#45;&gt;dist -->
<g id="edge52" class="edge"><title>distZipPlugins&#45;&gt;dist</title>
<path fill="none" stroke="black" d="M1695,-110.697C1695,-102.983 1695,-93.7125 1695,-85.1124"/>
<polygon fill="black" stroke="black" points="1698.5,-85.1043 1695,-75.1043 1691.5,-85.1044 1698.5,-85.1043"/>
</g>
</g>
</svg>
