<?xml version="1.0" encoding="UTF-8" standalone="no"?>
<!DOCTYPE svg PUBLIC "-//W3C//DTD SVG 1.1//EN"
 "http://www.w3.org/Graphics/SVG/1.1/DTD/svg11.dtd">
<!-- Generated by graphviz version 2.34.0 (20140110.0949)
 -->
<!-- Title: GradleSetup Pages: 1 -->
<svg width="1295pt" height="971pt"
 viewBox="0.00 0.00 1295.00 971.00" xmlns="http://www.w3.org/2000/svg" xmlns:xlink="http://www.w3.org/1999/xlink">
<g id="graph0" class="graph" transform="scale(1 1) rotate(0) translate(4 967)">
<title>GradleSetup</title>
<polygon fill="white" stroke="white" points="-4,4 -4,-967 1291,-967 1291,4 -4,4"/>
<text text-anchor="middle" x="61" y="-947.8" font-family="Times,serif" font-size="14.00">Gradle Build Setup</text>
<g id="clust1" class="cluster"><title>cluster1</title>
<polygon fill="lightgrey" stroke="black" points="8,-227 8,-932 677,-932 677,-227 8,-227"/>
<text text-anchor="middle" x="92.5" y="-234.8" font-family="Times,serif" font-size="14.00">Java Projects / Bnd Projects</text>
</g>
<g id="clust2" class="cluster"><title>cluster101</title>
</g>
<g id="clust3" class="cluster"><title>cluster102</title>
</g>
<g id="clust4" class="cluster"><title>cluster103</title>
</g>
<g id="clust5" class="cluster"><title>cluster104</title>
</g>
<g id="clust6" class="cluster"><title>cluster105</title>
</g>
<g id="clust7" class="cluster"><title>cluster106</title>
</g>
<g id="clust8" class="cluster"><title>cluster107</title>
</g>
<g id="clust9" class="cluster"><title>cluster108</title>
</g>
<g id="clust10" class="cluster"><title>cluster109</title>
</g>
<g id="clust11" class="cluster"><title>cluster110</title>
</g>
<g id="clust12" class="cluster"><title>cluster2</title>
<polygon fill="lightgrey" stroke="black" points="907,-849 907,-924 1057,-924 1057,-849 907,-849"/>
<text text-anchor="middle" x="949.5" y="-856.8" font-family="Times,serif" font-size="14.00">Root Project</text>
</g>
<g id="clust13" class="cluster"><title>cluster3</title>
<polygon fill="lightgrey" stroke="black" points="981,-606 981,-841 1279,-841 1279,-606 981,-606"/>
<text text-anchor="middle" x="1021.5" y="-613.8" font-family="Times,serif" font-size="14.00">All Projects</text>
</g>
<g id="clust14" class="cluster"><title>cluster301</title>
</g>
<g id="clust15" class="cluster"><title>cluster302</title>
</g>
<g id="clust16" class="cluster"><title>cluster4</title>
<polygon fill="lightgrey" stroke="black" points="685,-8 685,-689 973,-689 973,-8 685,-8"/>
<text text-anchor="middle" x="729.5" y="-15.8" font-family="Times,serif" font-size="14.00">Build Project</text>
</g>
<!-- compileJava -->
<g id="node1" class="node"><title>compileJava</title>
<polygon fill="lightcyan" stroke="black" points="471.25,-916 386.75,-916 386.75,-880 471.25,-880 471.25,-916"/>
<text text-anchor="middle" x="429" y="-894.3" font-family="Times,serif" font-size="14.00">compileJava</text>
</g>
<!-- classes -->
<g id="node3" class="node"><title>classes</title>
<polygon fill="lightcyan" stroke="black" points="360,-825 306,-825 306,-789 360,-789 360,-825"/>
<text text-anchor="middle" x="333" y="-803.3" font-family="Times,serif" font-size="14.00">classes</text>
</g>
<!-- compileJava&#45;&gt;classes -->
<g id="edge1" class="edge"><title>compileJava&#45;&gt;classes</title>
<path fill="none" stroke="black" d="M410.49,-879.84C395.881,-866.296 375.322,-847.236 359.051,-832.152"/>
<polygon fill="black" stroke="black" points="361.166,-829.339 351.453,-825.107 356.407,-834.473 361.166,-829.339"/>
</g>
<!-- processResources -->
<g id="node2" class="node"><title>processResources</title>
<polygon fill="lightcyan" stroke="black" points="368.25,-916 255.75,-916 255.75,-880 368.25,-880 368.25,-916"/>
<text text-anchor="middle" x="312" y="-894.3" font-family="Times,serif" font-size="14.00">processResources</text>
</g>
<!-- processResources&#45;&gt;classes -->
<g id="edge2" class="edge"><title>processResources&#45;&gt;classes</title>
<path fill="none" stroke="black" d="M316.049,-879.84C319.041,-867.158 323.175,-849.64 326.611,-835.077"/>
<polygon fill="black" stroke="black" points="330.073,-835.644 328.963,-825.107 323.26,-834.036 330.073,-835.644"/>
</g>
<!-- jar -->
<g id="node4" class="node"><title>jar</title>
<polygon fill="cyan" stroke="black" points="456,-753 402,-753 402,-717 456,-717 456,-753"/>
<text text-anchor="middle" x="429" y="-731.3" font-family="Times,serif" font-size="14.00">jar</text>
</g>
<!-- classes&#45;&gt;jar -->
<g id="edge5" class="edge"><title>classes&#45;&gt;jar</title>
<path fill="none" stroke="black" d="M358.617,-788.9C370.708,-780.668 385.25,-770.535 398,-761 398.727,-760.457 399.46,-759.903 400.198,-759.342"/>
<polygon fill="black" stroke="black" points="402.408,-762.057 408.153,-753.155 398.11,-756.532 402.408,-762.057"/>
</g>
<!-- compileTestJava -->
<g id="node5" class="node"><title>compileTestJava</title>
<polygon fill="lightcyan" stroke="black" points="286,-753 178,-753 178,-717 286,-717 286,-753"/>
<text text-anchor="middle" x="232" y="-731.3" font-family="Times,serif" font-size="14.00">compileTestJava</text>
</g>
<!-- classes&#45;&gt;compileTestJava -->
<g id="edge4" class="edge"><title>classes&#45;&gt;compileTestJava</title>
<path fill="none" stroke="black" d="M308.293,-788.876C295.331,-779.893 279.272,-768.763 265.235,-759.034"/>
<polygon fill="black" stroke="black" points="267.015,-756.009 256.802,-753.19 263.028,-761.763 267.015,-756.009"/>
</g>
<!-- test -->
<g id="node8" class="node"><title>test</title>
<polygon fill="lightcyan" stroke="black" points="178,-590 124,-590 124,-554 178,-554 178,-590"/>
<text text-anchor="middle" x="151" y="-568.3" font-family="Times,serif" font-size="14.00">test</text>
</g>
<!-- classes&#45;&gt;test -->
<g id="edge6" class="edge"><title>classes&#45;&gt;test</title>
<path fill="none" stroke="black" d="M322.127,-788.709C317.573,-780.603 312.715,-770.627 310,-761 291.245,-694.499 343.228,-658.236 298,-606 297.77,-605.735 231.697,-590.975 188.223,-581.287"/>
<polygon fill="black" stroke="black" points="188.77,-577.823 178.249,-579.065 187.248,-584.655 188.77,-577.823"/>
</g>
<!-- javadoc -->
<g id="node22" class="node"><title>javadoc</title>
<polygon fill="lightcyan" stroke="black" points="383.25,-753 324.75,-753 324.75,-717 383.25,-717 383.25,-753"/>
<text text-anchor="middle" x="354" y="-731.3" font-family="Times,serif" font-size="14.00">javadoc</text>
</g>
<!-- classes&#45;&gt;javadoc -->
<g id="edge3" class="edge"><title>classes&#45;&gt;javadoc</title>
<path fill="none" stroke="black" d="M338.191,-788.697C340.531,-780.898 343.347,-771.509 345.951,-762.829"/>
<polygon fill="black" stroke="black" points="349.348,-763.688 348.869,-753.104 342.643,-761.677 349.348,-763.688"/>
</g>
<!-- jar&#45;&gt;compileJava -->
<g id="edge22" class="edge"><title>jar&#45;&gt;compileJava</title>
<path fill="none" stroke="red" d="M429,-753.106C429,-780.866 429,-835.974 429,-869.354"/>
<polygon fill="red" stroke="red" points="425.5,-869.77 429,-879.77 432.5,-869.77 425.5,-869.77"/>
</g>
<!-- uploadArchives -->
<g id="node9" class="node"><title>uploadArchives</title>
<polygon fill="lightcyan" stroke="black" points="377,-590 275,-590 275,-554 377,-554 377,-590"/>
<text text-anchor="middle" x="326" y="-568.3" font-family="Times,serif" font-size="14.00">uploadArchives</text>
</g>
<!-- jar&#45;&gt;uploadArchives -->
<g id="edge9" class="edge"><title>jar&#45;&gt;uploadArchives</title>
<path fill="none" stroke="black" d="M417.977,-716.77C399.856,-688.445 363.674,-631.888 342.492,-598.779"/>
<polygon fill="black" stroke="black" points="345.281,-596.643 336.944,-590.106 339.384,-600.416 345.281,-596.643"/>
</g>
<!-- assemble -->
<g id="node10" class="node"><title>assemble</title>
<polygon fill="lightcyan" stroke="black" points="462.25,-590 395.75,-590 395.75,-554 462.25,-554 462.25,-590"/>
<text text-anchor="middle" x="429" y="-568.3" font-family="Times,serif" font-size="14.00">assemble</text>
</g>
<!-- jar&#45;&gt;assemble -->
<g id="edge10" class="edge"><title>jar&#45;&gt;assemble</title>
<path fill="none" stroke="black" d="M429,-716.77C429,-688.929 429,-633.813 429,-600.498"/>
<polygon fill="black" stroke="black" points="432.5,-600.106 429,-590.106 425.5,-600.106 432.5,-600.106"/>
</g>
<!-- p2Entry -->
<g id="node34" class="node"><title>p2Entry</title>
<polygon fill="none" stroke="black" points="795,-681 735,-681 735,-645 795,-645 795,-681"/>
<text text-anchor="middle" x="765" y="-659.3" font-family="Times,serif" font-size="14.00">p2Entry</text>
</g>
<!-- jar&#45;&gt;p2Entry -->
<g id="edge39" class="edge"><title>jar&#45;&gt;p2Entry</title>
<path fill="none" stroke="red" d="M456.212,-728.331C515.207,-716.04 655.146,-686.886 724.542,-672.429"/>
<polygon fill="red" stroke="red" points="725.575,-675.789 734.651,-670.323 724.147,-668.936 725.575,-675.789"/>
</g>
<!-- testClasses -->
<g id="node7" class="node"><title>testClasses</title>
<polygon fill="lightcyan" stroke="black" points="189,-681 113,-681 113,-645 189,-645 189,-681"/>
<text text-anchor="middle" x="151" y="-659.3" font-family="Times,serif" font-size="14.00">testClasses</text>
</g>
<!-- compileTestJava&#45;&gt;testClasses -->
<g id="edge7" class="edge"><title>compileTestJava&#45;&gt;testClasses</title>
<path fill="none" stroke="black" d="M211.978,-716.697C201.874,-707.965 189.464,-697.24 178.482,-687.75"/>
<polygon fill="black" stroke="black" points="180.647,-684.995 170.792,-681.104 176.07,-690.291 180.647,-684.995"/>
</g>
<!-- processTestResources -->
<g id="node6" class="node"><title>processTestResources</title>
<polygon fill="lightcyan" stroke="black" points="160,-753 24,-753 24,-717 160,-717 160,-753"/>
<text text-anchor="middle" x="92" y="-731.3" font-family="Times,serif" font-size="14.00">processTestResources</text>
</g>
<!-- processTestResources&#45;&gt;testClasses -->
<g id="edge8" class="edge"><title>processTestResources&#45;&gt;testClasses</title>
<path fill="none" stroke="black" d="M106.584,-716.697C113.658,-708.305 122.283,-698.07 130.045,-688.861"/>
<polygon fill="black" stroke="black" points="132.815,-691.006 136.583,-681.104 127.463,-686.495 132.815,-691.006"/>
</g>
<!-- testClasses&#45;&gt;test -->
<g id="edge11" class="edge"><title>testClasses&#45;&gt;test</title>
<path fill="none" stroke="black" d="M151,-644.84C151,-632.281 151,-614.979 151,-600.502"/>
<polygon fill="black" stroke="black" points="154.5,-600.107 151,-590.107 147.5,-600.107 154.5,-600.107"/>
</g>
<!-- check -->
<g id="node11" class="node"><title>check</title>
<polygon fill="cyan" stroke="black" points="306,-446 252,-446 252,-410 306,-410 306,-446"/>
<text text-anchor="middle" x="279" y="-424.3" font-family="Times,serif" font-size="14.00">check</text>
</g>
<!-- test&#45;&gt;check -->
<g id="edge14" class="edge"><title>test&#45;&gt;check</title>
<path fill="none" stroke="black" d="M123.93,-570.22C93.4196,-567.715 45.0748,-558.488 22,-526 8.61721,-507.158 7.13391,-491.695 22,-474 49.6004,-441.147 177.102,-432.274 241.525,-429.882"/>
<polygon fill="black" stroke="black" points="241.793,-433.375 251.67,-429.539 241.557,-426.379 241.793,-433.375"/>
</g>
<!-- findbugsTest -->
<g id="node21" class="node"><title>findbugsTest</title>
<polygon fill="orange" stroke="black" points="253.25,-518 166.75,-518 166.75,-482 253.25,-482 253.25,-518"/>
<text text-anchor="middle" x="210" y="-496.3" font-family="Times,serif" font-size="14.00">findbugsTest</text>
</g>
<!-- test&#45;&gt;findbugsTest -->
<g id="edge29" class="edge"><title>test&#45;&gt;findbugsTest</title>
<path fill="none" stroke="black" d="M165.584,-553.697C172.658,-545.305 181.283,-535.07 189.045,-525.861"/>
<polygon fill="black" stroke="black" points="191.815,-528.006 195.583,-518.104 186.463,-523.495 191.815,-528.006"/>
</g>
<!-- jacocoTestReport -->
<g id="node26" class="node"><title>jacocoTestReport</title>
<polygon fill="orange" stroke="black" points="148,-518 36,-518 36,-482 148,-482 148,-518"/>
<text text-anchor="middle" x="92" y="-496.3" font-family="Times,serif" font-size="14.00">jacocoTestReport</text>
</g>
<!-- test&#45;&gt;jacocoTestReport -->
<g id="edge32" class="edge"><title>test&#45;&gt;jacocoTestReport</title>
<path fill="none" stroke="black" d="M136.416,-553.697C129.342,-545.305 120.717,-535.07 112.955,-525.861"/>
<polygon fill="black" stroke="black" points="115.537,-523.495 106.417,-518.104 110.185,-528.006 115.537,-523.495"/>
</g>
<!-- assemble&#45;&gt;check -->
<g id="edge13" class="edge"><title>assemble&#45;&gt;check</title>
<path fill="none" stroke="black" d="M416.531,-553.949C410.809,-545.727 404.166,-535.589 399,-526 387.099,-503.907 394.474,-492.011 377,-474 360.419,-456.91 336.124,-445.694 315.872,-438.733"/>
<polygon fill="black" stroke="black" points="316.899,-435.387 306.307,-435.651 314.752,-442.05 316.899,-435.387"/>
</g>
<!-- release -->
<g id="node13" class="node"><title>release</title>
<polygon fill="cyan" stroke="black" points="486,-518 432,-518 432,-482 486,-482 486,-518"/>
<text text-anchor="middle" x="459" y="-496.3" font-family="Times,serif" font-size="14.00">release</text>
</g>
<!-- assemble&#45;&gt;release -->
<g id="edge23" class="edge"><title>assemble&#45;&gt;release</title>
<path fill="none" stroke="black" d="M436.416,-553.697C439.794,-545.813 443.87,-536.304 447.623,-527.546"/>
<polygon fill="black" stroke="black" points="450.947,-528.675 451.67,-518.104 444.513,-525.917 450.947,-528.675"/>
</g>
<!-- exportX -->
<g id="node15" class="node"><title>exportX</title>
<polygon fill="cyan" stroke="black" points="660.25,-518 563.75,-518 559.75,-514 559.75,-482 656.25,-482 660.25,-486 660.25,-518"/>
<polyline fill="none" stroke="black" points="656.25,-514 559.75,-514 "/>
<polyline fill="none" stroke="black" points="656.25,-514 656.25,-482 "/>
<polyline fill="none" stroke="black" points="656.25,-514 660.25,-518 "/>
<text text-anchor="middle" x="610" y="-496.3" font-family="Times,serif" font-size="14.00">export.&lt;name&gt;</text>
</g>
<!-- assemble&#45;&gt;exportX -->
<g id="edge24" class="edge"><title>assemble&#45;&gt;exportX</title>
<path fill="none" stroke="black" d="M462.361,-558.414C486.018,-549.456 518.496,-537.09 547,-526 550.496,-524.64 554.097,-523.231 557.725,-521.807"/>
<polygon fill="black" stroke="black" points="559.31,-524.944 567.331,-518.022 556.744,-518.431 559.31,-524.944"/>
</g>
<!-- build -->
<g id="node17" class="node"><title>build</title>
<polygon fill="lightcyan" stroke="black" points="429,-374 375,-374 375,-338 429,-338 429,-374"/>
<text text-anchor="middle" x="402" y="-352.3" font-family="Times,serif" font-size="14.00">build</text>
</g>
<!-- assemble&#45;&gt;build -->
<g id="edge12" class="edge"><title>assemble&#45;&gt;build</title>
<path fill="none" stroke="black" d="M419.415,-553.583C415.429,-545.452 411.22,-535.49 409,-526 397.532,-476.978 398.285,-417.819 400.033,-384.087"/>
<polygon fill="black" stroke="black" points="403.529,-384.262 400.622,-374.074 396.541,-383.851 403.529,-384.262"/>
</g>
<!-- findbugsMain -->
<g id="node20" class="node"><title>findbugsMain</title>
<polygon fill="orange" stroke="black" points="364.25,-518 271.75,-518 271.75,-482 364.25,-482 364.25,-518"/>
<text text-anchor="middle" x="318" y="-496.3" font-family="Times,serif" font-size="14.00">findbugsMain</text>
</g>
<!-- assemble&#45;&gt;findbugsMain -->
<g id="edge28" class="edge"><title>assemble&#45;&gt;findbugsMain</title>
<path fill="none" stroke="black" d="M401.846,-553.876C387.467,-544.808 369.619,-533.552 354.09,-523.759"/>
<polygon fill="black" stroke="black" points="355.584,-520.564 345.258,-518.19 351.85,-526.484 355.584,-520.564"/>
</g>
<!-- checkNeeded -->
<g id="node12" class="node"><title>checkNeeded</title>
<polygon fill="cyan" stroke="black" points="305.25,-374 216.75,-374 216.75,-338 305.25,-338 305.25,-374"/>
<text text-anchor="middle" x="261" y="-352.3" font-family="Times,serif" font-size="14.00">checkNeeded</text>
</g>
<!-- check&#45;&gt;checkNeeded -->
<g id="edge15" class="edge"><title>check&#45;&gt;checkNeeded</title>
<path fill="none" stroke="black" d="M274.551,-409.697C272.545,-401.898 270.131,-392.509 267.899,-383.829"/>
<polygon fill="black" stroke="black" points="271.278,-382.918 265.398,-374.104 264.499,-384.661 271.278,-382.918"/>
</g>
<!-- check&#45;&gt;build -->
<g id="edge17" class="edge"><title>check&#45;&gt;build</title>
<path fill="none" stroke="black" d="M306.298,-411.465C323.894,-401.451 346.968,-388.319 366.05,-377.459"/>
<polygon fill="black" stroke="black" points="367.819,-380.48 374.779,-372.492 364.356,-374.396 367.819,-380.48"/>
</g>
<!-- checkNeeded&#45;&gt;checkNeeded -->
<g id="edge16" class="edge"><title>checkNeeded&#45;&gt;checkNeeded</title>
<path fill="none" stroke="red" d="M305.306,-369.203C315.507,-368.065 323,-363.664 323,-356 323,-351.09 319.925,-347.52 315.032,-345.288"/>
<polygon fill="red" stroke="red" points="315.862,-341.888 305.306,-342.797 314.125,-348.669 315.862,-341.888"/>
</g>
<!-- releaseNeeded -->
<g id="node14" class="node"><title>releaseNeeded</title>
<polygon fill="cyan" stroke="black" points="516.25,-446 421.75,-446 421.75,-410 516.25,-410 516.25,-446"/>
<text text-anchor="middle" x="469" y="-424.3" font-family="Times,serif" font-size="14.00">releaseNeeded</text>
</g>
<!-- release&#45;&gt;releaseNeeded -->
<g id="edge26" class="edge"><title>release&#45;&gt;releaseNeeded</title>
<path fill="none" stroke="black" d="M461.472,-481.697C462.574,-473.983 463.898,-464.712 465.127,-456.112"/>
<polygon fill="black" stroke="black" points="468.607,-456.499 466.557,-446.104 461.677,-455.509 468.607,-456.499"/>
</g>
<!-- releaseNeeded&#45;&gt;releaseNeeded -->
<g id="edge27" class="edge"><title>releaseNeeded&#45;&gt;releaseNeeded</title>
<path fill="none" stroke="red" d="M516.326,-441.101C526.571,-439.82 534,-435.453 534,-428 534,-423.225 530.951,-419.717 526.066,-417.476"/>
<polygon fill="red" stroke="red" points="526.889,-414.073 516.326,-414.899 525.098,-420.84 526.889,-414.073"/>
</g>
<!-- export -->
<g id="node16" class="node"><title>export</title>
<polygon fill="cyan" stroke="black" points="637,-446 583,-446 583,-410 637,-410 637,-446"/>
<text text-anchor="middle" x="610" y="-424.3" font-family="Times,serif" font-size="14.00">export</text>
</g>
<!-- exportX&#45;&gt;export -->
<g id="edge25" class="edge"><title>exportX&#45;&gt;export</title>
<path fill="none" stroke="black" d="M610,-481.697C610,-473.983 610,-464.712 610,-456.112"/>
<polygon fill="black" stroke="black" points="613.5,-456.104 610,-446.104 606.5,-456.104 613.5,-456.104"/>
</g>
<!-- buildDependents -->
<g id="node18" class="node"><title>buildDependents</title>
<polygon fill="lightcyan" stroke="black" points="456,-302 348,-302 348,-266 456,-266 456,-302"/>
<text text-anchor="middle" x="402" y="-280.3" font-family="Times,serif" font-size="14.00">buildDependents</text>
</g>
<!-- build&#45;&gt;buildDependents -->
<g id="edge18" class="edge"><title>build&#45;&gt;buildDependents</title>
<path fill="none" stroke="black" d="M402,-337.697C402,-329.983 402,-320.712 402,-312.112"/>
<polygon fill="black" stroke="black" points="405.5,-312.104 402,-302.104 398.5,-312.104 405.5,-312.104"/>
</g>
<!-- buildNeeded -->
<g id="node19" class="node"><title>buildNeeded</title>
<polygon fill="lightcyan" stroke="black" points="578,-302 492,-302 492,-266 578,-266 578,-302"/>
<text text-anchor="middle" x="535" y="-280.3" font-family="Times,serif" font-size="14.00">buildNeeded</text>
</g>
<!-- build&#45;&gt;buildNeeded -->
<g id="edge20" class="edge"><title>build&#45;&gt;buildNeeded</title>
<path fill="none" stroke="black" d="M429.235,-340.666C447.772,-330.91 472.649,-317.816 493.62,-306.779"/>
<polygon fill="black" stroke="black" points="495.421,-309.786 502.64,-302.032 492.161,-303.592 495.421,-309.786"/>
</g>
<!-- buildDependents&#45;&gt;buildDependents -->
<g id="edge19" class="edge"><title>buildDependents&#45;&gt;buildDependents</title>
<path fill="none" stroke="yellow" d="M456.007,-296.899C466.529,-295.401 474,-291.102 474,-284 474,-279.451 470.934,-276.051 465.964,-273.801"/>
<polygon fill="yellow" stroke="yellow" points="466.575,-270.341 456.007,-271.101 464.742,-277.097 466.575,-270.341"/>
</g>
<!-- buildNeeded&#45;&gt;buildNeeded -->
<g id="edge21" class="edge"><title>buildNeeded&#45;&gt;buildNeeded</title>
<path fill="none" stroke="red" d="M578.036,-297.262C588.355,-296.225 596,-291.805 596,-284 596,-279 592.862,-275.389 587.894,-273.167"/>
<polygon fill="red" stroke="red" points="588.583,-269.732 578.036,-270.738 586.909,-276.529 588.583,-269.732"/>
</g>
<!-- findbugsMain&#45;&gt;check -->
<g id="edge30" class="edge"><title>findbugsMain&#45;&gt;check</title>
<path fill="none" stroke="green" d="M308.36,-481.697C303.873,-473.644 298.441,-463.894 293.476,-454.982"/>
<polygon fill="green" stroke="green" points="296.454,-453.137 288.53,-446.104 290.339,-456.544 296.454,-453.137"/>
</g>
<!-- findbugsTest&#45;&gt;check -->
<g id="edge31" class="edge"><title>findbugsTest&#45;&gt;check</title>
<path fill="none" stroke="green" d="M227.056,-481.697C235.495,-473.135 245.825,-462.656 255.043,-453.304"/>
<polygon fill="green" stroke="green" points="257.613,-455.683 262.14,-446.104 252.627,-450.769 257.613,-455.683"/>
</g>
<!-- clean -->
<g id="node23" class="node"><title>clean</title>
<polygon fill="cyan" stroke="black" points="669,-916 615,-916 615,-880 669,-880 669,-916"/>
<text text-anchor="middle" x="642" y="-894.3" font-family="Times,serif" font-size="14.00">clean</text>
</g>
<!-- cleanAll -->
<g id="node30" class="node"><title>cleanAll</title>
<polygon fill="orange" stroke="black" points="1067,-825 1013,-825 1013,-789 1067,-789 1067,-825"/>
<text text-anchor="middle" x="1040" y="-803.3" font-family="Times,serif" font-size="14.00">clean</text>
</g>
<!-- clean&#45;&gt;cleanAll -->
<g id="edge33" class="edge"><title>clean&#45;&gt;cleanAll</title>
<path fill="none" stroke="blue" d="M669.043,-890.953C738.532,-875.414 923.432,-834.067 1002.88,-816.301"/>
<polygon fill="blue" stroke="blue" points="1003.92,-819.654 1012.92,-814.056 1002.4,-812.822 1003.92,-819.654"/>
</g>
<!-- echo -->
<g id="node24" class="node"><title>echo</title>
<polygon fill="cyan" stroke="black" points="223,-916 169,-916 169,-880 223,-880 223,-916"/>
<text text-anchor="middle" x="196" y="-894.3" font-family="Times,serif" font-size="14.00">echo</text>
</g>
<!-- bndproperties -->
<g id="node25" class="node"><title>bndproperties</title>
<polygon fill="cyan" stroke="black" points="122.25,-916 31.75,-916 31.75,-880 122.25,-880 122.25,-916"/>
<text text-anchor="middle" x="77" y="-894.3" font-family="Times,serif" font-size="14.00">bndproperties</text>
</g>
<!-- init -->
<g id="node27" class="node"><title>init</title>
<polygon fill="lightcyan" stroke="black" points="1049,-916 995,-916 995,-880 1049,-880 1049,-916"/>
<text text-anchor="middle" x="1022" y="-894.3" font-family="Times,serif" font-size="14.00">init</text>
</g>
<!-- wrapper -->
<g id="node28" class="node"><title>wrapper</title>
<polygon fill="orange" stroke="black" points="976.25,-916 915.75,-916 915.75,-880 976.25,-880 976.25,-916"/>
<text text-anchor="middle" x="946" y="-894.3" font-family="Times,serif" font-size="14.00">wrapper</text>
</g>
<!-- index -->
<g id="node29" class="node"><title>index</title>
<polygon fill="orange" stroke="black" points="1263,-825 1209,-825 1209,-789 1263,-789 1263,-825"/>
<text text-anchor="middle" x="1236" y="-803.3" font-family="Times,serif" font-size="14.00">index</text>
</g>
<!-- cleanAllNeeded -->
<g id="node31" class="node"><title>cleanAllNeeded</title>
<polygon fill="orange" stroke="black" points="1083,-753 997,-753 997,-717 1083,-717 1083,-753"/>
<text text-anchor="middle" x="1040" y="-731.3" font-family="Times,serif" font-size="14.00">cleanNeeded</text>
</g>
<!-- cleanAll&#45;&gt;cleanAllNeeded -->
<g id="edge34" class="edge"><title>cleanAll&#45;&gt;cleanAllNeeded</title>
<path fill="none" stroke="blue" d="M1040,-788.697C1040,-780.983 1040,-771.712 1040,-763.112"/>
<polygon fill="blue" stroke="blue" points="1043.5,-763.104 1040,-753.104 1036.5,-763.104 1043.5,-763.104"/>
</g>
<!-- distclean -->
<g id="node32" class="node"><title>distclean</title>
<polygon fill="orange" stroke="black" points="1184.25,-753 1119.75,-753 1119.75,-717 1184.25,-717 1184.25,-753"/>
<text text-anchor="middle" x="1152" y="-731.3" font-family="Times,serif" font-size="14.00">distclean</text>
</g>
<!-- cleanAll&#45;&gt;distclean -->
<g id="edge36" class="edge"><title>cleanAll&#45;&gt;distclean</title>
<path fill="none" stroke="blue" d="M1067.11,-789.055C1081.86,-779.837 1100.29,-768.319 1116.21,-758.371"/>
<polygon fill="blue" stroke="blue" points="1118.12,-761.3 1124.75,-753.032 1114.41,-755.364 1118.12,-761.3"/>
</g>
<!-- cleanAllNeeded&#45;&gt;cleanAllNeeded -->
<g id="edge35" class="edge"><title>cleanAllNeeded&#45;&gt;cleanAllNeeded</title>
<path fill="none" stroke="red" d="M1083.04,-748.262C1093.35,-747.225 1101,-742.805 1101,-735 1101,-730 1097.86,-726.389 1092.89,-724.167"/>
<polygon fill="red" stroke="red" points="1093.58,-720.732 1083.04,-721.738 1091.91,-727.529 1093.58,-720.732"/>
</g>
<!-- distcleanNeeded -->
<g id="node33" class="node"><title>distcleanNeeded</title>
<polygon fill="orange" stroke="black" points="1167,-681 1061,-681 1061,-645 1167,-645 1167,-681"/>
<text text-anchor="middle" x="1114" y="-659.3" font-family="Times,serif" font-size="14.00">distcleanNeeded</text>
</g>
<!-- distclean&#45;&gt;distcleanNeeded -->
<g id="edge37" class="edge"><title>distclean&#45;&gt;distcleanNeeded</title>
<path fill="none" stroke="black" d="M1142.61,-716.697C1138.24,-708.644 1132.94,-698.894 1128.1,-689.982"/>
<polygon fill="black" stroke="black" points="1131.13,-688.223 1123.29,-681.104 1124.98,-691.563 1131.13,-688.223"/>
</g>
<!-- distcleanNeeded&#45;&gt;distcleanNeeded -->
<g id="edge38" class="edge"><title>distcleanNeeded&#45;&gt;distcleanNeeded</title>
<path fill="none" stroke="red" d="M1167.26,-675.899C1177.63,-674.401 1185,-670.102 1185,-663 1185,-658.451 1181.98,-655.051 1177.08,-652.801"/>
<polygon fill="red" stroke="red" points="1177.83,-649.378 1167.26,-650.101 1175.97,-656.128 1177.83,-649.378"/>
</g>
<!-- p2FeaturesTree -->
<g id="node35" class="node"><title>p2FeaturesTree</title>
<polygon fill="none" stroke="black" points="815.25,-590 714.75,-590 714.75,-554 815.25,-554 815.25,-590"/>
<text text-anchor="middle" x="765" y="-568.3" font-family="Times,serif" font-size="14.00">p2FeaturesTree</text>
</g>
<!-- p2Entry&#45;&gt;p2FeaturesTree -->
<g id="edge40" class="edge"><title>p2Entry&#45;&gt;p2FeaturesTree</title>
<path fill="none" stroke="black" d="M765,-644.84C765,-632.281 765,-614.979 765,-600.502"/>
<polygon fill="black" stroke="black" points="768.5,-600.107 765,-590.107 761.5,-600.107 768.5,-600.107"/>
</g>
<!-- p2PluginsPelagic -->
<g id="node38" class="node"><title>p2PluginsPelagic</title>
<polygon fill="none" stroke="black" points="965,-518 855,-518 855,-482 965,-482 965,-518"/>
<text text-anchor="middle" x="910" y="-496.3" font-family="Times,serif" font-size="14.00">p2PluginsPelagic</text>
</g>
<!-- p2Entry&#45;&gt;p2PluginsPelagic -->
<g id="edge43" class="edge"><title>p2Entry&#45;&gt;p2PluginsPelagic</title>
<path fill="none" stroke="black" d="M780.867,-644.969C792.796,-632.121 809.507,-614.03 824,-598 846.021,-573.643 870.875,-545.543 888.18,-525.877"/>
<polygon fill="black" stroke="black" points="890.902,-528.082 894.876,-518.261 885.645,-523.461 890.902,-528.082"/>
</g>
<!-- p2FeatureGradlePlugin -->
<g id="node36" class="node"><title>p2FeatureGradlePlugin</title>
<polygon fill="none" stroke="black" points="836.25,-518 693.75,-518 693.75,-482 836.25,-482 836.25,-518"/>
<text text-anchor="middle" x="765" y="-496.3" font-family="Times,serif" font-size="14.00">p2FeatureGradlePlugin</text>
</g>
<!-- p2FeaturesTree&#45;&gt;p2FeatureGradlePlugin -->
<g id="edge41" class="edge"><title>p2FeaturesTree&#45;&gt;p2FeatureGradlePlugin</title>
<path fill="none" stroke="black" d="M765,-553.697C765,-545.983 765,-536.712 765,-528.112"/>
<polygon fill="black" stroke="black" points="768.5,-528.104 765,-518.104 761.5,-528.104 768.5,-528.104"/>
</g>
<!-- p2Features -->
<g id="node37" class="node"><title>p2Features</title>
<polygon fill="none" stroke="black" points="816,-446 740,-446 740,-410 816,-410 816,-446"/>
<text text-anchor="middle" x="778" y="-424.3" font-family="Times,serif" font-size="14.00">p2Features</text>
</g>
<!-- p2FeatureGradlePlugin&#45;&gt;p2Features -->
<g id="edge42" class="edge"><title>p2FeatureGradlePlugin&#45;&gt;p2Features</title>
<path fill="none" stroke="black" d="M768.213,-481.697C769.646,-473.983 771.368,-464.712 772.965,-456.112"/>
<polygon fill="black" stroke="black" points="776.439,-456.575 774.823,-446.104 769.556,-455.297 776.439,-456.575"/>
</g>
<!-- p2 -->
<g id="node40" class="node"><title>p2</title>
<polygon fill="yellow" stroke="black" points="840,-374 786,-374 786,-338 840,-338 840,-374"/>
<text text-anchor="middle" x="813" y="-352.3" font-family="Times,serif" font-size="14.00">p2</text>
</g>
<!-- p2Features&#45;&gt;p2 -->
<g id="edge45" class="edge"><title>p2Features&#45;&gt;p2</title>
<path fill="none" stroke="black" d="M786.652,-409.697C790.636,-401.728 795.45,-392.1 799.868,-383.264"/>
<polygon fill="black" stroke="black" points="803.106,-384.614 804.448,-374.104 796.845,-381.483 803.106,-384.614"/>
</g>
<!-- p2Plugins -->
<g id="node39" class="node"><title>p2Plugins</title>
<polygon fill="none" stroke="black" points="931.25,-446 860.75,-446 860.75,-410 931.25,-410 931.25,-446"/>
<text text-anchor="middle" x="896" y="-424.3" font-family="Times,serif" font-size="14.00">p2Plugins</text>
</g>
<!-- p2PluginsPelagic&#45;&gt;p2Plugins -->
<g id="edge44" class="edge"><title>p2PluginsPelagic&#45;&gt;p2Plugins</title>
<path fill="none" stroke="black" d="M906.539,-481.697C904.997,-473.983 903.142,-464.712 901.422,-456.112"/>
<polygon fill="black" stroke="black" points="904.814,-455.224 899.421,-446.104 897.95,-456.597 904.814,-455.224"/>
</g>
<!-- p2Plugins&#45;&gt;p2 -->
<g id="edge46" class="edge"><title>p2Plugins&#45;&gt;p2</title>
<path fill="none" stroke="black" d="M875.483,-409.697C865.131,-400.965 852.414,-390.24 841.161,-380.75"/>
<polygon fill="black" stroke="black" points="843.182,-377.876 833.281,-374.104 838.669,-383.227 843.182,-377.876"/>
</g>
<!-- indexBuild -->
<g id="node41" class="node"><title>indexBuild</title>
<polygon fill="yellow" stroke="black" points="840,-302 786,-302 786,-266 840,-266 840,-302"/>
<text text-anchor="middle" x="813" y="-280.3" font-family="Times,serif" font-size="14.00">index</text>
</g>
<!-- p2&#45;&gt;indexBuild -->
<g id="edge47" class="edge"><title>p2&#45;&gt;indexBuild</title>
<path fill="none" stroke="black" d="M813,-337.697C813,-329.983 813,-320.712 813,-312.112"/>
<polygon fill="black" stroke="black" points="816.5,-312.104 813,-302.104 809.5,-312.104 816.5,-312.104"/>
</g>
<!-- distCompositePelagic -->
<g id="node42" class="node"><title>distCompositePelagic</title>
<polygon fill="none" stroke="black" points="854.25,-219 719.75,-219 719.75,-183 854.25,-183 854.25,-219"/>
<text text-anchor="middle" x="787" y="-197.3" font-family="Times,serif" font-size="14.00">distCompositePelagic</text>
</g>
<!-- indexBuild&#45;&gt;distCompositePelagic -->
<g id="edge48" class="edge"><title>indexBuild&#45;&gt;distCompositePelagic</title>
<path fill="none" stroke="black" d="M807.486,-265.822C804.039,-255.083 799.527,-241.025 795.614,-228.837"/>
<polygon fill="black" stroke="black" points="798.895,-227.605 792.506,-219.153 792.23,-229.744 798.895,-227.605"/>
</g>
<!-- distZipPelagic -->
<g id="node43" class="node"><title>distZipPelagic</title>
<polygon fill="none" stroke="black" points="877.25,-147 782.75,-147 782.75,-111 877.25,-111 877.25,-147"/>
<text text-anchor="middle" x="830" y="-125.3" font-family="Times,serif" font-size="14.00">distZipPelagic</text>
</g>
<!-- indexBuild&#45;&gt;distZipPelagic -->
<g id="edge49" class="edge"><title>indexBuild&#45;&gt;distZipPelagic</title>
<path fill="none" stroke="black" d="M831.544,-265.948C843.036,-254.061 856.757,-237.131 863,-219 868.209,-203.872 867.398,-198.384 863,-183 860.287,-173.51 855.328,-164.065 850.065,-155.834"/>
<polygon fill="black" stroke="black" points="852.858,-153.717 844.327,-147.434 847.078,-157.666 852.858,-153.717"/>
</g>
<!-- distCompositePelagic&#45;&gt;distZipPelagic -->
<g id="edge50" class="edge"><title>distCompositePelagic&#45;&gt;distZipPelagic</title>
<path fill="none" stroke="black" d="M797.629,-182.697C802.628,-174.559 808.691,-164.689 814.212,-155.701"/>
<polygon fill="black" stroke="black" points="817.241,-157.457 819.493,-147.104 811.277,-153.793 817.241,-157.457"/>
</g>
<!-- dist -->
<g id="node44" class="node"><title>dist</title>
<polygon fill="yellow" stroke="black" points="857,-75 803,-75 803,-39 857,-39 857,-75"/>
<text text-anchor="middle" x="830" y="-53.3" font-family="Times,serif" font-size="14.00">dist</text>
</g>
<!-- distZipPelagic&#45;&gt;dist -->
<g id="edge51" class="edge"><title>distZipPelagic&#45;&gt;dist</title>
<path fill="none" stroke="black" d="M830,-110.697C830,-102.983 830,-93.7125 830,-85.1124"/>
<polygon fill="black" stroke="black" points="833.5,-85.1043 830,-75.1043 826.5,-85.1044 833.5,-85.1043"/>
</g>
</g>
</svg>
