<?xml version="1.0" encoding="UTF-8" standalone="no"?>
<!DOCTYPE svg PUBLIC "-//W3C//DTD SVG 1.1//EN"
 "http://www.w3.org/Graphics/SVG/1.1/DTD/svg11.dtd">
<!-- Generated by graphviz version 2.34.0 (20140110.0949)
 -->
<!-- Title: GradleSetup Pages: 1 -->
<svg width="1225pt" height="971pt"
 viewBox="0.00 0.00 1225.00 971.00" xmlns="http://www.w3.org/2000/svg" xmlns:xlink="http://www.w3.org/1999/xlink">
<g id="graph0" class="graph" transform="scale(1 1) rotate(0) translate(4 967)">
<title>GradleSetup</title>
<polygon fill="white" stroke="white" points="-4,4 -4,-967 1221,-967 1221,4 -4,4"/>
<text text-anchor="middle" x="61" y="-947.8" font-family="Times,serif" font-size="14.00">Gradle Build Setup</text>
<g id="clust1" class="cluster"><title>cluster1</title>
<polygon fill="lightgrey" stroke="black" points="8,-299 8,-932 607,-932 607,-299 8,-299"/>
<text text-anchor="middle" x="92.5" y="-306.8" font-family="Times,serif" font-size="14.00">Java Projects / Bnd Projects</text>
</g>
<g id="clust2" class="cluster"><title>cluster101</title>
</g>
<g id="clust3" class="cluster"><title>cluster102</title>
</g>
<g id="clust4" class="cluster"><title>cluster103</title>
</g>
<g id="clust5" class="cluster"><title>cluster104</title>
</g>
<g id="clust6" class="cluster"><title>cluster105</title>
</g>
<g id="clust7" class="cluster"><title>cluster106</title>
</g>
<g id="clust8" class="cluster"><title>cluster107</title>
</g>
<g id="clust9" class="cluster"><title>cluster108</title>
</g>
<g id="clust10" class="cluster"><title>cluster109</title>
</g>
<g id="clust11" class="cluster"><title>cluster110</title>
</g>
<g id="clust12" class="cluster"><title>cluster2</title>
<polygon fill="lightgrey" stroke="black" points="837,-849 837,-924 987,-924 987,-849 837,-849"/>
<text text-anchor="middle" x="879.5" y="-856.8" font-family="Times,serif" font-size="14.00">Root Project</text>
</g>
<g id="clust13" class="cluster"><title>cluster3</title>
<polygon fill="lightgrey" stroke="black" points="911,-606 911,-841 1209,-841 1209,-606 911,-606"/>
<text text-anchor="middle" x="951.5" y="-613.8" font-family="Times,serif" font-size="14.00">All Projects</text>
</g>
<g id="clust14" class="cluster"><title>cluster301</title>
</g>
<g id="clust15" class="cluster"><title>cluster302</title>
</g>
<g id="clust16" class="cluster"><title>cluster4</title>
<polygon fill="lightgrey" stroke="black" points="615,-8 615,-689 903,-689 903,-8 615,-8"/>
<text text-anchor="middle" x="659.5" y="-15.8" font-family="Times,serif" font-size="14.00">Build Project</text>
</g>
<!-- compileJava -->
<g id="node1" class="node"><title>compileJava</title>
<polygon fill="lightcyan" stroke="black" points="507.25,-916 422.75,-916 422.75,-880 507.25,-880 507.25,-916"/>
<text text-anchor="middle" x="465" y="-894.3" font-family="Times,serif" font-size="14.00">compileJava</text>
</g>
<!-- classes -->
<g id="node3" class="node"><title>classes</title>
<polygon fill="lightcyan" stroke="black" points="396,-825 342,-825 342,-789 396,-789 396,-825"/>
<text text-anchor="middle" x="369" y="-803.3" font-family="Times,serif" font-size="14.00">classes</text>
</g>
<!-- compileJava&#45;&gt;classes -->
<g id="edge1" class="edge"><title>compileJava&#45;&gt;classes</title>
<path fill="none" stroke="black" d="M446.49,-879.84C431.881,-866.296 411.322,-847.236 395.051,-832.152"/>
<polygon fill="black" stroke="black" points="397.166,-829.339 387.453,-825.107 392.407,-834.473 397.166,-829.339"/>
</g>
<!-- processResources -->
<g id="node2" class="node"><title>processResources</title>
<polygon fill="lightcyan" stroke="black" points="404.25,-916 291.75,-916 291.75,-880 404.25,-880 404.25,-916"/>
<text text-anchor="middle" x="348" y="-894.3" font-family="Times,serif" font-size="14.00">processResources</text>
</g>
<!-- processResources&#45;&gt;classes -->
<g id="edge2" class="edge"><title>processResources&#45;&gt;classes</title>
<path fill="none" stroke="black" d="M352.049,-879.84C355.041,-867.158 359.175,-849.64 362.611,-835.077"/>
<polygon fill="black" stroke="black" points="366.073,-835.644 364.963,-825.107 359.26,-834.036 366.073,-835.644"/>
</g>
<!-- jar -->
<g id="node4" class="node"><title>jar</title>
<polygon fill="cyan" stroke="black" points="492,-753 438,-753 438,-717 492,-717 492,-753"/>
<text text-anchor="middle" x="465" y="-731.3" font-family="Times,serif" font-size="14.00">jar</text>
</g>
<!-- classes&#45;&gt;jar -->
<g id="edge5" class="edge"><title>classes&#45;&gt;jar</title>
<path fill="none" stroke="black" d="M394.617,-788.9C406.708,-780.668 421.25,-770.535 434,-761 434.727,-760.457 435.46,-759.903 436.198,-759.342"/>
<polygon fill="black" stroke="black" points="438.408,-762.057 444.153,-753.155 434.11,-756.532 438.408,-762.057"/>
</g>
<!-- compileTestJava -->
<g id="node5" class="node"><title>compileTestJava</title>
<polygon fill="lightcyan" stroke="black" points="332,-753 224,-753 224,-717 332,-717 332,-753"/>
<text text-anchor="middle" x="278" y="-731.3" font-family="Times,serif" font-size="14.00">compileTestJava</text>
</g>
<!-- classes&#45;&gt;compileTestJava -->
<g id="edge4" class="edge"><title>classes&#45;&gt;compileTestJava</title>
<path fill="none" stroke="black" d="M346.506,-788.697C335.045,-779.881 320.942,-769.032 308.516,-759.474"/>
<polygon fill="black" stroke="black" points="310.296,-756.427 300.236,-753.104 306.028,-761.976 310.296,-756.427"/>
</g>
<!-- test -->
<g id="node8" class="node"><title>test</title>
<polygon fill="lightcyan" stroke="black" points="78,-590 24,-590 24,-554 78,-554 78,-590"/>
<text text-anchor="middle" x="51" y="-568.3" font-family="Times,serif" font-size="14.00">test</text>
</g>
<!-- classes&#45;&gt;test -->
<g id="edge6" class="edge"><title>classes&#45;&gt;test</title>
<path fill="none" stroke="black" d="M341.843,-806.305C273.187,-806.445 95.4718,-802.69 58,-761 18.2316,-716.754 31.5101,-640.298 42.4818,-599.866"/>
<polygon fill="black" stroke="black" points="45.8697,-600.748 45.258,-590.171 39.1402,-598.821 45.8697,-600.748"/>
</g>
<!-- javadoc -->
<g id="node22" class="node"><title>javadoc</title>
<polygon fill="lightcyan" stroke="black" points="409.25,-753 350.75,-753 350.75,-717 409.25,-717 409.25,-753"/>
<text text-anchor="middle" x="380" y="-731.3" font-family="Times,serif" font-size="14.00">javadoc</text>
</g>
<!-- classes&#45;&gt;javadoc -->
<g id="edge3" class="edge"><title>classes&#45;&gt;javadoc</title>
<path fill="none" stroke="black" d="M371.719,-788.697C372.931,-780.983 374.388,-771.712 375.739,-763.112"/>
<polygon fill="black" stroke="black" points="379.217,-763.526 377.312,-753.104 372.302,-762.44 379.217,-763.526"/>
</g>
<!-- jar&#45;&gt;compileJava -->
<g id="edge22" class="edge"><title>jar&#45;&gt;compileJava</title>
<path fill="none" stroke="red" d="M465,-753.106C465,-780.866 465,-835.974 465,-869.354"/>
<polygon fill="red" stroke="red" points="461.5,-869.77 465,-879.77 468.5,-869.77 461.5,-869.77"/>
</g>
<!-- uploadArchives -->
<g id="node9" class="node"><title>uploadArchives</title>
<polygon fill="lightcyan" stroke="black" points="544,-681 442,-681 442,-645 544,-645 544,-681"/>
<text text-anchor="middle" x="493" y="-659.3" font-family="Times,serif" font-size="14.00">uploadArchives</text>
</g>
<!-- jar&#45;&gt;uploadArchives -->
<g id="edge9" class="edge"><title>jar&#45;&gt;uploadArchives</title>
<path fill="none" stroke="black" d="M471.921,-716.697C475.075,-708.813 478.878,-699.304 482.381,-690.546"/>
<polygon fill="black" stroke="black" points="485.694,-691.689 486.158,-681.104 479.195,-689.089 485.694,-691.689"/>
</g>
<!-- assemble -->
<g id="node10" class="node"><title>assemble</title>
<polygon fill="lightcyan" stroke="black" points="423.25,-681 356.75,-681 356.75,-645 423.25,-645 423.25,-681"/>
<text text-anchor="middle" x="390" y="-659.3" font-family="Times,serif" font-size="14.00">assemble</text>
</g>
<!-- jar&#45;&gt;assemble -->
<g id="edge10" class="edge"><title>jar&#45;&gt;assemble</title>
<path fill="none" stroke="black" d="M446.461,-716.697C437.197,-708.05 425.838,-697.449 415.743,-688.027"/>
<polygon fill="black" stroke="black" points="418.025,-685.369 408.326,-681.104 413.249,-690.486 418.025,-685.369"/>
</g>
<!-- p2Entry -->
<g id="node34" class="node"><title>p2Entry</title>
<polygon fill="none" stroke="black" points="725,-681 665,-681 665,-645 725,-645 725,-681"/>
<text text-anchor="middle" x="695" y="-659.3" font-family="Times,serif" font-size="14.00">p2Entry</text>
</g>
<!-- jar&#45;&gt;p2Entry -->
<g id="edge39" class="edge"><title>jar&#45;&gt;p2Entry</title>
<path fill="none" stroke="red" d="M492.287,-725.695C532.64,-713.414 608.467,-690.336 655.074,-676.151"/>
<polygon fill="red" stroke="red" points="656.288,-679.441 664.836,-673.18 654.25,-672.744 656.288,-679.441"/>
</g>
<!-- testClasses -->
<g id="node7" class="node"><title>testClasses</title>
<polygon fill="lightcyan" stroke="black" points="180,-681 104,-681 104,-645 180,-645 180,-681"/>
<text text-anchor="middle" x="142" y="-659.3" font-family="Times,serif" font-size="14.00">testClasses</text>
</g>
<!-- compileTestJava&#45;&gt;testClasses -->
<g id="edge7" class="edge"><title>compileTestJava&#45;&gt;testClasses</title>
<path fill="none" stroke="black" d="M244.731,-716.876C226.537,-707.512 203.809,-695.814 184.36,-685.803"/>
<polygon fill="black" stroke="black" points="185.89,-682.654 175.397,-681.19 182.687,-688.878 185.89,-682.654"/>
</g>
<!-- processTestResources -->
<g id="node6" class="node"><title>processTestResources</title>
<polygon fill="lightcyan" stroke="black" points="206,-753 70,-753 70,-717 206,-717 206,-753"/>
<text text-anchor="middle" x="138" y="-731.3" font-family="Times,serif" font-size="14.00">processTestResources</text>
</g>
<!-- processTestResources&#45;&gt;testClasses -->
<g id="edge8" class="edge"><title>processTestResources&#45;&gt;testClasses</title>
<path fill="none" stroke="black" d="M138.989,-716.697C139.43,-708.983 139.959,-699.712 140.451,-691.112"/>
<polygon fill="black" stroke="black" points="143.946,-691.288 141.023,-681.104 136.958,-690.888 143.946,-691.288"/>
</g>
<!-- testClasses&#45;&gt;test -->
<g id="edge11" class="edge"><title>testClasses&#45;&gt;test</title>
<path fill="none" stroke="black" d="M124.454,-644.84C110.606,-631.296 91.1179,-612.236 75.6943,-597.152"/>
<polygon fill="black" stroke="black" points="78.0883,-594.597 68.4919,-590.107 73.1938,-599.602 78.0883,-594.597"/>
</g>
<!-- findbugsTest -->
<g id="node21" class="node"><title>findbugsTest</title>
<polygon fill="orange" stroke="black" points="189.25,-590 102.75,-590 102.75,-554 189.25,-554 189.25,-590"/>
<text text-anchor="middle" x="146" y="-568.3" font-family="Times,serif" font-size="14.00">findbugsTest</text>
</g>
<!-- testClasses&#45;&gt;findbugsTest -->
<g id="edge29" class="edge"><title>testClasses&#45;&gt;findbugsTest</title>
<path fill="none" stroke="black" d="M142.771,-644.84C143.336,-632.281 144.113,-614.979 144.764,-600.502"/>
<polygon fill="black" stroke="black" points="148.279,-600.255 145.231,-590.107 141.286,-599.94 148.279,-600.255"/>
</g>
<!-- check -->
<g id="node11" class="node"><title>check</title>
<polygon fill="cyan" stroke="black" points="280,-518 226,-518 226,-482 280,-482 280,-518"/>
<text text-anchor="middle" x="253" y="-496.3" font-family="Times,serif" font-size="14.00">check</text>
</g>
<!-- test&#45;&gt;check -->
<g id="edge14" class="edge"><title>test&#45;&gt;check</title>
<path fill="none" stroke="black" d="M74.082,-553.983C79.1252,-550.911 84.581,-548.041 90,-546 145.528,-525.086 167.689,-549.898 222,-526 223.566,-525.311 225.119,-524.521 226.647,-523.657"/>
<polygon fill="black" stroke="black" points="228.653,-526.527 235.039,-518.073 224.775,-520.699 228.653,-526.527"/>
</g>
<!-- jacocoTestReport -->
<g id="node26" class="node"><title>jacocoTestReport</title>
<polygon fill="orange" stroke="black" points="128,-518 16,-518 16,-482 128,-482 128,-518"/>
<text text-anchor="middle" x="72" y="-496.3" font-family="Times,serif" font-size="14.00">jacocoTestReport</text>
</g>
<!-- test&#45;&gt;jacocoTestReport -->
<g id="edge32" class="edge"><title>test&#45;&gt;jacocoTestReport</title>
<path fill="none" stroke="black" d="M56.191,-553.697C58.5306,-545.898 61.3474,-536.509 63.9513,-527.829"/>
<polygon fill="black" stroke="black" points="67.3475,-528.688 66.8687,-518.104 60.6428,-526.677 67.3475,-528.688"/>
</g>
<!-- assemble&#45;&gt;check -->
<g id="edge13" class="edge"><title>assemble&#45;&gt;check</title>
<path fill="none" stroke="black" d="M378.966,-644.848C370.531,-632.779 357.998,-616.898 344,-606 337.411,-600.87 332.36,-604.403 327,-598 311.637,-579.648 326.418,-565.819 313,-546 306.629,-536.589 297.627,-528.365 288.53,-521.611"/>
<polygon fill="black" stroke="black" points="290.429,-518.669 280.221,-515.831 286.431,-524.415 290.429,-518.669"/>
</g>
<!-- release -->
<g id="node13" class="node"><title>release</title>
<polygon fill="cyan" stroke="black" points="542,-590 488,-590 488,-554 542,-554 542,-590"/>
<text text-anchor="middle" x="515" y="-568.3" font-family="Times,serif" font-size="14.00">release</text>
</g>
<!-- assemble&#45;&gt;release -->
<g id="edge23" class="edge"><title>assemble&#45;&gt;release</title>
<path fill="none" stroke="black" d="M399.014,-644.781C406.48,-632.189 418.24,-615.68 433,-606 445.259,-597.96 451.251,-603.086 465,-598 469.54,-596.321 474.208,-594.347 478.784,-592.257"/>
<polygon fill="black" stroke="black" points="480.461,-595.334 487.972,-587.861 477.44,-589.019 480.461,-595.334"/>
</g>
<!-- exportX -->
<g id="node15" class="node"><title>exportX</title>
<polygon fill="cyan" stroke="black" points="440.25,-590 343.75,-590 339.75,-586 339.75,-554 436.25,-554 440.25,-558 440.25,-590"/>
<polyline fill="none" stroke="black" points="436.25,-586 339.75,-586 "/>
<polyline fill="none" stroke="black" points="436.25,-586 436.25,-554 "/>
<polyline fill="none" stroke="black" points="436.25,-586 440.25,-590 "/>
<text text-anchor="middle" x="390" y="-568.3" font-family="Times,serif" font-size="14.00">export.&lt;name&gt;</text>
</g>
<!-- assemble&#45;&gt;exportX -->
<g id="edge24" class="edge"><title>assemble&#45;&gt;exportX</title>
<path fill="none" stroke="black" d="M390,-644.84C390,-632.281 390,-614.979 390,-600.502"/>
<polygon fill="black" stroke="black" points="393.5,-600.107 390,-590.107 386.5,-600.107 393.5,-600.107"/>
</g>
<!-- build -->
<g id="node17" class="node"><title>build</title>
<polygon fill="lightcyan" stroke="black" points="453,-446 399,-446 399,-410 453,-410 453,-446"/>
<text text-anchor="middle" x="426" y="-424.3" font-family="Times,serif" font-size="14.00">build</text>
</g>
<!-- assemble&#45;&gt;build -->
<g id="edge12" class="edge"><title>assemble&#45;&gt;build</title>
<path fill="none" stroke="black" d="M399.732,-644.828C407.412,-632.59 419.125,-616.509 433,-606 440.632,-600.22 447.633,-605.928 453,-598 468.448,-575.182 460.356,-500.556 453,-474 451.212,-467.546 448.226,-461.089 444.876,-455.162"/>
<polygon fill="black" stroke="black" points="447.67,-453.026 439.433,-446.362 441.716,-456.708 447.67,-453.026"/>
</g>
<!-- findbugsMain -->
<g id="node20" class="node"><title>findbugsMain</title>
<polygon fill="orange" stroke="black" points="300.25,-590 207.75,-590 207.75,-554 300.25,-554 300.25,-590"/>
<text text-anchor="middle" x="254" y="-568.3" font-family="Times,serif" font-size="14.00">findbugsMain</text>
</g>
<!-- assemble&#45;&gt;findbugsMain -->
<g id="edge28" class="edge"><title>assemble&#45;&gt;findbugsMain</title>
<path fill="none" stroke="black" d="M380.014,-644.89C371.848,-632.355 359.193,-615.87 344,-606 332.788,-598.716 327.653,-602.321 315,-598 311.209,-596.705 307.315,-595.298 303.416,-593.832"/>
<polygon fill="black" stroke="black" points="304.36,-590.444 293.771,-590.099 301.834,-596.973 304.36,-590.444"/>
</g>
<!-- checkNeeded -->
<g id="node12" class="node"><title>checkNeeded</title>
<polygon fill="cyan" stroke="black" points="296.25,-446 207.75,-446 207.75,-410 296.25,-410 296.25,-446"/>
<text text-anchor="middle" x="252" y="-424.3" font-family="Times,serif" font-size="14.00">checkNeeded</text>
</g>
<!-- check&#45;&gt;checkNeeded -->
<g id="edge15" class="edge"><title>check&#45;&gt;checkNeeded</title>
<path fill="none" stroke="black" d="M252.753,-481.697C252.643,-473.983 252.51,-464.712 252.387,-456.112"/>
<polygon fill="black" stroke="black" points="255.887,-456.053 252.244,-446.104 248.888,-456.153 255.887,-456.053"/>
</g>
<!-- check&#45;&gt;build -->
<g id="edge17" class="edge"><title>check&#45;&gt;build</title>
<path fill="none" stroke="black" d="M280.031,-488.062C309.399,-476.18 356.493,-457.124 389.215,-443.884"/>
<polygon fill="black" stroke="black" points="390.917,-446.971 398.874,-439.976 388.291,-440.482 390.917,-446.971"/>
</g>
<!-- checkNeeded&#45;&gt;checkNeeded -->
<g id="edge16" class="edge"><title>checkNeeded&#45;&gt;checkNeeded</title>
<path fill="none" stroke="red" d="M296.306,-441.203C306.507,-440.065 314,-435.664 314,-428 314,-423.09 310.925,-419.52 306.032,-417.288"/>
<polygon fill="red" stroke="red" points="306.862,-413.888 296.306,-414.797 305.125,-420.669 306.862,-413.888"/>
</g>
<!-- releaseNeeded -->
<g id="node14" class="node"><title>releaseNeeded</title>
<polygon fill="cyan" stroke="black" points="572.25,-518 477.75,-518 477.75,-482 572.25,-482 572.25,-518"/>
<text text-anchor="middle" x="525" y="-496.3" font-family="Times,serif" font-size="14.00">releaseNeeded</text>
</g>
<!-- release&#45;&gt;releaseNeeded -->
<g id="edge26" class="edge"><title>release&#45;&gt;releaseNeeded</title>
<path fill="none" stroke="black" d="M517.472,-553.697C518.574,-545.983 519.898,-536.712 521.127,-528.112"/>
<polygon fill="black" stroke="black" points="524.607,-528.499 522.557,-518.104 517.677,-527.509 524.607,-528.499"/>
</g>
<!-- releaseNeeded&#45;&gt;releaseNeeded -->
<g id="edge27" class="edge"><title>releaseNeeded&#45;&gt;releaseNeeded</title>
<path fill="none" stroke="red" d="M572.326,-513.101C582.571,-511.82 590,-507.453 590,-500 590,-495.225 586.951,-491.717 582.066,-489.476"/>
<polygon fill="red" stroke="red" points="582.889,-486.073 572.326,-486.899 581.098,-492.84 582.889,-486.073"/>
</g>
<!-- export -->
<g id="node16" class="node"><title>export</title>
<polygon fill="cyan" stroke="black" points="417,-518 363,-518 363,-482 417,-482 417,-518"/>
<text text-anchor="middle" x="390" y="-496.3" font-family="Times,serif" font-size="14.00">export</text>
</g>
<!-- exportX&#45;&gt;export -->
<g id="edge25" class="edge"><title>exportX&#45;&gt;export</title>
<path fill="none" stroke="black" d="M390,-553.697C390,-545.983 390,-536.712 390,-528.112"/>
<polygon fill="black" stroke="black" points="393.5,-528.104 390,-518.104 386.5,-528.104 393.5,-528.104"/>
</g>
<!-- buildDependents -->
<g id="node18" class="node"><title>buildDependents</title>
<polygon fill="lightcyan" stroke="black" points="449,-374 341,-374 341,-338 449,-338 449,-374"/>
<text text-anchor="middle" x="395" y="-352.3" font-family="Times,serif" font-size="14.00">buildDependents</text>
</g>
<!-- build&#45;&gt;buildDependents -->
<g id="edge18" class="edge"><title>build&#45;&gt;buildDependents</title>
<path fill="none" stroke="black" d="M418.337,-409.697C414.808,-401.728 410.544,-392.1 406.631,-383.264"/>
<polygon fill="black" stroke="black" points="409.824,-381.831 402.575,-374.104 403.424,-384.665 409.824,-381.831"/>
</g>
<!-- buildNeeded -->
<g id="node19" class="node"><title>buildNeeded</title>
<polygon fill="lightcyan" stroke="black" points="571,-374 485,-374 485,-338 571,-338 571,-374"/>
<text text-anchor="middle" x="528" y="-352.3" font-family="Times,serif" font-size="14.00">buildNeeded</text>
</g>
<!-- build&#45;&gt;buildNeeded -->
<g id="edge20" class="edge"><title>build&#45;&gt;buildNeeded</title>
<path fill="none" stroke="black" d="M450.952,-409.876C464.042,-400.893 480.26,-389.763 494.436,-380.034"/>
<polygon fill="black" stroke="black" points="496.687,-382.734 502.952,-374.19 492.726,-376.962 496.687,-382.734"/>
</g>
<!-- buildDependents&#45;&gt;buildDependents -->
<g id="edge19" class="edge"><title>buildDependents&#45;&gt;buildDependents</title>
<path fill="none" stroke="yellow" d="M449.007,-368.899C459.529,-367.401 467,-363.102 467,-356 467,-351.451 463.934,-348.051 458.964,-345.801"/>
<polygon fill="yellow" stroke="yellow" points="459.575,-342.341 449.007,-343.101 457.742,-349.097 459.575,-342.341"/>
</g>
<!-- buildNeeded&#45;&gt;buildNeeded -->
<g id="edge21" class="edge"><title>buildNeeded&#45;&gt;buildNeeded</title>
<path fill="none" stroke="red" d="M571.036,-369.262C581.355,-368.225 589,-363.805 589,-356 589,-351 585.862,-347.389 580.894,-345.167"/>
<polygon fill="red" stroke="red" points="581.583,-341.732 571.036,-342.738 579.909,-348.529 581.583,-341.732"/>
</g>
<!-- findbugsMain&#45;&gt;check -->
<g id="edge30" class="edge"><title>findbugsMain&#45;&gt;check</title>
<path fill="none" stroke="green" d="M253.753,-553.697C253.643,-545.983 253.51,-536.712 253.387,-528.112"/>
<polygon fill="green" stroke="green" points="256.887,-528.053 253.244,-518.104 249.888,-528.153 256.887,-528.053"/>
</g>
<!-- findbugsTest&#45;&gt;check -->
<g id="edge31" class="edge"><title>findbugsTest&#45;&gt;check</title>
<path fill="none" stroke="green" d="M177.323,-553.81C191.288,-545.804 207.764,-535.878 222,-526 222.77,-525.465 223.546,-524.917 224.325,-524.359"/>
<polygon fill="green" stroke="green" points="226.755,-526.91 232.642,-518.101 222.547,-521.316 226.755,-526.91"/>
</g>
<!-- clean -->
<g id="node23" class="node"><title>clean</title>
<polygon fill="cyan" stroke="black" points="599,-916 545,-916 545,-880 599,-880 599,-916"/>
<text text-anchor="middle" x="572" y="-894.3" font-family="Times,serif" font-size="14.00">clean</text>
</g>
<!-- cleanAll -->
<g id="node30" class="node"><title>cleanAll</title>
<polygon fill="orange" stroke="black" points="997,-825 943,-825 943,-789 997,-789 997,-825"/>
<text text-anchor="middle" x="970" y="-803.3" font-family="Times,serif" font-size="14.00">clean</text>
</g>
<!-- clean&#45;&gt;cleanAll -->
<g id="edge33" class="edge"><title>clean&#45;&gt;cleanAll</title>
<path fill="none" stroke="blue" d="M599.043,-890.953C668.532,-875.414 853.432,-834.067 932.877,-816.301"/>
<polygon fill="blue" stroke="blue" points="933.924,-819.654 942.92,-814.056 932.397,-812.822 933.924,-819.654"/>
</g>
<!-- echo -->
<g id="node24" class="node"><title>echo</title>
<polygon fill="cyan" stroke="black" points="252,-916 198,-916 198,-880 252,-880 252,-916"/>
<text text-anchor="middle" x="225" y="-894.3" font-family="Times,serif" font-size="14.00">echo</text>
</g>
<!-- bndproperties -->
<g id="node25" class="node"><title>bndproperties</title>
<polygon fill="cyan" stroke="black" points="138.25,-916 47.75,-916 47.75,-880 138.25,-880 138.25,-916"/>
<text text-anchor="middle" x="93" y="-894.3" font-family="Times,serif" font-size="14.00">bndproperties</text>
</g>
<!-- init -->
<g id="node27" class="node"><title>init</title>
<polygon fill="lightcyan" stroke="black" points="979,-916 925,-916 925,-880 979,-880 979,-916"/>
<text text-anchor="middle" x="952" y="-894.3" font-family="Times,serif" font-size="14.00">init</text>
</g>
<!-- wrapper -->
<g id="node28" class="node"><title>wrapper</title>
<polygon fill="orange" stroke="black" points="906.25,-916 845.75,-916 845.75,-880 906.25,-880 906.25,-916"/>
<text text-anchor="middle" x="876" y="-894.3" font-family="Times,serif" font-size="14.00">wrapper</text>
</g>
<!-- index -->
<g id="node29" class="node"><title>index</title>
<polygon fill="orange" stroke="black" points="1193,-825 1139,-825 1139,-789 1193,-789 1193,-825"/>
<text text-anchor="middle" x="1166" y="-803.3" font-family="Times,serif" font-size="14.00">index</text>
</g>
<!-- cleanAllNeeded -->
<g id="node31" class="node"><title>cleanAllNeeded</title>
<polygon fill="orange" stroke="black" points="1013,-753 927,-753 927,-717 1013,-717 1013,-753"/>
<text text-anchor="middle" x="970" y="-731.3" font-family="Times,serif" font-size="14.00">cleanNeeded</text>
</g>
<!-- cleanAll&#45;&gt;cleanAllNeeded -->
<g id="edge34" class="edge"><title>cleanAll&#45;&gt;cleanAllNeeded</title>
<path fill="none" stroke="blue" d="M970,-788.697C970,-780.983 970,-771.712 970,-763.112"/>
<polygon fill="blue" stroke="blue" points="973.5,-763.104 970,-753.104 966.5,-763.104 973.5,-763.104"/>
</g>
<!-- distclean -->
<g id="node32" class="node"><title>distclean</title>
<polygon fill="orange" stroke="black" points="1114.25,-753 1049.75,-753 1049.75,-717 1114.25,-717 1114.25,-753"/>
<text text-anchor="middle" x="1082" y="-731.3" font-family="Times,serif" font-size="14.00">distclean</text>
</g>
<!-- cleanAll&#45;&gt;distclean -->
<g id="edge36" class="edge"><title>cleanAll&#45;&gt;distclean</title>
<path fill="none" stroke="blue" d="M997.112,-789.055C1011.86,-779.837 1030.29,-768.319 1046.21,-758.371"/>
<polygon fill="blue" stroke="blue" points="1048.12,-761.3 1054.75,-753.032 1044.41,-755.364 1048.12,-761.3"/>
</g>
<!-- cleanAllNeeded&#45;&gt;cleanAllNeeded -->
<g id="edge35" class="edge"><title>cleanAllNeeded&#45;&gt;cleanAllNeeded</title>
<path fill="none" stroke="red" d="M1013.04,-748.262C1023.35,-747.225 1031,-742.805 1031,-735 1031,-730 1027.86,-726.389 1022.89,-724.167"/>
<polygon fill="red" stroke="red" points="1023.58,-720.732 1013.04,-721.738 1021.91,-727.529 1023.58,-720.732"/>
</g>
<!-- distcleanNeeded -->
<g id="node33" class="node"><title>distcleanNeeded</title>
<polygon fill="orange" stroke="black" points="1097,-681 991,-681 991,-645 1097,-645 1097,-681"/>
<text text-anchor="middle" x="1044" y="-659.3" font-family="Times,serif" font-size="14.00">distcleanNeeded</text>
</g>
<!-- distclean&#45;&gt;distcleanNeeded -->
<g id="edge37" class="edge"><title>distclean&#45;&gt;distcleanNeeded</title>
<path fill="none" stroke="black" d="M1072.61,-716.697C1068.24,-708.644 1062.94,-698.894 1058.1,-689.982"/>
<polygon fill="black" stroke="black" points="1061.13,-688.223 1053.29,-681.104 1054.98,-691.563 1061.13,-688.223"/>
</g>
<!-- distcleanNeeded&#45;&gt;distcleanNeeded -->
<g id="edge38" class="edge"><title>distcleanNeeded&#45;&gt;distcleanNeeded</title>
<path fill="none" stroke="red" d="M1097.26,-675.899C1107.63,-674.401 1115,-670.102 1115,-663 1115,-658.451 1111.98,-655.051 1107.08,-652.801"/>
<polygon fill="red" stroke="red" points="1107.83,-649.378 1097.26,-650.101 1105.97,-656.128 1107.83,-649.378"/>
</g>
<!-- p2FeaturesTree -->
<g id="node35" class="node"><title>p2FeaturesTree</title>
<polygon fill="none" stroke="black" points="745.25,-590 644.75,-590 644.75,-554 745.25,-554 745.25,-590"/>
<text text-anchor="middle" x="695" y="-568.3" font-family="Times,serif" font-size="14.00">p2FeaturesTree</text>
</g>
<!-- p2Entry&#45;&gt;p2FeaturesTree -->
<g id="edge40" class="edge"><title>p2Entry&#45;&gt;p2FeaturesTree</title>
<path fill="none" stroke="black" d="M695,-644.84C695,-632.281 695,-614.979 695,-600.502"/>
<polygon fill="black" stroke="black" points="698.5,-600.107 695,-590.107 691.5,-600.107 698.5,-600.107"/>
</g>
<!-- p2PluginsPelagic -->
<g id="node38" class="node"><title>p2PluginsPelagic</title>
<polygon fill="none" stroke="black" points="895,-518 785,-518 785,-482 895,-482 895,-518"/>
<text text-anchor="middle" x="840" y="-496.3" font-family="Times,serif" font-size="14.00">p2PluginsPelagic</text>
</g>
<!-- p2Entry&#45;&gt;p2PluginsPelagic -->
<g id="edge43" class="edge"><title>p2Entry&#45;&gt;p2PluginsPelagic</title>
<path fill="none" stroke="black" d="M710.867,-644.969C722.796,-632.121 739.507,-614.03 754,-598 776.021,-573.643 800.875,-545.543 818.18,-525.877"/>
<polygon fill="black" stroke="black" points="820.902,-528.082 824.876,-518.261 815.645,-523.461 820.902,-528.082"/>
</g>
<!-- p2FeatureGradlePlugin -->
<g id="node36" class="node"><title>p2FeatureGradlePlugin</title>
<polygon fill="none" stroke="black" points="766.25,-518 623.75,-518 623.75,-482 766.25,-482 766.25,-518"/>
<text text-anchor="middle" x="695" y="-496.3" font-family="Times,serif" font-size="14.00">p2FeatureGradlePlugin</text>
</g>
<!-- p2FeaturesTree&#45;&gt;p2FeatureGradlePlugin -->
<g id="edge41" class="edge"><title>p2FeaturesTree&#45;&gt;p2FeatureGradlePlugin</title>
<path fill="none" stroke="black" d="M695,-553.697C695,-545.983 695,-536.712 695,-528.112"/>
<polygon fill="black" stroke="black" points="698.5,-528.104 695,-518.104 691.5,-528.104 698.5,-528.104"/>
</g>
<!-- p2Features -->
<g id="node37" class="node"><title>p2Features</title>
<polygon fill="none" stroke="black" points="746,-446 670,-446 670,-410 746,-410 746,-446"/>
<text text-anchor="middle" x="708" y="-424.3" font-family="Times,serif" font-size="14.00">p2Features</text>
</g>
<!-- p2FeatureGradlePlugin&#45;&gt;p2Features -->
<g id="edge42" class="edge"><title>p2FeatureGradlePlugin&#45;&gt;p2Features</title>
<path fill="none" stroke="black" d="M698.213,-481.697C699.646,-473.983 701.368,-464.712 702.965,-456.112"/>
<polygon fill="black" stroke="black" points="706.439,-456.575 704.823,-446.104 699.556,-455.297 706.439,-456.575"/>
</g>
<!-- p2 -->
<g id="node40" class="node"><title>p2</title>
<polygon fill="yellow" stroke="black" points="770,-374 716,-374 716,-338 770,-338 770,-374"/>
<text text-anchor="middle" x="743" y="-352.3" font-family="Times,serif" font-size="14.00">p2</text>
</g>
<!-- p2Features&#45;&gt;p2 -->
<g id="edge45" class="edge"><title>p2Features&#45;&gt;p2</title>
<path fill="none" stroke="black" d="M716.652,-409.697C720.636,-401.728 725.45,-392.1 729.868,-383.264"/>
<polygon fill="black" stroke="black" points="733.106,-384.614 734.448,-374.104 726.845,-381.483 733.106,-384.614"/>
</g>
<!-- p2Plugins -->
<g id="node39" class="node"><title>p2Plugins</title>
<polygon fill="none" stroke="black" points="861.25,-446 790.75,-446 790.75,-410 861.25,-410 861.25,-446"/>
<text text-anchor="middle" x="826" y="-424.3" font-family="Times,serif" font-size="14.00">p2Plugins</text>
</g>
<!-- p2PluginsPelagic&#45;&gt;p2Plugins -->
<g id="edge44" class="edge"><title>p2PluginsPelagic&#45;&gt;p2Plugins</title>
<path fill="none" stroke="black" d="M836.539,-481.697C834.997,-473.983 833.142,-464.712 831.422,-456.112"/>
<polygon fill="black" stroke="black" points="834.814,-455.224 829.421,-446.104 827.95,-456.597 834.814,-455.224"/>
</g>
<!-- p2Plugins&#45;&gt;p2 -->
<g id="edge46" class="edge"><title>p2Plugins&#45;&gt;p2</title>
<path fill="none" stroke="black" d="M805.483,-409.697C795.131,-400.965 782.414,-390.24 771.161,-380.75"/>
<polygon fill="black" stroke="black" points="773.182,-377.876 763.281,-374.104 768.669,-383.227 773.182,-377.876"/>
</g>
<!-- indexBuild -->
<g id="node41" class="node"><title>indexBuild</title>
<polygon fill="yellow" stroke="black" points="770,-291 716,-291 716,-255 770,-255 770,-291"/>
<text text-anchor="middle" x="743" y="-269.3" font-family="Times,serif" font-size="14.00">index</text>
</g>
<!-- p2&#45;&gt;indexBuild -->
<g id="edge47" class="edge"><title>p2&#45;&gt;indexBuild</title>
<path fill="none" stroke="black" d="M743,-337.822C743,-327.19 743,-313.306 743,-301.204"/>
<polygon fill="black" stroke="black" points="746.5,-301.153 743,-291.153 739.5,-301.153 746.5,-301.153"/>
</g>
<!-- distCompositePelagic -->
<g id="node42" class="node"><title>distCompositePelagic</title>
<polygon fill="none" stroke="black" points="784.25,-219 649.75,-219 649.75,-183 784.25,-183 784.25,-219"/>
<text text-anchor="middle" x="717" y="-197.3" font-family="Times,serif" font-size="14.00">distCompositePelagic</text>
</g>
<!-- indexBuild&#45;&gt;distCompositePelagic -->
<g id="edge48" class="edge"><title>indexBuild&#45;&gt;distCompositePelagic</title>
<path fill="none" stroke="black" d="M736.573,-254.697C733.645,-246.813 730.113,-237.304 726.86,-228.546"/>
<polygon fill="black" stroke="black" points="730.116,-227.26 723.353,-219.104 723.554,-229.697 730.116,-227.26"/>
</g>
<!-- distZipPelagic -->
<g id="node43" class="node"><title>distZipPelagic</title>
<polygon fill="none" stroke="black" points="807.25,-147 712.75,-147 712.75,-111 807.25,-111 807.25,-147"/>
<text text-anchor="middle" x="760" y="-125.3" font-family="Times,serif" font-size="14.00">distZipPelagic</text>
</g>
<!-- indexBuild&#45;&gt;distZipPelagic -->
<g id="edge49" class="edge"><title>indexBuild&#45;&gt;distZipPelagic</title>
<path fill="none" stroke="black" d="M765.596,-254.963C776.059,-245.635 787.396,-233.107 793,-219 798.907,-204.13 797.398,-198.384 793,-183 790.287,-173.51 785.328,-164.065 780.065,-155.834"/>
<polygon fill="black" stroke="black" points="782.858,-153.717 774.327,-147.434 777.078,-157.666 782.858,-153.717"/>
</g>
<!-- distCompositePelagic&#45;&gt;distZipPelagic -->
<g id="edge50" class="edge"><title>distCompositePelagic&#45;&gt;distZipPelagic</title>
<path fill="none" stroke="black" d="M727.629,-182.697C732.628,-174.559 738.691,-164.689 744.212,-155.701"/>
<polygon fill="black" stroke="black" points="747.241,-157.457 749.493,-147.104 741.277,-153.793 747.241,-157.457"/>
</g>
<!-- dist -->
<g id="node44" class="node"><title>dist</title>
<polygon fill="yellow" stroke="black" points="787,-75 733,-75 733,-39 787,-39 787,-75"/>
<text text-anchor="middle" x="760" y="-53.3" font-family="Times,serif" font-size="14.00">dist</text>
</g>
<!-- distZipPelagic&#45;&gt;dist -->
<g id="edge51" class="edge"><title>distZipPelagic&#45;&gt;dist</title>
<path fill="none" stroke="black" d="M760,-110.697C760,-102.983 760,-93.7125 760,-85.1124"/>
<polygon fill="black" stroke="black" points="763.5,-85.1043 760,-75.1043 756.5,-85.1044 763.5,-85.1043"/>
</g>
</g>
</svg>
