<?xml version="1.0" encoding="UTF-8" standalone="no"?>
<!DOCTYPE svg PUBLIC "-//W3C//DTD SVG 1.1//EN"
 "http://www.w3.org/Graphics/SVG/1.1/DTD/svg11.dtd">
<!-- Generated by graphviz version 2.34.0 (20140110.0949)
 -->
<!-- Title: GradleSetup Pages: 1 -->
<svg width="1928pt" height="1005pt"
 viewBox="0.00 0.00 1928.00 1005.00" xmlns="http://www.w3.org/2000/svg" xmlns:xlink="http://www.w3.org/1999/xlink">
<g id="graph0" class="graph" transform="scale(1 1) rotate(0) translate(4 1001)">
<title>GradleSetup</title>
<polygon fill="white" stroke="white" points="-4,4 -4,-1001 1924,-1001 1924,4 -4,4"/>
<text text-anchor="middle" x="61" y="-981.8" font-family="Times,serif" font-size="14.00">Gradle Build Setup</text>
<g id="clust1" class="cluster"><title>cluster1</title>
<polygon fill="lightgrey" stroke="black" points="824,-371 824,-966 1513,-966 1513,-371 824,-371"/>
<text text-anchor="middle" x="864" y="-378.8" font-family="Times,serif" font-size="14.00">Java Plugin</text>
</g>
<g id="clust2" class="cluster"><title>cluster11</title>
</g>
<g id="clust3" class="cluster"><title>cluster12</title>
</g>
<g id="clust4" class="cluster"><title>cluster13</title>
</g>
<g id="clust5" class="cluster"><title>cluster2</title>
<polygon fill="lightgrey" stroke="black" points="308,-518 308,-875 816,-875 816,-518 308,-518"/>
<text text-anchor="middle" x="351" y="-525.8" font-family="Times,serif" font-size="14.00">Bnd Projects</text>
</g>
<g id="clust6" class="cluster"><title>cluster21</title>
</g>
<g id="clust7" class="cluster"><title>cluster22</title>
</g>
<g id="clust8" class="cluster"><title>cluster23</title>
</g>
<g id="clust9" class="cluster"><title>cluster100</title>
<polygon fill="lightgrey" stroke="black" points="395,-792 395,-867 521,-867 521,-792 395,-792"/>
<text text-anchor="middle" x="457.5" y="-851.8" font-family="Times,serif" font-size="14.00">Class Cycle Checks</text>
</g>
<g id="clust10" class="cluster"><title>cluster3</title>
<polygon fill="lightgrey" stroke="black" points="1521,-883 1521,-958 1606,-958 1606,-883 1521,-883"/>
<text text-anchor="middle" x="1563.5" y="-890.8" font-family="Times,serif" font-size="14.00">Root Project</text>
</g>
<g id="clust11" class="cluster"><title>cluster4</title>
<polygon fill="lightgrey" stroke="black" points="1521,-518 1521,-681 1881,-681 1881,-518 1521,-518"/>
<text text-anchor="middle" x="1565" y="-525.8" font-family="Times,serif" font-size="14.00">Java Projects</text>
</g>
<g id="clust12" class="cluster"><title>cluster41</title>
</g>
<g id="clust13" class="cluster"><title>cluster42</title>
</g>
<g id="clust14" class="cluster"><title>cluster5</title>
<polygon fill="lightgrey" stroke="black" points="1614,-689 1614,-966 1912,-966 1912,-689 1614,-689"/>
<text text-anchor="middle" x="1654.5" y="-696.8" font-family="Times,serif" font-size="14.00">All Projects</text>
</g>
<g id="clust15" class="cluster"><title>cluster21</title>
</g>
<g id="clust16" class="cluster"><title>cluster22</title>
</g>
<g id="clust17" class="cluster"><title>cluster7</title>
<polygon fill="lightgrey" stroke="black" points="8,-8 8,-673 300,-673 300,-8 8,-8"/>
<text text-anchor="middle" x="52.5" y="-15.8" font-family="Times,serif" font-size="14.00">Build Project</text>
</g>
<!-- compileJava -->
<g id="node1" class="node"><title>compileJava</title>
<polygon fill="lightcyan" stroke="black" points="989.25,-950 904.75,-950 904.75,-914 989.25,-914 989.25,-950"/>
<text text-anchor="middle" x="947" y="-928.3" font-family="Times,serif" font-size="14.00">compileJava</text>
</g>
<!-- classes -->
<g id="node3" class="node"><title>classes</title>
<polygon fill="lightcyan" stroke="black" points="1109,-836 1055,-836 1055,-800 1109,-800 1109,-836"/>
<text text-anchor="middle" x="1082" y="-814.3" font-family="Times,serif" font-size="14.00">classes</text>
</g>
<!-- compileJava&#45;&gt;classes -->
<g id="edge1" class="edge"><title>compileJava&#45;&gt;classes</title>
<path fill="none" stroke="black" d="M964.521,-913.651C974.173,-904.315 986.498,-892.749 998,-883 1014.64,-868.897 1033.95,-854.08 1049.86,-842.259"/>
<polygon fill="black" stroke="black" points="1052.35,-844.777 1058.31,-836.023 1048.19,-839.144 1052.35,-844.777"/>
</g>
<!-- processResources -->
<g id="node2" class="node"><title>processResources</title>
<polygon fill="lightcyan" stroke="black" points="1120.25,-950 1007.75,-950 1007.75,-914 1120.25,-914 1120.25,-950"/>
<text text-anchor="middle" x="1064" y="-928.3" font-family="Times,serif" font-size="14.00">processResources</text>
</g>
<!-- processResources&#45;&gt;classes -->
<g id="edge2" class="edge"><title>processResources&#45;&gt;classes</title>
<path fill="none" stroke="black" d="M1066.73,-913.99C1069.63,-895.981 1074.24,-867.293 1077.64,-846.152"/>
<polygon fill="black" stroke="black" points="1081.11,-846.599 1079.24,-836.17 1074.2,-845.488 1081.11,-846.599"/>
</g>
<!-- jar -->
<g id="node4" class="node"><title>jar</title>
<polygon fill="lightcyan" stroke="black" points="1097,-764 1043,-764 1043,-728 1097,-728 1097,-764"/>
<text text-anchor="middle" x="1070" y="-742.3" font-family="Times,serif" font-size="14.00">jar</text>
</g>
<!-- classes&#45;&gt;jar -->
<g id="edge6" class="edge"><title>classes&#45;&gt;jar</title>
<path fill="none" stroke="black" d="M1079.03,-799.697C1077.71,-791.983 1076.12,-782.712 1074.65,-774.112"/>
<polygon fill="black" stroke="black" points="1078.07,-773.369 1072.93,-764.104 1071.17,-774.552 1078.07,-773.369"/>
</g>
<!-- compileTestJava -->
<g id="node5" class="node"><title>compileTestJava</title>
<polygon fill="lightcyan" stroke="black" points="1407,-764 1299,-764 1299,-728 1407,-728 1407,-764"/>
<text text-anchor="middle" x="1353" y="-742.3" font-family="Times,serif" font-size="14.00">compileTestJava</text>
</g>
<!-- classes&#45;&gt;compileTestJava -->
<g id="edge5" class="edge"><title>classes&#45;&gt;compileTestJava</title>
<path fill="none" stroke="black" d="M1109.29,-812.576C1149.39,-805.743 1226.38,-791.362 1290,-772 1294.36,-770.673 1298.84,-769.175 1303.31,-767.589"/>
<polygon fill="black" stroke="black" points="1304.85,-770.752 1313.02,-764.006 1302.43,-764.185 1304.85,-770.752"/>
</g>
<!-- test -->
<g id="node8" class="node"><title>test</title>
<polygon fill="lightcyan" stroke="black" points="1397,-593 1343,-593 1343,-557 1397,-557 1397,-593"/>
<text text-anchor="middle" x="1370" y="-571.3" font-family="Times,serif" font-size="14.00">test</text>
</g>
<!-- classes&#45;&gt;test -->
<g id="edge4" class="edge"><title>classes&#45;&gt;test</title>
<path fill="none" stroke="black" d="M1109.12,-817.687C1181.43,-818.881 1376.04,-817.7 1416,-772 1438.12,-746.703 1421.37,-651.829 1408,-621 1404.92,-613.905 1400.35,-607.075 1395.43,-600.973"/>
<polygon fill="black" stroke="black" points="1397.82,-598.39 1388.61,-593.145 1392.54,-602.986 1397.82,-598.39"/>
</g>
<!-- javadoc -->
<g id="node13" class="node"><title>javadoc</title>
<polygon fill="lightcyan" stroke="black" points="1504.25,-764 1445.75,-764 1445.75,-728 1504.25,-728 1504.25,-764"/>
<text text-anchor="middle" x="1475" y="-742.3" font-family="Times,serif" font-size="14.00">javadoc</text>
</g>
<!-- classes&#45;&gt;javadoc -->
<g id="edge3" class="edge"><title>classes&#45;&gt;javadoc</title>
<path fill="none" stroke="black" d="M1109.05,-817.031C1168.76,-816.348 1315.69,-810.527 1431,-772 1433.91,-771.029 1436.84,-769.859 1439.73,-768.561"/>
<polygon fill="black" stroke="black" points="1441.38,-771.651 1448.78,-764.073 1438.27,-765.38 1441.38,-771.651"/>
</g>
<!-- bundle -->
<g id="node15" class="node"><title>bundle</title>
<polygon fill="cyan" stroke="black" points="402,-764 348,-764 348,-728 402,-728 402,-764"/>
<text text-anchor="middle" x="375" y="-742.3" font-family="Times,serif" font-size="14.00">bundle</text>
</g>
<!-- classes&#45;&gt;bundle -->
<g id="edge17" class="edge"><title>classes&#45;&gt;bundle</title>
<path fill="none" stroke="black" d="M1054.72,-814.299C945.358,-803.471 538.561,-763.194 412.494,-750.712"/>
<polygon fill="black" stroke="black" points="412.497,-747.196 402.201,-749.693 411.807,-754.161 412.497,-747.196"/>
</g>
<!-- checkClassCycle -->
<g id="node22" class="node"><title>checkClassCycle</title>
<polygon fill="cyan" stroke="black" points="512.25,-836 403.75,-836 403.75,-800 512.25,-800 512.25,-836"/>
<text text-anchor="middle" x="458" y="-814.3" font-family="Times,serif" font-size="14.00">checkClassCycle</text>
</g>
<!-- classes&#45;&gt;checkClassCycle -->
<g id="edge15" class="edge"><title>classes&#45;&gt;checkClassCycle</title>
<path fill="none" stroke="black" d="M1054.75,-818C877.367,-818 699.983,-818 522.6,-818"/>
<polygon fill="black" stroke="black" points="522.539,-814.5 512.539,-818 522.539,-821.5 522.539,-814.5"/>
</g>
<!-- findbugsMain -->
<g id="node27" class="node"><title>findbugsMain</title>
<polygon fill="cyan" stroke="black" points="1752.25,-665 1659.75,-665 1659.75,-629 1752.25,-629 1752.25,-665"/>
<text text-anchor="middle" x="1706" y="-643.3" font-family="Times,serif" font-size="14.00">findbugsMain</text>
</g>
<!-- classes&#45;&gt;findbugsMain -->
<g id="edge27" class="edge"><title>classes&#45;&gt;findbugsMain</title>
<path fill="none" stroke="black" d="M1109.26,-816.226C1192.56,-813.543 1442.65,-803.041 1517,-772 1570.62,-749.616 1565.69,-714.294 1618,-689 1633.15,-681.676 1639.46,-687.453 1655,-681 1661.61,-678.255 1668.3,-674.647 1674.56,-670.826"/>
<polygon fill="black" stroke="black" points="1676.86,-673.508 1683.37,-665.15 1673.07,-667.624 1676.86,-673.508"/>
</g>
<!-- uploadArchives -->
<g id="node10" class="node"><title>uploadArchives</title>
<polygon fill="lightcyan" stroke="black" points="1121,-665 1019,-665 1019,-629 1121,-629 1121,-665"/>
<text text-anchor="middle" x="1070" y="-643.3" font-family="Times,serif" font-size="14.00">uploadArchives</text>
</g>
<!-- jar&#45;&gt;uploadArchives -->
<g id="edge9" class="edge"><title>jar&#45;&gt;uploadArchives</title>
<path fill="none" stroke="black" d="M1070,-727.658C1070,-713.175 1070,-692.263 1070,-675.499"/>
<polygon fill="black" stroke="black" points="1073.5,-675.191 1070,-665.192 1066.5,-675.192 1073.5,-675.191"/>
</g>
<!-- assemble -->
<g id="node11" class="node"><title>assemble</title>
<polygon fill="lightcyan" stroke="black" points="1000.25,-665 933.75,-665 933.75,-629 1000.25,-629 1000.25,-665"/>
<text text-anchor="middle" x="967" y="-643.3" font-family="Times,serif" font-size="14.00">assemble</text>
</g>
<!-- jar&#45;&gt;assemble -->
<g id="edge10" class="edge"><title>jar&#45;&gt;assemble</title>
<path fill="none" stroke="black" d="M1051.59,-727.658C1035.18,-712.209 1011.01,-689.446 992.702,-672.205"/>
<polygon fill="black" stroke="black" points="994.934,-669.499 985.255,-665.192 990.135,-674.595 994.934,-669.499"/>
</g>
<!-- testClasses -->
<g id="node7" class="node"><title>testClasses</title>
<polygon fill="lightcyan" stroke="black" points="1399,-665 1323,-665 1323,-629 1399,-629 1399,-665"/>
<text text-anchor="middle" x="1361" y="-643.3" font-family="Times,serif" font-size="14.00">testClasses</text>
</g>
<!-- compileTestJava&#45;&gt;testClasses -->
<g id="edge7" class="edge"><title>compileTestJava&#45;&gt;testClasses</title>
<path fill="none" stroke="black" d="M1354.43,-727.658C1355.62,-713.175 1357.35,-692.263 1358.73,-675.499"/>
<polygon fill="black" stroke="black" points="1362.25,-675.445 1359.58,-665.192 1355.27,-674.87 1362.25,-675.445"/>
</g>
<!-- processTestResources -->
<g id="node6" class="node"><title>processTestResources</title>
<polygon fill="lightcyan" stroke="black" points="1281,-764 1145,-764 1145,-728 1281,-728 1281,-764"/>
<text text-anchor="middle" x="1213" y="-742.3" font-family="Times,serif" font-size="14.00">processTestResources</text>
</g>
<!-- processTestResources&#45;&gt;testClasses -->
<g id="edge8" class="edge"><title>processTestResources&#45;&gt;testClasses</title>
<path fill="none" stroke="black" d="M1235.14,-727.947C1250.29,-716.509 1271.01,-701.339 1290,-689 1299.88,-682.582 1310.79,-676.028 1321.03,-670.098"/>
<polygon fill="black" stroke="black" points="1322.88,-673.072 1329.82,-665.066 1319.4,-666.998 1322.88,-673.072"/>
</g>
<!-- testClasses&#45;&gt;test -->
<g id="edge11" class="edge"><title>testClasses&#45;&gt;test</title>
<path fill="none" stroke="black" d="M1363.22,-628.697C1364.22,-620.983 1365.41,-611.712 1366.51,-603.112"/>
<polygon fill="black" stroke="black" points="1370,-603.469 1367.8,-593.104 1363.05,-602.576 1370,-603.469"/>
</g>
<!-- findbugsTest -->
<g id="node25" class="node"><title>findbugsTest</title>
<polygon fill="cyan" stroke="black" points="1864.25,-665 1777.75,-665 1777.75,-629 1864.25,-629 1864.25,-665"/>
<text text-anchor="middle" x="1821" y="-643.3" font-family="Times,serif" font-size="14.00">findbugsTest</text>
</g>
<!-- testClasses&#45;&gt;findbugsTest -->
<g id="edge28" class="edge"><title>testClasses&#45;&gt;findbugsTest</title>
<path fill="none" stroke="black" d="M1399.24,-658.404C1432.42,-667.667 1481.9,-679.987 1526,-685 1551.39,-687.886 1731,-690.305 1756,-685 1767.87,-682.481 1779.67,-676.794 1789.9,-670.567"/>
<polygon fill="black" stroke="black" points="1791.97,-673.401 1798.45,-665.022 1788.15,-667.529 1791.97,-673.401"/>
</g>
<!-- check -->
<g id="node9" class="node"><title>check</title>
<polygon fill="lightcyan" stroke="black" points="1397,-510 1343,-510 1343,-474 1397,-474 1397,-510"/>
<text text-anchor="middle" x="1370" y="-488.3" font-family="Times,serif" font-size="14.00">check</text>
</g>
<!-- test&#45;&gt;check -->
<g id="edge13" class="edge"><title>test&#45;&gt;check</title>
<path fill="none" stroke="black" d="M1370,-556.822C1370,-546.19 1370,-532.306 1370,-520.204"/>
<polygon fill="black" stroke="black" points="1373.5,-520.153 1370,-510.153 1366.5,-520.153 1373.5,-520.153"/>
</g>
<!-- jacocoTestReport -->
<g id="node28" class="node"><title>jacocoTestReport</title>
<polygon fill="cyan" stroke="black" points="1641,-665 1529,-665 1529,-629 1641,-629 1641,-665"/>
<text text-anchor="middle" x="1585" y="-643.3" font-family="Times,serif" font-size="14.00">jacocoTestReport</text>
</g>
<!-- test&#45;&gt;jacocoTestReport -->
<g id="edge33" class="edge"><title>test&#45;&gt;jacocoTestReport</title>
<path fill="none" stroke="black" d="M1397.24,-584.869C1428.66,-595.1 1481.34,-612.25 1522.91,-625.785"/>
<polygon fill="black" stroke="black" points="1522.09,-629.198 1532.68,-628.966 1524.25,-622.542 1522.09,-629.198"/>
</g>
<!-- build -->
<g id="node12" class="node"><title>build</title>
<polygon fill="lightcyan" stroke="black" points="1275,-438 1221,-438 1221,-402 1275,-402 1275,-438"/>
<text text-anchor="middle" x="1248" y="-416.3" font-family="Times,serif" font-size="14.00">build</text>
</g>
<!-- check&#45;&gt;build -->
<g id="edge14" class="edge"><title>check&#45;&gt;build</title>
<path fill="none" stroke="black" d="M1350.13,-473.929C1346.53,-471.138 1342.73,-468.384 1339,-466 1321.71,-454.944 1301.32,-444.636 1284.23,-436.683"/>
<polygon fill="black" stroke="black" points="1285.67,-433.49 1275.12,-432.517 1282.76,-439.857 1285.67,-433.49"/>
</g>
<!-- assemble&#45;&gt;build -->
<g id="edge12" class="edge"><title>assemble&#45;&gt;build</title>
<path fill="none" stroke="black" d="M978.556,-628.986C1003.14,-593.958 1064.03,-513.126 1133,-466 1156.85,-449.702 1187.46,-438.093 1211.1,-430.753"/>
<polygon fill="black" stroke="black" points="1212.18,-434.082 1220.76,-427.868 1210.18,-427.375 1212.18,-434.082"/>
</g>
<!-- cleanJava -->
<g id="node14" class="node"><title>cleanJava</title>
<polygon fill="lightcyan" stroke="black" points="886,-950 832,-950 832,-914 886,-914 886,-950"/>
<text text-anchor="middle" x="859" y="-928.3" font-family="Times,serif" font-size="14.00">clean</text>
</g>
<!-- bundle&#45;&gt;compileJava -->
<g id="edge18" class="edge"><title>bundle&#45;&gt;compileJava</title>
<path fill="none" stroke="red" d="M370.979,-764.239C365.595,-792.22 359.99,-847.188 391,-875 412.054,-893.883 874.016,-871.835 900,-883 911.437,-887.914 921.508,-897.075 929.363,-906.086"/>
<polygon fill="red" stroke="red" points="926.652,-908.301 935.674,-913.857 932.086,-903.888 926.652,-908.301"/>
</g>
<!-- bundle&#45;&gt;jar -->
<g id="edge19" class="edge"><title>bundle&#45;&gt;jar</title>
<path fill="none" stroke="black" stroke-dasharray="5,2" d="M402.148,-746C612.406,-746 822.664,-746 1032.92,-746"/>
<polygon fill="black" stroke="black" points="1032.93,-749.5 1042.93,-746 1032.93,-742.5 1032.93,-749.5"/>
</g>
<!-- bundle&#45;&gt;test -->
<g id="edge21" class="edge"><title>bundle&#45;&gt;test</title>
<path fill="none" stroke="black" d="M402.125,-744.364C471.944,-742.024 662.824,-731.15 812,-681 864.416,-663.379 868.196,-637.423 921,-621 997.713,-597.14 1239.7,-582.628 1332.9,-577.8"/>
<polygon fill="black" stroke="black" points="1333.19,-581.29 1343,-577.285 1332.83,-574.299 1333.19,-581.29"/>
</g>
<!-- bundleTest -->
<g id="node16" class="node"><title>bundleTest</title>
<polygon fill="cyan" stroke="black" points="401.25,-665 324.75,-665 324.75,-629 401.25,-629 401.25,-665"/>
<text text-anchor="middle" x="363" y="-643.3" font-family="Times,serif" font-size="14.00">bundleTest</text>
</g>
<!-- bundle&#45;&gt;bundleTest -->
<g id="edge20" class="edge"><title>bundle&#45;&gt;bundleTest</title>
<path fill="none" stroke="black" d="M372.855,-727.658C371.063,-713.175 368.476,-692.263 366.402,-675.499"/>
<polygon fill="black" stroke="black" points="369.828,-674.686 365.127,-665.192 362.881,-675.546 369.828,-674.686"/>
</g>
<!-- release -->
<g id="node17" class="node"><title>release</title>
<polygon fill="cyan" stroke="black" points="490,-665 436,-665 436,-629 490,-629 490,-665"/>
<text text-anchor="middle" x="463" y="-643.3" font-family="Times,serif" font-size="14.00">release</text>
</g>
<!-- bundle&#45;&gt;release -->
<g id="edge22" class="edge"><title>bundle&#45;&gt;release</title>
<path fill="none" stroke="black" d="M390.733,-727.658C404.623,-712.347 425.031,-689.852 440.621,-672.668"/>
<polygon fill="black" stroke="black" points="443.277,-674.95 447.404,-665.192 438.092,-670.246 443.277,-674.95"/>
</g>
<!-- export -->
<g id="node21" class="node"><title>export</title>
<polygon fill="cyan" stroke="black" points="618,-665 564,-665 564,-629 618,-629 618,-665"/>
<text text-anchor="middle" x="591" y="-643.3" font-family="Times,serif" font-size="14.00">export</text>
</g>
<!-- bundle&#45;&gt;export -->
<g id="edge23" class="edge"><title>bundle&#45;&gt;export</title>
<path fill="none" stroke="black" d="M402.082,-738.435C437.968,-729.032 502.506,-709.642 552,-681 556.584,-678.347 561.152,-675.136 565.462,-671.772"/>
<polygon fill="black" stroke="black" points="567.901,-674.296 573.367,-665.219 563.435,-668.906 567.901,-674.296"/>
</g>
<!-- p2Entry -->
<g id="node34" class="node"><title>p2Entry</title>
<polygon fill="none" stroke="black" points="267,-665 207,-665 207,-629 267,-629 267,-665"/>
<text text-anchor="middle" x="237" y="-643.3" font-family="Times,serif" font-size="14.00">p2Entry</text>
</g>
<!-- bundle&#45;&gt;p2Entry -->
<g id="edge39" class="edge"><title>bundle&#45;&gt;p2Entry</title>
<path fill="none" stroke="red" d="M350.646,-727.882C328.22,-712.118 294.767,-688.604 269.957,-671.166"/>
<polygon fill="red" stroke="red" points="271.769,-668.161 261.575,-665.274 267.743,-673.887 271.769,-668.161"/>
</g>
<!-- bundleTest&#45;&gt;check -->
<g id="edge24" class="edge"><title>bundleTest&#45;&gt;check</title>
<path fill="none" stroke="black" d="M364.121,-628.692C367.007,-600.091 377.307,-543.585 414,-518 452.268,-491.317 1160.46,-492.218 1332.55,-492.834"/>
<polygon fill="black" stroke="black" points="1332.63,-496.335 1342.64,-492.872 1332.66,-489.335 1332.63,-496.335"/>
</g>
<!-- releaseNeeded -->
<g id="node18" class="node"><title>releaseNeeded</title>
<polygon fill="cyan" stroke="black" points="521.25,-593 426.75,-593 426.75,-557 521.25,-557 521.25,-593"/>
<text text-anchor="middle" x="474" y="-571.3" font-family="Times,serif" font-size="14.00">releaseNeeded</text>
</g>
<!-- release&#45;&gt;releaseNeeded -->
<g id="edge25" class="edge"><title>release&#45;&gt;releaseNeeded</title>
<path fill="none" stroke="black" d="M465.719,-628.697C466.931,-620.983 468.388,-611.712 469.739,-603.112"/>
<polygon fill="black" stroke="black" points="473.217,-603.526 471.312,-593.104 466.302,-602.44 473.217,-603.526"/>
</g>
<!-- releaseNeeded&#45;&gt;releaseNeeded -->
<g id="edge26" class="edge"><title>releaseNeeded&#45;&gt;releaseNeeded</title>
<path fill="none" stroke="red" d="M521.326,-588.101C531.571,-586.82 539,-582.453 539,-575 539,-570.225 535.951,-566.717 531.066,-564.476"/>
<polygon fill="red" stroke="red" points="531.889,-561.073 521.326,-561.899 530.098,-567.84 531.889,-561.073"/>
</g>
<!-- cleanBnd -->
<g id="node19" class="node"><title>cleanBnd</title>
<polygon fill="cyan" stroke="black" points="800,-665 746,-665 746,-629 800,-629 800,-665"/>
<text text-anchor="middle" x="773" y="-643.3" font-family="Times,serif" font-size="14.00">clean</text>
</g>
<!-- bndproperties -->
<g id="node20" class="node"><title>bndproperties</title>
<polygon fill="cyan" stroke="black" points="727.25,-665 636.75,-665 636.75,-629 727.25,-629 727.25,-665"/>
<text text-anchor="middle" x="682" y="-643.3" font-family="Times,serif" font-size="14.00">bndproperties</text>
</g>
<!-- checkClassCycle&#45;&gt;bundle -->
<g id="edge16" class="edge"><title>checkClassCycle&#45;&gt;bundle</title>
<path fill="none" stroke="black" d="M437.483,-799.697C427.131,-790.965 414.414,-780.24 403.161,-770.75"/>
<polygon fill="black" stroke="black" points="405.182,-767.876 395.281,-764.104 400.669,-773.227 405.182,-767.876"/>
</g>
<!-- wrapper -->
<g id="node23" class="node"><title>wrapper</title>
<polygon fill="cyan" stroke="black" points="1593.25,-950 1532.75,-950 1532.75,-914 1593.25,-914 1593.25,-950"/>
<text text-anchor="middle" x="1563" y="-928.3" font-family="Times,serif" font-size="14.00">wrapper</text>
</g>
<!-- findbugstest -->
<g id="node24" class="node"><title>findbugstest</title>
<polygon fill="cyan" stroke="black" points="1861.25,-593 1778.75,-593 1778.75,-557 1861.25,-557 1861.25,-593"/>
<text text-anchor="middle" x="1820" y="-571.3" font-family="Times,serif" font-size="14.00">findbugstest</text>
</g>
<!-- findbugstest&#45;&gt;check -->
<g id="edge32" class="edge"><title>findbugstest&#45;&gt;check</title>
<path fill="none" stroke="green" d="M1808.69,-556.986C1798.86,-543.792 1783.34,-526.386 1765,-518 1733,-503.368 1499.28,-496.145 1407.17,-493.843"/>
<polygon fill="green" stroke="green" points="1407.25,-490.344 1397.17,-493.598 1407.08,-497.342 1407.25,-490.344"/>
</g>
<!-- findbugsTest&#45;&gt;findbugstest -->
<g id="edge30" class="edge"><title>findbugsTest&#45;&gt;findbugstest</title>
<path fill="none" stroke="black" d="M1820.75,-628.697C1820.64,-620.983 1820.51,-611.712 1820.39,-603.112"/>
<polygon fill="black" stroke="black" points="1823.89,-603.053 1820.24,-593.104 1816.89,-603.153 1823.89,-603.053"/>
</g>
<!-- findbugs -->
<g id="node26" class="node"><title>findbugs</title>
<polygon fill="cyan" stroke="black" points="1730,-593 1666,-593 1666,-557 1730,-557 1730,-593"/>
<text text-anchor="middle" x="1698" y="-571.3" font-family="Times,serif" font-size="14.00">findbugs</text>
</g>
<!-- findbugs&#45;&gt;check -->
<g id="edge31" class="edge"><title>findbugs&#45;&gt;check</title>
<path fill="none" stroke="green" d="M1665.95,-566.086C1604.75,-550.971 1471.56,-518.081 1406.82,-502.092"/>
<polygon fill="green" stroke="green" points="1407.58,-498.676 1397.03,-499.676 1405.9,-505.471 1407.58,-498.676"/>
</g>
<!-- findbugsMain&#45;&gt;findbugs -->
<g id="edge29" class="edge"><title>findbugsMain&#45;&gt;findbugs</title>
<path fill="none" stroke="black" d="M1704.02,-628.697C1703.14,-620.983 1702.08,-611.712 1701.1,-603.112"/>
<polygon fill="black" stroke="black" points="1704.57,-602.642 1699.95,-593.104 1697.61,-603.437 1704.57,-602.642"/>
</g>
<!-- index -->
<g id="node29" class="node"><title>index</title>
<polygon fill="cyan" stroke="black" points="1896,-950 1842,-950 1842,-914 1896,-914 1896,-950"/>
<text text-anchor="middle" x="1869" y="-928.3" font-family="Times,serif" font-size="14.00">index</text>
</g>
<!-- clean -->
<g id="node30" class="node"><title>clean</title>
<polygon fill="lightcyan" stroke="black" points="1756,-950 1702,-950 1702,-914 1756,-914 1756,-950"/>
<text text-anchor="middle" x="1729" y="-928.3" font-family="Times,serif" font-size="14.00">clean</text>
</g>
<!-- cleanNeeded -->
<g id="node31" class="node"><title>cleanNeeded</title>
<polygon fill="cyan" stroke="black" points="1716,-836 1630,-836 1630,-800 1716,-800 1716,-836"/>
<text text-anchor="middle" x="1673" y="-814.3" font-family="Times,serif" font-size="14.00">cleanNeeded</text>
</g>
<!-- clean&#45;&gt;cleanNeeded -->
<g id="edge34" class="edge"><title>clean&#45;&gt;cleanNeeded</title>
<path fill="none" stroke="blue" d="M1720.49,-913.99C1711.37,-895.734 1696.75,-866.506 1686.14,-845.287"/>
<polygon fill="blue" stroke="blue" points="1689.19,-843.549 1681.59,-836.17 1682.93,-846.68 1689.19,-843.549"/>
</g>
<!-- distclean -->
<g id="node32" class="node"><title>distclean</title>
<polygon fill="cyan" stroke="black" points="1817.25,-836 1752.75,-836 1752.75,-800 1817.25,-800 1817.25,-836"/>
<text text-anchor="middle" x="1785" y="-814.3" font-family="Times,serif" font-size="14.00">distclean</text>
</g>
<!-- clean&#45;&gt;distclean -->
<g id="edge36" class="edge"><title>clean&#45;&gt;distclean</title>
<path fill="none" stroke="blue" d="M1737.51,-913.99C1746.63,-895.734 1761.25,-866.506 1771.86,-845.287"/>
<polygon fill="blue" stroke="blue" points="1775.07,-846.68 1776.41,-836.17 1768.81,-843.549 1775.07,-846.68"/>
</g>
<!-- cleanNeeded&#45;&gt;cleanNeeded -->
<g id="edge35" class="edge"><title>cleanNeeded&#45;&gt;cleanNeeded</title>
<path fill="none" stroke="red" d="M1716.04,-831.262C1726.35,-830.225 1734,-825.805 1734,-818 1734,-813 1730.86,-809.389 1725.89,-807.167"/>
<polygon fill="red" stroke="red" points="1726.58,-803.732 1716.04,-804.738 1724.91,-810.529 1726.58,-803.732"/>
</g>
<!-- distcleanNeeded -->
<g id="node33" class="node"><title>distcleanNeeded</title>
<polygon fill="cyan" stroke="black" points="1800,-764 1694,-764 1694,-728 1800,-728 1800,-764"/>
<text text-anchor="middle" x="1747" y="-742.3" font-family="Times,serif" font-size="14.00">distcleanNeeded</text>
</g>
<!-- distclean&#45;&gt;distcleanNeeded -->
<g id="edge37" class="edge"><title>distclean&#45;&gt;distcleanNeeded</title>
<path fill="none" stroke="black" d="M1775.61,-799.697C1771.24,-791.644 1765.94,-781.894 1761.1,-772.982"/>
<polygon fill="black" stroke="black" points="1764.13,-771.223 1756.29,-764.104 1757.98,-774.563 1764.13,-771.223"/>
</g>
<!-- distcleanNeeded&#45;&gt;distcleanNeeded -->
<g id="edge38" class="edge"><title>distcleanNeeded&#45;&gt;distcleanNeeded</title>
<path fill="none" stroke="red" d="M1800.26,-758.899C1810.63,-757.401 1818,-753.102 1818,-746 1818,-741.451 1814.98,-738.051 1810.08,-735.801"/>
<polygon fill="red" stroke="red" points="1810.83,-732.378 1800.26,-733.101 1808.97,-739.128 1810.83,-732.378"/>
</g>
<!-- p2FeaturesTree -->
<g id="node35" class="node"><title>p2FeaturesTree</title>
<polygon fill="none" stroke="black" points="178.25,-593 77.75,-593 77.75,-557 178.25,-557 178.25,-593"/>
<text text-anchor="middle" x="128" y="-571.3" font-family="Times,serif" font-size="14.00">p2FeaturesTree</text>
</g>
<!-- p2Entry&#45;&gt;p2FeaturesTree -->
<g id="edge40" class="edge"><title>p2Entry&#45;&gt;p2FeaturesTree</title>
<path fill="none" stroke="black" d="M210.336,-628.876C196.216,-619.808 178.689,-608.552 163.439,-598.759"/>
<polygon fill="black" stroke="black" points="165.073,-595.648 154.767,-593.19 161.29,-601.538 165.073,-595.648"/>
</g>
<!-- p2PelagicPlugins -->
<g id="node38" class="node"><title>p2PelagicPlugins</title>
<polygon fill="none" stroke="black" points="292,-510 182,-510 182,-474 292,-474 292,-510"/>
<text text-anchor="middle" x="237" y="-488.3" font-family="Times,serif" font-size="14.00">p2PelagicPlugins</text>
</g>
<!-- p2Entry&#45;&gt;p2PelagicPlugins -->
<g id="edge43" class="edge"><title>p2Entry&#45;&gt;p2PelagicPlugins</title>
<path fill="none" stroke="black" d="M237,-628.746C237,-602.461 237,-552.13 237,-520.688"/>
<polygon fill="black" stroke="black" points="240.5,-520.425 237,-510.425 233.5,-520.425 240.5,-520.425"/>
</g>
<!-- p2FeaturesGradlePlugin -->
<g id="node36" class="node"><title>p2FeaturesGradlePlugin</title>
<polygon fill="none" stroke="black" points="164,-510 16,-510 16,-474 164,-474 164,-510"/>
<text text-anchor="middle" x="90" y="-488.3" font-family="Times,serif" font-size="14.00">p2FeaturesGradlePlugin</text>
</g>
<!-- p2FeaturesTree&#45;&gt;p2FeaturesGradlePlugin -->
<g id="edge41" class="edge"><title>p2FeaturesTree&#45;&gt;p2FeaturesGradlePlugin</title>
<path fill="none" stroke="black" d="M119.941,-556.822C114.853,-545.976 108.176,-531.744 102.419,-519.472"/>
<polygon fill="black" stroke="black" points="105.463,-517.72 98.0472,-510.153 99.1258,-520.693 105.463,-517.72"/>
</g>
<!-- p2Features -->
<g id="node37" class="node"><title>p2Features</title>
<polygon fill="none" stroke="black" points="142,-438 66,-438 66,-402 142,-402 142,-438"/>
<text text-anchor="middle" x="104" y="-416.3" font-family="Times,serif" font-size="14.00">p2Features</text>
</g>
<!-- p2FeaturesGradlePlugin&#45;&gt;p2Features -->
<g id="edge42" class="edge"><title>p2FeaturesGradlePlugin&#45;&gt;p2Features</title>
<path fill="none" stroke="black" d="M93.4607,-473.697C95.0035,-465.983 96.8575,-456.712 98.5775,-448.112"/>
<polygon fill="black" stroke="black" points="102.05,-448.597 100.579,-438.104 95.1859,-447.224 102.05,-448.597"/>
</g>
<!-- p2 -->
<g id="node40" class="node"><title>p2</title>
<polygon fill="cyan" stroke="black" points="164,-363 110,-363 110,-327 164,-327 164,-363"/>
<text text-anchor="middle" x="137" y="-341.3" font-family="Times,serif" font-size="14.00">p2</text>
</g>
<!-- p2Features&#45;&gt;p2 -->
<g id="edge45" class="edge"><title>p2Features&#45;&gt;p2</title>
<path fill="none" stroke="black" d="M111.821,-401.7C115.766,-392.972 120.637,-382.197 125.04,-372.457"/>
<polygon fill="black" stroke="black" points="128.306,-373.73 129.236,-363.176 121.927,-370.846 128.306,-373.73"/>
</g>
<!-- p2Plugins -->
<g id="node39" class="node"><title>p2Plugins</title>
<polygon fill="none" stroke="black" points="258.25,-438 187.75,-438 187.75,-402 258.25,-402 258.25,-438"/>
<text text-anchor="middle" x="223" y="-416.3" font-family="Times,serif" font-size="14.00">p2Plugins</text>
</g>
<!-- p2PelagicPlugins&#45;&gt;p2Plugins -->
<g id="edge44" class="edge"><title>p2PelagicPlugins&#45;&gt;p2Plugins</title>
<path fill="none" stroke="black" d="M233.539,-473.697C231.997,-465.983 230.142,-456.712 228.422,-448.112"/>
<polygon fill="black" stroke="black" points="231.814,-447.224 226.421,-438.104 224.95,-448.597 231.814,-447.224"/>
</g>
<!-- p2Plugins&#45;&gt;p2 -->
<g id="edge46" class="edge"><title>p2Plugins&#45;&gt;p2</title>
<path fill="none" stroke="black" d="M202.619,-401.7C191.373,-392.154 177.242,-380.159 164.976,-369.747"/>
<polygon fill="black" stroke="black" points="167.123,-366.979 157.235,-363.176 162.593,-372.315 167.123,-366.979"/>
</g>
<!-- indexBuild -->
<g id="node41" class="node"><title>indexBuild</title>
<polygon fill="cyan" stroke="black" points="164,-291 110,-291 110,-255 164,-255 164,-291"/>
<text text-anchor="middle" x="137" y="-269.3" font-family="Times,serif" font-size="14.00">index</text>
</g>
<!-- p2&#45;&gt;indexBuild -->
<g id="edge47" class="edge"><title>p2&#45;&gt;indexBuild</title>
<path fill="none" stroke="black" d="M137,-326.697C137,-318.983 137,-309.712 137,-301.112"/>
<polygon fill="black" stroke="black" points="140.5,-301.104 137,-291.104 133.5,-301.104 140.5,-301.104"/>
</g>
<!-- distCompositePlugins -->
<g id="node42" class="node"><title>distCompositePlugins</title>
<polygon fill="none" stroke="black" points="178,-219 42,-219 42,-183 178,-183 178,-219"/>
<text text-anchor="middle" x="110" y="-197.3" font-family="Times,serif" font-size="14.00">distCompositePlugins</text>
</g>
<!-- indexBuild&#45;&gt;distCompositePlugins -->
<g id="edge48" class="edge"><title>indexBuild&#45;&gt;distCompositePlugins</title>
<path fill="none" stroke="black" d="M130.326,-254.697C127.285,-246.813 123.617,-237.304 120.239,-228.546"/>
<polygon fill="black" stroke="black" points="123.462,-227.175 116.597,-219.104 116.931,-229.694 123.462,-227.175"/>
</g>
<!-- distZipPlugins -->
<g id="node43" class="node"><title>distZipPlugins</title>
<polygon fill="none" stroke="black" points="200.25,-147 105.75,-147 105.75,-111 200.25,-111 200.25,-147"/>
<text text-anchor="middle" x="153" y="-125.3" font-family="Times,serif" font-size="14.00">distZipPlugins</text>
</g>
<!-- indexBuild&#45;&gt;distZipPlugins -->
<g id="edge49" class="edge"><title>indexBuild&#45;&gt;distZipPlugins</title>
<path fill="none" stroke="black" d="M159.596,-254.963C170.059,-245.635 181.396,-233.107 187,-219 192.907,-204.13 191.501,-198.354 187,-183 184.199,-173.447 179.089,-163.984 173.667,-155.756"/>
<polygon fill="black" stroke="black" points="176.376,-153.525 167.755,-147.366 170.654,-157.557 176.376,-153.525"/>
</g>
<!-- distCompositePlugins&#45;&gt;distZipPlugins -->
<g id="edge50" class="edge"><title>distCompositePlugins&#45;&gt;distZipPlugins</title>
<path fill="none" stroke="black" d="M120.629,-182.697C125.628,-174.559 131.691,-164.689 137.212,-155.701"/>
<polygon fill="black" stroke="black" points="140.241,-157.457 142.493,-147.104 134.277,-153.793 140.241,-157.457"/>
</g>
<!-- dist -->
<g id="node44" class="node"><title>dist</title>
<polygon fill="cyan" stroke="black" points="180,-75 126,-75 126,-39 180,-39 180,-75"/>
<text text-anchor="middle" x="153" y="-53.3" font-family="Times,serif" font-size="14.00">dist</text>
</g>
<!-- distZipPlugins&#45;&gt;dist -->
<g id="edge51" class="edge"><title>distZipPlugins&#45;&gt;dist</title>
<path fill="none" stroke="black" d="M153,-110.697C153,-102.983 153,-93.7125 153,-85.1124"/>
<polygon fill="black" stroke="black" points="156.5,-85.1043 153,-75.1043 149.5,-85.1044 156.5,-85.1043"/>
</g>
</g>
</svg>
