<?xml version="1.0" encoding="UTF-8" standalone="no"?>
<!DOCTYPE svg PUBLIC "-//W3C//DTD SVG 1.1//EN"
 "http://www.w3.org/Graphics/SVG/1.1/DTD/svg11.dtd">
<!-- Generated by graphviz version 2.34.0 (20140110.0949)
 -->
<!-- Title: GradleSetup Pages: 1 -->
<svg width="1126pt" height="1043pt"
 viewBox="0.00 0.00 1126.00 1043.00" xmlns="http://www.w3.org/2000/svg" xmlns:xlink="http://www.w3.org/1999/xlink">
<g id="graph0" class="graph" transform="scale(1 1) rotate(0) translate(4 1039)">
<title>GradleSetup</title>
<polygon fill="white" stroke="white" points="-4,4 -4,-1039 1122,-1039 1122,4 -4,4"/>
<text text-anchor="middle" x="61" y="-1019.8" font-family="Times,serif" font-size="14.00">Gradle Build Setup</text>
<g id="clust1" class="cluster"><title>cluster1</title>
<polygon fill="lightgrey" stroke="black" points="8,-371 8,-1004 804,-1004 804,-371 8,-371"/>
<text text-anchor="middle" x="92.5" y="-378.8" font-family="Times,serif" font-size="14.00">Java Projects / Bnd Projects</text>
</g>
<g id="clust2" class="cluster"><title>cluster101</title>
</g>
<g id="clust3" class="cluster"><title>cluster102</title>
</g>
<g id="clust4" class="cluster"><title>cluster103</title>
</g>
<g id="clust5" class="cluster"><title>cluster104</title>
</g>
<g id="clust6" class="cluster"><title>cluster105</title>
</g>
<g id="clust7" class="cluster"><title>cluster106</title>
</g>
<g id="clust8" class="cluster"><title>cluster107</title>
</g>
<g id="clust9" class="cluster"><title>cluster108</title>
</g>
<g id="clust10" class="cluster"><title>cluster109</title>
</g>
<g id="clust12" class="cluster"><title>cluster2</title>
<polygon fill="lightgrey" stroke="black" points="886,-921 886,-996 1036,-996 1036,-921 886,-921"/>
<text text-anchor="middle" x="928.5" y="-928.8" font-family="Times,serif" font-size="14.00">Root Project</text>
</g>
<g id="clust13" class="cluster"><title>cluster3</title>
<polygon fill="lightgrey" stroke="black" points="812,-678 812,-913 1110,-913 1110,-678 812,-678"/>
<text text-anchor="middle" x="852.5" y="-685.8" font-family="Times,serif" font-size="14.00">All Projects</text>
</g>
<g id="clust14" class="cluster"><title>cluster301</title>
</g>
<g id="clust15" class="cluster"><title>cluster302</title>
</g>
<g id="clust16" class="cluster"><title>cluster4</title>
<polygon fill="lightgrey" stroke="black" points="812,-8 812,-670 1100,-670 1100,-8 812,-8"/>
<text text-anchor="middle" x="856.5" y="-15.8" font-family="Times,serif" font-size="14.00">Build Project</text>
</g>
<!-- compileJava -->
<g id="node1" class="node"><title>compileJava</title>
<polygon fill="lightcyan" stroke="black" points="616.25,-988 531.75,-988 531.75,-952 616.25,-952 616.25,-988"/>
<text text-anchor="middle" x="574" y="-966.3" font-family="Times,serif" font-size="14.00">compileJava</text>
</g>
<!-- compileJava&#45;&gt;compileJava -->
<g id="edge24" class="edge"><title>compileJava&#45;&gt;compileJava</title>
<path fill="none" stroke="red" d="M616.331,-986.577C626.48,-985.282 634,-979.756 634,-970 634,-963.75 630.914,-959.236 626.027,-956.459"/>
<polygon fill="red" stroke="red" points="626.92,-953.07 616.331,-953.423 624.828,-959.751 626.92,-953.07"/>
</g>
<!-- classes -->
<g id="node3" class="node"><title>classes</title>
<polygon fill="lightcyan" stroke="black" points="500,-897 446,-897 446,-861 500,-861 500,-897"/>
<text text-anchor="middle" x="473" y="-875.3" font-family="Times,serif" font-size="14.00">classes</text>
</g>
<!-- compileJava&#45;&gt;classes -->
<g id="edge1" class="edge"><title>compileJava&#45;&gt;classes</title>
<path fill="none" stroke="black" d="M555.908,-951.898C546,-942.634 533.443,-931.058 522,-921 515.673,-915.439 508.789,-909.57 502.234,-904.064"/>
<polygon fill="black" stroke="black" points="504.093,-901.057 494.174,-897.336 499.607,-906.431 504.093,-901.057"/>
</g>
<!-- processResources -->
<g id="node2" class="node"><title>processResources</title>
<polygon fill="lightcyan" stroke="black" points="513.25,-988 400.75,-988 400.75,-952 513.25,-952 513.25,-988"/>
<text text-anchor="middle" x="457" y="-966.3" font-family="Times,serif" font-size="14.00">processResources</text>
</g>
<!-- processResources&#45;&gt;classes -->
<g id="edge2" class="edge"><title>processResources&#45;&gt;classes</title>
<path fill="none" stroke="black" d="M460.085,-951.84C462.365,-939.158 465.514,-921.64 468.132,-907.077"/>
<polygon fill="black" stroke="black" points="471.6,-907.569 469.925,-897.107 464.71,-906.33 471.6,-907.569"/>
</g>
<!-- jar -->
<g id="node4" class="node"><title>jar</title>
<polygon fill="lightcyan" stroke="black" points="412,-753 358,-753 358,-717 412,-717 412,-753"/>
<text text-anchor="middle" x="385" y="-731.3" font-family="Times,serif" font-size="14.00">jar</text>
</g>
<!-- classes&#45;&gt;jar -->
<g id="edge5" class="edge"><title>classes&#45;&gt;jar</title>
<path fill="none" stroke="black" d="M445.889,-876.768C416.481,-873.81 370.82,-864.131 349,-833 333.596,-811.022 348.436,-781.656 363.464,-761.013"/>
<polygon fill="black" stroke="black" points="366.289,-763.081 369.608,-753.02 360.739,-758.816 366.289,-763.081"/>
</g>
<!-- bundle -->
<g id="node5" class="node"><title>bundle</title>
<polygon fill="cyan" stroke="black" points="412,-825 358,-825 358,-789 412,-789 412,-825"/>
<text text-anchor="middle" x="385" y="-803.3" font-family="Times,serif" font-size="14.00">bundle</text>
</g>
<!-- classes&#45;&gt;bundle -->
<g id="edge22" class="edge"><title>classes&#45;&gt;bundle</title>
<path fill="none" stroke="black" d="M451.247,-860.697C440.164,-851.881 426.526,-841.032 414.51,-831.474"/>
<polygon fill="black" stroke="black" points="416.507,-828.59 406.503,-825.104 412.15,-834.069 416.507,-828.59"/>
</g>
<!-- compileTestJava -->
<g id="node6" class="node"><title>compileTestJava</title>
<polygon fill="lightcyan" stroke="black" points="698,-825 590,-825 590,-789 698,-789 698,-825"/>
<text text-anchor="middle" x="644" y="-803.3" font-family="Times,serif" font-size="14.00">compileTestJava</text>
</g>
<!-- classes&#45;&gt;compileTestJava -->
<g id="edge4" class="edge"><title>classes&#45;&gt;compileTestJava</title>
<path fill="none" stroke="black" d="M500.095,-866.908C524.909,-856.751 562.294,-841.447 592.74,-828.984"/>
<polygon fill="black" stroke="black" points="594.428,-832.075 602.357,-825.047 591.776,-825.596 594.428,-832.075"/>
</g>
<!-- test -->
<g id="node9" class="node"><title>test</title>
<polygon fill="lightcyan" stroke="black" points="736,-662 682,-662 682,-626 736,-626 736,-662"/>
<text text-anchor="middle" x="709" y="-640.3" font-family="Times,serif" font-size="14.00">test</text>
</g>
<!-- classes&#45;&gt;test -->
<g id="edge6" class="edge"><title>classes&#45;&gt;test</title>
<path fill="none" stroke="black" d="M500.34,-877.015C556.886,-874.342 683.624,-864.855 710,-833 729.65,-809.268 719.773,-718.292 713.233,-672.161"/>
<polygon fill="black" stroke="black" points="716.694,-671.637 711.781,-662.25 709.768,-672.651 716.694,-671.637"/>
</g>
<!-- javadoc -->
<g id="node21" class="node"><title>javadoc</title>
<polygon fill="lightcyan" stroke="black" points="795.25,-825 736.75,-825 736.75,-789 795.25,-789 795.25,-825"/>
<text text-anchor="middle" x="766" y="-803.3" font-family="Times,serif" font-size="14.00">javadoc</text>
</g>
<!-- classes&#45;&gt;javadoc -->
<g id="edge3" class="edge"><title>classes&#45;&gt;javadoc</title>
<path fill="none" stroke="black" d="M500.31,-876.088C546.985,-872.161 644.563,-861.069 722,-833 724.71,-832.018 727.449,-830.876 730.163,-829.633"/>
<polygon fill="black" stroke="black" points="731.852,-832.702 739.227,-825.096 728.718,-826.442 731.852,-832.702"/>
</g>
<!-- findbugsMain -->
<g id="node26" class="node"><title>findbugsMain</title>
<polygon fill="orange" stroke="black" points="319.25,-825 226.75,-825 226.75,-789 319.25,-789 319.25,-825"/>
<text text-anchor="middle" x="273" y="-803.3" font-family="Times,serif" font-size="14.00">findbugsMain</text>
</g>
<!-- classes&#45;&gt;findbugsMain -->
<g id="edge30" class="edge"><title>classes&#45;&gt;findbugsMain</title>
<path fill="none" stroke="black" d="M445.886,-869.89C417.719,-861.309 372.467,-847.086 334,-833 330.356,-831.666 326.607,-830.246 322.845,-828.788"/>
<polygon fill="black" stroke="black" points="324.106,-825.522 313.519,-825.107 321.537,-832.034 324.106,-825.522"/>
</g>
<!-- uploadArchives -->
<g id="node10" class="node"><title>uploadArchives</title>
<polygon fill="lightcyan" stroke="black" points="352,-662 250,-662 250,-626 352,-626 352,-662"/>
<text text-anchor="middle" x="301" y="-640.3" font-family="Times,serif" font-size="14.00">uploadArchives</text>
</g>
<!-- jar&#45;&gt;uploadArchives -->
<g id="edge9" class="edge"><title>jar&#45;&gt;uploadArchives</title>
<path fill="none" stroke="black" d="M368.804,-716.84C356.137,-703.419 338.359,-684.582 324.184,-669.564"/>
<polygon fill="black" stroke="black" points="326.556,-666.977 317.146,-662.107 321.465,-671.782 326.556,-666.977"/>
</g>
<!-- assemble -->
<g id="node11" class="node"><title>assemble</title>
<polygon fill="lightcyan" stroke="black" points="231.25,-662 164.75,-662 164.75,-626 231.25,-626 231.25,-662"/>
<text text-anchor="middle" x="198" y="-640.3" font-family="Times,serif" font-size="14.00">assemble</text>
</g>
<!-- jar&#45;&gt;assemble -->
<g id="edge10" class="edge"><title>jar&#45;&gt;assemble</title>
<path fill="none" stroke="black" d="M357.786,-722.943C328.522,-710.815 280.831,-690.354 241,-670 239.212,-669.086 237.394,-668.133 235.567,-667.153"/>
<polygon fill="black" stroke="black" points="236.888,-663.884 226.442,-662.114 233.503,-670.012 236.888,-663.884"/>
</g>
<!-- p2Entry -->
<g id="node35" class="node"><title>p2Entry</title>
<polygon fill="none" stroke="black" points="922,-662 862,-662 862,-626 922,-626 922,-662"/>
<text text-anchor="middle" x="892" y="-640.3" font-family="Times,serif" font-size="14.00">p2Entry</text>
</g>
<!-- jar&#45;&gt;p2Entry -->
<g id="edge41" class="edge"><title>jar&#45;&gt;p2Entry</title>
<path fill="none" stroke="red" d="M391.722,-716.945C397.936,-703.726 408.558,-686.307 424,-678 439.856,-669.469 730.081,-671.767 748,-670 783.309,-666.518 823.007,-659.381 851.765,-653.621"/>
<polygon fill="red" stroke="red" points="852.736,-656.995 861.837,-651.571 851.34,-650.136 852.736,-656.995"/>
</g>
<!-- bundle&#45;&gt;jar -->
<g id="edge23" class="edge"><title>bundle&#45;&gt;jar</title>
<path fill="none" stroke="black" stroke-dasharray="5,2" d="M385,-788.697C385,-780.983 385,-771.712 385,-763.112"/>
<polygon fill="black" stroke="black" points="388.5,-763.104 385,-753.104 381.5,-763.104 388.5,-763.104"/>
</g>
<!-- testClasses -->
<g id="node8" class="node"><title>testClasses</title>
<polygon fill="lightcyan" stroke="black" points="666,-753 590,-753 590,-717 666,-717 666,-753"/>
<text text-anchor="middle" x="628" y="-731.3" font-family="Times,serif" font-size="14.00">testClasses</text>
</g>
<!-- compileTestJava&#45;&gt;testClasses -->
<g id="edge7" class="edge"><title>compileTestJava&#45;&gt;testClasses</title>
<path fill="none" stroke="black" d="M640.045,-788.697C638.282,-780.983 636.163,-771.712 634.197,-763.112"/>
<polygon fill="black" stroke="black" points="637.55,-762.073 631.91,-753.104 630.726,-763.633 637.55,-762.073"/>
</g>
<!-- processTestResources -->
<g id="node7" class="node"><title>processTestResources</title>
<polygon fill="lightcyan" stroke="black" points="572,-825 436,-825 436,-789 572,-789 572,-825"/>
<text text-anchor="middle" x="504" y="-803.3" font-family="Times,serif" font-size="14.00">processTestResources</text>
</g>
<!-- processTestResources&#45;&gt;testClasses -->
<g id="edge8" class="edge"><title>processTestResources&#45;&gt;testClasses</title>
<path fill="none" stroke="black" d="M534.334,-788.876C550.697,-779.639 571.083,-768.131 588.654,-758.212"/>
<polygon fill="black" stroke="black" points="590.562,-761.154 597.55,-753.19 587.121,-755.058 590.562,-761.154"/>
</g>
<!-- testClasses&#45;&gt;test -->
<g id="edge11" class="edge"><title>testClasses&#45;&gt;test</title>
<path fill="none" stroke="black" d="M643.618,-716.84C655.832,-703.419 672.976,-684.582 686.644,-669.564"/>
<polygon fill="black" stroke="black" points="689.288,-671.859 693.43,-662.107 684.111,-667.147 689.288,-671.859"/>
</g>
<!-- findbugsTest -->
<g id="node27" class="node"><title>findbugsTest</title>
<polygon fill="orange" stroke="black" points="647.25,-662 560.75,-662 560.75,-626 647.25,-626 647.25,-662"/>
<text text-anchor="middle" x="604" y="-640.3" font-family="Times,serif" font-size="14.00">findbugsTest</text>
</g>
<!-- testClasses&#45;&gt;findbugsTest -->
<g id="edge31" class="edge"><title>testClasses&#45;&gt;findbugsTest</title>
<path fill="none" stroke="black" d="M623.373,-716.84C619.953,-704.158 615.229,-686.64 611.302,-672.077"/>
<polygon fill="black" stroke="black" points="614.596,-670.851 608.613,-662.107 607.838,-672.674 614.596,-670.851"/>
</g>
<!-- check -->
<g id="node12" class="node"><title>check</title>
<polygon fill="cyan" stroke="black" points="623,-590 569,-590 569,-554 623,-554 623,-590"/>
<text text-anchor="middle" x="596" y="-568.3" font-family="Times,serif" font-size="14.00">check</text>
</g>
<!-- test&#45;&gt;check -->
<g id="edge14" class="edge"><title>test&#45;&gt;check</title>
<path fill="none" stroke="black" d="M689.64,-625.916C685.918,-623.064 681.946,-620.292 678,-618 656.946,-605.772 648.054,-610.228 627,-598 625.89,-597.355 624.778,-596.673 623.671,-595.961"/>
<polygon fill="black" stroke="black" points="625.546,-593.001 615.36,-590.084 621.504,-598.716 625.546,-593.001"/>
</g>
<!-- jacocoTestReport -->
<g id="node25" class="node"><title>jacocoTestReport</title>
<polygon fill="orange" stroke="black" points="796,-590 684,-590 684,-554 796,-554 796,-590"/>
<text text-anchor="middle" x="740" y="-568.3" font-family="Times,serif" font-size="14.00">jacocoTestReport</text>
</g>
<!-- test&#45;&gt;jacocoTestReport -->
<g id="edge34" class="edge"><title>test&#45;&gt;jacocoTestReport</title>
<path fill="none" stroke="black" d="M716.663,-625.697C720.192,-617.728 724.456,-608.1 728.369,-599.264"/>
<polygon fill="black" stroke="black" points="731.576,-600.665 732.425,-590.104 725.176,-597.831 731.576,-600.665"/>
</g>
<!-- assemble&#45;&gt;check -->
<g id="edge13" class="edge"><title>assemble&#45;&gt;check</title>
<path fill="none" stroke="black" d="M223.582,-625.909C229.133,-622.843 235.111,-619.993 241,-618 270.657,-607.962 473.744,-585.829 558.729,-576.874"/>
<polygon fill="black" stroke="black" points="559.146,-580.349 568.725,-575.824 558.414,-573.388 559.146,-580.349"/>
</g>
<!-- release -->
<g id="node14" class="node"><title>release</title>
<polygon fill="cyan" stroke="black" points="225,-590 171,-590 171,-554 225,-554 225,-590"/>
<text text-anchor="middle" x="198" y="-568.3" font-family="Times,serif" font-size="14.00">release</text>
</g>
<!-- assemble&#45;&gt;release -->
<g id="edge25" class="edge"><title>assemble&#45;&gt;release</title>
<path fill="none" stroke="black" d="M198,-625.697C198,-617.983 198,-608.712 198,-600.112"/>
<polygon fill="black" stroke="black" points="201.5,-600.104 198,-590.104 194.5,-600.104 201.5,-600.104"/>
</g>
<!-- exportX -->
<g id="node16" class="node"><title>exportX</title>
<polygon fill="cyan" stroke="black" points="125.25,-590 28.75,-590 24.75,-586 24.75,-554 121.25,-554 125.25,-558 125.25,-590"/>
<polyline fill="none" stroke="black" points="121.25,-586 24.75,-586 "/>
<polyline fill="none" stroke="black" points="121.25,-586 121.25,-554 "/>
<polyline fill="none" stroke="black" points="121.25,-586 125.25,-590 "/>
<text text-anchor="middle" x="75" y="-568.3" font-family="Times,serif" font-size="14.00">export.&lt;name&gt;</text>
</g>
<!-- assemble&#45;&gt;exportX -->
<g id="edge26" class="edge"><title>assemble&#45;&gt;exportX</title>
<path fill="none" stroke="black" d="M167.911,-625.876C151.68,-616.639 131.458,-605.131 114.029,-595.212"/>
<polygon fill="black" stroke="black" points="115.627,-592.094 105.205,-590.19 112.165,-598.178 115.627,-592.094"/>
</g>
<!-- build -->
<g id="node18" class="node"><title>build</title>
<polygon fill="lightcyan" stroke="black" points="435,-518 381,-518 381,-482 435,-482 435,-518"/>
<text text-anchor="middle" x="408" y="-496.3" font-family="Times,serif" font-size="14.00">build</text>
</g>
<!-- assemble&#45;&gt;build -->
<g id="edge12" class="edge"><title>assemble&#45;&gt;build</title>
<path fill="none" stroke="black" d="M227.591,-625.757C232.081,-623.152 236.661,-620.501 241,-618 256.522,-609.053 260.979,-607.765 276,-598 312.145,-574.502 351.769,-544.82 378.078,-524.517"/>
<polygon fill="black" stroke="black" points="380.371,-527.168 386.13,-518.274 376.083,-521.635 380.371,-527.168"/>
</g>
<!-- checkNeeded -->
<g id="node13" class="node"><title>checkNeeded</title>
<polygon fill="cyan" stroke="black" points="649.25,-518 560.75,-518 560.75,-482 649.25,-482 649.25,-518"/>
<text text-anchor="middle" x="605" y="-496.3" font-family="Times,serif" font-size="14.00">checkNeeded</text>
</g>
<!-- check&#45;&gt;checkNeeded -->
<g id="edge15" class="edge"><title>check&#45;&gt;checkNeeded</title>
<path fill="none" stroke="black" d="M598.225,-553.697C599.217,-545.983 600.408,-536.712 601.514,-528.112"/>
<polygon fill="black" stroke="black" points="604.997,-528.469 602.801,-518.104 598.054,-527.576 604.997,-528.469"/>
</g>
<!-- check&#45;&gt;build -->
<g id="edge17" class="edge"><title>check&#45;&gt;build</title>
<path fill="none" stroke="black" d="M568.663,-560.821C535.99,-548.656 481.177,-528.247 444.802,-514.703"/>
<polygon fill="black" stroke="black" points="445.658,-511.287 435.065,-511.077 443.215,-517.847 445.658,-511.287"/>
</g>
<!-- checkNeeded&#45;&gt;checkNeeded -->
<g id="edge16" class="edge"><title>checkNeeded&#45;&gt;checkNeeded</title>
<path fill="none" stroke="red" d="M649.306,-513.203C659.507,-512.065 667,-507.664 667,-500 667,-495.09 663.925,-491.52 659.032,-489.288"/>
<polygon fill="red" stroke="red" points="659.862,-485.888 649.306,-486.797 658.125,-492.669 659.862,-485.888"/>
</g>
<!-- releaseNeeded -->
<g id="node15" class="node"><title>releaseNeeded</title>
<polygon fill="cyan" stroke="black" points="245.25,-518 150.75,-518 150.75,-482 245.25,-482 245.25,-518"/>
<text text-anchor="middle" x="198" y="-496.3" font-family="Times,serif" font-size="14.00">releaseNeeded</text>
</g>
<!-- release&#45;&gt;releaseNeeded -->
<g id="edge28" class="edge"><title>release&#45;&gt;releaseNeeded</title>
<path fill="none" stroke="black" d="M198,-553.697C198,-545.983 198,-536.712 198,-528.112"/>
<polygon fill="black" stroke="black" points="201.5,-528.104 198,-518.104 194.5,-528.104 201.5,-528.104"/>
</g>
<!-- releaseNeeded&#45;&gt;releaseNeeded -->
<g id="edge29" class="edge"><title>releaseNeeded&#45;&gt;releaseNeeded</title>
<path fill="none" stroke="red" d="M245.326,-513.101C255.571,-511.82 263,-507.453 263,-500 263,-495.225 259.951,-491.717 255.066,-489.476"/>
<polygon fill="red" stroke="red" points="255.889,-486.073 245.326,-486.899 254.098,-492.84 255.889,-486.073"/>
</g>
<!-- export -->
<g id="node17" class="node"><title>export</title>
<polygon fill="cyan" stroke="black" points="102,-518 48,-518 48,-482 102,-482 102,-518"/>
<text text-anchor="middle" x="75" y="-496.3" font-family="Times,serif" font-size="14.00">export</text>
</g>
<!-- exportX&#45;&gt;export -->
<g id="edge27" class="edge"><title>exportX&#45;&gt;export</title>
<path fill="none" stroke="black" d="M75,-553.697C75,-545.983 75,-536.712 75,-528.112"/>
<polygon fill="black" stroke="black" points="78.5001,-528.104 75,-518.104 71.5001,-528.104 78.5001,-528.104"/>
</g>
<!-- buildDependents -->
<g id="node19" class="node"><title>buildDependents</title>
<polygon fill="lightcyan" stroke="black" points="396,-446 288,-446 288,-410 396,-410 396,-446"/>
<text text-anchor="middle" x="342" y="-424.3" font-family="Times,serif" font-size="14.00">buildDependents</text>
</g>
<!-- build&#45;&gt;buildDependents -->
<g id="edge18" class="edge"><title>build&#45;&gt;buildDependents</title>
<path fill="none" stroke="black" d="M391.685,-481.697C383.693,-473.22 373.928,-462.864 365.178,-453.583"/>
<polygon fill="black" stroke="black" points="367.534,-450.979 358.127,-446.104 362.441,-455.781 367.534,-450.979"/>
</g>
<!-- buildNeeded -->
<g id="node20" class="node"><title>buildNeeded</title>
<polygon fill="lightcyan" stroke="black" points="518,-446 432,-446 432,-410 518,-410 518,-446"/>
<text text-anchor="middle" x="475" y="-424.3" font-family="Times,serif" font-size="14.00">buildNeeded</text>
</g>
<!-- build&#45;&gt;buildNeeded -->
<g id="edge20" class="edge"><title>build&#45;&gt;buildNeeded</title>
<path fill="none" stroke="black" d="M424.562,-481.697C432.675,-473.22 442.588,-462.864 451.471,-453.583"/>
<polygon fill="black" stroke="black" points="454.243,-455.749 458.629,-446.104 449.186,-450.908 454.243,-455.749"/>
</g>
<!-- buildDependents&#45;&gt;buildDependents -->
<g id="edge19" class="edge"><title>buildDependents&#45;&gt;buildDependents</title>
<path fill="none" stroke="yellow" d="M396.007,-440.899C406.529,-439.401 414,-435.102 414,-428 414,-423.451 410.934,-420.051 405.964,-417.801"/>
<polygon fill="yellow" stroke="yellow" points="406.575,-414.341 396.007,-415.101 404.742,-421.097 406.575,-414.341"/>
</g>
<!-- buildNeeded&#45;&gt;buildNeeded -->
<g id="edge21" class="edge"><title>buildNeeded&#45;&gt;buildNeeded</title>
<path fill="none" stroke="red" d="M518.036,-441.262C528.355,-440.225 536,-435.805 536,-428 536,-423 532.862,-419.389 527.894,-417.167"/>
<polygon fill="red" stroke="red" points="528.583,-413.732 518.036,-414.738 526.909,-420.529 528.583,-413.732"/>
</g>
<!-- clean -->
<g id="node22" class="node"><title>clean</title>
<polygon fill="cyan" stroke="black" points="796,-988 742,-988 742,-952 796,-952 796,-988"/>
<text text-anchor="middle" x="769" y="-966.3" font-family="Times,serif" font-size="14.00">clean</text>
</g>
<!-- cleanAll -->
<g id="node31" class="node"><title>cleanAll</title>
<polygon fill="orange" stroke="black" points="888,-897 834,-897 834,-861 888,-861 888,-897"/>
<text text-anchor="middle" x="861" y="-875.3" font-family="Times,serif" font-size="14.00">clean</text>
</g>
<!-- clean&#45;&gt;cleanAll -->
<g id="edge35" class="edge"><title>clean&#45;&gt;cleanAll</title>
<path fill="none" stroke="blue" d="M786.739,-951.84C800.739,-938.296 820.441,-919.236 836.034,-904.152"/>
<polygon fill="blue" stroke="blue" points="838.562,-906.576 843.316,-897.107 833.695,-901.545 838.562,-906.576"/>
</g>
<!-- echo -->
<g id="node23" class="node"><title>echo</title>
<polygon fill="cyan" stroke="black" points="350,-988 296,-988 296,-952 350,-952 350,-988"/>
<text text-anchor="middle" x="323" y="-966.3" font-family="Times,serif" font-size="14.00">echo</text>
</g>
<!-- bndproperties -->
<g id="node24" class="node"><title>bndproperties</title>
<polygon fill="cyan" stroke="black" points="212.25,-988 121.75,-988 121.75,-952 212.25,-952 212.25,-988"/>
<text text-anchor="middle" x="167" y="-966.3" font-family="Times,serif" font-size="14.00">bndproperties</text>
</g>
<!-- findbugsMain&#45;&gt;check -->
<g id="edge32" class="edge"><title>findbugsMain&#45;&gt;check</title>
<path fill="none" stroke="green" d="M278.715,-788.728C288.471,-761.684 310.769,-709.217 346,-678 348.13,-676.112 489.848,-617.099 558.937,-588.389"/>
<polygon fill="green" stroke="green" points="560.686,-591.452 568.578,-584.383 558,-584.988 560.686,-591.452"/>
</g>
<!-- findbugsTest&#45;&gt;check -->
<g id="edge33" class="edge"><title>findbugsTest&#45;&gt;check</title>
<path fill="none" stroke="green" d="M602.022,-625.697C601.141,-617.983 600.081,-608.712 599.099,-600.112"/>
<polygon fill="green" stroke="green" points="602.568,-599.642 597.955,-590.104 595.613,-600.437 602.568,-599.642"/>
</g>
<!-- init -->
<g id="node28" class="node"><title>init</title>
<polygon fill="lightcyan" stroke="black" points="1028,-988 974,-988 974,-952 1028,-952 1028,-988"/>
<text text-anchor="middle" x="1001" y="-966.3" font-family="Times,serif" font-size="14.00">init</text>
</g>
<!-- wrapper -->
<g id="node29" class="node"><title>wrapper</title>
<polygon fill="orange" stroke="black" points="955.25,-988 894.75,-988 894.75,-952 955.25,-952 955.25,-988"/>
<text text-anchor="middle" x="925" y="-966.3" font-family="Times,serif" font-size="14.00">wrapper</text>
</g>
<!-- index -->
<g id="node30" class="node"><title>index</title>
<polygon fill="orange" stroke="black" points="1094,-897 1040,-897 1040,-861 1094,-861 1094,-897"/>
<text text-anchor="middle" x="1067" y="-875.3" font-family="Times,serif" font-size="14.00">index</text>
</g>
<!-- cleanAllNeeded -->
<g id="node32" class="node"><title>cleanAllNeeded</title>
<polygon fill="orange" stroke="black" points="998,-825 912,-825 912,-789 998,-789 998,-825"/>
<text text-anchor="middle" x="955" y="-803.3" font-family="Times,serif" font-size="14.00">cleanNeeded</text>
</g>
<!-- cleanAll&#45;&gt;cleanAllNeeded -->
<g id="edge36" class="edge"><title>cleanAll&#45;&gt;cleanAllNeeded</title>
<path fill="none" stroke="blue" d="M884.236,-860.697C896.188,-851.796 910.923,-840.823 923.847,-831.199"/>
<polygon fill="blue" stroke="blue" points="926.101,-833.884 932.031,-825.104 921.92,-828.27 926.101,-833.884"/>
</g>
<!-- distclean -->
<g id="node33" class="node"><title>distclean</title>
<polygon fill="orange" stroke="black" points="893.25,-825 828.75,-825 828.75,-789 893.25,-789 893.25,-825"/>
<text text-anchor="middle" x="861" y="-803.3" font-family="Times,serif" font-size="14.00">distclean</text>
</g>
<!-- cleanAll&#45;&gt;distclean -->
<g id="edge38" class="edge"><title>cleanAll&#45;&gt;distclean</title>
<path fill="none" stroke="blue" d="M861,-860.697C861,-852.983 861,-843.712 861,-835.112"/>
<polygon fill="blue" stroke="blue" points="864.5,-835.104 861,-825.104 857.5,-835.104 864.5,-835.104"/>
</g>
<!-- cleanAllNeeded&#45;&gt;cleanAllNeeded -->
<g id="edge37" class="edge"><title>cleanAllNeeded&#45;&gt;cleanAllNeeded</title>
<path fill="none" stroke="red" d="M998.036,-820.262C1008.35,-819.225 1016,-814.805 1016,-807 1016,-802 1012.86,-798.389 1007.89,-796.167"/>
<polygon fill="red" stroke="red" points="1008.58,-792.732 998.036,-793.738 1006.91,-799.529 1008.58,-792.732"/>
</g>
<!-- distcleanNeeded -->
<g id="node34" class="node"><title>distcleanNeeded</title>
<polygon fill="orange" stroke="black" points="934,-753 828,-753 828,-717 934,-717 934,-753"/>
<text text-anchor="middle" x="881" y="-731.3" font-family="Times,serif" font-size="14.00">distcleanNeeded</text>
</g>
<!-- distclean&#45;&gt;distcleanNeeded -->
<g id="edge39" class="edge"><title>distclean&#45;&gt;distcleanNeeded</title>
<path fill="none" stroke="black" d="M865.944,-788.697C868.172,-780.898 870.855,-771.509 873.335,-762.829"/>
<polygon fill="black" stroke="black" points="876.731,-763.681 876.113,-753.104 870,-761.758 876.731,-763.681"/>
</g>
<!-- distcleanNeeded&#45;&gt;distcleanNeeded -->
<g id="edge40" class="edge"><title>distcleanNeeded&#45;&gt;distcleanNeeded</title>
<path fill="none" stroke="red" d="M934.257,-747.899C944.632,-746.401 952,-742.102 952,-735 952,-730.451 948.976,-727.051 944.075,-724.801"/>
<polygon fill="red" stroke="red" points="944.827,-721.378 934.257,-722.101 942.971,-728.128 944.827,-721.378"/>
</g>
<!-- p2FeaturesTree -->
<g id="node36" class="node"><title>p2FeaturesTree</title>
<polygon fill="none" stroke="black" points="942.25,-590 841.75,-590 841.75,-554 942.25,-554 942.25,-590"/>
<text text-anchor="middle" x="892" y="-568.3" font-family="Times,serif" font-size="14.00">p2FeaturesTree</text>
</g>
<!-- p2Entry&#45;&gt;p2FeaturesTree -->
<g id="edge42" class="edge"><title>p2Entry&#45;&gt;p2FeaturesTree</title>
<path fill="none" stroke="black" d="M892,-625.697C892,-617.983 892,-608.712 892,-600.112"/>
<polygon fill="black" stroke="black" points="895.5,-600.104 892,-590.104 888.5,-600.104 895.5,-600.104"/>
</g>
<!-- p2PluginsPelagic -->
<g id="node39" class="node"><title>p2PluginsPelagic</title>
<polygon fill="none" stroke="black" points="1092,-518 982,-518 982,-482 1092,-482 1092,-518"/>
<text text-anchor="middle" x="1037" y="-496.3" font-family="Times,serif" font-size="14.00">p2PluginsPelagic</text>
</g>
<!-- p2Entry&#45;&gt;p2PluginsPelagic -->
<g id="edge45" class="edge"><title>p2Entry&#45;&gt;p2PluginsPelagic</title>
<path fill="none" stroke="black" d="M916.678,-625.837C927.589,-617.836 940.334,-607.907 951,-598 975.494,-575.25 1000.52,-546.245 1017.21,-525.902"/>
<polygon fill="black" stroke="black" points="1020.02,-527.993 1023.61,-518.026 1014.59,-523.578 1020.02,-527.993"/>
</g>
<!-- p2FeatureGradlePlugin -->
<g id="node37" class="node"><title>p2FeatureGradlePlugin</title>
<polygon fill="none" stroke="black" points="963.25,-518 820.75,-518 820.75,-482 963.25,-482 963.25,-518"/>
<text text-anchor="middle" x="892" y="-496.3" font-family="Times,serif" font-size="14.00">p2FeatureGradlePlugin</text>
</g>
<!-- p2FeaturesTree&#45;&gt;p2FeatureGradlePlugin -->
<g id="edge43" class="edge"><title>p2FeaturesTree&#45;&gt;p2FeatureGradlePlugin</title>
<path fill="none" stroke="black" d="M892,-553.697C892,-545.983 892,-536.712 892,-528.112"/>
<polygon fill="black" stroke="black" points="895.5,-528.104 892,-518.104 888.5,-528.104 895.5,-528.104"/>
</g>
<!-- p2Features -->
<g id="node38" class="node"><title>p2Features</title>
<polygon fill="none" stroke="black" points="943,-446 867,-446 867,-410 943,-410 943,-446"/>
<text text-anchor="middle" x="905" y="-424.3" font-family="Times,serif" font-size="14.00">p2Features</text>
</g>
<!-- p2FeatureGradlePlugin&#45;&gt;p2Features -->
<g id="edge44" class="edge"><title>p2FeatureGradlePlugin&#45;&gt;p2Features</title>
<path fill="none" stroke="black" d="M895.213,-481.697C896.646,-473.983 898.368,-464.712 899.965,-456.112"/>
<polygon fill="black" stroke="black" points="903.439,-456.575 901.823,-446.104 896.556,-455.297 903.439,-456.575"/>
</g>
<!-- p2 -->
<g id="node41" class="node"><title>p2</title>
<polygon fill="yellow" stroke="black" points="967,-363 913,-363 913,-327 967,-327 967,-363"/>
<text text-anchor="middle" x="940" y="-341.3" font-family="Times,serif" font-size="14.00">p2</text>
</g>
<!-- p2Features&#45;&gt;p2 -->
<g id="edge47" class="edge"><title>p2Features&#45;&gt;p2</title>
<path fill="none" stroke="black" d="M912.423,-409.822C917.109,-398.976 923.259,-384.744 928.561,-372.472"/>
<polygon fill="black" stroke="black" points="931.834,-373.721 932.588,-363.153 925.409,-370.945 931.834,-373.721"/>
</g>
<!-- p2Plugins -->
<g id="node40" class="node"><title>p2Plugins</title>
<polygon fill="none" stroke="black" points="1058.25,-446 987.75,-446 987.75,-410 1058.25,-410 1058.25,-446"/>
<text text-anchor="middle" x="1023" y="-424.3" font-family="Times,serif" font-size="14.00">p2Plugins</text>
</g>
<!-- p2PluginsPelagic&#45;&gt;p2Plugins -->
<g id="edge46" class="edge"><title>p2PluginsPelagic&#45;&gt;p2Plugins</title>
<path fill="none" stroke="black" d="M1033.54,-481.697C1032,-473.983 1030.14,-464.712 1028.42,-456.112"/>
<polygon fill="black" stroke="black" points="1031.81,-455.224 1026.42,-446.104 1024.95,-456.597 1031.81,-455.224"/>
</g>
<!-- p2Plugins&#45;&gt;p2 -->
<g id="edge48" class="edge"><title>p2Plugins&#45;&gt;p2</title>
<path fill="none" stroke="black" d="M1005.4,-409.822C993.623,-398.331 977.955,-383.041 964.907,-370.307"/>
<polygon fill="black" stroke="black" points="967.178,-367.633 957.577,-363.153 962.289,-372.642 967.178,-367.633"/>
</g>
<!-- indexBuild -->
<g id="node42" class="node"><title>indexBuild</title>
<polygon fill="yellow" stroke="black" points="967,-291 913,-291 913,-255 967,-255 967,-291"/>
<text text-anchor="middle" x="940" y="-269.3" font-family="Times,serif" font-size="14.00">index</text>
</g>
<!-- p2&#45;&gt;indexBuild -->
<g id="edge49" class="edge"><title>p2&#45;&gt;indexBuild</title>
<path fill="none" stroke="black" d="M940,-326.697C940,-318.983 940,-309.712 940,-301.112"/>
<polygon fill="black" stroke="black" points="943.5,-301.104 940,-291.104 936.5,-301.104 943.5,-301.104"/>
</g>
<!-- distCompositePelagic -->
<g id="node43" class="node"><title>distCompositePelagic</title>
<polygon fill="none" stroke="black" points="981.25,-219 846.75,-219 846.75,-183 981.25,-183 981.25,-219"/>
<text text-anchor="middle" x="914" y="-197.3" font-family="Times,serif" font-size="14.00">distCompositePelagic</text>
</g>
<!-- indexBuild&#45;&gt;distCompositePelagic -->
<g id="edge50" class="edge"><title>indexBuild&#45;&gt;distCompositePelagic</title>
<path fill="none" stroke="black" d="M933.573,-254.697C930.645,-246.813 927.113,-237.304 923.86,-228.546"/>
<polygon fill="black" stroke="black" points="927.116,-227.26 920.353,-219.104 920.554,-229.697 927.116,-227.26"/>
</g>
<!-- distZipPelagic -->
<g id="node44" class="node"><title>distZipPelagic</title>
<polygon fill="none" stroke="black" points="1004.25,-147 909.75,-147 909.75,-111 1004.25,-111 1004.25,-147"/>
<text text-anchor="middle" x="957" y="-125.3" font-family="Times,serif" font-size="14.00">distZipPelagic</text>
</g>
<!-- indexBuild&#45;&gt;distZipPelagic -->
<g id="edge51" class="edge"><title>indexBuild&#45;&gt;distZipPelagic</title>
<path fill="none" stroke="black" d="M962.596,-254.963C973.059,-245.635 984.396,-233.107 990,-219 995.907,-204.13 994.398,-198.384 990,-183 987.287,-173.51 982.328,-164.065 977.065,-155.834"/>
<polygon fill="black" stroke="black" points="979.858,-153.717 971.327,-147.434 974.078,-157.666 979.858,-153.717"/>
</g>
<!-- distCompositePelagic&#45;&gt;distZipPelagic -->
<g id="edge52" class="edge"><title>distCompositePelagic&#45;&gt;distZipPelagic</title>
<path fill="none" stroke="black" d="M924.629,-182.697C929.628,-174.559 935.691,-164.689 941.212,-155.701"/>
<polygon fill="black" stroke="black" points="944.241,-157.457 946.493,-147.104 938.277,-153.793 944.241,-157.457"/>
</g>
<!-- dist -->
<g id="node45" class="node"><title>dist</title>
<polygon fill="yellow" stroke="black" points="984,-75 930,-75 930,-39 984,-39 984,-75"/>
<text text-anchor="middle" x="957" y="-53.3" font-family="Times,serif" font-size="14.00">dist</text>
</g>
<!-- distZipPelagic&#45;&gt;dist -->
<g id="edge53" class="edge"><title>distZipPelagic&#45;&gt;dist</title>
<path fill="none" stroke="black" d="M957,-110.697C957,-102.983 957,-93.7125 957,-85.1124"/>
<polygon fill="black" stroke="black" points="960.5,-85.1043 957,-75.1043 953.5,-85.1044 960.5,-85.1043"/>
</g>
</g>
</svg>
