<?xml version="1.0" encoding="UTF-8" standalone="no"?>
<!DOCTYPE svg PUBLIC "-//W3C//DTD SVG 1.1//EN"
 "http://www.w3.org/Graphics/SVG/1.1/DTD/svg11.dtd">
<!-- Generated by graphviz version 2.34.0 (20140110.0949)
 -->
<!-- Title: GradleSetup Pages: 1 -->
<svg width="999pt" height="971pt"
 viewBox="0.00 0.00 999.00 971.00" xmlns="http://www.w3.org/2000/svg" xmlns:xlink="http://www.w3.org/1999/xlink">
<g id="graph0" class="graph" transform="scale(1 1) rotate(0) translate(4 967)">
<title>GradleSetup</title>
<polygon fill="white" stroke="white" points="-4,4 -4,-967 995,-967 995,4 -4,4"/>
<text text-anchor="middle" x="61" y="-947.8" font-family="Times,serif" font-size="14.00">Gradle Build Setup</text>
<g id="clust1" class="cluster"><title>cluster1</title>
<polygon fill="lightgrey" stroke="black" points="8,-227 8,-932 677,-932 677,-227 8,-227"/>
<text text-anchor="middle" x="92.5" y="-234.8" font-family="Times,serif" font-size="14.00">Java Projects / Bnd Projects</text>
</g>
<g id="clust2" class="cluster"><title>cluster101</title>
</g>
<g id="clust3" class="cluster"><title>cluster102</title>
</g>
<g id="clust4" class="cluster"><title>cluster103</title>
</g>
<g id="clust5" class="cluster"><title>cluster104</title>
</g>
<g id="clust6" class="cluster"><title>cluster105</title>
</g>
<g id="clust7" class="cluster"><title>cluster106</title>
</g>
<g id="clust8" class="cluster"><title>cluster107</title>
</g>
<g id="clust9" class="cluster"><title>cluster108</title>
</g>
<g id="clust10" class="cluster"><title>cluster109</title>
</g>
<g id="clust11" class="cluster"><title>cluster110</title>
</g>
<g id="clust12" class="cluster"><title>cluster2</title>
<polygon fill="lightgrey" stroke="black" points="759,-849 759,-924 909,-924 909,-849 759,-849"/>
<text text-anchor="middle" x="801.5" y="-856.8" font-family="Times,serif" font-size="14.00">Root Project</text>
</g>
<g id="clust13" class="cluster"><title>cluster3</title>
<polygon fill="lightgrey" stroke="black" points="685,-678 685,-841 983,-841 983,-678 685,-678"/>
<text text-anchor="middle" x="725.5" y="-685.8" font-family="Times,serif" font-size="14.00">All Projects</text>
</g>
<g id="clust14" class="cluster"><title>cluster301</title>
</g>
<g id="clust15" class="cluster"><title>cluster302</title>
</g>
<g id="clust16" class="cluster"><title>cluster4</title>
<polygon fill="lightgrey" stroke="black" points="685,-8 685,-670 973,-670 973,-8 685,-8"/>
<text text-anchor="middle" x="729.5" y="-15.8" font-family="Times,serif" font-size="14.00">Build Project</text>
</g>
<!-- compileJava -->
<g id="node1" class="node"><title>compileJava</title>
<polygon fill="lightcyan" stroke="black" points="440.25,-916 355.75,-916 355.75,-880 440.25,-880 440.25,-916"/>
<text text-anchor="middle" x="398" y="-894.3" font-family="Times,serif" font-size="14.00">compileJava</text>
</g>
<!-- classes -->
<g id="node3" class="node"><title>classes</title>
<polygon fill="lightcyan" stroke="black" points="353,-825 299,-825 299,-789 353,-789 353,-825"/>
<text text-anchor="middle" x="326" y="-803.3" font-family="Times,serif" font-size="14.00">classes</text>
</g>
<!-- compileJava&#45;&gt;classes -->
<g id="edge1" class="edge"><title>compileJava&#45;&gt;classes</title>
<path fill="none" stroke="black" d="M384.118,-879.84C373.36,-866.543 358.301,-847.927 346.207,-832.978"/>
<polygon fill="black" stroke="black" points="348.85,-830.681 339.84,-825.107 343.408,-835.083 348.85,-830.681"/>
</g>
<!-- processResources -->
<g id="node2" class="node"><title>processResources</title>
<polygon fill="lightcyan" stroke="black" points="337.25,-916 224.75,-916 224.75,-880 337.25,-880 337.25,-916"/>
<text text-anchor="middle" x="281" y="-894.3" font-family="Times,serif" font-size="14.00">processResources</text>
</g>
<!-- processResources&#45;&gt;classes -->
<g id="edge2" class="edge"><title>processResources&#45;&gt;classes</title>
<path fill="none" stroke="black" d="M289.676,-879.84C296.213,-866.912 305.291,-848.958 312.736,-834.232"/>
<polygon fill="black" stroke="black" points="315.961,-835.611 317.35,-825.107 309.714,-832.452 315.961,-835.611"/>
</g>
<!-- jar -->
<g id="node4" class="node"><title>jar</title>
<polygon fill="cyan" stroke="black" points="425,-753 371,-753 371,-717 425,-717 425,-753"/>
<text text-anchor="middle" x="398" y="-731.3" font-family="Times,serif" font-size="14.00">jar</text>
</g>
<!-- classes&#45;&gt;jar -->
<g id="edge4" class="edge"><title>classes&#45;&gt;jar</title>
<path fill="none" stroke="black" d="M343.798,-788.697C352.604,-780.135 363.382,-769.656 373.001,-760.304"/>
<polygon fill="black" stroke="black" points="375.677,-762.585 380.407,-753.104 370.797,-757.566 375.677,-762.585"/>
</g>
<!-- compileTestJava -->
<g id="node5" class="node"><title>compileTestJava</title>
<polygon fill="lightcyan" stroke="black" points="307,-753 199,-753 199,-717 307,-717 307,-753"/>
<text text-anchor="middle" x="253" y="-731.3" font-family="Times,serif" font-size="14.00">compileTestJava</text>
</g>
<!-- classes&#45;&gt;compileTestJava -->
<g id="edge3" class="edge"><title>classes&#45;&gt;compileTestJava</title>
<path fill="none" stroke="black" d="M307.955,-788.697C298.938,-780.05 287.882,-769.449 278.057,-760.027"/>
<polygon fill="black" stroke="black" points="280.478,-757.499 270.837,-753.104 275.633,-762.552 280.478,-757.499"/>
</g>
<!-- test -->
<g id="node8" class="node"><title>test</title>
<polygon fill="lightcyan" stroke="black" points="200,-590 146,-590 146,-554 200,-554 200,-590"/>
<text text-anchor="middle" x="173" y="-568.3" font-family="Times,serif" font-size="14.00">test</text>
</g>
<!-- classes&#45;&gt;test -->
<g id="edge5" class="edge"><title>classes&#45;&gt;test</title>
<path fill="none" stroke="black" d="M326.518,-788.78C327.679,-744.831 329.616,-631.048 319,-618 295.598,-589.236 273.374,-609.122 238,-598 228.767,-595.097 218.953,-591.565 209.824,-588.082"/>
<polygon fill="black" stroke="black" points="210.836,-584.72 200.247,-584.353 208.296,-591.243 210.836,-584.72"/>
</g>
<!-- jar&#45;&gt;compileJava -->
<g id="edge21" class="edge"><title>jar&#45;&gt;compileJava</title>
<path fill="none" stroke="red" d="M398,-753.106C398,-780.866 398,-835.974 398,-869.354"/>
<polygon fill="red" stroke="red" points="394.5,-869.77 398,-879.77 401.5,-869.77 394.5,-869.77"/>
</g>
<!-- uploadArchives -->
<g id="node9" class="node"><title>uploadArchives</title>
<polygon fill="lightcyan" stroke="black" points="352,-590 250,-590 250,-554 352,-554 352,-590"/>
<text text-anchor="middle" x="301" y="-568.3" font-family="Times,serif" font-size="14.00">uploadArchives</text>
</g>
<!-- jar&#45;&gt;uploadArchives -->
<g id="edge8" class="edge"><title>jar&#45;&gt;uploadArchives</title>
<path fill="none" stroke="black" d="M388.572,-716.893C375.9,-694.084 352.477,-652.571 331,-618 327.138,-611.784 322.847,-605.182 318.747,-599.005"/>
<polygon fill="black" stroke="black" points="321.422,-596.711 312.946,-590.354 315.608,-600.609 321.422,-596.711"/>
</g>
<!-- assemble -->
<g id="node10" class="node"><title>assemble</title>
<polygon fill="lightcyan" stroke="black" points="437.25,-590 370.75,-590 370.75,-554 437.25,-554 437.25,-590"/>
<text text-anchor="middle" x="404" y="-568.3" font-family="Times,serif" font-size="14.00">assemble</text>
</g>
<!-- jar&#45;&gt;assemble -->
<g id="edge9" class="edge"><title>jar&#45;&gt;assemble</title>
<path fill="none" stroke="black" d="M398.642,-716.77C399.68,-688.929 401.734,-633.813 402.975,-600.498"/>
<polygon fill="black" stroke="black" points="406.488,-600.229 403.363,-590.106 399.492,-599.969 406.488,-600.229"/>
</g>
<!-- p2Entry -->
<g id="node33" class="node"><title>p2Entry</title>
<polygon fill="none" stroke="black" points="795,-662 735,-662 735,-626 795,-626 795,-662"/>
<text text-anchor="middle" x="765" y="-640.3" font-family="Times,serif" font-size="14.00">p2Entry</text>
</g>
<!-- jar&#45;&gt;p2Entry -->
<g id="edge37" class="edge"><title>jar&#45;&gt;p2Entry</title>
<path fill="none" stroke="red" d="M425.285,-727.383C489.382,-711.839 649.807,-672.935 724.968,-654.708"/>
<polygon fill="red" stroke="red" points="726.095,-658.036 734.989,-652.278 724.446,-651.233 726.095,-658.036"/>
</g>
<!-- testClasses -->
<g id="node7" class="node"><title>testClasses</title>
<polygon fill="lightcyan" stroke="black" points="211,-662 135,-662 135,-626 211,-626 211,-662"/>
<text text-anchor="middle" x="173" y="-640.3" font-family="Times,serif" font-size="14.00">testClasses</text>
</g>
<!-- compileTestJava&#45;&gt;testClasses -->
<g id="edge6" class="edge"><title>compileTestJava&#45;&gt;testClasses</title>
<path fill="none" stroke="black" d="M237.575,-716.84C225.512,-703.419 208.58,-684.582 195.08,-669.564"/>
<polygon fill="black" stroke="black" points="197.666,-667.205 188.377,-662.107 192.46,-671.884 197.666,-667.205"/>
</g>
<!-- processTestResources -->
<g id="node6" class="node"><title>processTestResources</title>
<polygon fill="lightcyan" stroke="black" points="181,-753 45,-753 45,-717 181,-717 181,-753"/>
<text text-anchor="middle" x="113" y="-731.3" font-family="Times,serif" font-size="14.00">processTestResources</text>
</g>
<!-- processTestResources&#45;&gt;testClasses -->
<g id="edge7" class="edge"><title>processTestResources&#45;&gt;testClasses</title>
<path fill="none" stroke="black" d="M124.569,-716.84C133.367,-703.789 145.619,-685.615 155.598,-670.813"/>
<polygon fill="black" stroke="black" points="158.779,-672.356 161.467,-662.107 152.975,-668.443 158.779,-672.356"/>
</g>
<!-- testClasses&#45;&gt;test -->
<g id="edge10" class="edge"><title>testClasses&#45;&gt;test</title>
<path fill="none" stroke="black" d="M173,-625.697C173,-617.983 173,-608.712 173,-600.112"/>
<polygon fill="black" stroke="black" points="176.5,-600.104 173,-590.104 169.5,-600.104 176.5,-600.104"/>
</g>
<!-- check -->
<g id="node11" class="node"><title>check</title>
<polygon fill="cyan" stroke="black" points="306,-446 252,-446 252,-410 306,-410 306,-446"/>
<text text-anchor="middle" x="279" y="-424.3" font-family="Times,serif" font-size="14.00">check</text>
</g>
<!-- test&#45;&gt;check -->
<g id="edge13" class="edge"><title>test&#45;&gt;check</title>
<path fill="none" stroke="black" d="M162.526,-553.96C151.273,-533.222 137.127,-498.008 154,-474 173.667,-446.017 212.491,-435.354 241.68,-431.334"/>
<polygon fill="black" stroke="black" points="242.419,-434.772 251.945,-430.134 241.606,-427.819 242.419,-434.772"/>
</g>
<!-- findbugsTest -->
<g id="node21" class="node"><title>findbugsTest</title>
<polygon fill="orange" stroke="black" points="253.25,-518 166.75,-518 166.75,-482 253.25,-482 253.25,-518"/>
<text text-anchor="middle" x="210" y="-496.3" font-family="Times,serif" font-size="14.00">findbugsTest</text>
</g>
<!-- test&#45;&gt;findbugsTest -->
<g id="edge28" class="edge"><title>test&#45;&gt;findbugsTest</title>
<path fill="none" stroke="black" d="M182.146,-553.697C186.403,-545.644 191.556,-535.894 196.266,-526.982"/>
<polygon fill="black" stroke="black" points="199.38,-528.581 200.959,-518.104 193.192,-525.31 199.38,-528.581"/>
</g>
<!-- jacocoTestReport -->
<g id="node26" class="node"><title>jacocoTestReport</title>
<polygon fill="orange" stroke="black" points="128,-518 16,-518 16,-482 128,-482 128,-518"/>
<text text-anchor="middle" x="72" y="-496.3" font-family="Times,serif" font-size="14.00">jacocoTestReport</text>
</g>
<!-- test&#45;&gt;jacocoTestReport -->
<g id="edge31" class="edge"><title>test&#45;&gt;jacocoTestReport</title>
<path fill="none" stroke="black" d="M148.293,-553.876C135.331,-544.893 119.272,-533.763 105.235,-524.034"/>
<polygon fill="black" stroke="black" points="107.015,-521.009 96.8024,-518.19 103.028,-526.763 107.015,-521.009"/>
</g>
<!-- assemble&#45;&gt;check -->
<g id="edge12" class="edge"><title>assemble&#45;&gt;check</title>
<path fill="none" stroke="black" d="M400.973,-553.594C396.408,-529.064 387.206,-485.973 377,-474 361.344,-455.634 336.607,-444.354 315.903,-437.681"/>
<polygon fill="black" stroke="black" points="316.705,-434.267 306.121,-434.764 314.704,-440.976 316.705,-434.267"/>
</g>
<!-- release -->
<g id="node13" class="node"><title>release</title>
<polygon fill="cyan" stroke="black" points="486,-518 432,-518 432,-482 486,-482 486,-518"/>
<text text-anchor="middle" x="459" y="-496.3" font-family="Times,serif" font-size="14.00">release</text>
</g>
<!-- assemble&#45;&gt;release -->
<g id="edge22" class="edge"><title>assemble&#45;&gt;release</title>
<path fill="none" stroke="black" d="M417.596,-553.697C424.123,-545.389 432.068,-535.277 439.247,-526.141"/>
<polygon fill="black" stroke="black" points="442.135,-528.13 445.561,-518.104 436.631,-523.805 442.135,-528.13"/>
</g>
<!-- exportX -->
<g id="node15" class="node"><title>exportX</title>
<polygon fill="cyan" stroke="black" points="660.25,-518 563.75,-518 559.75,-514 559.75,-482 656.25,-482 660.25,-486 660.25,-518"/>
<polyline fill="none" stroke="black" points="656.25,-514 559.75,-514 "/>
<polyline fill="none" stroke="black" points="656.25,-514 656.25,-482 "/>
<polyline fill="none" stroke="black" points="656.25,-514 660.25,-518 "/>
<text text-anchor="middle" x="610" y="-496.3" font-family="Times,serif" font-size="14.00">export.&lt;name&gt;</text>
</g>
<!-- assemble&#45;&gt;exportX -->
<g id="edge23" class="edge"><title>assemble&#45;&gt;exportX</title>
<path fill="none" stroke="black" d="M437.457,-561.225C466.584,-552.535 509.844,-539.199 547,-526 550.76,-524.664 554.629,-523.244 558.512,-521.785"/>
<polygon fill="black" stroke="black" points="560.049,-524.944 568.14,-518.104 557.55,-518.406 560.049,-524.944"/>
</g>
<!-- build -->
<g id="node17" class="node"><title>build</title>
<polygon fill="lightcyan" stroke="black" points="429,-374 375,-374 375,-338 429,-338 429,-374"/>
<text text-anchor="middle" x="402" y="-352.3" font-family="Times,serif" font-size="14.00">build</text>
</g>
<!-- assemble&#45;&gt;build -->
<g id="edge11" class="edge"><title>assemble&#45;&gt;build</title>
<path fill="none" stroke="black" d="M403.84,-553.849C403.494,-516.832 402.675,-429.181 402.256,-384.386"/>
<polygon fill="black" stroke="black" points="405.754,-384.199 402.161,-374.232 398.755,-384.265 405.754,-384.199"/>
</g>
<!-- findbugsMain -->
<g id="node20" class="node"><title>findbugsMain</title>
<polygon fill="orange" stroke="black" points="364.25,-518 271.75,-518 271.75,-482 364.25,-482 364.25,-518"/>
<text text-anchor="middle" x="318" y="-496.3" font-family="Times,serif" font-size="14.00">findbugsMain</text>
</g>
<!-- assemble&#45;&gt;findbugsMain -->
<g id="edge27" class="edge"><title>assemble&#45;&gt;findbugsMain</title>
<path fill="none" stroke="black" d="M382.742,-553.697C371.911,-544.881 358.582,-534.032 346.84,-524.474"/>
<polygon fill="black" stroke="black" points="348.979,-521.703 339.014,-518.104 344.56,-527.132 348.979,-521.703"/>
</g>
<!-- checkNeeded -->
<g id="node12" class="node"><title>checkNeeded</title>
<polygon fill="cyan" stroke="black" points="305.25,-374 216.75,-374 216.75,-338 305.25,-338 305.25,-374"/>
<text text-anchor="middle" x="261" y="-352.3" font-family="Times,serif" font-size="14.00">checkNeeded</text>
</g>
<!-- check&#45;&gt;checkNeeded -->
<g id="edge14" class="edge"><title>check&#45;&gt;checkNeeded</title>
<path fill="none" stroke="black" d="M274.551,-409.697C272.545,-401.898 270.131,-392.509 267.899,-383.829"/>
<polygon fill="black" stroke="black" points="271.278,-382.918 265.398,-374.104 264.499,-384.661 271.278,-382.918"/>
</g>
<!-- check&#45;&gt;build -->
<g id="edge16" class="edge"><title>check&#45;&gt;build</title>
<path fill="none" stroke="black" d="M306.298,-411.465C323.894,-401.451 346.968,-388.319 366.05,-377.459"/>
<polygon fill="black" stroke="black" points="367.819,-380.48 374.779,-372.492 364.356,-374.396 367.819,-380.48"/>
</g>
<!-- checkNeeded&#45;&gt;checkNeeded -->
<g id="edge15" class="edge"><title>checkNeeded&#45;&gt;checkNeeded</title>
<path fill="none" stroke="red" d="M305.306,-369.203C315.507,-368.065 323,-363.664 323,-356 323,-351.09 319.925,-347.52 315.032,-345.288"/>
<polygon fill="red" stroke="red" points="315.862,-341.888 305.306,-342.797 314.125,-348.669 315.862,-341.888"/>
</g>
<!-- releaseNeeded -->
<g id="node14" class="node"><title>releaseNeeded</title>
<polygon fill="cyan" stroke="black" points="516.25,-446 421.75,-446 421.75,-410 516.25,-410 516.25,-446"/>
<text text-anchor="middle" x="469" y="-424.3" font-family="Times,serif" font-size="14.00">releaseNeeded</text>
</g>
<!-- release&#45;&gt;releaseNeeded -->
<g id="edge25" class="edge"><title>release&#45;&gt;releaseNeeded</title>
<path fill="none" stroke="black" d="M461.472,-481.697C462.574,-473.983 463.898,-464.712 465.127,-456.112"/>
<polygon fill="black" stroke="black" points="468.607,-456.499 466.557,-446.104 461.677,-455.509 468.607,-456.499"/>
</g>
<!-- releaseNeeded&#45;&gt;releaseNeeded -->
<g id="edge26" class="edge"><title>releaseNeeded&#45;&gt;releaseNeeded</title>
<path fill="none" stroke="red" d="M516.326,-441.101C526.571,-439.82 534,-435.453 534,-428 534,-423.225 530.951,-419.717 526.066,-417.476"/>
<polygon fill="red" stroke="red" points="526.889,-414.073 516.326,-414.899 525.098,-420.84 526.889,-414.073"/>
</g>
<!-- export -->
<g id="node16" class="node"><title>export</title>
<polygon fill="cyan" stroke="black" points="637,-446 583,-446 583,-410 637,-410 637,-446"/>
<text text-anchor="middle" x="610" y="-424.3" font-family="Times,serif" font-size="14.00">export</text>
</g>
<!-- exportX&#45;&gt;export -->
<g id="edge24" class="edge"><title>exportX&#45;&gt;export</title>
<path fill="none" stroke="black" d="M610,-481.697C610,-473.983 610,-464.712 610,-456.112"/>
<polygon fill="black" stroke="black" points="613.5,-456.104 610,-446.104 606.5,-456.104 613.5,-456.104"/>
</g>
<!-- buildDependents -->
<g id="node18" class="node"><title>buildDependents</title>
<polygon fill="lightcyan" stroke="black" points="456,-302 348,-302 348,-266 456,-266 456,-302"/>
<text text-anchor="middle" x="402" y="-280.3" font-family="Times,serif" font-size="14.00">buildDependents</text>
</g>
<!-- build&#45;&gt;buildDependents -->
<g id="edge17" class="edge"><title>build&#45;&gt;buildDependents</title>
<path fill="none" stroke="black" d="M402,-337.697C402,-329.983 402,-320.712 402,-312.112"/>
<polygon fill="black" stroke="black" points="405.5,-312.104 402,-302.104 398.5,-312.104 405.5,-312.104"/>
</g>
<!-- buildNeeded -->
<g id="node19" class="node"><title>buildNeeded</title>
<polygon fill="lightcyan" stroke="black" points="578,-302 492,-302 492,-266 578,-266 578,-302"/>
<text text-anchor="middle" x="535" y="-280.3" font-family="Times,serif" font-size="14.00">buildNeeded</text>
</g>
<!-- build&#45;&gt;buildNeeded -->
<g id="edge19" class="edge"><title>build&#45;&gt;buildNeeded</title>
<path fill="none" stroke="black" d="M429.235,-340.666C447.772,-330.91 472.649,-317.816 493.62,-306.779"/>
<polygon fill="black" stroke="black" points="495.421,-309.786 502.64,-302.032 492.161,-303.592 495.421,-309.786"/>
</g>
<!-- buildDependents&#45;&gt;buildDependents -->
<g id="edge18" class="edge"><title>buildDependents&#45;&gt;buildDependents</title>
<path fill="none" stroke="yellow" d="M456.007,-296.899C466.529,-295.401 474,-291.102 474,-284 474,-279.451 470.934,-276.051 465.964,-273.801"/>
<polygon fill="yellow" stroke="yellow" points="466.575,-270.341 456.007,-271.101 464.742,-277.097 466.575,-270.341"/>
</g>
<!-- buildNeeded&#45;&gt;buildNeeded -->
<g id="edge20" class="edge"><title>buildNeeded&#45;&gt;buildNeeded</title>
<path fill="none" stroke="red" d="M578.036,-297.262C588.355,-296.225 596,-291.805 596,-284 596,-279 592.862,-275.389 587.894,-273.167"/>
<polygon fill="red" stroke="red" points="588.583,-269.732 578.036,-270.738 586.909,-276.529 588.583,-269.732"/>
</g>
<!-- findbugsMain&#45;&gt;check -->
<g id="edge29" class="edge"><title>findbugsMain&#45;&gt;check</title>
<path fill="none" stroke="green" d="M308.36,-481.697C303.873,-473.644 298.441,-463.894 293.476,-454.982"/>
<polygon fill="green" stroke="green" points="296.454,-453.137 288.53,-446.104 290.339,-456.544 296.454,-453.137"/>
</g>
<!-- findbugsTest&#45;&gt;check -->
<g id="edge30" class="edge"><title>findbugsTest&#45;&gt;check</title>
<path fill="none" stroke="green" d="M227.056,-481.697C235.495,-473.135 245.825,-462.656 255.043,-453.304"/>
<polygon fill="green" stroke="green" points="257.613,-455.683 262.14,-446.104 252.627,-450.769 257.613,-455.683"/>
</g>
<!-- javadoc -->
<g id="node22" class="node"><title>javadoc</title>
<polygon fill="lightcyan" stroke="black" points="560.25,-916 501.75,-916 501.75,-880 560.25,-880 560.25,-916"/>
<text text-anchor="middle" x="531" y="-894.3" font-family="Times,serif" font-size="14.00">javadoc</text>
</g>
<!-- clean -->
<g id="node23" class="node"><title>clean</title>
<polygon fill="cyan" stroke="black" points="669,-916 615,-916 615,-880 669,-880 669,-916"/>
<text text-anchor="middle" x="642" y="-894.3" font-family="Times,serif" font-size="14.00">clean</text>
</g>
<!-- cleanNeeded -->
<g id="node30" class="node"><title>cleanNeeded</title>
<polygon fill="orange" stroke="black" points="871,-825 785,-825 785,-789 871,-789 871,-825"/>
<text text-anchor="middle" x="828" y="-803.3" font-family="Times,serif" font-size="14.00">cleanNeeded</text>
</g>
<!-- clean&#45;&gt;cleanNeeded -->
<g id="edge32" class="edge"><title>clean&#45;&gt;cleanNeeded</title>
<path fill="none" stroke="blue" d="M669.333,-885.198C692.176,-875.381 725.639,-861.106 755,-849 763.851,-845.351 766.459,-845.325 775,-841 781.237,-837.842 787.696,-834.18 793.869,-830.469"/>
<polygon fill="blue" stroke="blue" points="795.977,-833.281 802.649,-825.05 792.301,-827.324 795.977,-833.281"/>
</g>
<!-- distclean -->
<g id="node31" class="node"><title>distclean</title>
<polygon fill="orange" stroke="black" points="766.25,-825 701.75,-825 701.75,-789 766.25,-789 766.25,-825"/>
<text text-anchor="middle" x="734" y="-803.3" font-family="Times,serif" font-size="14.00">distclean</text>
</g>
<!-- clean&#45;&gt;distclean -->
<g id="edge34" class="edge"><title>clean&#45;&gt;distclean</title>
<path fill="none" stroke="blue" d="M659.739,-879.84C673.739,-866.296 693.441,-847.236 709.034,-832.152"/>
<polygon fill="blue" stroke="blue" points="711.562,-834.576 716.316,-825.107 706.695,-829.545 711.562,-834.576"/>
</g>
<!-- echo -->
<g id="node24" class="node"><title>echo</title>
<polygon fill="cyan" stroke="black" points="198,-916 144,-916 144,-880 198,-880 198,-916"/>
<text text-anchor="middle" x="171" y="-894.3" font-family="Times,serif" font-size="14.00">echo</text>
</g>
<!-- bndproperties -->
<g id="node25" class="node"><title>bndproperties</title>
<polygon fill="cyan" stroke="black" points="109.25,-916 18.75,-916 18.75,-880 109.25,-880 109.25,-916"/>
<text text-anchor="middle" x="64" y="-894.3" font-family="Times,serif" font-size="14.00">bndproperties</text>
</g>
<!-- init -->
<g id="node27" class="node"><title>init</title>
<polygon fill="lightcyan" stroke="black" points="901,-916 847,-916 847,-880 901,-880 901,-916"/>
<text text-anchor="middle" x="874" y="-894.3" font-family="Times,serif" font-size="14.00">init</text>
</g>
<!-- wrapper -->
<g id="node28" class="node"><title>wrapper</title>
<polygon fill="orange" stroke="black" points="828.25,-916 767.75,-916 767.75,-880 828.25,-880 828.25,-916"/>
<text text-anchor="middle" x="798" y="-894.3" font-family="Times,serif" font-size="14.00">wrapper</text>
</g>
<!-- index -->
<g id="node29" class="node"><title>index</title>
<polygon fill="orange" stroke="black" points="967,-825 913,-825 913,-789 967,-789 967,-825"/>
<text text-anchor="middle" x="940" y="-803.3" font-family="Times,serif" font-size="14.00">index</text>
</g>
<!-- cleanNeeded&#45;&gt;cleanNeeded -->
<g id="edge33" class="edge"><title>cleanNeeded&#45;&gt;cleanNeeded</title>
<path fill="none" stroke="red" d="M871.036,-820.262C881.355,-819.225 889,-814.805 889,-807 889,-802 885.862,-798.389 880.894,-796.167"/>
<polygon fill="red" stroke="red" points="881.583,-792.732 871.036,-793.738 879.909,-799.529 881.583,-792.732"/>
</g>
<!-- distcleanNeeded -->
<g id="node32" class="node"><title>distcleanNeeded</title>
<polygon fill="orange" stroke="black" points="807,-753 701,-753 701,-717 807,-717 807,-753"/>
<text text-anchor="middle" x="754" y="-731.3" font-family="Times,serif" font-size="14.00">distcleanNeeded</text>
</g>
<!-- distclean&#45;&gt;distcleanNeeded -->
<g id="edge35" class="edge"><title>distclean&#45;&gt;distcleanNeeded</title>
<path fill="none" stroke="black" d="M738.944,-788.697C741.172,-780.898 743.855,-771.509 746.335,-762.829"/>
<polygon fill="black" stroke="black" points="749.731,-763.681 749.113,-753.104 743,-761.758 749.731,-763.681"/>
</g>
<!-- distcleanNeeded&#45;&gt;distcleanNeeded -->
<g id="edge36" class="edge"><title>distcleanNeeded&#45;&gt;distcleanNeeded</title>
<path fill="none" stroke="red" d="M807.257,-747.899C817.632,-746.401 825,-742.102 825,-735 825,-730.451 821.976,-727.051 817.075,-724.801"/>
<polygon fill="red" stroke="red" points="817.827,-721.378 807.257,-722.101 815.971,-728.128 817.827,-721.378"/>
</g>
<!-- p2FeaturesTree -->
<g id="node34" class="node"><title>p2FeaturesTree</title>
<polygon fill="none" stroke="black" points="815.25,-590 714.75,-590 714.75,-554 815.25,-554 815.25,-590"/>
<text text-anchor="middle" x="765" y="-568.3" font-family="Times,serif" font-size="14.00">p2FeaturesTree</text>
</g>
<!-- p2Entry&#45;&gt;p2FeaturesTree -->
<g id="edge38" class="edge"><title>p2Entry&#45;&gt;p2FeaturesTree</title>
<path fill="none" stroke="black" d="M765,-625.697C765,-617.983 765,-608.712 765,-600.112"/>
<polygon fill="black" stroke="black" points="768.5,-600.104 765,-590.104 761.5,-600.104 768.5,-600.104"/>
</g>
<!-- p2PluginsPelagic -->
<g id="node37" class="node"><title>p2PluginsPelagic</title>
<polygon fill="none" stroke="black" points="965,-518 855,-518 855,-482 965,-482 965,-518"/>
<text text-anchor="middle" x="910" y="-496.3" font-family="Times,serif" font-size="14.00">p2PluginsPelagic</text>
</g>
<!-- p2Entry&#45;&gt;p2PluginsPelagic -->
<g id="edge41" class="edge"><title>p2Entry&#45;&gt;p2PluginsPelagic</title>
<path fill="none" stroke="black" d="M789.678,-625.837C800.589,-617.836 813.334,-607.907 824,-598 848.494,-575.25 873.516,-546.245 890.208,-525.902"/>
<polygon fill="black" stroke="black" points="893.018,-527.993 896.609,-518.026 887.586,-523.578 893.018,-527.993"/>
</g>
<!-- p2FeatureGradlePlugin -->
<g id="node35" class="node"><title>p2FeatureGradlePlugin</title>
<polygon fill="none" stroke="black" points="836.25,-518 693.75,-518 693.75,-482 836.25,-482 836.25,-518"/>
<text text-anchor="middle" x="765" y="-496.3" font-family="Times,serif" font-size="14.00">p2FeatureGradlePlugin</text>
</g>
<!-- p2FeaturesTree&#45;&gt;p2FeatureGradlePlugin -->
<g id="edge39" class="edge"><title>p2FeaturesTree&#45;&gt;p2FeatureGradlePlugin</title>
<path fill="none" stroke="black" d="M765,-553.697C765,-545.983 765,-536.712 765,-528.112"/>
<polygon fill="black" stroke="black" points="768.5,-528.104 765,-518.104 761.5,-528.104 768.5,-528.104"/>
</g>
<!-- p2Features -->
<g id="node36" class="node"><title>p2Features</title>
<polygon fill="none" stroke="black" points="816,-446 740,-446 740,-410 816,-410 816,-446"/>
<text text-anchor="middle" x="778" y="-424.3" font-family="Times,serif" font-size="14.00">p2Features</text>
</g>
<!-- p2FeatureGradlePlugin&#45;&gt;p2Features -->
<g id="edge40" class="edge"><title>p2FeatureGradlePlugin&#45;&gt;p2Features</title>
<path fill="none" stroke="black" d="M768.213,-481.697C769.646,-473.983 771.368,-464.712 772.965,-456.112"/>
<polygon fill="black" stroke="black" points="776.439,-456.575 774.823,-446.104 769.556,-455.297 776.439,-456.575"/>
</g>
<!-- p2 -->
<g id="node39" class="node"><title>p2</title>
<polygon fill="yellow" stroke="black" points="840,-374 786,-374 786,-338 840,-338 840,-374"/>
<text text-anchor="middle" x="813" y="-352.3" font-family="Times,serif" font-size="14.00">p2</text>
</g>
<!-- p2Features&#45;&gt;p2 -->
<g id="edge43" class="edge"><title>p2Features&#45;&gt;p2</title>
<path fill="none" stroke="black" d="M786.652,-409.697C790.636,-401.728 795.45,-392.1 799.868,-383.264"/>
<polygon fill="black" stroke="black" points="803.106,-384.614 804.448,-374.104 796.845,-381.483 803.106,-384.614"/>
</g>
<!-- p2Plugins -->
<g id="node38" class="node"><title>p2Plugins</title>
<polygon fill="none" stroke="black" points="931.25,-446 860.75,-446 860.75,-410 931.25,-410 931.25,-446"/>
<text text-anchor="middle" x="896" y="-424.3" font-family="Times,serif" font-size="14.00">p2Plugins</text>
</g>
<!-- p2PluginsPelagic&#45;&gt;p2Plugins -->
<g id="edge42" class="edge"><title>p2PluginsPelagic&#45;&gt;p2Plugins</title>
<path fill="none" stroke="black" d="M906.539,-481.697C904.997,-473.983 903.142,-464.712 901.422,-456.112"/>
<polygon fill="black" stroke="black" points="904.814,-455.224 899.421,-446.104 897.95,-456.597 904.814,-455.224"/>
</g>
<!-- p2Plugins&#45;&gt;p2 -->
<g id="edge44" class="edge"><title>p2Plugins&#45;&gt;p2</title>
<path fill="none" stroke="black" d="M875.483,-409.697C865.131,-400.965 852.414,-390.24 841.161,-380.75"/>
<polygon fill="black" stroke="black" points="843.182,-377.876 833.281,-374.104 838.669,-383.227 843.182,-377.876"/>
</g>
<!-- indexBuild -->
<g id="node40" class="node"><title>indexBuild</title>
<polygon fill="yellow" stroke="black" points="840,-302 786,-302 786,-266 840,-266 840,-302"/>
<text text-anchor="middle" x="813" y="-280.3" font-family="Times,serif" font-size="14.00">index</text>
</g>
<!-- p2&#45;&gt;indexBuild -->
<g id="edge45" class="edge"><title>p2&#45;&gt;indexBuild</title>
<path fill="none" stroke="black" d="M813,-337.697C813,-329.983 813,-320.712 813,-312.112"/>
<polygon fill="black" stroke="black" points="816.5,-312.104 813,-302.104 809.5,-312.104 816.5,-312.104"/>
</g>
<!-- distCompositePelagic -->
<g id="node41" class="node"><title>distCompositePelagic</title>
<polygon fill="none" stroke="black" points="854.25,-219 719.75,-219 719.75,-183 854.25,-183 854.25,-219"/>
<text text-anchor="middle" x="787" y="-197.3" font-family="Times,serif" font-size="14.00">distCompositePelagic</text>
</g>
<!-- indexBuild&#45;&gt;distCompositePelagic -->
<g id="edge46" class="edge"><title>indexBuild&#45;&gt;distCompositePelagic</title>
<path fill="none" stroke="black" d="M807.486,-265.822C804.039,-255.083 799.527,-241.025 795.614,-228.837"/>
<polygon fill="black" stroke="black" points="798.895,-227.605 792.506,-219.153 792.23,-229.744 798.895,-227.605"/>
</g>
<!-- distZipPelagic -->
<g id="node42" class="node"><title>distZipPelagic</title>
<polygon fill="none" stroke="black" points="877.25,-147 782.75,-147 782.75,-111 877.25,-111 877.25,-147"/>
<text text-anchor="middle" x="830" y="-125.3" font-family="Times,serif" font-size="14.00">distZipPelagic</text>
</g>
<!-- indexBuild&#45;&gt;distZipPelagic -->
<g id="edge47" class="edge"><title>indexBuild&#45;&gt;distZipPelagic</title>
<path fill="none" stroke="black" d="M831.544,-265.948C843.036,-254.061 856.757,-237.131 863,-219 868.209,-203.872 867.398,-198.384 863,-183 860.287,-173.51 855.328,-164.065 850.065,-155.834"/>
<polygon fill="black" stroke="black" points="852.858,-153.717 844.327,-147.434 847.078,-157.666 852.858,-153.717"/>
</g>
<!-- distCompositePelagic&#45;&gt;distZipPelagic -->
<g id="edge48" class="edge"><title>distCompositePelagic&#45;&gt;distZipPelagic</title>
<path fill="none" stroke="black" d="M797.629,-182.697C802.628,-174.559 808.691,-164.689 814.212,-155.701"/>
<polygon fill="black" stroke="black" points="817.241,-157.457 819.493,-147.104 811.277,-153.793 817.241,-157.457"/>
</g>
<!-- dist -->
<g id="node43" class="node"><title>dist</title>
<polygon fill="yellow" stroke="black" points="857,-75 803,-75 803,-39 857,-39 857,-75"/>
<text text-anchor="middle" x="830" y="-53.3" font-family="Times,serif" font-size="14.00">dist</text>
</g>
<!-- distZipPelagic&#45;&gt;dist -->
<g id="edge49" class="edge"><title>distZipPelagic&#45;&gt;dist</title>
<path fill="none" stroke="black" d="M830,-110.697C830,-102.983 830,-93.7125 830,-85.1124"/>
<polygon fill="black" stroke="black" points="833.5,-85.1043 830,-75.1043 826.5,-85.1044 833.5,-85.1043"/>
</g>
</g>
</svg>
