<?xml version="1.0" encoding="UTF-8" standalone="no"?>
<!DOCTYPE svg PUBLIC "-//W3C//DTD SVG 1.1//EN"
 "http://www.w3.org/Graphics/SVG/1.1/DTD/svg11.dtd">
<!-- Generated by graphviz version 2.34.0 (20140110.0949)
 -->
<!-- Title: GradleSetup Pages: 1 -->
<svg width="1287pt" height="971pt"
 viewBox="0.00 0.00 1287.00 971.00" xmlns="http://www.w3.org/2000/svg" xmlns:xlink="http://www.w3.org/1999/xlink">
<g id="graph0" class="graph" transform="scale(1 1) rotate(0) translate(4 967)">
<title>GradleSetup</title>
<polygon fill="white" stroke="white" points="-4,4 -4,-967 1283,-967 1283,4 -4,4"/>
<text text-anchor="middle" x="61" y="-947.8" font-family="Times,serif" font-size="14.00">Gradle Build Setup</text>
<g id="clust1" class="cluster"><title>cluster1</title>
<polygon fill="lightgrey" stroke="black" points="8,-227 8,-932 669,-932 669,-227 8,-227"/>
<text text-anchor="middle" x="92.5" y="-234.8" font-family="Times,serif" font-size="14.00">Java Projects / Bnd Projects</text>
</g>
<g id="clust2" class="cluster"><title>cluster101</title>
</g>
<g id="clust3" class="cluster"><title>cluster102</title>
</g>
<g id="clust4" class="cluster"><title>cluster103</title>
</g>
<g id="clust5" class="cluster"><title>cluster104</title>
</g>
<g id="clust6" class="cluster"><title>cluster105</title>
</g>
<g id="clust7" class="cluster"><title>cluster106</title>
</g>
<g id="clust8" class="cluster"><title>cluster107</title>
</g>
<g id="clust9" class="cluster"><title>cluster108</title>
</g>
<g id="clust10" class="cluster"><title>cluster109</title>
</g>
<g id="clust11" class="cluster"><title>cluster110</title>
</g>
<g id="clust12" class="cluster"><title>cluster2</title>
<polygon fill="lightgrey" stroke="black" points="973,-606 973,-841 1271,-841 1271,-606 973,-606"/>
<text text-anchor="middle" x="1013.5" y="-613.8" font-family="Times,serif" font-size="14.00">All Projects</text>
</g>
<g id="clust13" class="cluster"><title>cluster201</title>
</g>
<g id="clust14" class="cluster"><title>cluster202</title>
</g>
<g id="clust15" class="cluster"><title>cluster3</title>
<polygon fill="lightgrey" stroke="black" points="899,-849 899,-924 1049,-924 1049,-849 899,-849"/>
<text text-anchor="middle" x="941.5" y="-856.8" font-family="Times,serif" font-size="14.00">Root Project</text>
</g>
<g id="clust16" class="cluster"><title>cluster4</title>
<polygon fill="lightgrey" stroke="black" points="677,-8 677,-689 965,-689 965,-8 677,-8"/>
<text text-anchor="middle" x="721.5" y="-15.8" font-family="Times,serif" font-size="14.00">Build Project</text>
</g>
<!-- compileJava -->
<g id="node1" class="node"><title>compileJava</title>
<polygon fill="lightcyan" stroke="black" points="495.25,-916 410.75,-916 410.75,-880 495.25,-880 495.25,-916"/>
<text text-anchor="middle" x="453" y="-894.3" font-family="Times,serif" font-size="14.00">compileJava</text>
</g>
<!-- classes -->
<g id="node3" class="node"><title>classes</title>
<polygon fill="lightcyan" stroke="black" points="369,-825 315,-825 315,-789 369,-789 369,-825"/>
<text text-anchor="middle" x="342" y="-803.3" font-family="Times,serif" font-size="14.00">classes</text>
</g>
<!-- compileJava&#45;&gt;classes -->
<g id="edge1" class="edge"><title>compileJava&#45;&gt;classes</title>
<path fill="none" stroke="black" d="M435.73,-879.934C425.858,-870.469 413.072,-858.69 401,-849 393.275,-842.799 384.665,-836.5 376.463,-830.761"/>
<polygon fill="black" stroke="black" points="378.337,-827.802 368.117,-825.009 374.365,-833.566 378.337,-827.802"/>
</g>
<!-- processResources -->
<g id="node2" class="node"><title>processResources</title>
<polygon fill="lightcyan" stroke="black" points="392.25,-916 279.75,-916 279.75,-880 392.25,-880 392.25,-916"/>
<text text-anchor="middle" x="336" y="-894.3" font-family="Times,serif" font-size="14.00">processResources</text>
</g>
<!-- processResources&#45;&gt;classes -->
<g id="edge2" class="edge"><title>processResources&#45;&gt;classes</title>
<path fill="none" stroke="black" d="M337.157,-879.84C338.004,-867.281 339.17,-849.979 340.146,-835.502"/>
<polygon fill="black" stroke="black" points="343.666,-835.32 340.847,-825.107 336.682,-834.849 343.666,-835.32"/>
</g>
<!-- jar -->
<g id="node4" class="node"><title>jar</title>
<polygon fill="cyan" stroke="black" points="480,-753 426,-753 426,-717 480,-717 480,-753"/>
<text text-anchor="middle" x="453" y="-731.3" font-family="Times,serif" font-size="14.00">jar</text>
</g>
<!-- classes&#45;&gt;jar -->
<g id="edge4" class="edge"><title>classes&#45;&gt;jar</title>
<path fill="none" stroke="black" d="M369.154,-788.876C383.533,-779.808 401.381,-768.552 416.91,-758.759"/>
<polygon fill="black" stroke="black" points="419.15,-761.484 425.742,-753.19 415.416,-755.564 419.15,-761.484"/>
</g>
<!-- compileTestJava -->
<g id="node5" class="node"><title>compileTestJava</title>
<polygon fill="lightcyan" stroke="black" points="396,-753 288,-753 288,-717 396,-717 396,-753"/>
<text text-anchor="middle" x="342" y="-731.3" font-family="Times,serif" font-size="14.00">compileTestJava</text>
</g>
<!-- classes&#45;&gt;compileTestJava -->
<g id="edge3" class="edge"><title>classes&#45;&gt;compileTestJava</title>
<path fill="none" stroke="black" d="M342,-788.697C342,-780.983 342,-771.712 342,-763.112"/>
<polygon fill="black" stroke="black" points="345.5,-763.104 342,-753.104 338.5,-763.104 345.5,-763.104"/>
</g>
<!-- test -->
<g id="node8" class="node"><title>test</title>
<polygon fill="lightcyan" stroke="black" points="142,-590 88,-590 88,-554 142,-554 142,-590"/>
<text text-anchor="middle" x="115" y="-568.3" font-family="Times,serif" font-size="14.00">test</text>
</g>
<!-- classes&#45;&gt;test -->
<g id="edge5" class="edge"><title>classes&#45;&gt;test</title>
<path fill="none" stroke="black" d="M314.666,-804.492C261.36,-800.928 146.578,-789.995 122,-761 83.7113,-715.829 96.1438,-640.348 106.66,-600.143"/>
<polygon fill="black" stroke="black" points="110.102,-600.828 109.395,-590.256 103.355,-598.961 110.102,-600.828"/>
</g>
<!-- jar&#45;&gt;compileJava -->
<g id="edge21" class="edge"><title>jar&#45;&gt;compileJava</title>
<path fill="none" stroke="red" d="M453,-753.106C453,-780.866 453,-835.974 453,-869.354"/>
<polygon fill="red" stroke="red" points="449.5,-869.77 453,-879.77 456.5,-869.77 449.5,-869.77"/>
</g>
<!-- uploadArchives -->
<g id="node9" class="node"><title>uploadArchives</title>
<polygon fill="lightcyan" stroke="black" points="603,-590 501,-590 501,-554 603,-554 603,-590"/>
<text text-anchor="middle" x="552" y="-568.3" font-family="Times,serif" font-size="14.00">uploadArchives</text>
</g>
<!-- jar&#45;&gt;uploadArchives -->
<g id="edge8" class="edge"><title>jar&#45;&gt;uploadArchives</title>
<path fill="none" stroke="black" d="M463.595,-716.77C481.012,-688.445 515.789,-631.888 536.148,-598.779"/>
<polygon fill="black" stroke="black" points="539.225,-600.458 541.481,-590.106 533.262,-596.791 539.225,-600.458"/>
</g>
<!-- assemble -->
<g id="node10" class="node"><title>assemble</title>
<polygon fill="lightcyan" stroke="black" points="482.25,-590 415.75,-590 415.75,-554 482.25,-554 482.25,-590"/>
<text text-anchor="middle" x="449" y="-568.3" font-family="Times,serif" font-size="14.00">assemble</text>
</g>
<!-- jar&#45;&gt;assemble -->
<g id="edge9" class="edge"><title>jar&#45;&gt;assemble</title>
<path fill="none" stroke="black" d="M452.572,-716.77C451.88,-688.929 450.511,-633.813 449.683,-600.498"/>
<polygon fill="black" stroke="black" points="453.172,-600.016 449.425,-590.106 446.175,-600.19 453.172,-600.016"/>
</g>
<!-- p2Entry -->
<g id="node35" class="node"><title>p2Entry</title>
<polygon fill="none" stroke="black" points="787,-681 727,-681 727,-645 787,-645 787,-681"/>
<text text-anchor="middle" x="757" y="-659.3" font-family="Times,serif" font-size="14.00">p2Entry</text>
</g>
<!-- jar&#45;&gt;p2Entry -->
<g id="edge42" class="edge"><title>jar&#45;&gt;p2Entry</title>
<path fill="none" stroke="red" d="M480.246,-727.726C533.947,-715.361 653.701,-687.786 716.615,-673.299"/>
<polygon fill="red" stroke="red" points="717.613,-676.661 726.573,-671.006 716.043,-669.839 717.613,-676.661"/>
</g>
<!-- testClasses -->
<g id="node7" class="node"><title>testClasses</title>
<polygon fill="lightcyan" stroke="black" points="240,-681 164,-681 164,-645 240,-645 240,-681"/>
<text text-anchor="middle" x="202" y="-659.3" font-family="Times,serif" font-size="14.00">testClasses</text>
</g>
<!-- compileTestJava&#45;&gt;testClasses -->
<g id="edge6" class="edge"><title>compileTestJava&#45;&gt;testClasses</title>
<path fill="none" stroke="black" d="M307.752,-716.876C288.939,-707.469 265.415,-695.708 245.334,-685.667"/>
<polygon fill="black" stroke="black" points="246.889,-682.531 236.38,-681.19 243.759,-688.792 246.889,-682.531"/>
</g>
<!-- processTestResources -->
<g id="node6" class="node"><title>processTestResources</title>
<polygon fill="lightcyan" stroke="black" points="270,-753 134,-753 134,-717 270,-717 270,-753"/>
<text text-anchor="middle" x="202" y="-731.3" font-family="Times,serif" font-size="14.00">processTestResources</text>
</g>
<!-- processTestResources&#45;&gt;testClasses -->
<g id="edge7" class="edge"><title>processTestResources&#45;&gt;testClasses</title>
<path fill="none" stroke="black" d="M202,-716.697C202,-708.983 202,-699.712 202,-691.112"/>
<polygon fill="black" stroke="black" points="205.5,-691.104 202,-681.104 198.5,-691.104 205.5,-691.104"/>
</g>
<!-- testClasses&#45;&gt;test -->
<g id="edge10" class="edge"><title>testClasses&#45;&gt;test</title>
<path fill="none" stroke="black" d="M185.226,-644.84C172.107,-631.419 153.693,-612.582 139.012,-597.564"/>
<polygon fill="black" stroke="black" points="141.216,-594.812 131.723,-590.107 136.21,-599.705 141.216,-594.812"/>
</g>
<!-- check -->
<g id="node11" class="node"><title>check</title>
<polygon fill="cyan" stroke="black" points="343,-446 289,-446 289,-410 343,-410 343,-446"/>
<text text-anchor="middle" x="316" y="-424.3" font-family="Times,serif" font-size="14.00">check</text>
</g>
<!-- test&#45;&gt;check -->
<g id="edge13" class="edge"><title>test&#45;&gt;check</title>
<path fill="none" stroke="black" d="M87.7218,-565.968C65.7655,-560.326 36.2931,-548.794 22,-526 9.72238,-506.42 6.94492,-491.535 22,-474 54.6343,-435.991 206.704,-429.748 278.404,-428.952"/>
<polygon fill="black" stroke="black" points="278.812,-432.449 288.784,-428.869 278.756,-425.45 278.812,-432.449"/>
</g>
<!-- findbugsTest -->
<g id="node21" class="node"><title>findbugsTest</title>
<polygon fill="orange" stroke="black" points="253.25,-518 166.75,-518 166.75,-482 253.25,-482 253.25,-518"/>
<text text-anchor="middle" x="210" y="-496.3" font-family="Times,serif" font-size="14.00">findbugsTest</text>
</g>
<!-- test&#45;&gt;findbugsTest -->
<g id="edge30" class="edge"><title>test&#45;&gt;findbugsTest</title>
<path fill="none" stroke="black" d="M138.483,-553.697C150.563,-544.796 165.454,-533.823 178.516,-524.199"/>
<polygon fill="black" stroke="black" points="180.813,-526.854 186.787,-518.104 176.66,-521.219 180.813,-526.854"/>
</g>
<!-- jacocoTestReport -->
<g id="node27" class="node"><title>jacocoTestReport</title>
<polygon fill="orange" stroke="black" points="148,-518 36,-518 36,-482 148,-482 148,-518"/>
<text text-anchor="middle" x="92" y="-496.3" font-family="Times,serif" font-size="14.00">jacocoTestReport</text>
</g>
<!-- test&#45;&gt;jacocoTestReport -->
<g id="edge33" class="edge"><title>test&#45;&gt;jacocoTestReport</title>
<path fill="none" stroke="black" d="M109.315,-553.697C106.752,-545.898 103.667,-536.509 100.815,-527.829"/>
<polygon fill="black" stroke="black" points="104.067,-526.512 97.62,-518.104 97.4165,-528.697 104.067,-526.512"/>
</g>
<!-- assemble&#45;&gt;check -->
<g id="edge12" class="edge"><title>assemble&#45;&gt;check</title>
<path fill="none" stroke="black" d="M417.851,-553.823C407.243,-546.536 396.246,-537.131 389,-526 376.06,-506.122 390.018,-493.827 377,-474 370.52,-464.13 361.089,-455.651 351.572,-448.801"/>
<polygon fill="black" stroke="black" points="353.509,-445.885 343.259,-443.206 349.601,-451.693 353.509,-445.885"/>
</g>
<!-- release -->
<g id="node13" class="node"><title>release</title>
<polygon fill="cyan" stroke="black" points="476,-518 422,-518 422,-482 476,-482 476,-518"/>
<text text-anchor="middle" x="449" y="-496.3" font-family="Times,serif" font-size="14.00">release</text>
</g>
<!-- assemble&#45;&gt;release -->
<g id="edge22" class="edge"><title>assemble&#45;&gt;release</title>
<path fill="none" stroke="black" d="M449,-553.697C449,-545.983 449,-536.712 449,-528.112"/>
<polygon fill="black" stroke="black" points="452.5,-528.104 449,-518.104 445.5,-528.104 452.5,-528.104"/>
</g>
<!-- exportX -->
<g id="node15" class="node"><title>exportX</title>
<polygon fill="cyan" stroke="black" points="640.25,-518 543.75,-518 539.75,-514 539.75,-482 636.25,-482 640.25,-486 640.25,-518"/>
<polyline fill="none" stroke="black" points="636.25,-514 539.75,-514 "/>
<polyline fill="none" stroke="black" points="636.25,-514 636.25,-482 "/>
<polyline fill="none" stroke="black" points="636.25,-514 640.25,-518 "/>
<text text-anchor="middle" x="590" y="-496.3" font-family="Times,serif" font-size="14.00">export.&lt;name&gt;</text>
</g>
<!-- assemble&#45;&gt;exportX -->
<g id="edge23" class="edge"><title>assemble&#45;&gt;exportX</title>
<path fill="none" stroke="black" d="M477.467,-553.936C482.275,-551.203 487.248,-548.465 492,-546 507.837,-537.784 525.464,-529.449 541.352,-522.223"/>
<polygon fill="black" stroke="black" points="542.804,-525.408 550.48,-518.105 539.926,-519.027 542.804,-525.408"/>
</g>
<!-- build -->
<g id="node17" class="node"><title>build</title>
<polygon fill="lightcyan" stroke="black" points="550,-374 496,-374 496,-338 550,-338 550,-374"/>
<text text-anchor="middle" x="523" y="-352.3" font-family="Times,serif" font-size="14.00">build</text>
</g>
<!-- assemble&#45;&gt;build -->
<g id="edge11" class="edge"><title>assemble&#45;&gt;build</title>
<path fill="none" stroke="black" d="M474.578,-553.898C480.129,-550.832 486.108,-547.986 492,-546 526.164,-534.484 629.13,-553.019 653,-526 671.244,-505.349 668.983,-424.446 653,-402 632.181,-372.763 591.006,-362.345 560.548,-358.726"/>
<polygon fill="black" stroke="black" points="560.569,-355.211 550.273,-357.71 559.88,-362.177 560.569,-355.211"/>
</g>
<!-- findbugsMain -->
<g id="node20" class="node"><title>findbugsMain</title>
<polygon fill="orange" stroke="black" points="364.25,-518 271.75,-518 271.75,-482 364.25,-482 364.25,-518"/>
<text text-anchor="middle" x="318" y="-496.3" font-family="Times,serif" font-size="14.00">findbugsMain</text>
</g>
<!-- assemble&#45;&gt;findbugsMain -->
<g id="edge29" class="edge"><title>assemble&#45;&gt;findbugsMain</title>
<path fill="none" stroke="black" d="M416.954,-553.876C399.508,-544.554 377.735,-532.919 359.057,-522.939"/>
<polygon fill="black" stroke="black" points="360.639,-519.816 350.169,-518.19 357.34,-525.99 360.639,-519.816"/>
</g>
<!-- checkNeeded -->
<g id="node12" class="node"><title>checkNeeded</title>
<polygon fill="cyan" stroke="black" points="358.25,-374 269.75,-374 269.75,-338 358.25,-338 358.25,-374"/>
<text text-anchor="middle" x="314" y="-352.3" font-family="Times,serif" font-size="14.00">checkNeeded</text>
</g>
<!-- check&#45;&gt;checkNeeded -->
<g id="edge14" class="edge"><title>check&#45;&gt;checkNeeded</title>
<path fill="none" stroke="black" d="M315.506,-409.697C315.285,-401.983 315.02,-392.712 314.775,-384.112"/>
<polygon fill="black" stroke="black" points="318.273,-384 314.489,-374.104 311.276,-384.2 318.273,-384"/>
</g>
<!-- check&#45;&gt;build -->
<g id="edge16" class="edge"><title>check&#45;&gt;build</title>
<path fill="none" stroke="black" d="M343.028,-417.701C356.785,-412.979 373.776,-407.163 389,-402 421.766,-390.888 459.085,-378.366 486.003,-369.358"/>
<polygon fill="black" stroke="black" points="487.406,-372.58 495.78,-366.088 485.186,-365.941 487.406,-372.58"/>
</g>
<!-- checkNeeded&#45;&gt;checkNeeded -->
<g id="edge15" class="edge"><title>checkNeeded&#45;&gt;checkNeeded</title>
<path fill="none" stroke="red" d="M358.306,-369.203C368.507,-368.065 376,-363.664 376,-356 376,-351.09 372.925,-347.52 368.032,-345.288"/>
<polygon fill="red" stroke="red" points="368.862,-341.888 358.306,-342.797 367.125,-348.669 368.862,-341.888"/>
</g>
<!-- releaseNeeded -->
<g id="node14" class="node"><title>releaseNeeded</title>
<polygon fill="cyan" stroke="black" points="496.25,-446 401.75,-446 401.75,-410 496.25,-410 496.25,-446"/>
<text text-anchor="middle" x="449" y="-424.3" font-family="Times,serif" font-size="14.00">releaseNeeded</text>
</g>
<!-- release&#45;&gt;releaseNeeded -->
<g id="edge25" class="edge"><title>release&#45;&gt;releaseNeeded</title>
<path fill="none" stroke="black" d="M449,-481.697C449,-473.983 449,-464.712 449,-456.112"/>
<polygon fill="black" stroke="black" points="452.5,-456.104 449,-446.104 445.5,-456.104 452.5,-456.104"/>
</g>
<!-- releaseNeeded&#45;&gt;releaseNeeded -->
<g id="edge26" class="edge"><title>releaseNeeded&#45;&gt;releaseNeeded</title>
<path fill="none" stroke="red" d="M496.326,-441.101C506.571,-439.82 514,-435.453 514,-428 514,-423.225 510.951,-419.717 506.066,-417.476"/>
<polygon fill="red" stroke="red" points="506.889,-414.073 496.326,-414.899 505.098,-420.84 506.889,-414.073"/>
</g>
<!-- export -->
<g id="node16" class="node"><title>export</title>
<polygon fill="cyan" stroke="black" points="617,-446 563,-446 563,-410 617,-410 617,-446"/>
<text text-anchor="middle" x="590" y="-424.3" font-family="Times,serif" font-size="14.00">export</text>
</g>
<!-- exportX&#45;&gt;export -->
<g id="edge24" class="edge"><title>exportX&#45;&gt;export</title>
<path fill="none" stroke="black" d="M590,-481.697C590,-473.983 590,-464.712 590,-456.112"/>
<polygon fill="black" stroke="black" points="593.5,-456.104 590,-446.104 586.5,-456.104 593.5,-456.104"/>
</g>
<!-- buildDependents -->
<g id="node18" class="node"><title>buildDependents</title>
<polygon fill="lightcyan" stroke="black" points="511,-302 403,-302 403,-266 511,-266 511,-302"/>
<text text-anchor="middle" x="457" y="-280.3" font-family="Times,serif" font-size="14.00">buildDependents</text>
</g>
<!-- build&#45;&gt;buildDependents -->
<g id="edge17" class="edge"><title>build&#45;&gt;buildDependents</title>
<path fill="none" stroke="black" d="M506.685,-337.697C498.693,-329.22 488.928,-318.864 480.178,-309.583"/>
<polygon fill="black" stroke="black" points="482.534,-306.979 473.127,-302.104 477.441,-311.781 482.534,-306.979"/>
</g>
<!-- buildNeeded -->
<g id="node19" class="node"><title>buildNeeded</title>
<polygon fill="lightcyan" stroke="black" points="633,-302 547,-302 547,-266 633,-266 633,-302"/>
<text text-anchor="middle" x="590" y="-280.3" font-family="Times,serif" font-size="14.00">buildNeeded</text>
</g>
<!-- build&#45;&gt;buildNeeded -->
<g id="edge19" class="edge"><title>build&#45;&gt;buildNeeded</title>
<path fill="none" stroke="black" d="M539.562,-337.697C547.675,-329.22 557.588,-318.864 566.471,-309.583"/>
<polygon fill="black" stroke="black" points="569.243,-311.749 573.629,-302.104 564.186,-306.908 569.243,-311.749"/>
</g>
<!-- buildDependents&#45;&gt;buildDependents -->
<g id="edge18" class="edge"><title>buildDependents&#45;&gt;buildDependents</title>
<path fill="none" stroke="yellow" d="M511.007,-296.899C521.529,-295.401 529,-291.102 529,-284 529,-279.451 525.934,-276.051 520.964,-273.801"/>
<polygon fill="yellow" stroke="yellow" points="521.575,-270.341 511.007,-271.101 519.742,-277.097 521.575,-270.341"/>
</g>
<!-- buildNeeded&#45;&gt;buildNeeded -->
<g id="edge20" class="edge"><title>buildNeeded&#45;&gt;buildNeeded</title>
<path fill="none" stroke="red" d="M633.036,-297.262C643.355,-296.225 651,-291.805 651,-284 651,-279 647.862,-275.389 642.894,-273.167"/>
<polygon fill="red" stroke="red" points="643.583,-269.732 633.036,-270.738 641.909,-276.529 643.583,-269.732"/>
</g>
<!-- findbugsMain&#45;&gt;check -->
<g id="edge31" class="edge"><title>findbugsMain&#45;&gt;check</title>
<path fill="none" stroke="green" d="M317.506,-481.697C317.285,-473.983 317.02,-464.712 316.775,-456.112"/>
<polygon fill="green" stroke="green" points="320.273,-456 316.489,-446.104 313.276,-456.2 320.273,-456"/>
</g>
<!-- findbugsTest&#45;&gt;check -->
<g id="edge32" class="edge"><title>findbugsTest&#45;&gt;check</title>
<path fill="none" stroke="green" d="M235.931,-481.876C249.662,-472.808 266.706,-461.552 281.536,-451.759"/>
<polygon fill="green" stroke="green" points="283.554,-454.621 289.97,-446.19 279.696,-448.78 283.554,-454.621"/>
</g>
<!-- javadoc -->
<g id="node22" class="node"><title>javadoc</title>
<polygon fill="lightcyan" stroke="black" points="582.25,-916 523.75,-916 523.75,-880 582.25,-880 582.25,-916"/>
<text text-anchor="middle" x="553" y="-894.3" font-family="Times,serif" font-size="14.00">javadoc</text>
</g>
<!-- clean -->
<g id="node23" class="node"><title>clean</title>
<polygon fill="cyan" stroke="black" points="660,-916 606,-916 606,-880 660,-880 660,-916"/>
<text text-anchor="middle" x="633" y="-894.3" font-family="Times,serif" font-size="14.00">clean</text>
</g>
<!-- cleanNeeded -->
<g id="node24" class="node"><title>cleanNeeded</title>
<polygon fill="cyan" stroke="black" points="643,-825 557,-825 557,-789 643,-789 643,-825"/>
<text text-anchor="middle" x="600" y="-803.3" font-family="Times,serif" font-size="14.00">cleanNeeded</text>
</g>
<!-- clean&#45;&gt;cleanNeeded -->
<g id="edge27" class="edge"><title>clean&#45;&gt;cleanNeeded</title>
<path fill="none" stroke="black" d="M626.637,-879.84C621.889,-867.035 615.313,-849.299 609.883,-834.654"/>
<polygon fill="black" stroke="black" points="613.102,-833.267 606.343,-825.107 606.538,-835.7 613.102,-833.267"/>
</g>
<!-- cleanAll -->
<g id="node29" class="node"><title>cleanAll</title>
<polygon fill="orange" stroke="black" points="1059,-825 1005,-825 1005,-789 1059,-789 1059,-825"/>
<text text-anchor="middle" x="1032" y="-803.3" font-family="Times,serif" font-size="14.00">clean</text>
</g>
<!-- clean&#45;&gt;cleanAll -->
<g id="edge34" class="edge"><title>clean&#45;&gt;cleanAll</title>
<path fill="none" stroke="blue" d="M660.111,-890.953C729.774,-875.414 915.14,-834.067 994.783,-816.301"/>
<polygon fill="blue" stroke="blue" points="995.853,-819.649 1004.85,-814.056 994.329,-812.817 995.853,-819.649"/>
</g>
<!-- cleanNeeded&#45;&gt;cleanNeeded -->
<g id="edge28" class="edge"><title>cleanNeeded&#45;&gt;cleanNeeded</title>
<path fill="none" stroke="red" d="M643.036,-820.262C653.355,-819.225 661,-814.805 661,-807 661,-802 657.862,-798.389 652.894,-796.167"/>
<polygon fill="red" stroke="red" points="653.583,-792.732 643.036,-793.738 651.909,-799.529 653.583,-792.732"/>
</g>
<!-- cleanAllNeeded -->
<g id="node30" class="node"><title>cleanAllNeeded</title>
<polygon fill="orange" stroke="black" points="1075,-753 989,-753 989,-717 1075,-717 1075,-753"/>
<text text-anchor="middle" x="1032" y="-731.3" font-family="Times,serif" font-size="14.00">cleanNeeded</text>
</g>
<!-- cleanNeeded&#45;&gt;cleanAllNeeded -->
<g id="edge35" class="edge"><title>cleanNeeded&#45;&gt;cleanAllNeeded</title>
<path fill="none" stroke="blue" d="M643.001,-799.032C722.55,-786.142 892.444,-758.613 978.977,-744.592"/>
<polygon fill="blue" stroke="blue" points="979.541,-748.046 988.853,-742.991 978.422,-741.136 979.541,-748.046"/>
</g>
<!-- echo -->
<g id="node25" class="node"><title>echo</title>
<polygon fill="cyan" stroke="black" points="237,-916 183,-916 183,-880 237,-880 237,-916"/>
<text text-anchor="middle" x="210" y="-894.3" font-family="Times,serif" font-size="14.00">echo</text>
</g>
<!-- bndproperties -->
<g id="node26" class="node"><title>bndproperties</title>
<polygon fill="cyan" stroke="black" points="116.25,-916 25.75,-916 25.75,-880 116.25,-880 116.25,-916"/>
<text text-anchor="middle" x="71" y="-894.3" font-family="Times,serif" font-size="14.00">bndproperties</text>
</g>
<!-- index -->
<g id="node28" class="node"><title>index</title>
<polygon fill="orange" stroke="black" points="1255,-825 1201,-825 1201,-789 1255,-789 1255,-825"/>
<text text-anchor="middle" x="1228" y="-803.3" font-family="Times,serif" font-size="14.00">index</text>
</g>
<!-- cleanAll&#45;&gt;cleanAllNeeded -->
<g id="edge36" class="edge"><title>cleanAll&#45;&gt;cleanAllNeeded</title>
<path fill="none" stroke="black" d="M1032,-788.697C1032,-780.983 1032,-771.712 1032,-763.112"/>
<polygon fill="black" stroke="black" points="1035.5,-763.104 1032,-753.104 1028.5,-763.104 1035.5,-763.104"/>
</g>
<!-- distclean -->
<g id="node31" class="node"><title>distclean</title>
<polygon fill="orange" stroke="black" points="1176.25,-753 1111.75,-753 1111.75,-717 1176.25,-717 1176.25,-753"/>
<text text-anchor="middle" x="1144" y="-731.3" font-family="Times,serif" font-size="14.00">distclean</text>
</g>
<!-- cleanAll&#45;&gt;distclean -->
<g id="edge37" class="edge"><title>cleanAll&#45;&gt;distclean</title>
<path fill="none" stroke="black" d="M1059.11,-789.055C1073.86,-779.837 1092.29,-768.319 1108.21,-758.371"/>
<polygon fill="black" stroke="black" points="1110.12,-761.3 1116.75,-753.032 1106.41,-755.364 1110.12,-761.3"/>
</g>
<!-- cleanAllNeeded&#45;&gt;cleanAllNeeded -->
<g id="edge38" class="edge"><title>cleanAllNeeded&#45;&gt;cleanAllNeeded</title>
<path fill="none" stroke="red" d="M1075.04,-748.262C1085.35,-747.225 1093,-742.805 1093,-735 1093,-730 1089.86,-726.389 1084.89,-724.167"/>
<polygon fill="red" stroke="red" points="1085.58,-720.732 1075.04,-721.738 1083.91,-727.529 1085.58,-720.732"/>
</g>
<!-- distcleanNeeded -->
<g id="node32" class="node"><title>distcleanNeeded</title>
<polygon fill="orange" stroke="black" points="1127,-681 1021,-681 1021,-645 1127,-645 1127,-681"/>
<text text-anchor="middle" x="1074" y="-659.3" font-family="Times,serif" font-size="14.00">distcleanNeeded</text>
</g>
<!-- cleanAllNeeded&#45;&gt;distcleanNeeded -->
<g id="edge39" class="edge"><title>cleanAllNeeded&#45;&gt;distcleanNeeded</title>
<path fill="none" stroke="black" d="M1042.38,-716.697C1047.26,-708.559 1053.19,-698.689 1058.58,-689.701"/>
<polygon fill="black" stroke="black" points="1061.59,-691.48 1063.74,-681.104 1055.59,-687.879 1061.59,-691.48"/>
</g>
<!-- distclean&#45;&gt;distcleanNeeded -->
<g id="edge40" class="edge"><title>distclean&#45;&gt;distcleanNeeded</title>
<path fill="none" stroke="black" d="M1126.7,-716.697C1118.14,-708.135 1107.66,-697.656 1098.3,-688.304"/>
<polygon fill="black" stroke="black" points="1100.65,-685.701 1091.1,-681.104 1095.7,-690.65 1100.65,-685.701"/>
</g>
<!-- distcleanNeeded&#45;&gt;distcleanNeeded -->
<g id="edge41" class="edge"><title>distcleanNeeded&#45;&gt;distcleanNeeded</title>
<path fill="none" stroke="red" d="M1127.26,-675.899C1137.63,-674.401 1145,-670.102 1145,-663 1145,-658.451 1141.98,-655.051 1137.08,-652.801"/>
<polygon fill="red" stroke="red" points="1137.83,-649.378 1127.26,-650.101 1135.97,-656.128 1137.83,-649.378"/>
</g>
<!-- init -->
<g id="node33" class="node"><title>init</title>
<polygon fill="lightcyan" stroke="black" points="1041,-916 987,-916 987,-880 1041,-880 1041,-916"/>
<text text-anchor="middle" x="1014" y="-894.3" font-family="Times,serif" font-size="14.00">init</text>
</g>
<!-- wrapper -->
<g id="node34" class="node"><title>wrapper</title>
<polygon fill="orange" stroke="black" points="968.25,-916 907.75,-916 907.75,-880 968.25,-880 968.25,-916"/>
<text text-anchor="middle" x="938" y="-894.3" font-family="Times,serif" font-size="14.00">wrapper</text>
</g>
<!-- p2FeaturesTree -->
<g id="node36" class="node"><title>p2FeaturesTree</title>
<polygon fill="none" stroke="black" points="807.25,-590 706.75,-590 706.75,-554 807.25,-554 807.25,-590"/>
<text text-anchor="middle" x="757" y="-568.3" font-family="Times,serif" font-size="14.00">p2FeaturesTree</text>
</g>
<!-- p2Entry&#45;&gt;p2FeaturesTree -->
<g id="edge43" class="edge"><title>p2Entry&#45;&gt;p2FeaturesTree</title>
<path fill="none" stroke="black" d="M757,-644.84C757,-632.281 757,-614.979 757,-600.502"/>
<polygon fill="black" stroke="black" points="760.5,-600.107 757,-590.107 753.5,-600.107 760.5,-600.107"/>
</g>
<!-- p2PluginsPelagic -->
<g id="node39" class="node"><title>p2PluginsPelagic</title>
<polygon fill="none" stroke="black" points="957,-518 847,-518 847,-482 957,-482 957,-518"/>
<text text-anchor="middle" x="902" y="-496.3" font-family="Times,serif" font-size="14.00">p2PluginsPelagic</text>
</g>
<!-- p2Entry&#45;&gt;p2PluginsPelagic -->
<g id="edge46" class="edge"><title>p2Entry&#45;&gt;p2PluginsPelagic</title>
<path fill="none" stroke="black" d="M772.867,-644.969C784.796,-632.121 801.507,-614.03 816,-598 838.021,-573.643 862.875,-545.543 880.18,-525.877"/>
<polygon fill="black" stroke="black" points="882.902,-528.082 886.876,-518.261 877.645,-523.461 882.902,-528.082"/>
</g>
<!-- p2FeatureGradlePlugin -->
<g id="node37" class="node"><title>p2FeatureGradlePlugin</title>
<polygon fill="none" stroke="black" points="828.25,-518 685.75,-518 685.75,-482 828.25,-482 828.25,-518"/>
<text text-anchor="middle" x="757" y="-496.3" font-family="Times,serif" font-size="14.00">p2FeatureGradlePlugin</text>
</g>
<!-- p2FeaturesTree&#45;&gt;p2FeatureGradlePlugin -->
<g id="edge44" class="edge"><title>p2FeaturesTree&#45;&gt;p2FeatureGradlePlugin</title>
<path fill="none" stroke="black" d="M757,-553.697C757,-545.983 757,-536.712 757,-528.112"/>
<polygon fill="black" stroke="black" points="760.5,-528.104 757,-518.104 753.5,-528.104 760.5,-528.104"/>
</g>
<!-- p2Features -->
<g id="node38" class="node"><title>p2Features</title>
<polygon fill="none" stroke="black" points="808,-446 732,-446 732,-410 808,-410 808,-446"/>
<text text-anchor="middle" x="770" y="-424.3" font-family="Times,serif" font-size="14.00">p2Features</text>
</g>
<!-- p2FeatureGradlePlugin&#45;&gt;p2Features -->
<g id="edge45" class="edge"><title>p2FeatureGradlePlugin&#45;&gt;p2Features</title>
<path fill="none" stroke="black" d="M760.213,-481.697C761.646,-473.983 763.368,-464.712 764.965,-456.112"/>
<polygon fill="black" stroke="black" points="768.439,-456.575 766.823,-446.104 761.556,-455.297 768.439,-456.575"/>
</g>
<!-- p2 -->
<g id="node41" class="node"><title>p2</title>
<polygon fill="yellow" stroke="black" points="856,-374 802,-374 802,-338 856,-338 856,-374"/>
<text text-anchor="middle" x="829" y="-352.3" font-family="Times,serif" font-size="14.00">p2</text>
</g>
<!-- p2Features&#45;&gt;p2 -->
<g id="edge48" class="edge"><title>p2Features&#45;&gt;p2</title>
<path fill="none" stroke="black" d="M784.584,-409.697C791.658,-401.305 800.283,-391.07 808.045,-381.861"/>
<polygon fill="black" stroke="black" points="810.815,-384.006 814.583,-374.104 805.463,-379.495 810.815,-384.006"/>
</g>
<!-- p2Plugins -->
<g id="node40" class="node"><title>p2Plugins</title>
<polygon fill="none" stroke="black" points="923.25,-446 852.75,-446 852.75,-410 923.25,-410 923.25,-446"/>
<text text-anchor="middle" x="888" y="-424.3" font-family="Times,serif" font-size="14.00">p2Plugins</text>
</g>
<!-- p2PluginsPelagic&#45;&gt;p2Plugins -->
<g id="edge47" class="edge"><title>p2PluginsPelagic&#45;&gt;p2Plugins</title>
<path fill="none" stroke="black" d="M898.539,-481.697C896.997,-473.983 895.142,-464.712 893.422,-456.112"/>
<polygon fill="black" stroke="black" points="896.814,-455.224 891.421,-446.104 889.95,-456.597 896.814,-455.224"/>
</g>
<!-- p2Plugins&#45;&gt;p2 -->
<g id="edge49" class="edge"><title>p2Plugins&#45;&gt;p2</title>
<path fill="none" stroke="black" d="M873.416,-409.697C866.342,-401.305 857.717,-391.07 849.955,-381.861"/>
<polygon fill="black" stroke="black" points="852.537,-379.495 843.417,-374.104 847.185,-384.006 852.537,-379.495"/>
</g>
<!-- indexBuild -->
<g id="node42" class="node"><title>indexBuild</title>
<polygon fill="yellow" stroke="black" points="856,-302 802,-302 802,-266 856,-266 856,-302"/>
<text text-anchor="middle" x="829" y="-280.3" font-family="Times,serif" font-size="14.00">index</text>
</g>
<!-- p2&#45;&gt;indexBuild -->
<g id="edge50" class="edge"><title>p2&#45;&gt;indexBuild</title>
<path fill="none" stroke="black" d="M829,-337.697C829,-329.983 829,-320.712 829,-312.112"/>
<polygon fill="black" stroke="black" points="832.5,-312.104 829,-302.104 825.5,-312.104 832.5,-312.104"/>
</g>
<!-- distCompositePelagic -->
<g id="node43" class="node"><title>distCompositePelagic</title>
<polygon fill="none" stroke="black" points="896.25,-219 761.75,-219 761.75,-183 896.25,-183 896.25,-219"/>
<text text-anchor="middle" x="829" y="-197.3" font-family="Times,serif" font-size="14.00">distCompositePelagic</text>
</g>
<!-- indexBuild&#45;&gt;distCompositePelagic -->
<g id="edge51" class="edge"><title>indexBuild&#45;&gt;distCompositePelagic</title>
<path fill="none" stroke="black" d="M829,-265.822C829,-255.19 829,-241.306 829,-229.204"/>
<polygon fill="black" stroke="black" points="832.5,-229.153 829,-219.153 825.5,-229.153 832.5,-229.153"/>
</g>
<!-- distZipPelagic -->
<g id="node44" class="node"><title>distZipPelagic</title>
<polygon fill="none" stroke="black" points="876.25,-147 781.75,-147 781.75,-111 876.25,-111 876.25,-147"/>
<text text-anchor="middle" x="829" y="-125.3" font-family="Times,serif" font-size="14.00">distZipPelagic</text>
</g>
<!-- distCompositePelagic&#45;&gt;distZipPelagic -->
<g id="edge52" class="edge"><title>distCompositePelagic&#45;&gt;distZipPelagic</title>
<path fill="none" stroke="black" d="M829,-182.697C829,-174.983 829,-165.712 829,-157.112"/>
<polygon fill="black" stroke="black" points="832.5,-157.104 829,-147.104 825.5,-157.104 832.5,-157.104"/>
</g>
<!-- dist -->
<g id="node45" class="node"><title>dist</title>
<polygon fill="yellow" stroke="black" points="856,-75 802,-75 802,-39 856,-39 856,-75"/>
<text text-anchor="middle" x="829" y="-53.3" font-family="Times,serif" font-size="14.00">dist</text>
</g>
<!-- distZipPelagic&#45;&gt;dist -->
<g id="edge53" class="edge"><title>distZipPelagic&#45;&gt;dist</title>
<path fill="none" stroke="black" d="M829,-110.697C829,-102.983 829,-93.7125 829,-85.1124"/>
<polygon fill="black" stroke="black" points="832.5,-85.1043 829,-75.1043 825.5,-85.1044 832.5,-85.1043"/>
</g>
</g>
</svg>
