<?xml version="1.0" encoding="UTF-8" standalone="no"?>
<!DOCTYPE svg PUBLIC "-//W3C//DTD SVG 1.1//EN"
 "http://www.w3.org/Graphics/SVG/1.1/DTD/svg11.dtd">
<!-- Generated by graphviz version 2.34.0 (20140110.0949)
 -->
<!-- Title: GradleSetup Pages: 1 -->
<svg width="1930pt" height="1005pt"
 viewBox="0.00 0.00 1930.00 1005.00" xmlns="http://www.w3.org/2000/svg" xmlns:xlink="http://www.w3.org/1999/xlink">
<g id="graph0" class="graph" transform="scale(1 1) rotate(0) translate(4 1001)">
<title>GradleSetup</title>
<polygon fill="white" stroke="white" points="-4,4 -4,-1001 1926,-1001 1926,4 -4,4"/>
<text text-anchor="middle" x="61" y="-981.8" font-family="Times,serif" font-size="14.00">Gradle Build Setup</text>
<g id="clust1" class="cluster"><title>cluster1</title>
<polygon fill="lightgrey" stroke="black" points="826,-371 826,-966 1515,-966 1515,-371 826,-371"/>
<text text-anchor="middle" x="866" y="-378.8" font-family="Times,serif" font-size="14.00">Java Plugin</text>
</g>
<g id="clust2" class="cluster"><title>cluster11</title>
</g>
<g id="clust3" class="cluster"><title>cluster12</title>
</g>
<g id="clust4" class="cluster"><title>cluster13</title>
</g>
<g id="clust5" class="cluster"><title>cluster2</title>
<polygon fill="lightgrey" stroke="black" points="310,-518 310,-875 818,-875 818,-518 310,-518"/>
<text text-anchor="middle" x="353" y="-525.8" font-family="Times,serif" font-size="14.00">Bnd Projects</text>
</g>
<g id="clust6" class="cluster"><title>cluster21</title>
</g>
<g id="clust7" class="cluster"><title>cluster22</title>
</g>
<g id="clust8" class="cluster"><title>cluster23</title>
</g>
<g id="clust9" class="cluster"><title>cluster100</title>
<polygon fill="lightgrey" stroke="black" points="397,-792 397,-867 523,-867 523,-792 397,-792"/>
<text text-anchor="middle" x="459.5" y="-851.8" font-family="Times,serif" font-size="14.00">Class Cycle Checks</text>
</g>
<g id="clust10" class="cluster"><title>cluster3</title>
<polygon fill="lightgrey" stroke="black" points="1523,-883 1523,-958 1608,-958 1608,-883 1523,-883"/>
<text text-anchor="middle" x="1565.5" y="-890.8" font-family="Times,serif" font-size="14.00">Root Project</text>
</g>
<g id="clust11" class="cluster"><title>cluster4</title>
<polygon fill="lightgrey" stroke="black" points="1523,-518 1523,-681 1761,-681 1761,-518 1523,-518"/>
<text text-anchor="middle" x="1567" y="-525.8" font-family="Times,serif" font-size="14.00">Java Projects</text>
</g>
<g id="clust12" class="cluster"><title>cluster41</title>
</g>
<g id="clust13" class="cluster"><title>cluster42</title>
</g>
<g id="clust14" class="cluster"><title>cluster5</title>
<polygon fill="lightgrey" stroke="black" points="1616,-689 1616,-966 1914,-966 1914,-689 1616,-689"/>
<text text-anchor="middle" x="1656.5" y="-696.8" font-family="Times,serif" font-size="14.00">All Projects</text>
</g>
<g id="clust15" class="cluster"><title>cluster21</title>
</g>
<g id="clust16" class="cluster"><title>cluster22</title>
</g>
<g id="clust17" class="cluster"><title>cluster7</title>
<polygon fill="lightgrey" stroke="black" points="8,-8 8,-673 302,-673 302,-8 8,-8"/>
<text text-anchor="middle" x="52.5" y="-15.8" font-family="Times,serif" font-size="14.00">Build Project</text>
</g>
<!-- compileJava -->
<g id="node1" class="node"><title>compileJava</title>
<polygon fill="lightcyan" stroke="black" points="991.25,-950 906.75,-950 906.75,-914 991.25,-914 991.25,-950"/>
<text text-anchor="middle" x="949" y="-928.3" font-family="Times,serif" font-size="14.00">compileJava</text>
</g>
<!-- classes -->
<g id="node3" class="node"><title>classes</title>
<polygon fill="lightcyan" stroke="black" points="1111,-836 1057,-836 1057,-800 1111,-800 1111,-836"/>
<text text-anchor="middle" x="1084" y="-814.3" font-family="Times,serif" font-size="14.00">classes</text>
</g>
<!-- compileJava&#45;&gt;classes -->
<g id="edge1" class="edge"><title>compileJava&#45;&gt;classes</title>
<path fill="none" stroke="black" d="M966.521,-913.651C976.173,-904.315 988.498,-892.749 1000,-883 1016.64,-868.897 1035.95,-854.08 1051.86,-842.259"/>
<polygon fill="black" stroke="black" points="1054.35,-844.777 1060.31,-836.023 1050.19,-839.144 1054.35,-844.777"/>
</g>
<!-- processResources -->
<g id="node2" class="node"><title>processResources</title>
<polygon fill="lightcyan" stroke="black" points="1122.25,-950 1009.75,-950 1009.75,-914 1122.25,-914 1122.25,-950"/>
<text text-anchor="middle" x="1066" y="-928.3" font-family="Times,serif" font-size="14.00">processResources</text>
</g>
<!-- processResources&#45;&gt;classes -->
<g id="edge2" class="edge"><title>processResources&#45;&gt;classes</title>
<path fill="none" stroke="black" d="M1068.73,-913.99C1071.63,-895.981 1076.24,-867.293 1079.64,-846.152"/>
<polygon fill="black" stroke="black" points="1083.11,-846.599 1081.24,-836.17 1076.2,-845.488 1083.11,-846.599"/>
</g>
<!-- jar -->
<g id="node4" class="node"><title>jar</title>
<polygon fill="lightcyan" stroke="black" points="1099,-764 1045,-764 1045,-728 1099,-728 1099,-764"/>
<text text-anchor="middle" x="1072" y="-742.3" font-family="Times,serif" font-size="14.00">jar</text>
</g>
<!-- classes&#45;&gt;jar -->
<g id="edge6" class="edge"><title>classes&#45;&gt;jar</title>
<path fill="none" stroke="black" d="M1081.03,-799.697C1079.71,-791.983 1078.12,-782.712 1076.65,-774.112"/>
<polygon fill="black" stroke="black" points="1080.07,-773.369 1074.93,-764.104 1073.17,-774.552 1080.07,-773.369"/>
</g>
<!-- compileTestJava -->
<g id="node5" class="node"><title>compileTestJava</title>
<polygon fill="lightcyan" stroke="black" points="1409,-764 1301,-764 1301,-728 1409,-728 1409,-764"/>
<text text-anchor="middle" x="1355" y="-742.3" font-family="Times,serif" font-size="14.00">compileTestJava</text>
</g>
<!-- classes&#45;&gt;compileTestJava -->
<g id="edge5" class="edge"><title>classes&#45;&gt;compileTestJava</title>
<path fill="none" stroke="black" d="M1111.29,-812.576C1151.39,-805.743 1228.38,-791.362 1292,-772 1296.36,-770.673 1300.84,-769.175 1305.31,-767.589"/>
<polygon fill="black" stroke="black" points="1306.85,-770.752 1315.02,-764.006 1304.43,-764.185 1306.85,-770.752"/>
</g>
<!-- test -->
<g id="node8" class="node"><title>test</title>
<polygon fill="lightcyan" stroke="black" points="1382,-593 1328,-593 1328,-557 1382,-557 1382,-593"/>
<text text-anchor="middle" x="1355" y="-571.3" font-family="Times,serif" font-size="14.00">test</text>
</g>
<!-- classes&#45;&gt;test -->
<g id="edge4" class="edge"><title>classes&#45;&gt;test</title>
<path fill="none" stroke="black" d="M1111.12,-817.687C1183.43,-818.881 1378.04,-817.7 1418,-772 1440.21,-746.597 1418.74,-650.298 1402,-621 1397.65,-613.386 1391.62,-606.252 1385.32,-600.007"/>
<polygon fill="black" stroke="black" points="1387.6,-597.35 1377.89,-593.109 1382.84,-602.479 1387.6,-597.35"/>
</g>
<!-- javadoc -->
<g id="node13" class="node"><title>javadoc</title>
<polygon fill="lightcyan" stroke="black" points="1506.25,-764 1447.75,-764 1447.75,-728 1506.25,-728 1506.25,-764"/>
<text text-anchor="middle" x="1477" y="-742.3" font-family="Times,serif" font-size="14.00">javadoc</text>
</g>
<!-- classes&#45;&gt;javadoc -->
<g id="edge3" class="edge"><title>classes&#45;&gt;javadoc</title>
<path fill="none" stroke="black" d="M1111.05,-817.031C1170.76,-816.348 1317.69,-810.527 1433,-772 1435.91,-771.029 1438.84,-769.859 1441.73,-768.561"/>
<polygon fill="black" stroke="black" points="1443.38,-771.651 1450.78,-764.073 1440.27,-765.38 1443.38,-771.651"/>
</g>
<!-- bundle -->
<g id="node15" class="node"><title>bundle</title>
<polygon fill="cyan" stroke="black" points="404,-764 350,-764 350,-728 404,-728 404,-764"/>
<text text-anchor="middle" x="377" y="-742.3" font-family="Times,serif" font-size="14.00">bundle</text>
</g>
<!-- classes&#45;&gt;bundle -->
<g id="edge17" class="edge"><title>classes&#45;&gt;bundle</title>
<path fill="none" stroke="black" d="M1056.72,-814.299C947.358,-803.471 540.561,-763.194 414.494,-750.712"/>
<polygon fill="black" stroke="black" points="414.497,-747.196 404.201,-749.693 413.807,-754.161 414.497,-747.196"/>
</g>
<!-- checkClassCycle -->
<g id="node22" class="node"><title>checkClassCycle</title>
<polygon fill="cyan" stroke="black" points="514.25,-836 405.75,-836 405.75,-800 514.25,-800 514.25,-836"/>
<text text-anchor="middle" x="460" y="-814.3" font-family="Times,serif" font-size="14.00">checkClassCycle</text>
</g>
<!-- classes&#45;&gt;checkClassCycle -->
<g id="edge15" class="edge"><title>classes&#45;&gt;checkClassCycle</title>
<path fill="none" stroke="black" d="M1056.75,-818C879.367,-818 701.983,-818 524.6,-818"/>
<polygon fill="black" stroke="black" points="524.539,-814.5 514.539,-818 524.539,-821.5 524.539,-814.5"/>
</g>
<!-- findbugsMain -->
<g id="node27" class="node"><title>findbugsMain</title>
<polygon fill="cyan" stroke="black" points="1632.25,-665 1539.75,-665 1539.75,-629 1632.25,-629 1632.25,-665"/>
<text text-anchor="middle" x="1586" y="-643.3" font-family="Times,serif" font-size="14.00">findbugsMain</text>
</g>
<!-- classes&#45;&gt;findbugsMain -->
<g id="edge27" class="edge"><title>classes&#45;&gt;findbugsMain</title>
<path fill="none" stroke="black" d="M1111.01,-817.421C1195.28,-818.248 1451.78,-816.936 1519,-772 1552.7,-749.473 1570.84,-704.178 1579.45,-675.013"/>
<polygon fill="black" stroke="black" points="1582.91,-675.641 1582.2,-665.07 1576.16,-673.775 1582.91,-675.641"/>
</g>
<!-- uploadArchives -->
<g id="node10" class="node"><title>uploadArchives</title>
<polygon fill="lightcyan" stroke="black" points="1123,-665 1021,-665 1021,-629 1123,-629 1123,-665"/>
<text text-anchor="middle" x="1072" y="-643.3" font-family="Times,serif" font-size="14.00">uploadArchives</text>
</g>
<!-- jar&#45;&gt;uploadArchives -->
<g id="edge9" class="edge"><title>jar&#45;&gt;uploadArchives</title>
<path fill="none" stroke="black" d="M1072,-727.658C1072,-713.175 1072,-692.263 1072,-675.499"/>
<polygon fill="black" stroke="black" points="1075.5,-675.191 1072,-665.192 1068.5,-675.192 1075.5,-675.191"/>
</g>
<!-- assemble -->
<g id="node11" class="node"><title>assemble</title>
<polygon fill="lightcyan" stroke="black" points="1002.25,-665 935.75,-665 935.75,-629 1002.25,-629 1002.25,-665"/>
<text text-anchor="middle" x="969" y="-643.3" font-family="Times,serif" font-size="14.00">assemble</text>
</g>
<!-- jar&#45;&gt;assemble -->
<g id="edge10" class="edge"><title>jar&#45;&gt;assemble</title>
<path fill="none" stroke="black" d="M1053.59,-727.658C1037.18,-712.209 1013.01,-689.446 994.702,-672.205"/>
<polygon fill="black" stroke="black" points="996.934,-669.499 987.255,-665.192 992.135,-674.595 996.934,-669.499"/>
</g>
<!-- testClasses -->
<g id="node7" class="node"><title>testClasses</title>
<polygon fill="lightcyan" stroke="black" points="1393,-665 1317,-665 1317,-629 1393,-629 1393,-665"/>
<text text-anchor="middle" x="1355" y="-643.3" font-family="Times,serif" font-size="14.00">testClasses</text>
</g>
<!-- compileTestJava&#45;&gt;testClasses -->
<g id="edge7" class="edge"><title>compileTestJava&#45;&gt;testClasses</title>
<path fill="none" stroke="black" d="M1355,-727.658C1355,-713.175 1355,-692.263 1355,-675.499"/>
<polygon fill="black" stroke="black" points="1358.5,-675.191 1355,-665.192 1351.5,-675.192 1358.5,-675.191"/>
</g>
<!-- processTestResources -->
<g id="node6" class="node"><title>processTestResources</title>
<polygon fill="lightcyan" stroke="black" points="1283,-764 1147,-764 1147,-728 1283,-728 1283,-764"/>
<text text-anchor="middle" x="1215" y="-742.3" font-family="Times,serif" font-size="14.00">processTestResources</text>
</g>
<!-- processTestResources&#45;&gt;testClasses -->
<g id="edge8" class="edge"><title>processTestResources&#45;&gt;testClasses</title>
<path fill="none" stroke="black" d="M1238.03,-727.775C1253.21,-716.534 1273.62,-701.653 1292,-689 1300.88,-682.888 1310.59,-676.452 1319.67,-670.537"/>
<polygon fill="black" stroke="black" points="1321.64,-673.428 1328.13,-665.053 1317.83,-667.554 1321.64,-673.428"/>
</g>
<!-- testClasses&#45;&gt;test -->
<g id="edge11" class="edge"><title>testClasses&#45;&gt;test</title>
<path fill="none" stroke="black" d="M1355,-628.697C1355,-620.983 1355,-611.712 1355,-603.112"/>
<polygon fill="black" stroke="black" points="1358.5,-603.104 1355,-593.104 1351.5,-603.104 1358.5,-603.104"/>
</g>
<!-- findbugsTest -->
<g id="node25" class="node"><title>findbugsTest</title>
<polygon fill="cyan" stroke="black" points="1744.25,-665 1657.75,-665 1657.75,-629 1744.25,-629 1744.25,-665"/>
<text text-anchor="middle" x="1701" y="-643.3" font-family="Times,serif" font-size="14.00">findbugsTest</text>
</g>
<!-- testClasses&#45;&gt;findbugsTest -->
<g id="edge28" class="edge"><title>testClasses&#45;&gt;findbugsTest</title>
<path fill="none" stroke="black" d="M1393.12,-657.407C1429.5,-666.764 1486.02,-679.81 1536,-685 1558.1,-687.295 1614.26,-689.613 1636,-685 1647.87,-682.481 1659.67,-676.794 1669.9,-670.567"/>
<polygon fill="black" stroke="black" points="1671.97,-673.401 1678.45,-665.022 1668.15,-667.529 1671.97,-673.401"/>
</g>
<!-- check -->
<g id="node9" class="node"><title>check</title>
<polygon fill="lightcyan" stroke="black" points="1382,-510 1328,-510 1328,-474 1382,-474 1382,-510"/>
<text text-anchor="middle" x="1355" y="-488.3" font-family="Times,serif" font-size="14.00">check</text>
</g>
<!-- test&#45;&gt;check -->
<g id="edge13" class="edge"><title>test&#45;&gt;check</title>
<path fill="none" stroke="black" d="M1355,-556.822C1355,-546.19 1355,-532.306 1355,-520.204"/>
<polygon fill="black" stroke="black" points="1358.5,-520.153 1355,-510.153 1351.5,-520.153 1358.5,-520.153"/>
</g>
<!-- build -->
<g id="node12" class="node"><title>build</title>
<polygon fill="lightcyan" stroke="black" points="1269,-438 1215,-438 1215,-402 1269,-402 1269,-438"/>
<text text-anchor="middle" x="1242" y="-416.3" font-family="Times,serif" font-size="14.00">build</text>
</g>
<!-- check&#45;&gt;build -->
<g id="edge14" class="edge"><title>check&#45;&gt;build</title>
<path fill="none" stroke="black" d="M1334.71,-473.799C1331.22,-471.083 1327.56,-468.386 1324,-466 1309.61,-456.361 1292.98,-446.944 1278.48,-439.237"/>
<polygon fill="black" stroke="black" points="1279.78,-435.967 1269.29,-434.433 1276.53,-442.17 1279.78,-435.967"/>
</g>
<!-- assemble&#45;&gt;build -->
<g id="edge12" class="edge"><title>assemble&#45;&gt;build</title>
<path fill="none" stroke="black" d="M980.843,-628.86C1005.73,-593.95 1066.8,-513.866 1135,-466 1156.46,-450.941 1183.73,-439.567 1205.38,-432.021"/>
<polygon fill="black" stroke="black" points="1206.52,-435.329 1214.88,-428.824 1204.29,-428.695 1206.52,-435.329"/>
</g>
<!-- cleanJava -->
<g id="node14" class="node"><title>cleanJava</title>
<polygon fill="lightcyan" stroke="black" points="888,-950 834,-950 834,-914 888,-914 888,-950"/>
<text text-anchor="middle" x="861" y="-928.3" font-family="Times,serif" font-size="14.00">clean</text>
</g>
<!-- bundle&#45;&gt;compileJava -->
<g id="edge18" class="edge"><title>bundle&#45;&gt;compileJava</title>
<path fill="none" stroke="red" d="M372.979,-764.239C367.595,-792.22 361.99,-847.188 393,-875 414.054,-893.883 876.016,-871.835 902,-883 913.437,-887.914 923.508,-897.075 931.363,-906.086"/>
<polygon fill="red" stroke="red" points="928.652,-908.301 937.674,-913.857 934.086,-903.888 928.652,-908.301"/>
</g>
<!-- bundle&#45;&gt;jar -->
<g id="edge19" class="edge"><title>bundle&#45;&gt;jar</title>
<path fill="none" stroke="black" stroke-dasharray="5,2" d="M404.148,-746C614.406,-746 824.664,-746 1034.92,-746"/>
<polygon fill="black" stroke="black" points="1034.93,-749.5 1044.93,-746 1034.93,-742.5 1034.93,-749.5"/>
</g>
<!-- bundle&#45;&gt;test -->
<g id="edge21" class="edge"><title>bundle&#45;&gt;test</title>
<path fill="none" stroke="black" d="M404.125,-744.364C473.944,-742.024 664.824,-731.15 814,-681 866.416,-663.379 870.228,-637.526 923,-621 996.372,-598.022 1226.97,-583.097 1317.75,-577.976"/>
<polygon fill="black" stroke="black" points="1318.07,-581.464 1327.86,-577.414 1317.68,-574.475 1318.07,-581.464"/>
</g>
<!-- bundleTest -->
<g id="node16" class="node"><title>bundleTest</title>
<polygon fill="cyan" stroke="black" points="403.25,-665 326.75,-665 326.75,-629 403.25,-629 403.25,-665"/>
<text text-anchor="middle" x="365" y="-643.3" font-family="Times,serif" font-size="14.00">bundleTest</text>
</g>
<!-- bundle&#45;&gt;bundleTest -->
<g id="edge20" class="edge"><title>bundle&#45;&gt;bundleTest</title>
<path fill="none" stroke="black" d="M374.855,-727.658C373.063,-713.175 370.476,-692.263 368.402,-675.499"/>
<polygon fill="black" stroke="black" points="371.828,-674.686 367.127,-665.192 364.881,-675.546 371.828,-674.686"/>
</g>
<!-- release -->
<g id="node17" class="node"><title>release</title>
<polygon fill="cyan" stroke="black" points="492,-665 438,-665 438,-629 492,-629 492,-665"/>
<text text-anchor="middle" x="465" y="-643.3" font-family="Times,serif" font-size="14.00">release</text>
</g>
<!-- bundle&#45;&gt;release -->
<g id="edge22" class="edge"><title>bundle&#45;&gt;release</title>
<path fill="none" stroke="black" d="M392.733,-727.658C406.623,-712.347 427.031,-689.852 442.621,-672.668"/>
<polygon fill="black" stroke="black" points="445.277,-674.95 449.404,-665.192 440.092,-670.246 445.277,-674.95"/>
</g>
<!-- export -->
<g id="node21" class="node"><title>export</title>
<polygon fill="cyan" stroke="black" points="620,-665 566,-665 566,-629 620,-629 620,-665"/>
<text text-anchor="middle" x="593" y="-643.3" font-family="Times,serif" font-size="14.00">export</text>
</g>
<!-- bundle&#45;&gt;export -->
<g id="edge23" class="edge"><title>bundle&#45;&gt;export</title>
<path fill="none" stroke="black" d="M404.082,-738.435C439.968,-729.032 504.506,-709.642 554,-681 558.584,-678.347 563.152,-675.136 567.462,-671.772"/>
<polygon fill="black" stroke="black" points="569.901,-674.296 575.367,-665.219 565.435,-668.906 569.901,-674.296"/>
</g>
<!-- p2Entry -->
<g id="node33" class="node"><title>p2Entry</title>
<polygon fill="none" stroke="black" points="268,-665 208,-665 208,-629 268,-629 268,-665"/>
<text text-anchor="middle" x="238" y="-643.3" font-family="Times,serif" font-size="14.00">p2Entry</text>
</g>
<!-- bundle&#45;&gt;p2Entry -->
<g id="edge38" class="edge"><title>bundle&#45;&gt;p2Entry</title>
<path fill="none" stroke="red" d="M352.47,-727.882C329.881,-712.118 296.186,-688.604 271.196,-671.166"/>
<polygon fill="red" stroke="red" points="272.956,-668.126 262.753,-665.274 268.95,-673.867 272.956,-668.126"/>
</g>
<!-- bundleTest&#45;&gt;check -->
<g id="edge24" class="edge"><title>bundleTest&#45;&gt;check</title>
<path fill="none" stroke="black" d="M366.122,-628.694C369.01,-600.096 379.313,-543.594 416,-518 453.523,-491.823 1146.98,-492.33 1317.41,-492.853"/>
<polygon fill="black" stroke="black" points="1317.63,-496.353 1327.64,-492.886 1317.65,-489.353 1317.63,-496.353"/>
</g>
<!-- releaseNeeded -->
<g id="node18" class="node"><title>releaseNeeded</title>
<polygon fill="cyan" stroke="black" points="523.25,-593 428.75,-593 428.75,-557 523.25,-557 523.25,-593"/>
<text text-anchor="middle" x="476" y="-571.3" font-family="Times,serif" font-size="14.00">releaseNeeded</text>
</g>
<!-- release&#45;&gt;releaseNeeded -->
<g id="edge25" class="edge"><title>release&#45;&gt;releaseNeeded</title>
<path fill="none" stroke="black" d="M467.719,-628.697C468.931,-620.983 470.388,-611.712 471.739,-603.112"/>
<polygon fill="black" stroke="black" points="475.217,-603.526 473.312,-593.104 468.302,-602.44 475.217,-603.526"/>
</g>
<!-- releaseNeeded&#45;&gt;releaseNeeded -->
<g id="edge26" class="edge"><title>releaseNeeded&#45;&gt;releaseNeeded</title>
<path fill="none" stroke="red" d="M523.326,-588.101C533.571,-586.82 541,-582.453 541,-575 541,-570.225 537.951,-566.717 533.066,-564.476"/>
<polygon fill="red" stroke="red" points="533.889,-561.073 523.326,-561.899 532.098,-567.84 533.889,-561.073"/>
</g>
<!-- cleanBnd -->
<g id="node19" class="node"><title>cleanBnd</title>
<polygon fill="cyan" stroke="black" points="802,-665 748,-665 748,-629 802,-629 802,-665"/>
<text text-anchor="middle" x="775" y="-643.3" font-family="Times,serif" font-size="14.00">clean</text>
</g>
<!-- bndproperties -->
<g id="node20" class="node"><title>bndproperties</title>
<polygon fill="cyan" stroke="black" points="729.25,-665 638.75,-665 638.75,-629 729.25,-629 729.25,-665"/>
<text text-anchor="middle" x="684" y="-643.3" font-family="Times,serif" font-size="14.00">bndproperties</text>
</g>
<!-- checkClassCycle&#45;&gt;bundle -->
<g id="edge16" class="edge"><title>checkClassCycle&#45;&gt;bundle</title>
<path fill="none" stroke="black" d="M439.483,-799.697C429.131,-790.965 416.414,-780.24 405.161,-770.75"/>
<polygon fill="black" stroke="black" points="407.182,-767.876 397.281,-764.104 402.669,-773.227 407.182,-767.876"/>
</g>
<!-- wrapper -->
<g id="node23" class="node"><title>wrapper</title>
<polygon fill="cyan" stroke="black" points="1595.25,-950 1534.75,-950 1534.75,-914 1595.25,-914 1595.25,-950"/>
<text text-anchor="middle" x="1565" y="-928.3" font-family="Times,serif" font-size="14.00">wrapper</text>
</g>
<!-- findbugstest -->
<g id="node24" class="node"><title>findbugstest</title>
<polygon fill="cyan" stroke="black" points="1741.25,-593 1658.75,-593 1658.75,-557 1741.25,-557 1741.25,-593"/>
<text text-anchor="middle" x="1700" y="-571.3" font-family="Times,serif" font-size="14.00">findbugstest</text>
</g>
<!-- findbugstest&#45;&gt;check -->
<g id="edge32" class="edge"><title>findbugstest&#45;&gt;check</title>
<path fill="none" stroke="green" d="M1688.43,-556.831C1678.57,-543.734 1663.12,-526.536 1645,-518 1601.17,-497.356 1460.31,-493.611 1392.36,-493.033"/>
<polygon fill="green" stroke="green" points="1392.13,-489.531 1382.1,-492.965 1392.08,-496.531 1392.13,-489.531"/>
</g>
<!-- findbugsTest&#45;&gt;findbugstest -->
<g id="edge30" class="edge"><title>findbugsTest&#45;&gt;findbugstest</title>
<path fill="none" stroke="black" d="M1700.75,-628.697C1700.64,-620.983 1700.51,-611.712 1700.39,-603.112"/>
<polygon fill="black" stroke="black" points="1703.89,-603.053 1700.24,-593.104 1696.89,-603.153 1703.89,-603.053"/>
</g>
<!-- findbugs -->
<g id="node26" class="node"><title>findbugs</title>
<polygon fill="cyan" stroke="black" points="1610,-593 1546,-593 1546,-557 1610,-557 1610,-593"/>
<text text-anchor="middle" x="1578" y="-571.3" font-family="Times,serif" font-size="14.00">findbugs</text>
</g>
<!-- findbugs&#45;&gt;check -->
<g id="edge31" class="edge"><title>findbugs&#45;&gt;check</title>
<path fill="none" stroke="green" d="M1545.57,-562.222C1504.67,-547.364 1434.51,-521.881 1391.69,-506.326"/>
<polygon fill="green" stroke="green" points="1392.8,-503.006 1382.2,-502.881 1390.41,-509.585 1392.8,-503.006"/>
</g>
<!-- findbugsMain&#45;&gt;findbugs -->
<g id="edge29" class="edge"><title>findbugsMain&#45;&gt;findbugs</title>
<path fill="none" stroke="black" d="M1584.02,-628.697C1583.14,-620.983 1582.08,-611.712 1581.1,-603.112"/>
<polygon fill="black" stroke="black" points="1584.57,-602.642 1579.95,-593.104 1577.61,-603.437 1584.57,-602.642"/>
</g>
<!-- index -->
<g id="node28" class="node"><title>index</title>
<polygon fill="cyan" stroke="black" points="1898,-950 1844,-950 1844,-914 1898,-914 1898,-950"/>
<text text-anchor="middle" x="1871" y="-928.3" font-family="Times,serif" font-size="14.00">index</text>
</g>
<!-- clean -->
<g id="node29" class="node"><title>clean</title>
<polygon fill="lightcyan" stroke="black" points="1758,-950 1704,-950 1704,-914 1758,-914 1758,-950"/>
<text text-anchor="middle" x="1731" y="-928.3" font-family="Times,serif" font-size="14.00">clean</text>
</g>
<!-- cleanNeeded -->
<g id="node30" class="node"><title>cleanNeeded</title>
<polygon fill="cyan" stroke="black" points="1718,-836 1632,-836 1632,-800 1718,-800 1718,-836"/>
<text text-anchor="middle" x="1675" y="-814.3" font-family="Times,serif" font-size="14.00">cleanNeeded</text>
</g>
<!-- clean&#45;&gt;cleanNeeded -->
<g id="edge33" class="edge"><title>clean&#45;&gt;cleanNeeded</title>
<path fill="none" stroke="blue" d="M1722.49,-913.99C1713.37,-895.734 1698.75,-866.506 1688.14,-845.287"/>
<polygon fill="blue" stroke="blue" points="1691.19,-843.549 1683.59,-836.17 1684.93,-846.68 1691.19,-843.549"/>
</g>
<!-- distclean -->
<g id="node31" class="node"><title>distclean</title>
<polygon fill="cyan" stroke="black" points="1819.25,-836 1754.75,-836 1754.75,-800 1819.25,-800 1819.25,-836"/>
<text text-anchor="middle" x="1787" y="-814.3" font-family="Times,serif" font-size="14.00">distclean</text>
</g>
<!-- clean&#45;&gt;distclean -->
<g id="edge35" class="edge"><title>clean&#45;&gt;distclean</title>
<path fill="none" stroke="blue" d="M1739.51,-913.99C1748.63,-895.734 1763.25,-866.506 1773.86,-845.287"/>
<polygon fill="blue" stroke="blue" points="1777.07,-846.68 1778.41,-836.17 1770.81,-843.549 1777.07,-846.68"/>
</g>
<!-- cleanNeeded&#45;&gt;cleanNeeded -->
<g id="edge34" class="edge"><title>cleanNeeded&#45;&gt;cleanNeeded</title>
<path fill="none" stroke="red" d="M1718.04,-831.262C1728.35,-830.225 1736,-825.805 1736,-818 1736,-813 1732.86,-809.389 1727.89,-807.167"/>
<polygon fill="red" stroke="red" points="1728.58,-803.732 1718.04,-804.738 1726.91,-810.529 1728.58,-803.732"/>
</g>
<!-- distcleanNeeded -->
<g id="node32" class="node"><title>distcleanNeeded</title>
<polygon fill="cyan" stroke="black" points="1802,-764 1696,-764 1696,-728 1802,-728 1802,-764"/>
<text text-anchor="middle" x="1749" y="-742.3" font-family="Times,serif" font-size="14.00">distcleanNeeded</text>
</g>
<!-- distclean&#45;&gt;distcleanNeeded -->
<g id="edge36" class="edge"><title>distclean&#45;&gt;distcleanNeeded</title>
<path fill="none" stroke="black" d="M1777.61,-799.697C1773.24,-791.644 1767.94,-781.894 1763.1,-772.982"/>
<polygon fill="black" stroke="black" points="1766.13,-771.223 1758.29,-764.104 1759.98,-774.563 1766.13,-771.223"/>
</g>
<!-- distcleanNeeded&#45;&gt;distcleanNeeded -->
<g id="edge37" class="edge"><title>distcleanNeeded&#45;&gt;distcleanNeeded</title>
<path fill="none" stroke="red" d="M1802.26,-758.899C1812.63,-757.401 1820,-753.102 1820,-746 1820,-741.451 1816.98,-738.051 1812.08,-735.801"/>
<polygon fill="red" stroke="red" points="1812.83,-732.378 1802.26,-733.101 1810.97,-739.128 1812.83,-732.378"/>
</g>
<!-- p2FeaturesTree -->
<g id="node34" class="node"><title>p2FeaturesTree</title>
<polygon fill="none" stroke="black" points="179.25,-593 78.75,-593 78.75,-557 179.25,-557 179.25,-593"/>
<text text-anchor="middle" x="129" y="-571.3" font-family="Times,serif" font-size="14.00">p2FeaturesTree</text>
</g>
<!-- p2Entry&#45;&gt;p2FeaturesTree -->
<g id="edge39" class="edge"><title>p2Entry&#45;&gt;p2FeaturesTree</title>
<path fill="none" stroke="black" d="M211.336,-628.876C197.216,-619.808 179.689,-608.552 164.439,-598.759"/>
<polygon fill="black" stroke="black" points="166.073,-595.648 155.767,-593.19 162.29,-601.538 166.073,-595.648"/>
</g>
<!-- p2PluginsPlugins -->
<g id="node37" class="node"><title>p2PluginsPlugins</title>
<polygon fill="none" stroke="black" points="293.25,-510 182.75,-510 182.75,-474 293.25,-474 293.25,-510"/>
<text text-anchor="middle" x="238" y="-488.3" font-family="Times,serif" font-size="14.00">p2PluginsPlugins</text>
</g>
<!-- p2Entry&#45;&gt;p2PluginsPlugins -->
<g id="edge42" class="edge"><title>p2Entry&#45;&gt;p2PluginsPlugins</title>
<path fill="none" stroke="black" d="M238,-628.746C238,-602.461 238,-552.13 238,-520.688"/>
<polygon fill="black" stroke="black" points="241.5,-520.425 238,-510.425 234.5,-520.425 241.5,-520.425"/>
</g>
<!-- p2FeaturesGradlePlugin -->
<g id="node35" class="node"><title>p2FeaturesGradlePlugin</title>
<polygon fill="none" stroke="black" points="164,-510 16,-510 16,-474 164,-474 164,-510"/>
<text text-anchor="middle" x="90" y="-488.3" font-family="Times,serif" font-size="14.00">p2FeaturesGradlePlugin</text>
</g>
<!-- p2FeaturesTree&#45;&gt;p2FeaturesGradlePlugin -->
<g id="edge40" class="edge"><title>p2FeaturesTree&#45;&gt;p2FeaturesGradlePlugin</title>
<path fill="none" stroke="black" d="M120.729,-556.822C115.507,-545.976 108.654,-531.744 102.746,-519.472"/>
<polygon fill="black" stroke="black" points="105.751,-517.645 98.259,-510.153 99.4437,-520.682 105.751,-517.645"/>
</g>
<!-- p2Features -->
<g id="node36" class="node"><title>p2Features</title>
<polygon fill="none" stroke="black" points="142,-438 66,-438 66,-402 142,-402 142,-438"/>
<text text-anchor="middle" x="104" y="-416.3" font-family="Times,serif" font-size="14.00">p2Features</text>
</g>
<!-- p2FeaturesGradlePlugin&#45;&gt;p2Features -->
<g id="edge41" class="edge"><title>p2FeaturesGradlePlugin&#45;&gt;p2Features</title>
<path fill="none" stroke="black" d="M93.4607,-473.697C95.0035,-465.983 96.8575,-456.712 98.5775,-448.112"/>
<polygon fill="black" stroke="black" points="102.05,-448.597 100.579,-438.104 95.1859,-447.224 102.05,-448.597"/>
</g>
<!-- p2 -->
<g id="node39" class="node"><title>p2</title>
<polygon fill="cyan" stroke="black" points="164,-363 110,-363 110,-327 164,-327 164,-363"/>
<text text-anchor="middle" x="137" y="-341.3" font-family="Times,serif" font-size="14.00">p2</text>
</g>
<!-- p2Features&#45;&gt;p2 -->
<g id="edge44" class="edge"><title>p2Features&#45;&gt;p2</title>
<path fill="none" stroke="black" d="M111.821,-401.7C115.766,-392.972 120.637,-382.197 125.04,-372.457"/>
<polygon fill="black" stroke="black" points="128.306,-373.73 129.236,-363.176 121.927,-370.846 128.306,-373.73"/>
</g>
<!-- p2Plugins -->
<g id="node38" class="node"><title>p2Plugins</title>
<polygon fill="none" stroke="black" points="259.25,-438 188.75,-438 188.75,-402 259.25,-402 259.25,-438"/>
<text text-anchor="middle" x="224" y="-416.3" font-family="Times,serif" font-size="14.00">p2Plugins</text>
</g>
<!-- p2PluginsPlugins&#45;&gt;p2Plugins -->
<g id="edge43" class="edge"><title>p2PluginsPlugins&#45;&gt;p2Plugins</title>
<path fill="none" stroke="black" d="M234.539,-473.697C232.997,-465.983 231.142,-456.712 229.422,-448.112"/>
<polygon fill="black" stroke="black" points="232.814,-447.224 227.421,-438.104 225.95,-448.597 232.814,-447.224"/>
</g>
<!-- p2Plugins&#45;&gt;p2 -->
<g id="edge45" class="edge"><title>p2Plugins&#45;&gt;p2</title>
<path fill="none" stroke="black" d="M203.382,-401.7C192.006,-392.154 177.71,-380.159 165.302,-369.747"/>
<polygon fill="black" stroke="black" points="167.38,-366.922 157.47,-363.176 162.881,-372.285 167.38,-366.922"/>
</g>
<!-- indexBuild -->
<g id="node40" class="node"><title>indexBuild</title>
<polygon fill="cyan" stroke="black" points="164,-291 110,-291 110,-255 164,-255 164,-291"/>
<text text-anchor="middle" x="137" y="-269.3" font-family="Times,serif" font-size="14.00">index</text>
</g>
<!-- p2&#45;&gt;indexBuild -->
<g id="edge46" class="edge"><title>p2&#45;&gt;indexBuild</title>
<path fill="none" stroke="black" d="M137,-326.697C137,-318.983 137,-309.712 137,-301.112"/>
<polygon fill="black" stroke="black" points="140.5,-301.104 137,-291.104 133.5,-301.104 140.5,-301.104"/>
</g>
<!-- distCompositePlugins -->
<g id="node41" class="node"><title>distCompositePlugins</title>
<polygon fill="none" stroke="black" points="178,-219 42,-219 42,-183 178,-183 178,-219"/>
<text text-anchor="middle" x="110" y="-197.3" font-family="Times,serif" font-size="14.00">distCompositePlugins</text>
</g>
<!-- indexBuild&#45;&gt;distCompositePlugins -->
<g id="edge47" class="edge"><title>indexBuild&#45;&gt;distCompositePlugins</title>
<path fill="none" stroke="black" d="M130.326,-254.697C127.285,-246.813 123.617,-237.304 120.239,-228.546"/>
<polygon fill="black" stroke="black" points="123.462,-227.175 116.597,-219.104 116.931,-229.694 123.462,-227.175"/>
</g>
<!-- distZipPlugins -->
<g id="node42" class="node"><title>distZipPlugins</title>
<polygon fill="none" stroke="black" points="200.25,-147 105.75,-147 105.75,-111 200.25,-111 200.25,-147"/>
<text text-anchor="middle" x="153" y="-125.3" font-family="Times,serif" font-size="14.00">distZipPlugins</text>
</g>
<!-- indexBuild&#45;&gt;distZipPlugins -->
<g id="edge48" class="edge"><title>indexBuild&#45;&gt;distZipPlugins</title>
<path fill="none" stroke="black" d="M159.596,-254.963C170.059,-245.635 181.396,-233.107 187,-219 192.907,-204.13 191.501,-198.354 187,-183 184.199,-173.447 179.089,-163.984 173.667,-155.756"/>
<polygon fill="black" stroke="black" points="176.376,-153.525 167.755,-147.366 170.654,-157.557 176.376,-153.525"/>
</g>
<!-- distCompositePlugins&#45;&gt;distZipPlugins -->
<g id="edge49" class="edge"><title>distCompositePlugins&#45;&gt;distZipPlugins</title>
<path fill="none" stroke="black" d="M120.629,-182.697C125.628,-174.559 131.691,-164.689 137.212,-155.701"/>
<polygon fill="black" stroke="black" points="140.241,-157.457 142.493,-147.104 134.277,-153.793 140.241,-157.457"/>
</g>
<!-- dist -->
<g id="node43" class="node"><title>dist</title>
<polygon fill="cyan" stroke="black" points="180,-75 126,-75 126,-39 180,-39 180,-75"/>
<text text-anchor="middle" x="153" y="-53.3" font-family="Times,serif" font-size="14.00">dist</text>
</g>
<!-- distZipPlugins&#45;&gt;dist -->
<g id="edge50" class="edge"><title>distZipPlugins&#45;&gt;dist</title>
<path fill="none" stroke="black" d="M153,-110.697C153,-102.983 153,-93.7125 153,-85.1124"/>
<polygon fill="black" stroke="black" points="156.5,-85.1043 153,-75.1043 149.5,-85.1044 156.5,-85.1043"/>
</g>
</g>
</svg>
