<?xml version="1.0" encoding="UTF-8" standalone="no"?>
<!DOCTYPE svg PUBLIC "-//W3C//DTD SVG 1.1//EN"
 "http://www.w3.org/Graphics/SVG/1.1/DTD/svg11.dtd">
<!-- Generated by graphviz version 2.34.0 (20140110.0949)
 -->
<!-- Title: GradleSetup Pages: 1 -->
<svg width="999pt" height="744pt"
 viewBox="0.00 0.00 999.00 744.00" xmlns="http://www.w3.org/2000/svg" xmlns:xlink="http://www.w3.org/1999/xlink">
<g id="graph0" class="graph" transform="scale(1 1) rotate(0) translate(4 740)">
<title>GradleSetup</title>
<polygon fill="white" stroke="white" points="-4,4 -4,-740 995,-740 995,4 -4,4"/>
<text text-anchor="middle" x="61" y="-720.8" font-family="Times,serif" font-size="14.00">Gradle Build Setup</text>
<g id="clust1" class="cluster"><title>cluster1</title>
<polygon fill="lightgrey" stroke="black" points="8,-8 8,-705 677,-705 677,-8 8,-8"/>
<text text-anchor="middle" x="92.5" y="-15.8" font-family="Times,serif" font-size="14.00">Java Projects / Bnd Projects</text>
</g>
<g id="clust2" class="cluster"><title>cluster101</title>
</g>
<g id="clust3" class="cluster"><title>cluster102</title>
</g>
<g id="clust4" class="cluster"><title>cluster103</title>
</g>
<g id="clust5" class="cluster"><title>cluster104</title>
</g>
<g id="clust6" class="cluster"><title>cluster105</title>
</g>
<g id="clust7" class="cluster"><title>cluster106</title>
</g>
<g id="clust8" class="cluster"><title>cluster107</title>
</g>
<g id="clust9" class="cluster"><title>cluster108</title>
</g>
<g id="clust10" class="cluster"><title>cluster109</title>
</g>
<g id="clust11" class="cluster"><title>cluster110</title>
</g>
<g id="clust12" class="cluster"><title>cluster2</title>
<polygon fill="lightgrey" stroke="black" points="759,-622 759,-697 909,-697 909,-622 759,-622"/>
<text text-anchor="middle" x="801.5" y="-629.8" font-family="Times,serif" font-size="14.00">Root Project</text>
</g>
<g id="clust13" class="cluster"><title>cluster3</title>
<polygon fill="lightgrey" stroke="black" points="685,-451 685,-614 983,-614 983,-451 685,-451"/>
<text text-anchor="middle" x="725.5" y="-458.8" font-family="Times,serif" font-size="14.00">All Projects</text>
</g>
<g id="clust14" class="cluster"><title>cluster301</title>
</g>
<g id="clust15" class="cluster"><title>cluster302</title>
</g>
<!-- compileJava -->
<g id="node1" class="node"><title>compileJava</title>
<polygon fill="lightcyan" stroke="black" points="414.25,-689 329.75,-689 329.75,-653 414.25,-653 414.25,-689"/>
<text text-anchor="middle" x="372" y="-667.3" font-family="Times,serif" font-size="14.00">compileJava</text>
</g>
<!-- classes -->
<g id="node3" class="node"><title>classes</title>
<polygon fill="lightcyan" stroke="black" points="338,-598 284,-598 284,-562 338,-562 338,-598"/>
<text text-anchor="middle" x="311" y="-576.3" font-family="Times,serif" font-size="14.00">classes</text>
</g>
<!-- compileJava&#45;&gt;classes -->
<g id="edge1" class="edge"><title>compileJava&#45;&gt;classes</title>
<path fill="none" stroke="black" d="M360.239,-652.84C351.209,-639.666 338.602,-621.272 328.405,-606.394"/>
<polygon fill="black" stroke="black" points="331.266,-604.377 322.725,-598.107 325.492,-608.335 331.266,-604.377"/>
</g>
<!-- processResources -->
<g id="node2" class="node"><title>processResources</title>
<polygon fill="lightcyan" stroke="black" points="311.25,-689 198.75,-689 198.75,-653 311.25,-653 311.25,-689"/>
<text text-anchor="middle" x="255" y="-667.3" font-family="Times,serif" font-size="14.00">processResources</text>
</g>
<!-- processResources&#45;&gt;classes -->
<g id="edge2" class="edge"><title>processResources&#45;&gt;classes</title>
<path fill="none" stroke="black" d="M265.797,-652.84C274.009,-639.789 285.444,-621.615 294.758,-606.813"/>
<polygon fill="black" stroke="black" points="297.873,-608.435 300.236,-598.107 291.948,-604.707 297.873,-608.435"/>
</g>
<!-- jar -->
<g id="node4" class="node"><title>jar</title>
<polygon fill="cyan" stroke="black" points="389,-526 335,-526 335,-490 389,-490 389,-526"/>
<text text-anchor="middle" x="362" y="-504.3" font-family="Times,serif" font-size="14.00">jar</text>
</g>
<!-- classes&#45;&gt;jar -->
<g id="edge4" class="edge"><title>classes&#45;&gt;jar</title>
<path fill="none" stroke="black" d="M323.607,-561.697C329.597,-553.474 336.876,-543.483 343.479,-534.421"/>
<polygon fill="black" stroke="black" points="346.478,-536.248 349.538,-526.104 340.821,-532.126 346.478,-536.248"/>
</g>
<!-- compileTestJava -->
<g id="node5" class="node"><title>compileTestJava</title>
<polygon fill="lightcyan" stroke="black" points="292,-526 184,-526 184,-490 292,-490 292,-526"/>
<text text-anchor="middle" x="238" y="-504.3" font-family="Times,serif" font-size="14.00">compileTestJava</text>
</g>
<!-- classes&#45;&gt;compileTestJava -->
<g id="edge3" class="edge"><title>classes&#45;&gt;compileTestJava</title>
<path fill="none" stroke="black" d="M292.955,-561.697C283.938,-553.05 272.882,-542.449 263.057,-533.027"/>
<polygon fill="black" stroke="black" points="265.478,-530.499 255.837,-526.104 260.633,-535.552 265.478,-530.499"/>
</g>
<!-- test -->
<g id="node8" class="node"><title>test</title>
<polygon fill="lightcyan" stroke="black" points="200,-371 146,-371 146,-335 200,-335 200,-371"/>
<text text-anchor="middle" x="173" y="-349.3" font-family="Times,serif" font-size="14.00">test</text>
</g>
<!-- classes&#45;&gt;test -->
<g id="edge5" class="edge"><title>classes&#45;&gt;test</title>
<path fill="none" stroke="black" d="M312.747,-561.985C316.471,-522.101 323.357,-424.059 304,-399 285.263,-374.743 266.99,-388.953 238,-379 228.664,-375.795 218.672,-372.091 209.392,-368.534"/>
<polygon fill="black" stroke="black" points="210.625,-365.258 200.036,-364.905 208.094,-371.784 210.625,-365.258"/>
</g>
<!-- jar&#45;&gt;compileJava -->
<g id="edge21" class="edge"><title>jar&#45;&gt;compileJava</title>
<path fill="none" stroke="red" d="M363.062,-526.106C364.794,-553.986 368.239,-609.453 370.31,-642.788"/>
<polygon fill="red" stroke="red" points="366.817,-643.006 370.93,-652.77 373.803,-642.572 366.817,-643.006"/>
</g>
<!-- uploadArchives -->
<g id="node9" class="node"><title>uploadArchives</title>
<polygon fill="lightcyan" stroke="black" points="352,-371 250,-371 250,-335 352,-335 352,-371"/>
<text text-anchor="middle" x="301" y="-349.3" font-family="Times,serif" font-size="14.00">uploadArchives</text>
</g>
<!-- jar&#45;&gt;uploadArchives -->
<g id="edge8" class="edge"><title>jar&#45;&gt;uploadArchives</title>
<path fill="none" stroke="black" d="M355.121,-489.746C344.55,-463.231 324.223,-412.249 311.712,-380.869"/>
<polygon fill="black" stroke="black" points="314.902,-379.418 307.947,-371.425 308.4,-382.011 314.902,-379.418"/>
</g>
<!-- assemble -->
<g id="node10" class="node"><title>assemble</title>
<polygon fill="lightcyan" stroke="black" points="437.25,-371 370.75,-371 370.75,-335 437.25,-335 437.25,-371"/>
<text text-anchor="middle" x="404" y="-349.3" font-family="Times,serif" font-size="14.00">assemble</text>
</g>
<!-- jar&#45;&gt;assemble -->
<g id="edge9" class="edge"><title>jar&#45;&gt;assemble</title>
<path fill="none" stroke="black" d="M366.736,-489.746C373.983,-463.346 387.889,-412.689 396.512,-381.277"/>
<polygon fill="black" stroke="black" points="399.944,-381.995 399.217,-371.425 393.194,-380.142 399.944,-381.995"/>
</g>
<!-- testClasses -->
<g id="node7" class="node"><title>testClasses</title>
<polygon fill="lightcyan" stroke="black" points="211,-443 135,-443 135,-407 211,-407 211,-443"/>
<text text-anchor="middle" x="173" y="-421.3" font-family="Times,serif" font-size="14.00">testClasses</text>
</g>
<!-- compileTestJava&#45;&gt;testClasses -->
<g id="edge6" class="edge"><title>compileTestJava&#45;&gt;testClasses</title>
<path fill="none" stroke="black" d="M224.215,-489.822C215.167,-478.546 203.182,-463.611 193.081,-451.024"/>
<polygon fill="black" stroke="black" points="195.753,-448.762 186.765,-443.153 190.294,-453.143 195.753,-448.762"/>
</g>
<!-- processTestResources -->
<g id="node6" class="node"><title>processTestResources</title>
<polygon fill="lightcyan" stroke="black" points="166,-526 30,-526 30,-490 166,-490 166,-526"/>
<text text-anchor="middle" x="98" y="-504.3" font-family="Times,serif" font-size="14.00">processTestResources</text>
</g>
<!-- processTestResources&#45;&gt;testClasses -->
<g id="edge7" class="edge"><title>processTestResources&#45;&gt;testClasses</title>
<path fill="none" stroke="black" d="M113.906,-489.822C124.446,-478.439 138.439,-463.326 150.162,-450.665"/>
<polygon fill="black" stroke="black" points="152.891,-452.869 157.117,-443.153 147.755,-448.113 152.891,-452.869"/>
</g>
<!-- testClasses&#45;&gt;test -->
<g id="edge10" class="edge"><title>testClasses&#45;&gt;test</title>
<path fill="none" stroke="black" d="M173,-406.697C173,-398.983 173,-389.712 173,-381.112"/>
<polygon fill="black" stroke="black" points="176.5,-381.104 173,-371.104 169.5,-381.104 176.5,-381.104"/>
</g>
<!-- check -->
<g id="node11" class="node"><title>check</title>
<polygon fill="cyan" stroke="black" points="306,-227 252,-227 252,-191 306,-191 306,-227"/>
<text text-anchor="middle" x="279" y="-205.3" font-family="Times,serif" font-size="14.00">check</text>
</g>
<!-- test&#45;&gt;check -->
<g id="edge13" class="edge"><title>test&#45;&gt;check</title>
<path fill="none" stroke="black" d="M162.526,-334.96C151.273,-314.222 137.127,-279.008 154,-255 173.667,-227.017 212.491,-216.354 241.68,-212.334"/>
<polygon fill="black" stroke="black" points="242.419,-215.772 251.945,-211.134 241.606,-208.819 242.419,-215.772"/>
</g>
<!-- findbugsTest -->
<g id="node21" class="node"><title>findbugsTest</title>
<polygon fill="orange" stroke="black" points="253.25,-299 166.75,-299 166.75,-263 253.25,-263 253.25,-299"/>
<text text-anchor="middle" x="210" y="-277.3" font-family="Times,serif" font-size="14.00">findbugsTest</text>
</g>
<!-- test&#45;&gt;findbugsTest -->
<g id="edge28" class="edge"><title>test&#45;&gt;findbugsTest</title>
<path fill="none" stroke="black" d="M182.146,-334.697C186.403,-326.644 191.556,-316.894 196.266,-307.982"/>
<polygon fill="black" stroke="black" points="199.38,-309.581 200.959,-299.104 193.192,-306.31 199.38,-309.581"/>
</g>
<!-- jacocoTestReport -->
<g id="node26" class="node"><title>jacocoTestReport</title>
<polygon fill="orange" stroke="black" points="128,-299 16,-299 16,-263 128,-263 128,-299"/>
<text text-anchor="middle" x="72" y="-277.3" font-family="Times,serif" font-size="14.00">jacocoTestReport</text>
</g>
<!-- test&#45;&gt;jacocoTestReport -->
<g id="edge31" class="edge"><title>test&#45;&gt;jacocoTestReport</title>
<path fill="none" stroke="black" d="M148.293,-334.876C135.331,-325.893 119.272,-314.763 105.235,-305.034"/>
<polygon fill="black" stroke="black" points="107.015,-302.009 96.8024,-299.19 103.028,-307.763 107.015,-302.009"/>
</g>
<!-- assemble&#45;&gt;check -->
<g id="edge12" class="edge"><title>assemble&#45;&gt;check</title>
<path fill="none" stroke="black" d="M400.973,-334.594C396.408,-310.064 387.206,-266.973 377,-255 361.344,-236.634 336.607,-225.354 315.903,-218.681"/>
<polygon fill="black" stroke="black" points="316.705,-215.267 306.121,-215.764 314.704,-221.976 316.705,-215.267"/>
</g>
<!-- release -->
<g id="node13" class="node"><title>release</title>
<polygon fill="cyan" stroke="black" points="486,-299 432,-299 432,-263 486,-263 486,-299"/>
<text text-anchor="middle" x="459" y="-277.3" font-family="Times,serif" font-size="14.00">release</text>
</g>
<!-- assemble&#45;&gt;release -->
<g id="edge22" class="edge"><title>assemble&#45;&gt;release</title>
<path fill="none" stroke="black" d="M417.596,-334.697C424.123,-326.389 432.068,-316.277 439.247,-307.141"/>
<polygon fill="black" stroke="black" points="442.135,-309.13 445.561,-299.104 436.631,-304.805 442.135,-309.13"/>
</g>
<!-- exportX -->
<g id="node15" class="node"><title>exportX</title>
<polygon fill="cyan" stroke="black" points="660.25,-299 563.75,-299 559.75,-295 559.75,-263 656.25,-263 660.25,-267 660.25,-299"/>
<polyline fill="none" stroke="black" points="656.25,-295 559.75,-295 "/>
<polyline fill="none" stroke="black" points="656.25,-295 656.25,-263 "/>
<polyline fill="none" stroke="black" points="656.25,-295 660.25,-299 "/>
<text text-anchor="middle" x="610" y="-277.3" font-family="Times,serif" font-size="14.00">export.&lt;name&gt;</text>
</g>
<!-- assemble&#45;&gt;exportX -->
<g id="edge23" class="edge"><title>assemble&#45;&gt;exportX</title>
<path fill="none" stroke="black" d="M437.457,-342.225C466.584,-333.535 509.844,-320.199 547,-307 550.76,-305.664 554.629,-304.244 558.512,-302.785"/>
<polygon fill="black" stroke="black" points="560.049,-305.944 568.14,-299.104 557.55,-299.406 560.049,-305.944"/>
</g>
<!-- build -->
<g id="node17" class="node"><title>build</title>
<polygon fill="lightcyan" stroke="black" points="429,-155 375,-155 375,-119 429,-119 429,-155"/>
<text text-anchor="middle" x="402" y="-133.3" font-family="Times,serif" font-size="14.00">build</text>
</g>
<!-- assemble&#45;&gt;build -->
<g id="edge11" class="edge"><title>assemble&#45;&gt;build</title>
<path fill="none" stroke="black" d="M403.84,-334.849C403.494,-297.832 402.675,-210.181 402.256,-165.386"/>
<polygon fill="black" stroke="black" points="405.754,-165.199 402.161,-155.232 398.755,-165.265 405.754,-165.199"/>
</g>
<!-- findbugsMain -->
<g id="node20" class="node"><title>findbugsMain</title>
<polygon fill="orange" stroke="black" points="364.25,-299 271.75,-299 271.75,-263 364.25,-263 364.25,-299"/>
<text text-anchor="middle" x="318" y="-277.3" font-family="Times,serif" font-size="14.00">findbugsMain</text>
</g>
<!-- assemble&#45;&gt;findbugsMain -->
<g id="edge27" class="edge"><title>assemble&#45;&gt;findbugsMain</title>
<path fill="none" stroke="black" d="M382.742,-334.697C371.911,-325.881 358.582,-315.032 346.84,-305.474"/>
<polygon fill="black" stroke="black" points="348.979,-302.703 339.014,-299.104 344.56,-308.132 348.979,-302.703"/>
</g>
<!-- checkNeeded -->
<g id="node12" class="node"><title>checkNeeded</title>
<polygon fill="cyan" stroke="black" points="305.25,-155 216.75,-155 216.75,-119 305.25,-119 305.25,-155"/>
<text text-anchor="middle" x="261" y="-133.3" font-family="Times,serif" font-size="14.00">checkNeeded</text>
</g>
<!-- check&#45;&gt;checkNeeded -->
<g id="edge14" class="edge"><title>check&#45;&gt;checkNeeded</title>
<path fill="none" stroke="black" d="M274.551,-190.697C272.545,-182.898 270.131,-173.509 267.899,-164.829"/>
<polygon fill="black" stroke="black" points="271.278,-163.918 265.398,-155.104 264.499,-165.661 271.278,-163.918"/>
</g>
<!-- check&#45;&gt;build -->
<g id="edge16" class="edge"><title>check&#45;&gt;build</title>
<path fill="none" stroke="black" d="M306.298,-192.465C323.894,-182.451 346.968,-169.319 366.05,-158.459"/>
<polygon fill="black" stroke="black" points="367.819,-161.48 374.779,-153.492 364.356,-155.396 367.819,-161.48"/>
</g>
<!-- checkNeeded&#45;&gt;checkNeeded -->
<g id="edge15" class="edge"><title>checkNeeded&#45;&gt;checkNeeded</title>
<path fill="none" stroke="red" d="M305.306,-150.203C315.507,-149.065 323,-144.664 323,-137 323,-132.09 319.925,-128.52 315.032,-126.288"/>
<polygon fill="red" stroke="red" points="315.862,-122.888 305.306,-123.797 314.125,-129.669 315.862,-122.888"/>
</g>
<!-- releaseNeeded -->
<g id="node14" class="node"><title>releaseNeeded</title>
<polygon fill="cyan" stroke="black" points="516.25,-227 421.75,-227 421.75,-191 516.25,-191 516.25,-227"/>
<text text-anchor="middle" x="469" y="-205.3" font-family="Times,serif" font-size="14.00">releaseNeeded</text>
</g>
<!-- release&#45;&gt;releaseNeeded -->
<g id="edge25" class="edge"><title>release&#45;&gt;releaseNeeded</title>
<path fill="none" stroke="black" d="M461.472,-262.697C462.574,-254.983 463.898,-245.712 465.127,-237.112"/>
<polygon fill="black" stroke="black" points="468.607,-237.499 466.557,-227.104 461.677,-236.509 468.607,-237.499"/>
</g>
<!-- releaseNeeded&#45;&gt;releaseNeeded -->
<g id="edge26" class="edge"><title>releaseNeeded&#45;&gt;releaseNeeded</title>
<path fill="none" stroke="red" d="M516.326,-222.101C526.571,-220.82 534,-216.453 534,-209 534,-204.225 530.951,-200.717 526.066,-198.476"/>
<polygon fill="red" stroke="red" points="526.889,-195.073 516.326,-195.899 525.098,-201.84 526.889,-195.073"/>
</g>
<!-- export -->
<g id="node16" class="node"><title>export</title>
<polygon fill="cyan" stroke="black" points="637,-227 583,-227 583,-191 637,-191 637,-227"/>
<text text-anchor="middle" x="610" y="-205.3" font-family="Times,serif" font-size="14.00">export</text>
</g>
<!-- exportX&#45;&gt;export -->
<g id="edge24" class="edge"><title>exportX&#45;&gt;export</title>
<path fill="none" stroke="black" d="M610,-262.697C610,-254.983 610,-245.712 610,-237.112"/>
<polygon fill="black" stroke="black" points="613.5,-237.104 610,-227.104 606.5,-237.104 613.5,-237.104"/>
</g>
<!-- buildDependents -->
<g id="node18" class="node"><title>buildDependents</title>
<polygon fill="lightcyan" stroke="black" points="456,-83 348,-83 348,-47 456,-47 456,-83"/>
<text text-anchor="middle" x="402" y="-61.3" font-family="Times,serif" font-size="14.00">buildDependents</text>
</g>
<!-- build&#45;&gt;buildDependents -->
<g id="edge17" class="edge"><title>build&#45;&gt;buildDependents</title>
<path fill="none" stroke="black" d="M402,-118.697C402,-110.983 402,-101.712 402,-93.1124"/>
<polygon fill="black" stroke="black" points="405.5,-93.1043 402,-83.1043 398.5,-93.1044 405.5,-93.1043"/>
</g>
<!-- buildNeeded -->
<g id="node19" class="node"><title>buildNeeded</title>
<polygon fill="lightcyan" stroke="black" points="578,-83 492,-83 492,-47 578,-47 578,-83"/>
<text text-anchor="middle" x="535" y="-61.3" font-family="Times,serif" font-size="14.00">buildNeeded</text>
</g>
<!-- build&#45;&gt;buildNeeded -->
<g id="edge19" class="edge"><title>build&#45;&gt;buildNeeded</title>
<path fill="none" stroke="black" d="M429.235,-121.666C447.772,-111.91 472.649,-98.8161 493.62,-87.7789"/>
<polygon fill="black" stroke="black" points="495.421,-90.7864 502.64,-83.0316 492.161,-84.5919 495.421,-90.7864"/>
</g>
<!-- buildDependents&#45;&gt;buildDependents -->
<g id="edge18" class="edge"><title>buildDependents&#45;&gt;buildDependents</title>
<path fill="none" stroke="yellow" d="M456.007,-77.8993C466.529,-76.4013 474,-72.1016 474,-65 474,-60.4506 470.934,-57.051 465.964,-54.8012"/>
<polygon fill="yellow" stroke="yellow" points="466.575,-51.3406 456.007,-52.1007 464.742,-58.0965 466.575,-51.3406"/>
</g>
<!-- buildNeeded&#45;&gt;buildNeeded -->
<g id="edge20" class="edge"><title>buildNeeded&#45;&gt;buildNeeded</title>
<path fill="none" stroke="red" d="M578.036,-78.2619C588.355,-77.2253 596,-72.8047 596,-65 596,-60.0001 592.862,-56.3891 587.894,-54.1668"/>
<polygon fill="red" stroke="red" points="588.583,-50.7319 578.036,-51.7381 586.909,-57.5287 588.583,-50.7319"/>
</g>
<!-- findbugsMain&#45;&gt;check -->
<g id="edge29" class="edge"><title>findbugsMain&#45;&gt;check</title>
<path fill="none" stroke="green" d="M308.36,-262.697C303.873,-254.644 298.441,-244.894 293.476,-235.982"/>
<polygon fill="green" stroke="green" points="296.454,-234.137 288.53,-227.104 290.339,-237.544 296.454,-234.137"/>
</g>
<!-- findbugsTest&#45;&gt;check -->
<g id="edge30" class="edge"><title>findbugsTest&#45;&gt;check</title>
<path fill="none" stroke="green" d="M227.056,-262.697C235.495,-254.135 245.825,-243.656 255.043,-234.304"/>
<polygon fill="green" stroke="green" points="257.613,-236.683 262.14,-227.104 252.627,-231.769 257.613,-236.683"/>
</g>
<!-- javadoc -->
<g id="node22" class="node"><title>javadoc</title>
<polygon fill="lightcyan" stroke="black" points="544.25,-689 485.75,-689 485.75,-653 544.25,-653 544.25,-689"/>
<text text-anchor="middle" x="515" y="-667.3" font-family="Times,serif" font-size="14.00">javadoc</text>
</g>
<!-- clean -->
<g id="node23" class="node"><title>clean</title>
<polygon fill="cyan" stroke="black" points="669,-689 615,-689 615,-653 669,-653 669,-689"/>
<text text-anchor="middle" x="642" y="-667.3" font-family="Times,serif" font-size="14.00">clean</text>
</g>
<!-- cleanNeeded -->
<g id="node30" class="node"><title>cleanNeeded</title>
<polygon fill="orange" stroke="black" points="871,-598 785,-598 785,-562 871,-562 871,-598"/>
<text text-anchor="middle" x="828" y="-576.3" font-family="Times,serif" font-size="14.00">cleanNeeded</text>
</g>
<!-- clean&#45;&gt;cleanNeeded -->
<g id="edge32" class="edge"><title>clean&#45;&gt;cleanNeeded</title>
<path fill="none" stroke="blue" d="M669.333,-658.198C692.176,-648.381 725.639,-634.106 755,-622 763.851,-618.351 766.459,-618.325 775,-614 781.237,-610.842 787.696,-607.18 793.869,-603.469"/>
<polygon fill="blue" stroke="blue" points="795.977,-606.281 802.649,-598.05 792.301,-600.324 795.977,-606.281"/>
</g>
<!-- distclean -->
<g id="node31" class="node"><title>distclean</title>
<polygon fill="orange" stroke="black" points="766.25,-598 701.75,-598 701.75,-562 766.25,-562 766.25,-598"/>
<text text-anchor="middle" x="734" y="-576.3" font-family="Times,serif" font-size="14.00">distclean</text>
</g>
<!-- clean&#45;&gt;distclean -->
<g id="edge34" class="edge"><title>clean&#45;&gt;distclean</title>
<path fill="none" stroke="blue" d="M659.739,-652.84C673.739,-639.296 693.441,-620.236 709.034,-605.152"/>
<polygon fill="blue" stroke="blue" points="711.562,-607.576 716.316,-598.107 706.695,-602.545 711.562,-607.576"/>
</g>
<!-- echo -->
<g id="node24" class="node"><title>echo</title>
<polygon fill="cyan" stroke="black" points="180,-689 126,-689 126,-653 180,-653 180,-689"/>
<text text-anchor="middle" x="153" y="-667.3" font-family="Times,serif" font-size="14.00">echo</text>
</g>
<!-- bndproperties -->
<g id="node25" class="node"><title>bndproperties</title>
<polygon fill="cyan" stroke="black" points="107.25,-689 16.75,-689 16.75,-653 107.25,-653 107.25,-689"/>
<text text-anchor="middle" x="62" y="-667.3" font-family="Times,serif" font-size="14.00">bndproperties</text>
</g>
<!-- init -->
<g id="node27" class="node"><title>init</title>
<polygon fill="lightcyan" stroke="black" points="901,-689 847,-689 847,-653 901,-653 901,-689"/>
<text text-anchor="middle" x="874" y="-667.3" font-family="Times,serif" font-size="14.00">init</text>
</g>
<!-- wrapper -->
<g id="node28" class="node"><title>wrapper</title>
<polygon fill="orange" stroke="black" points="828.25,-689 767.75,-689 767.75,-653 828.25,-653 828.25,-689"/>
<text text-anchor="middle" x="798" y="-667.3" font-family="Times,serif" font-size="14.00">wrapper</text>
</g>
<!-- index -->
<g id="node29" class="node"><title>index</title>
<polygon fill="orange" stroke="black" points="967,-598 913,-598 913,-562 967,-562 967,-598"/>
<text text-anchor="middle" x="940" y="-576.3" font-family="Times,serif" font-size="14.00">index</text>
</g>
<!-- cleanNeeded&#45;&gt;cleanNeeded -->
<g id="edge33" class="edge"><title>cleanNeeded&#45;&gt;cleanNeeded</title>
<path fill="none" stroke="red" d="M871.036,-593.262C881.355,-592.225 889,-587.805 889,-580 889,-575 885.862,-571.389 880.894,-569.167"/>
<polygon fill="red" stroke="red" points="881.583,-565.732 871.036,-566.738 879.909,-572.529 881.583,-565.732"/>
</g>
<!-- distcleanNeeded -->
<g id="node32" class="node"><title>distcleanNeeded</title>
<polygon fill="orange" stroke="black" points="807,-526 701,-526 701,-490 807,-490 807,-526"/>
<text text-anchor="middle" x="754" y="-504.3" font-family="Times,serif" font-size="14.00">distcleanNeeded</text>
</g>
<!-- distclean&#45;&gt;distcleanNeeded -->
<g id="edge35" class="edge"><title>distclean&#45;&gt;distcleanNeeded</title>
<path fill="none" stroke="black" d="M738.944,-561.697C741.172,-553.898 743.855,-544.509 746.335,-535.829"/>
<polygon fill="black" stroke="black" points="749.731,-536.681 749.113,-526.104 743,-534.758 749.731,-536.681"/>
</g>
<!-- distcleanNeeded&#45;&gt;distcleanNeeded -->
<g id="edge36" class="edge"><title>distcleanNeeded&#45;&gt;distcleanNeeded</title>
<path fill="none" stroke="red" d="M807.257,-520.899C817.632,-519.401 825,-515.102 825,-508 825,-503.451 821.976,-500.051 817.075,-497.801"/>
<polygon fill="red" stroke="red" points="817.827,-494.378 807.257,-495.101 815.971,-501.128 817.827,-494.378"/>
</g>
</g>
</svg>
