<?xml version="1.0" encoding="UTF-8" standalone="no"?>
<!DOCTYPE svg PUBLIC "-//W3C//DTD SVG 1.1//EN"
 "http://www.w3.org/Graphics/SVG/1.1/DTD/svg11.dtd">
<!-- Generated by graphviz version 2.34.0 (20140110.0949)
 -->
<!-- Title: GradleSetup Pages: 1 -->
<svg width="929pt" height="680pt"
 viewBox="0.00 0.00 929.00 680.00" xmlns="http://www.w3.org/2000/svg" xmlns:xlink="http://www.w3.org/1999/xlink">
<g id="graph0" class="graph" transform="scale(1 1) rotate(0) translate(4 676)">
<title>GradleSetup</title>
<polygon fill="white" stroke="white" points="-4,4 -4,-676 925,-676 925,4 -4,4"/>
<text text-anchor="middle" x="61" y="-656.8" font-family="Times,serif" font-size="14.00">Gradle Build Setup</text>
<g id="clust1" class="cluster"><title>cluster1</title>
<polygon fill="lightgrey" stroke="black" points="8,-8 8,-641 607,-641 607,-8 8,-8"/>
<text text-anchor="middle" x="92.5" y="-15.8" font-family="Times,serif" font-size="14.00">Java Projects / Bnd Projects</text>
</g>
<g id="clust2" class="cluster"><title>cluster101</title>
</g>
<g id="clust3" class="cluster"><title>cluster102</title>
</g>
<g id="clust4" class="cluster"><title>cluster103</title>
</g>
<g id="clust5" class="cluster"><title>cluster104</title>
</g>
<g id="clust6" class="cluster"><title>cluster105</title>
</g>
<g id="clust7" class="cluster"><title>cluster106</title>
</g>
<g id="clust8" class="cluster"><title>cluster107</title>
</g>
<g id="clust9" class="cluster"><title>cluster108</title>
</g>
<g id="clust10" class="cluster"><title>cluster109</title>
</g>
<g id="clust11" class="cluster"><title>cluster110</title>
</g>
<g id="clust12" class="cluster"><title>cluster2</title>
<polygon fill="lightgrey" stroke="black" points="689,-558 689,-633 839,-633 839,-558 689,-558"/>
<text text-anchor="middle" x="731.5" y="-565.8" font-family="Times,serif" font-size="14.00">Root Project</text>
</g>
<g id="clust13" class="cluster"><title>cluster3</title>
<polygon fill="lightgrey" stroke="black" points="615,-315 615,-550 913,-550 913,-315 615,-315"/>
<text text-anchor="middle" x="655.5" y="-322.8" font-family="Times,serif" font-size="14.00">All Projects</text>
</g>
<g id="clust14" class="cluster"><title>cluster301</title>
</g>
<g id="clust15" class="cluster"><title>cluster302</title>
</g>
<!-- compileJava -->
<g id="node1" class="node"><title>compileJava</title>
<polygon fill="lightcyan" stroke="black" points="497.25,-625 412.75,-625 412.75,-589 497.25,-589 497.25,-625"/>
<text text-anchor="middle" x="455" y="-603.3" font-family="Times,serif" font-size="14.00">compileJava</text>
</g>
<!-- classes -->
<g id="node3" class="node"><title>classes</title>
<polygon fill="lightcyan" stroke="black" points="386,-534 332,-534 332,-498 386,-498 386,-534"/>
<text text-anchor="middle" x="359" y="-512.3" font-family="Times,serif" font-size="14.00">classes</text>
</g>
<!-- compileJava&#45;&gt;classes -->
<g id="edge1" class="edge"><title>compileJava&#45;&gt;classes</title>
<path fill="none" stroke="black" d="M436.49,-588.84C421.881,-575.296 401.322,-556.236 385.051,-541.152"/>
<polygon fill="black" stroke="black" points="387.166,-538.339 377.453,-534.107 382.407,-543.473 387.166,-538.339"/>
</g>
<!-- processResources -->
<g id="node2" class="node"><title>processResources</title>
<polygon fill="lightcyan" stroke="black" points="394.25,-625 281.75,-625 281.75,-589 394.25,-589 394.25,-625"/>
<text text-anchor="middle" x="338" y="-603.3" font-family="Times,serif" font-size="14.00">processResources</text>
</g>
<!-- processResources&#45;&gt;classes -->
<g id="edge2" class="edge"><title>processResources&#45;&gt;classes</title>
<path fill="none" stroke="black" d="M342.049,-588.84C345.041,-576.158 349.175,-558.64 352.611,-544.077"/>
<polygon fill="black" stroke="black" points="356.073,-544.644 354.963,-534.107 349.26,-543.036 356.073,-544.644"/>
</g>
<!-- jar -->
<g id="node4" class="node"><title>jar</title>
<polygon fill="cyan" stroke="black" points="482,-462 428,-462 428,-426 482,-426 482,-462"/>
<text text-anchor="middle" x="455" y="-440.3" font-family="Times,serif" font-size="14.00">jar</text>
</g>
<!-- classes&#45;&gt;jar -->
<g id="edge5" class="edge"><title>classes&#45;&gt;jar</title>
<path fill="none" stroke="black" d="M384.617,-497.9C396.708,-489.668 411.25,-479.535 424,-470 424.727,-469.457 425.46,-468.903 426.198,-468.342"/>
<polygon fill="black" stroke="black" points="428.408,-471.057 434.153,-462.155 424.11,-465.532 428.408,-471.057"/>
</g>
<!-- compileTestJava -->
<g id="node5" class="node"><title>compileTestJava</title>
<polygon fill="lightcyan" stroke="black" points="332,-462 224,-462 224,-426 332,-426 332,-462"/>
<text text-anchor="middle" x="278" y="-440.3" font-family="Times,serif" font-size="14.00">compileTestJava</text>
</g>
<!-- classes&#45;&gt;compileTestJava -->
<g id="edge4" class="edge"><title>classes&#45;&gt;compileTestJava</title>
<path fill="none" stroke="black" d="M338.978,-497.697C328.874,-488.965 316.464,-478.24 305.482,-468.75"/>
<polygon fill="black" stroke="black" points="307.647,-465.995 297.792,-462.104 303.07,-471.291 307.647,-465.995"/>
</g>
<!-- test -->
<g id="node8" class="node"><title>test</title>
<polygon fill="lightcyan" stroke="black" points="78,-299 24,-299 24,-263 78,-263 78,-299"/>
<text text-anchor="middle" x="51" y="-277.3" font-family="Times,serif" font-size="14.00">test</text>
</g>
<!-- classes&#45;&gt;test -->
<g id="edge6" class="edge"><title>classes&#45;&gt;test</title>
<path fill="none" stroke="black" d="M331.73,-515.158C264.569,-514.917 94.0208,-510.266 58,-470 18.3358,-425.661 31.5703,-349.244 42.5078,-308.843"/>
<polygon fill="black" stroke="black" points="45.8936,-309.732 45.2755,-299.156 39.1629,-307.809 45.8936,-309.732"/>
</g>
<!-- javadoc -->
<g id="node22" class="node"><title>javadoc</title>
<polygon fill="lightcyan" stroke="black" points="409.25,-462 350.75,-462 350.75,-426 409.25,-426 409.25,-462"/>
<text text-anchor="middle" x="380" y="-440.3" font-family="Times,serif" font-size="14.00">javadoc</text>
</g>
<!-- classes&#45;&gt;javadoc -->
<g id="edge3" class="edge"><title>classes&#45;&gt;javadoc</title>
<path fill="none" stroke="black" d="M364.191,-497.697C366.531,-489.898 369.347,-480.509 371.951,-471.829"/>
<polygon fill="black" stroke="black" points="375.348,-472.688 374.869,-462.104 368.643,-470.677 375.348,-472.688"/>
</g>
<!-- jar&#45;&gt;compileJava -->
<g id="edge22" class="edge"><title>jar&#45;&gt;compileJava</title>
<path fill="none" stroke="red" d="M455,-462.106C455,-489.866 455,-544.974 455,-578.354"/>
<polygon fill="red" stroke="red" points="451.5,-578.77 455,-588.77 458.5,-578.77 451.5,-578.77"/>
</g>
<!-- uploadArchives -->
<g id="node9" class="node"><title>uploadArchives</title>
<polygon fill="lightcyan" stroke="black" points="544,-390 442,-390 442,-354 544,-354 544,-390"/>
<text text-anchor="middle" x="493" y="-368.3" font-family="Times,serif" font-size="14.00">uploadArchives</text>
</g>
<!-- jar&#45;&gt;uploadArchives -->
<g id="edge9" class="edge"><title>jar&#45;&gt;uploadArchives</title>
<path fill="none" stroke="black" d="M464.393,-425.697C468.765,-417.644 474.057,-407.894 478.895,-398.982"/>
<polygon fill="black" stroke="black" points="482.02,-400.563 483.715,-390.104 475.868,-397.223 482.02,-400.563"/>
</g>
<!-- assemble -->
<g id="node10" class="node"><title>assemble</title>
<polygon fill="lightcyan" stroke="black" points="423.25,-390 356.75,-390 356.75,-354 423.25,-354 423.25,-390"/>
<text text-anchor="middle" x="390" y="-368.3" font-family="Times,serif" font-size="14.00">assemble</text>
</g>
<!-- jar&#45;&gt;assemble -->
<g id="edge10" class="edge"><title>jar&#45;&gt;assemble</title>
<path fill="none" stroke="black" d="M438.933,-425.697C431.061,-417.22 421.445,-406.864 412.827,-397.583"/>
<polygon fill="black" stroke="black" points="415.252,-395.051 405.883,-390.104 410.122,-399.814 415.252,-395.051"/>
</g>
<!-- testClasses -->
<g id="node7" class="node"><title>testClasses</title>
<polygon fill="lightcyan" stroke="black" points="180,-390 104,-390 104,-354 180,-354 180,-390"/>
<text text-anchor="middle" x="142" y="-368.3" font-family="Times,serif" font-size="14.00">testClasses</text>
</g>
<!-- compileTestJava&#45;&gt;testClasses -->
<g id="edge7" class="edge"><title>compileTestJava&#45;&gt;testClasses</title>
<path fill="none" stroke="black" d="M244.731,-425.876C226.537,-416.512 203.809,-404.814 184.36,-394.803"/>
<polygon fill="black" stroke="black" points="185.89,-391.654 175.397,-390.19 182.687,-397.878 185.89,-391.654"/>
</g>
<!-- processTestResources -->
<g id="node6" class="node"><title>processTestResources</title>
<polygon fill="lightcyan" stroke="black" points="206,-462 70,-462 70,-426 206,-426 206,-462"/>
<text text-anchor="middle" x="138" y="-440.3" font-family="Times,serif" font-size="14.00">processTestResources</text>
</g>
<!-- processTestResources&#45;&gt;testClasses -->
<g id="edge8" class="edge"><title>processTestResources&#45;&gt;testClasses</title>
<path fill="none" stroke="black" d="M138.989,-425.697C139.43,-417.983 139.959,-408.712 140.451,-400.112"/>
<polygon fill="black" stroke="black" points="143.946,-400.288 141.023,-390.104 136.958,-399.888 143.946,-400.288"/>
</g>
<!-- testClasses&#45;&gt;test -->
<g id="edge11" class="edge"><title>testClasses&#45;&gt;test</title>
<path fill="none" stroke="black" d="M124.454,-353.84C110.606,-340.296 91.1179,-321.236 75.6943,-306.152"/>
<polygon fill="black" stroke="black" points="78.0883,-303.597 68.4919,-299.107 73.1938,-308.602 78.0883,-303.597"/>
</g>
<!-- findbugsTest -->
<g id="node21" class="node"><title>findbugsTest</title>
<polygon fill="orange" stroke="black" points="189.25,-299 102.75,-299 102.75,-263 189.25,-263 189.25,-299"/>
<text text-anchor="middle" x="146" y="-277.3" font-family="Times,serif" font-size="14.00">findbugsTest</text>
</g>
<!-- testClasses&#45;&gt;findbugsTest -->
<g id="edge29" class="edge"><title>testClasses&#45;&gt;findbugsTest</title>
<path fill="none" stroke="black" d="M142.771,-353.84C143.336,-341.281 144.113,-323.979 144.764,-309.502"/>
<polygon fill="black" stroke="black" points="148.279,-309.255 145.231,-299.107 141.286,-308.94 148.279,-309.255"/>
</g>
<!-- check -->
<g id="node11" class="node"><title>check</title>
<polygon fill="cyan" stroke="black" points="280,-227 226,-227 226,-191 280,-191 280,-227"/>
<text text-anchor="middle" x="253" y="-205.3" font-family="Times,serif" font-size="14.00">check</text>
</g>
<!-- test&#45;&gt;check -->
<g id="edge14" class="edge"><title>test&#45;&gt;check</title>
<path fill="none" stroke="black" d="M74.082,-262.983C79.1252,-259.911 84.581,-257.041 90,-255 145.528,-234.086 167.689,-258.898 222,-235 223.566,-234.311 225.119,-233.521 226.647,-232.657"/>
<polygon fill="black" stroke="black" points="228.653,-235.527 235.039,-227.073 224.775,-229.699 228.653,-235.527"/>
</g>
<!-- jacocoTestReport -->
<g id="node26" class="node"><title>jacocoTestReport</title>
<polygon fill="orange" stroke="black" points="128,-227 16,-227 16,-191 128,-191 128,-227"/>
<text text-anchor="middle" x="72" y="-205.3" font-family="Times,serif" font-size="14.00">jacocoTestReport</text>
</g>
<!-- test&#45;&gt;jacocoTestReport -->
<g id="edge32" class="edge"><title>test&#45;&gt;jacocoTestReport</title>
<path fill="none" stroke="black" d="M56.191,-262.697C58.5306,-254.898 61.3474,-245.509 63.9513,-236.829"/>
<polygon fill="black" stroke="black" points="67.3475,-237.688 66.8687,-227.104 60.6428,-235.677 67.3475,-237.688"/>
</g>
<!-- assemble&#45;&gt;check -->
<g id="edge13" class="edge"><title>assemble&#45;&gt;check</title>
<path fill="none" stroke="black" d="M378.966,-353.848C370.531,-341.779 357.998,-325.898 344,-315 337.411,-309.87 332.36,-313.403 327,-307 311.637,-288.648 326.418,-274.819 313,-255 306.629,-245.589 297.627,-237.365 288.53,-230.611"/>
<polygon fill="black" stroke="black" points="290.429,-227.669 280.221,-224.831 286.431,-233.415 290.429,-227.669"/>
</g>
<!-- release -->
<g id="node13" class="node"><title>release</title>
<polygon fill="cyan" stroke="black" points="542,-299 488,-299 488,-263 542,-263 542,-299"/>
<text text-anchor="middle" x="515" y="-277.3" font-family="Times,serif" font-size="14.00">release</text>
</g>
<!-- assemble&#45;&gt;release -->
<g id="edge23" class="edge"><title>assemble&#45;&gt;release</title>
<path fill="none" stroke="black" d="M399.014,-353.781C406.48,-341.189 418.24,-324.68 433,-315 445.259,-306.96 451.251,-312.086 465,-307 469.54,-305.321 474.208,-303.347 478.784,-301.257"/>
<polygon fill="black" stroke="black" points="480.461,-304.334 487.972,-296.861 477.44,-298.019 480.461,-304.334"/>
</g>
<!-- exportX -->
<g id="node15" class="node"><title>exportX</title>
<polygon fill="cyan" stroke="black" points="440.25,-299 343.75,-299 339.75,-295 339.75,-263 436.25,-263 440.25,-267 440.25,-299"/>
<polyline fill="none" stroke="black" points="436.25,-295 339.75,-295 "/>
<polyline fill="none" stroke="black" points="436.25,-295 436.25,-263 "/>
<polyline fill="none" stroke="black" points="436.25,-295 440.25,-299 "/>
<text text-anchor="middle" x="390" y="-277.3" font-family="Times,serif" font-size="14.00">export.&lt;name&gt;</text>
</g>
<!-- assemble&#45;&gt;exportX -->
<g id="edge24" class="edge"><title>assemble&#45;&gt;exportX</title>
<path fill="none" stroke="black" d="M390,-353.84C390,-341.281 390,-323.979 390,-309.502"/>
<polygon fill="black" stroke="black" points="393.5,-309.107 390,-299.107 386.5,-309.107 393.5,-309.107"/>
</g>
<!-- build -->
<g id="node17" class="node"><title>build</title>
<polygon fill="lightcyan" stroke="black" points="453,-155 399,-155 399,-119 453,-119 453,-155"/>
<text text-anchor="middle" x="426" y="-133.3" font-family="Times,serif" font-size="14.00">build</text>
</g>
<!-- assemble&#45;&gt;build -->
<g id="edge12" class="edge"><title>assemble&#45;&gt;build</title>
<path fill="none" stroke="black" d="M399.732,-353.828C407.412,-341.59 419.125,-325.509 433,-315 440.632,-309.22 447.633,-314.928 453,-307 468.448,-284.182 460.356,-209.556 453,-183 451.212,-176.546 448.226,-170.089 444.876,-164.162"/>
<polygon fill="black" stroke="black" points="447.67,-162.026 439.433,-155.362 441.716,-165.708 447.67,-162.026"/>
</g>
<!-- findbugsMain -->
<g id="node20" class="node"><title>findbugsMain</title>
<polygon fill="orange" stroke="black" points="300.25,-299 207.75,-299 207.75,-263 300.25,-263 300.25,-299"/>
<text text-anchor="middle" x="254" y="-277.3" font-family="Times,serif" font-size="14.00">findbugsMain</text>
</g>
<!-- assemble&#45;&gt;findbugsMain -->
<g id="edge28" class="edge"><title>assemble&#45;&gt;findbugsMain</title>
<path fill="none" stroke="black" d="M380.014,-353.89C371.848,-341.355 359.193,-324.87 344,-315 332.788,-307.716 327.653,-311.321 315,-307 311.209,-305.705 307.315,-304.298 303.416,-302.832"/>
<polygon fill="black" stroke="black" points="304.36,-299.444 293.771,-299.099 301.834,-305.973 304.36,-299.444"/>
</g>
<!-- checkNeeded -->
<g id="node12" class="node"><title>checkNeeded</title>
<polygon fill="cyan" stroke="black" points="296.25,-155 207.75,-155 207.75,-119 296.25,-119 296.25,-155"/>
<text text-anchor="middle" x="252" y="-133.3" font-family="Times,serif" font-size="14.00">checkNeeded</text>
</g>
<!-- check&#45;&gt;checkNeeded -->
<g id="edge15" class="edge"><title>check&#45;&gt;checkNeeded</title>
<path fill="none" stroke="black" d="M252.753,-190.697C252.643,-182.983 252.51,-173.712 252.387,-165.112"/>
<polygon fill="black" stroke="black" points="255.887,-165.053 252.244,-155.104 248.888,-165.153 255.887,-165.053"/>
</g>
<!-- check&#45;&gt;build -->
<g id="edge17" class="edge"><title>check&#45;&gt;build</title>
<path fill="none" stroke="black" d="M280.031,-197.062C309.399,-185.18 356.493,-166.124 389.215,-152.884"/>
<polygon fill="black" stroke="black" points="390.917,-155.971 398.874,-148.976 388.291,-149.482 390.917,-155.971"/>
</g>
<!-- checkNeeded&#45;&gt;checkNeeded -->
<g id="edge16" class="edge"><title>checkNeeded&#45;&gt;checkNeeded</title>
<path fill="none" stroke="red" d="M296.306,-150.203C306.507,-149.065 314,-144.664 314,-137 314,-132.09 310.925,-128.52 306.032,-126.288"/>
<polygon fill="red" stroke="red" points="306.862,-122.888 296.306,-123.797 305.125,-129.669 306.862,-122.888"/>
</g>
<!-- releaseNeeded -->
<g id="node14" class="node"><title>releaseNeeded</title>
<polygon fill="cyan" stroke="black" points="572.25,-227 477.75,-227 477.75,-191 572.25,-191 572.25,-227"/>
<text text-anchor="middle" x="525" y="-205.3" font-family="Times,serif" font-size="14.00">releaseNeeded</text>
</g>
<!-- release&#45;&gt;releaseNeeded -->
<g id="edge26" class="edge"><title>release&#45;&gt;releaseNeeded</title>
<path fill="none" stroke="black" d="M517.472,-262.697C518.574,-254.983 519.898,-245.712 521.127,-237.112"/>
<polygon fill="black" stroke="black" points="524.607,-237.499 522.557,-227.104 517.677,-236.509 524.607,-237.499"/>
</g>
<!-- releaseNeeded&#45;&gt;releaseNeeded -->
<g id="edge27" class="edge"><title>releaseNeeded&#45;&gt;releaseNeeded</title>
<path fill="none" stroke="red" d="M572.326,-222.101C582.571,-220.82 590,-216.453 590,-209 590,-204.225 586.951,-200.717 582.066,-198.476"/>
<polygon fill="red" stroke="red" points="582.889,-195.073 572.326,-195.899 581.098,-201.84 582.889,-195.073"/>
</g>
<!-- export -->
<g id="node16" class="node"><title>export</title>
<polygon fill="cyan" stroke="black" points="417,-227 363,-227 363,-191 417,-191 417,-227"/>
<text text-anchor="middle" x="390" y="-205.3" font-family="Times,serif" font-size="14.00">export</text>
</g>
<!-- exportX&#45;&gt;export -->
<g id="edge25" class="edge"><title>exportX&#45;&gt;export</title>
<path fill="none" stroke="black" d="M390,-262.697C390,-254.983 390,-245.712 390,-237.112"/>
<polygon fill="black" stroke="black" points="393.5,-237.104 390,-227.104 386.5,-237.104 393.5,-237.104"/>
</g>
<!-- buildDependents -->
<g id="node18" class="node"><title>buildDependents</title>
<polygon fill="lightcyan" stroke="black" points="449,-83 341,-83 341,-47 449,-47 449,-83"/>
<text text-anchor="middle" x="395" y="-61.3" font-family="Times,serif" font-size="14.00">buildDependents</text>
</g>
<!-- build&#45;&gt;buildDependents -->
<g id="edge18" class="edge"><title>build&#45;&gt;buildDependents</title>
<path fill="none" stroke="black" d="M418.337,-118.697C414.808,-110.728 410.544,-101.1 406.631,-92.2641"/>
<polygon fill="black" stroke="black" points="409.824,-90.8306 402.575,-83.1043 403.424,-93.6651 409.824,-90.8306"/>
</g>
<!-- buildNeeded -->
<g id="node19" class="node"><title>buildNeeded</title>
<polygon fill="lightcyan" stroke="black" points="571,-83 485,-83 485,-47 571,-47 571,-83"/>
<text text-anchor="middle" x="528" y="-61.3" font-family="Times,serif" font-size="14.00">buildNeeded</text>
</g>
<!-- build&#45;&gt;buildNeeded -->
<g id="edge20" class="edge"><title>build&#45;&gt;buildNeeded</title>
<path fill="none" stroke="black" d="M450.952,-118.876C464.042,-109.893 480.26,-98.7625 494.436,-89.0341"/>
<polygon fill="black" stroke="black" points="496.687,-91.734 502.952,-83.1898 492.726,-85.9624 496.687,-91.734"/>
</g>
<!-- buildDependents&#45;&gt;buildDependents -->
<g id="edge19" class="edge"><title>buildDependents&#45;&gt;buildDependents</title>
<path fill="none" stroke="yellow" d="M449.007,-77.8993C459.529,-76.4013 467,-72.1016 467,-65 467,-60.4506 463.934,-57.051 458.964,-54.8012"/>
<polygon fill="yellow" stroke="yellow" points="459.575,-51.3406 449.007,-52.1007 457.742,-58.0965 459.575,-51.3406"/>
</g>
<!-- buildNeeded&#45;&gt;buildNeeded -->
<g id="edge21" class="edge"><title>buildNeeded&#45;&gt;buildNeeded</title>
<path fill="none" stroke="red" d="M571.036,-78.2619C581.355,-77.2253 589,-72.8047 589,-65 589,-60.0001 585.862,-56.3891 580.894,-54.1668"/>
<polygon fill="red" stroke="red" points="581.583,-50.7319 571.036,-51.7381 579.909,-57.5287 581.583,-50.7319"/>
</g>
<!-- findbugsMain&#45;&gt;check -->
<g id="edge30" class="edge"><title>findbugsMain&#45;&gt;check</title>
<path fill="none" stroke="green" d="M253.753,-262.697C253.643,-254.983 253.51,-245.712 253.387,-237.112"/>
<polygon fill="green" stroke="green" points="256.887,-237.053 253.244,-227.104 249.888,-237.153 256.887,-237.053"/>
</g>
<!-- findbugsTest&#45;&gt;check -->
<g id="edge31" class="edge"><title>findbugsTest&#45;&gt;check</title>
<path fill="none" stroke="green" d="M177.323,-262.81C191.288,-254.804 207.764,-244.878 222,-235 222.77,-234.465 223.546,-233.917 224.325,-233.359"/>
<polygon fill="green" stroke="green" points="226.755,-235.91 232.642,-227.101 222.547,-230.316 226.755,-235.91"/>
</g>
<!-- clean -->
<g id="node23" class="node"><title>clean</title>
<polygon fill="cyan" stroke="black" points="599,-625 545,-625 545,-589 599,-589 599,-625"/>
<text text-anchor="middle" x="572" y="-603.3" font-family="Times,serif" font-size="14.00">clean</text>
</g>
<!-- cleanAll -->
<g id="node30" class="node"><title>cleanAll</title>
<polygon fill="orange" stroke="black" points="701,-534 647,-534 647,-498 701,-498 701,-534"/>
<text text-anchor="middle" x="674" y="-512.3" font-family="Times,serif" font-size="14.00">clean</text>
</g>
<!-- clean&#45;&gt;cleanAll -->
<g id="edge33" class="edge"><title>clean&#45;&gt;cleanAll</title>
<path fill="none" stroke="blue" d="M591.667,-588.84C607.33,-575.173 629.43,-555.889 646.791,-540.741"/>
<polygon fill="blue" stroke="blue" points="649.16,-543.319 654.394,-534.107 644.558,-538.045 649.16,-543.319"/>
</g>
<!-- echo -->
<g id="node24" class="node"><title>echo</title>
<polygon fill="cyan" stroke="black" points="242,-625 188,-625 188,-589 242,-589 242,-625"/>
<text text-anchor="middle" x="215" y="-603.3" font-family="Times,serif" font-size="14.00">echo</text>
</g>
<!-- bndproperties -->
<g id="node25" class="node"><title>bndproperties</title>
<polygon fill="cyan" stroke="black" points="128.25,-625 37.75,-625 37.75,-589 128.25,-589 128.25,-625"/>
<text text-anchor="middle" x="83" y="-603.3" font-family="Times,serif" font-size="14.00">bndproperties</text>
</g>
<!-- init -->
<g id="node27" class="node"><title>init</title>
<polygon fill="lightcyan" stroke="black" points="831,-625 777,-625 777,-589 831,-589 831,-625"/>
<text text-anchor="middle" x="804" y="-603.3" font-family="Times,serif" font-size="14.00">init</text>
</g>
<!-- wrapper -->
<g id="node28" class="node"><title>wrapper</title>
<polygon fill="orange" stroke="black" points="758.25,-625 697.75,-625 697.75,-589 758.25,-589 758.25,-625"/>
<text text-anchor="middle" x="728" y="-603.3" font-family="Times,serif" font-size="14.00">wrapper</text>
</g>
<!-- index -->
<g id="node29" class="node"><title>index</title>
<polygon fill="orange" stroke="black" points="897,-534 843,-534 843,-498 897,-498 897,-534"/>
<text text-anchor="middle" x="870" y="-512.3" font-family="Times,serif" font-size="14.00">index</text>
</g>
<!-- cleanAllNeeded -->
<g id="node31" class="node"><title>cleanAllNeeded</title>
<polygon fill="orange" stroke="black" points="717,-462 631,-462 631,-426 717,-426 717,-462"/>
<text text-anchor="middle" x="674" y="-440.3" font-family="Times,serif" font-size="14.00">cleanNeeded</text>
</g>
<!-- cleanAll&#45;&gt;cleanAllNeeded -->
<g id="edge34" class="edge"><title>cleanAll&#45;&gt;cleanAllNeeded</title>
<path fill="none" stroke="blue" d="M674,-497.697C674,-489.983 674,-480.712 674,-472.112"/>
<polygon fill="blue" stroke="blue" points="677.5,-472.104 674,-462.104 670.5,-472.104 677.5,-472.104"/>
</g>
<!-- distclean -->
<g id="node32" class="node"><title>distclean</title>
<polygon fill="orange" stroke="black" points="818.25,-462 753.75,-462 753.75,-426 818.25,-426 818.25,-462"/>
<text text-anchor="middle" x="786" y="-440.3" font-family="Times,serif" font-size="14.00">distclean</text>
</g>
<!-- cleanAll&#45;&gt;distclean -->
<g id="edge36" class="edge"><title>cleanAll&#45;&gt;distclean</title>
<path fill="none" stroke="blue" d="M701.112,-498.055C715.861,-488.837 734.29,-477.319 750.206,-467.371"/>
<polygon fill="blue" stroke="blue" points="752.124,-470.3 758.749,-462.032 748.414,-464.364 752.124,-470.3"/>
</g>
<!-- cleanAllNeeded&#45;&gt;cleanAllNeeded -->
<g id="edge35" class="edge"><title>cleanAllNeeded&#45;&gt;cleanAllNeeded</title>
<path fill="none" stroke="red" d="M717.036,-457.262C727.355,-456.225 735,-451.805 735,-444 735,-439 731.862,-435.389 726.894,-433.167"/>
<polygon fill="red" stroke="red" points="727.583,-429.732 717.036,-430.738 725.909,-436.529 727.583,-429.732"/>
</g>
<!-- distcleanNeeded -->
<g id="node33" class="node"><title>distcleanNeeded</title>
<polygon fill="orange" stroke="black" points="801,-390 695,-390 695,-354 801,-354 801,-390"/>
<text text-anchor="middle" x="748" y="-368.3" font-family="Times,serif" font-size="14.00">distcleanNeeded</text>
</g>
<!-- distclean&#45;&gt;distcleanNeeded -->
<g id="edge37" class="edge"><title>distclean&#45;&gt;distcleanNeeded</title>
<path fill="none" stroke="black" d="M776.607,-425.697C772.235,-417.644 766.943,-407.894 762.105,-398.982"/>
<polygon fill="black" stroke="black" points="765.132,-397.223 757.285,-390.104 758.98,-400.563 765.132,-397.223"/>
</g>
<!-- distcleanNeeded&#45;&gt;distcleanNeeded -->
<g id="edge38" class="edge"><title>distcleanNeeded&#45;&gt;distcleanNeeded</title>
<path fill="none" stroke="red" d="M801.257,-384.899C811.632,-383.401 819,-379.102 819,-372 819,-367.451 815.976,-364.051 811.075,-361.801"/>
<polygon fill="red" stroke="red" points="811.827,-358.378 801.257,-359.101 809.971,-365.128 811.827,-358.378"/>
</g>
</g>
</svg>
