<?xml version="1.0" encoding="UTF-8" standalone="no"?>
<!DOCTYPE svg PUBLIC "-//W3C//DTD SVG 1.1//EN"
 "http://www.w3.org/Graphics/SVG/1.1/DTD/svg11.dtd">
<!-- Generated by graphviz version 2.34.0 (20140110.0949)
 -->
<!-- Title: GradleSetup Pages: 1 -->
<svg width="1126pt" height="680pt"
 viewBox="0.00 0.00 1126.00 680.00" xmlns="http://www.w3.org/2000/svg" xmlns:xlink="http://www.w3.org/1999/xlink">
<g id="graph0" class="graph" transform="scale(1 1) rotate(0) translate(4 676)">
<title>GradleSetup</title>
<polygon fill="white" stroke="white" points="-4,4 -4,-676 1122,-676 1122,4 -4,4"/>
<text text-anchor="middle" x="61" y="-656.8" font-family="Times,serif" font-size="14.00">Gradle Build Setup</text>
<g id="clust1" class="cluster"><title>cluster1</title>
<polygon fill="lightgrey" stroke="black" points="8,-8 8,-641 804,-641 804,-8 8,-8"/>
<text text-anchor="middle" x="92.5" y="-15.8" font-family="Times,serif" font-size="14.00">Java Projects / Bnd Projects</text>
</g>
<g id="clust2" class="cluster"><title>cluster101</title>
</g>
<g id="clust3" class="cluster"><title>cluster102</title>
</g>
<g id="clust4" class="cluster"><title>cluster103</title>
</g>
<g id="clust5" class="cluster"><title>cluster104</title>
</g>
<g id="clust6" class="cluster"><title>cluster105</title>
</g>
<g id="clust7" class="cluster"><title>cluster106</title>
</g>
<g id="clust8" class="cluster"><title>cluster107</title>
</g>
<g id="clust9" class="cluster"><title>cluster108</title>
</g>
<g id="clust10" class="cluster"><title>cluster109</title>
</g>
<g id="clust12" class="cluster"><title>cluster2</title>
<polygon fill="lightgrey" stroke="black" points="886,-558 886,-633 1036,-633 1036,-558 886,-558"/>
<text text-anchor="middle" x="928.5" y="-565.8" font-family="Times,serif" font-size="14.00">Root Project</text>
</g>
<g id="clust13" class="cluster"><title>cluster3</title>
<polygon fill="lightgrey" stroke="black" points="812,-315 812,-550 1110,-550 1110,-315 812,-315"/>
<text text-anchor="middle" x="852.5" y="-322.8" font-family="Times,serif" font-size="14.00">All Projects</text>
</g>
<g id="clust14" class="cluster"><title>cluster301</title>
</g>
<g id="clust15" class="cluster"><title>cluster302</title>
</g>
<!-- compileJava -->
<g id="node1" class="node"><title>compileJava</title>
<polygon fill="lightcyan" stroke="black" points="607.25,-625 522.75,-625 522.75,-589 607.25,-589 607.25,-625"/>
<text text-anchor="middle" x="565" y="-603.3" font-family="Times,serif" font-size="14.00">compileJava</text>
</g>
<!-- compileJava&#45;&gt;compileJava -->
<g id="edge24" class="edge"><title>compileJava&#45;&gt;compileJava</title>
<path fill="none" stroke="red" d="M607.331,-623.577C617.48,-622.282 625,-616.756 625,-607 625,-600.75 621.914,-596.236 617.027,-593.459"/>
<polygon fill="red" stroke="red" points="617.92,-590.07 607.331,-590.423 615.828,-596.751 617.92,-590.07"/>
</g>
<!-- classes -->
<g id="node3" class="node"><title>classes</title>
<polygon fill="lightcyan" stroke="black" points="489,-534 435,-534 435,-498 489,-498 489,-534"/>
<text text-anchor="middle" x="462" y="-512.3" font-family="Times,serif" font-size="14.00">classes</text>
</g>
<!-- compileJava&#45;&gt;classes -->
<g id="edge1" class="edge"><title>compileJava&#45;&gt;classes</title>
<path fill="none" stroke="black" d="M546.987,-588.808C537.102,-579.518 524.541,-567.945 513,-558 506.258,-552.19 498.866,-546.096 491.853,-540.436"/>
<polygon fill="black" stroke="black" points="493.851,-537.552 483.857,-534.035 489.476,-543.017 493.851,-537.552"/>
</g>
<!-- processResources -->
<g id="node2" class="node"><title>processResources</title>
<polygon fill="lightcyan" stroke="black" points="504.25,-625 391.75,-625 391.75,-589 504.25,-589 504.25,-625"/>
<text text-anchor="middle" x="448" y="-603.3" font-family="Times,serif" font-size="14.00">processResources</text>
</g>
<!-- processResources&#45;&gt;classes -->
<g id="edge2" class="edge"><title>processResources&#45;&gt;classes</title>
<path fill="none" stroke="black" d="M450.699,-588.84C452.694,-576.158 455.45,-558.64 457.741,-544.077"/>
<polygon fill="black" stroke="black" points="461.212,-544.53 459.309,-534.107 454.297,-543.442 461.212,-544.53"/>
</g>
<!-- jar -->
<g id="node4" class="node"><title>jar</title>
<polygon fill="lightcyan" stroke="black" points="299,-390 245,-390 245,-354 299,-354 299,-390"/>
<text text-anchor="middle" x="272" y="-368.3" font-family="Times,serif" font-size="14.00">jar</text>
</g>
<!-- classes&#45;&gt;jar -->
<g id="edge5" class="edge"><title>classes&#45;&gt;jar</title>
<path fill="none" stroke="black" d="M434.674,-513.738C380.134,-510.586 260.869,-500.309 236,-470 218.799,-449.037 234.403,-419.067 250.104,-398.002"/>
<polygon fill="black" stroke="black" points="252.865,-400.154 256.285,-390.126 247.358,-395.832 252.865,-400.154"/>
</g>
<!-- bundle -->
<g id="node5" class="node"><title>bundle</title>
<polygon fill="cyan" stroke="black" points="299,-462 245,-462 245,-426 299,-426 299,-462"/>
<text text-anchor="middle" x="272" y="-440.3" font-family="Times,serif" font-size="14.00">bundle</text>
</g>
<!-- classes&#45;&gt;bundle -->
<g id="edge22" class="edge"><title>classes&#45;&gt;bundle</title>
<path fill="none" stroke="black" d="M434.892,-510.761C402.222,-504.895 346.321,-492.401 303,-470 301.695,-469.325 300.393,-468.59 299.102,-467.809"/>
<polygon fill="black" stroke="black" points="301.071,-464.916 290.843,-462.151 297.115,-470.691 301.071,-464.916"/>
</g>
<!-- compileTestJava -->
<g id="node6" class="node"><title>compileTestJava</title>
<polygon fill="lightcyan" stroke="black" points="691,-462 583,-462 583,-426 691,-426 691,-462"/>
<text text-anchor="middle" x="637" y="-440.3" font-family="Times,serif" font-size="14.00">compileTestJava</text>
</g>
<!-- classes&#45;&gt;compileTestJava -->
<g id="edge4" class="edge"><title>classes&#45;&gt;compileTestJava</title>
<path fill="none" stroke="black" d="M489.344,-504.062C514.782,-493.887 553.369,-478.453 584.716,-465.913"/>
<polygon fill="black" stroke="black" points="586.205,-469.088 594.19,-462.124 583.606,-462.588 586.205,-469.088"/>
</g>
<!-- test -->
<g id="node9" class="node"><title>test</title>
<polygon fill="lightcyan" stroke="black" points="749,-299 695,-299 695,-263 749,-263 749,-299"/>
<text text-anchor="middle" x="722" y="-277.3" font-family="Times,serif" font-size="14.00">test</text>
</g>
<!-- classes&#45;&gt;test -->
<g id="edge6" class="edge"><title>classes&#45;&gt;test</title>
<path fill="none" stroke="black" d="M489.087,-515.521C559.391,-516.236 744.873,-513.844 783,-470 824.412,-422.378 774.836,-346.147 743.635,-306.995"/>
<polygon fill="black" stroke="black" points="746.329,-304.761 737.295,-299.226 740.906,-309.187 746.329,-304.761"/>
</g>
<!-- javadoc -->
<g id="node21" class="node"><title>javadoc</title>
<polygon fill="lightcyan" stroke="black" points="768.25,-462 709.75,-462 709.75,-426 768.25,-426 768.25,-462"/>
<text text-anchor="middle" x="739" y="-440.3" font-family="Times,serif" font-size="14.00">javadoc</text>
</g>
<!-- classes&#45;&gt;javadoc -->
<g id="edge3" class="edge"><title>classes&#45;&gt;javadoc</title>
<path fill="none" stroke="black" d="M489.08,-513.643C534.817,-510.553 629.56,-500.686 703,-470 704.843,-469.23 706.687,-468.355 708.511,-467.405"/>
<polygon fill="black" stroke="black" points="710.556,-470.262 717.386,-462.162 706.996,-464.235 710.556,-470.262"/>
</g>
<!-- findbugsMain -->
<g id="node26" class="node"><title>findbugsMain</title>
<polygon fill="orange" stroke="black" points="410.25,-462 317.75,-462 317.75,-426 410.25,-426 410.25,-462"/>
<text text-anchor="middle" x="364" y="-440.3" font-family="Times,serif" font-size="14.00">findbugsMain</text>
</g>
<!-- classes&#45;&gt;findbugsMain -->
<g id="edge30" class="edge"><title>classes&#45;&gt;findbugsMain</title>
<path fill="none" stroke="black" d="M438.027,-497.876C425.45,-488.893 409.868,-477.763 396.248,-468.034"/>
<polygon fill="black" stroke="black" points="398.237,-465.154 388.066,-462.19 394.169,-470.85 398.237,-465.154"/>
</g>
<!-- uploadArchives -->
<g id="node10" class="node"><title>uploadArchives</title>
<polygon fill="lightcyan" stroke="black" points="367,-299 265,-299 265,-263 367,-263 367,-299"/>
<text text-anchor="middle" x="316" y="-277.3" font-family="Times,serif" font-size="14.00">uploadArchives</text>
</g>
<!-- jar&#45;&gt;uploadArchives -->
<g id="edge9" class="edge"><title>jar&#45;&gt;uploadArchives</title>
<path fill="none" stroke="black" d="M280.484,-353.84C286.875,-340.912 295.751,-322.958 303.031,-308.232"/>
<polygon fill="black" stroke="black" points="306.248,-309.623 307.542,-299.107 299.973,-306.521 306.248,-309.623"/>
</g>
<!-- assemble -->
<g id="node11" class="node"><title>assemble</title>
<polygon fill="lightcyan" stroke="black" points="246.25,-299 179.75,-299 179.75,-263 246.25,-263 246.25,-299"/>
<text text-anchor="middle" x="213" y="-277.3" font-family="Times,serif" font-size="14.00">assemble</text>
</g>
<!-- jar&#45;&gt;assemble -->
<g id="edge10" class="edge"><title>jar&#45;&gt;assemble</title>
<path fill="none" stroke="black" d="M260.624,-353.84C251.972,-340.789 239.925,-322.615 230.112,-307.813"/>
<polygon fill="black" stroke="black" points="232.783,-305.508 224.341,-299.107 226.949,-309.376 232.783,-305.508"/>
</g>
<!-- bundle&#45;&gt;jar -->
<g id="edge23" class="edge"><title>bundle&#45;&gt;jar</title>
<path fill="none" stroke="black" stroke-dasharray="5,2" d="M272,-425.697C272,-417.983 272,-408.712 272,-400.112"/>
<polygon fill="black" stroke="black" points="275.5,-400.104 272,-390.104 268.5,-400.104 275.5,-400.104"/>
</g>
<!-- testClasses -->
<g id="node8" class="node"><title>testClasses</title>
<polygon fill="lightcyan" stroke="black" points="664,-390 588,-390 588,-354 664,-354 664,-390"/>
<text text-anchor="middle" x="626" y="-368.3" font-family="Times,serif" font-size="14.00">testClasses</text>
</g>
<!-- compileTestJava&#45;&gt;testClasses -->
<g id="edge7" class="edge"><title>compileTestJava&#45;&gt;testClasses</title>
<path fill="none" stroke="black" d="M634.281,-425.697C633.069,-417.983 631.612,-408.712 630.261,-400.112"/>
<polygon fill="black" stroke="black" points="633.698,-399.44 628.688,-390.104 626.783,-400.526 633.698,-399.44"/>
</g>
<!-- processTestResources -->
<g id="node7" class="node"><title>processTestResources</title>
<polygon fill="lightcyan" stroke="black" points="565,-462 429,-462 429,-426 565,-426 565,-462"/>
<text text-anchor="middle" x="497" y="-440.3" font-family="Times,serif" font-size="14.00">processTestResources</text>
</g>
<!-- processTestResources&#45;&gt;testClasses -->
<g id="edge8" class="edge"><title>processTestResources&#45;&gt;testClasses</title>
<path fill="none" stroke="black" d="M528.557,-425.876C545.658,-416.596 566.982,-405.025 585.319,-395.075"/>
<polygon fill="black" stroke="black" points="587.202,-398.035 594.322,-390.19 583.863,-391.883 587.202,-398.035"/>
</g>
<!-- testClasses&#45;&gt;test -->
<g id="edge11" class="edge"><title>testClasses&#45;&gt;test</title>
<path fill="none" stroke="black" d="M644.51,-353.84C659.119,-340.296 679.678,-321.236 695.949,-306.152"/>
<polygon fill="black" stroke="black" points="698.593,-308.473 703.547,-299.107 693.834,-303.339 698.593,-308.473"/>
</g>
<!-- findbugsTest -->
<g id="node27" class="node"><title>findbugsTest</title>
<polygon fill="orange" stroke="black" points="649.25,-299 562.75,-299 562.75,-263 649.25,-263 649.25,-299"/>
<text text-anchor="middle" x="606" y="-277.3" font-family="Times,serif" font-size="14.00">findbugsTest</text>
</g>
<!-- testClasses&#45;&gt;findbugsTest -->
<g id="edge31" class="edge"><title>testClasses&#45;&gt;findbugsTest</title>
<path fill="none" stroke="black" d="M622.144,-353.84C619.294,-341.158 615.357,-323.64 612.085,-309.077"/>
<polygon fill="black" stroke="black" points="615.452,-308.097 609.844,-299.107 608.622,-309.632 615.452,-308.097"/>
</g>
<!-- check -->
<g id="node12" class="node"><title>check</title>
<polygon fill="cyan" stroke="black" points="623,-227 569,-227 569,-191 623,-191 623,-227"/>
<text text-anchor="middle" x="596" y="-205.3" font-family="Times,serif" font-size="14.00">check</text>
</g>
<!-- test&#45;&gt;check -->
<g id="edge14" class="edge"><title>test&#45;&gt;check</title>
<path fill="none" stroke="black" d="M703.109,-262.94C699.278,-260.018 695.147,-257.216 691,-255 664.716,-240.955 653.284,-249.045 627,-235 625.704,-234.308 624.41,-233.558 623.126,-232.765"/>
<polygon fill="black" stroke="black" points="625.105,-229.878 614.891,-227.06 621.118,-235.632 625.105,-229.878"/>
</g>
<!-- jacocoTestReport -->
<g id="node25" class="node"><title>jacocoTestReport</title>
<polygon fill="orange" stroke="black" points="796,-227 684,-227 684,-191 796,-191 796,-227"/>
<text text-anchor="middle" x="740" y="-205.3" font-family="Times,serif" font-size="14.00">jacocoTestReport</text>
</g>
<!-- test&#45;&gt;jacocoTestReport -->
<g id="edge34" class="edge"><title>test&#45;&gt;jacocoTestReport</title>
<path fill="none" stroke="black" d="M726.449,-262.697C728.455,-254.898 730.869,-245.509 733.101,-236.829"/>
<polygon fill="black" stroke="black" points="736.501,-237.661 735.602,-227.104 729.722,-235.918 736.501,-237.661"/>
</g>
<!-- assemble&#45;&gt;check -->
<g id="edge13" class="edge"><title>assemble&#45;&gt;check</title>
<path fill="none" stroke="black" d="M238.591,-262.935C244.141,-259.866 250.116,-257.009 256,-255 311.43,-236.069 482.482,-219.657 558.696,-213.074"/>
<polygon fill="black" stroke="black" points="559.133,-216.549 568.798,-212.211 558.537,-209.575 559.133,-216.549"/>
</g>
<!-- release -->
<g id="node14" class="node"><title>release</title>
<polygon fill="cyan" stroke="black" points="235,-227 181,-227 181,-191 235,-191 235,-227"/>
<text text-anchor="middle" x="208" y="-205.3" font-family="Times,serif" font-size="14.00">release</text>
</g>
<!-- assemble&#45;&gt;release -->
<g id="edge25" class="edge"><title>assemble&#45;&gt;release</title>
<path fill="none" stroke="black" d="M211.764,-262.697C211.213,-254.983 210.551,-245.712 209.937,-237.112"/>
<polygon fill="black" stroke="black" points="213.425,-236.83 209.222,-227.104 206.443,-237.328 213.425,-236.83"/>
</g>
<!-- exportX -->
<g id="node16" class="node"><title>exportX</title>
<polygon fill="cyan" stroke="black" points="125.25,-227 28.75,-227 24.75,-223 24.75,-191 121.25,-191 125.25,-195 125.25,-227"/>
<polyline fill="none" stroke="black" points="121.25,-223 24.75,-223 "/>
<polyline fill="none" stroke="black" points="121.25,-223 121.25,-191 "/>
<polyline fill="none" stroke="black" points="121.25,-223 125.25,-227 "/>
<text text-anchor="middle" x="75" y="-205.3" font-family="Times,serif" font-size="14.00">export.&lt;name&gt;</text>
</g>
<!-- assemble&#45;&gt;exportX -->
<g id="edge26" class="edge"><title>assemble&#45;&gt;exportX</title>
<path fill="none" stroke="black" d="M179.594,-263.055C161.001,-253.624 137.66,-241.784 117.747,-231.683"/>
<polygon fill="black" stroke="black" points="119.078,-228.434 108.577,-227.032 115.912,-234.677 119.078,-228.434"/>
</g>
<!-- build -->
<g id="node18" class="node"><title>build</title>
<polygon fill="lightcyan" stroke="black" points="435,-155 381,-155 381,-119 435,-119 435,-155"/>
<text text-anchor="middle" x="408" y="-133.3" font-family="Times,serif" font-size="14.00">build</text>
</g>
<!-- assemble&#45;&gt;build -->
<g id="edge12" class="edge"><title>assemble&#45;&gt;build</title>
<path fill="none" stroke="black" d="M236.987,-262.981C248.768,-254.593 263.156,-244.306 276,-235 310.496,-210.007 349.815,-181.053 376.503,-161.329"/>
<polygon fill="black" stroke="black" points="378.742,-164.027 384.702,-155.267 374.581,-158.398 378.742,-164.027"/>
</g>
<!-- checkNeeded -->
<g id="node13" class="node"><title>checkNeeded</title>
<polygon fill="cyan" stroke="black" points="649.25,-155 560.75,-155 560.75,-119 649.25,-119 649.25,-155"/>
<text text-anchor="middle" x="605" y="-133.3" font-family="Times,serif" font-size="14.00">checkNeeded</text>
</g>
<!-- check&#45;&gt;checkNeeded -->
<g id="edge15" class="edge"><title>check&#45;&gt;checkNeeded</title>
<path fill="none" stroke="black" d="M598.225,-190.697C599.217,-182.983 600.408,-173.712 601.514,-165.112"/>
<polygon fill="black" stroke="black" points="604.997,-165.469 602.801,-155.104 598.054,-164.576 604.997,-165.469"/>
</g>
<!-- check&#45;&gt;build -->
<g id="edge17" class="edge"><title>check&#45;&gt;build</title>
<path fill="none" stroke="black" d="M568.663,-197.821C535.99,-185.656 481.177,-165.247 444.802,-151.703"/>
<polygon fill="black" stroke="black" points="445.658,-148.287 435.065,-148.077 443.215,-154.847 445.658,-148.287"/>
</g>
<!-- checkNeeded&#45;&gt;checkNeeded -->
<g id="edge16" class="edge"><title>checkNeeded&#45;&gt;checkNeeded</title>
<path fill="none" stroke="red" d="M649.306,-150.203C659.507,-149.065 667,-144.664 667,-137 667,-132.09 663.925,-128.52 659.032,-126.288"/>
<polygon fill="red" stroke="red" points="659.862,-122.888 649.306,-123.797 658.125,-129.669 659.862,-122.888"/>
</g>
<!-- releaseNeeded -->
<g id="node15" class="node"><title>releaseNeeded</title>
<polygon fill="cyan" stroke="black" points="245.25,-155 150.75,-155 150.75,-119 245.25,-119 245.25,-155"/>
<text text-anchor="middle" x="198" y="-133.3" font-family="Times,serif" font-size="14.00">releaseNeeded</text>
</g>
<!-- release&#45;&gt;releaseNeeded -->
<g id="edge28" class="edge"><title>release&#45;&gt;releaseNeeded</title>
<path fill="none" stroke="black" d="M205.528,-190.697C204.426,-182.983 203.102,-173.712 201.873,-165.112"/>
<polygon fill="black" stroke="black" points="205.323,-164.509 200.443,-155.104 198.393,-165.499 205.323,-164.509"/>
</g>
<!-- releaseNeeded&#45;&gt;releaseNeeded -->
<g id="edge29" class="edge"><title>releaseNeeded&#45;&gt;releaseNeeded</title>
<path fill="none" stroke="red" d="M245.326,-150.101C255.571,-148.82 263,-144.453 263,-137 263,-132.225 259.951,-128.717 255.066,-126.476"/>
<polygon fill="red" stroke="red" points="255.889,-123.073 245.326,-123.899 254.098,-129.84 255.889,-123.073"/>
</g>
<!-- export -->
<g id="node17" class="node"><title>export</title>
<polygon fill="cyan" stroke="black" points="102,-155 48,-155 48,-119 102,-119 102,-155"/>
<text text-anchor="middle" x="75" y="-133.3" font-family="Times,serif" font-size="14.00">export</text>
</g>
<!-- exportX&#45;&gt;export -->
<g id="edge27" class="edge"><title>exportX&#45;&gt;export</title>
<path fill="none" stroke="black" d="M75,-190.697C75,-182.983 75,-173.712 75,-165.112"/>
<polygon fill="black" stroke="black" points="78.5001,-165.104 75,-155.104 71.5001,-165.104 78.5001,-165.104"/>
</g>
<!-- buildDependents -->
<g id="node19" class="node"><title>buildDependents</title>
<polygon fill="lightcyan" stroke="black" points="396,-83 288,-83 288,-47 396,-47 396,-83"/>
<text text-anchor="middle" x="342" y="-61.3" font-family="Times,serif" font-size="14.00">buildDependents</text>
</g>
<!-- build&#45;&gt;buildDependents -->
<g id="edge18" class="edge"><title>build&#45;&gt;buildDependents</title>
<path fill="none" stroke="black" d="M391.685,-118.697C383.693,-110.22 373.928,-99.8636 365.178,-90.5826"/>
<polygon fill="black" stroke="black" points="367.534,-87.9792 358.127,-83.1043 362.441,-92.7813 367.534,-87.9792"/>
</g>
<!-- buildNeeded -->
<g id="node20" class="node"><title>buildNeeded</title>
<polygon fill="lightcyan" stroke="black" points="518,-83 432,-83 432,-47 518,-47 518,-83"/>
<text text-anchor="middle" x="475" y="-61.3" font-family="Times,serif" font-size="14.00">buildNeeded</text>
</g>
<!-- build&#45;&gt;buildNeeded -->
<g id="edge20" class="edge"><title>build&#45;&gt;buildNeeded</title>
<path fill="none" stroke="black" d="M424.562,-118.697C432.675,-110.22 442.588,-99.8636 451.471,-90.5826"/>
<polygon fill="black" stroke="black" points="454.243,-92.7486 458.629,-83.1043 449.186,-87.9084 454.243,-92.7486"/>
</g>
<!-- buildDependents&#45;&gt;buildDependents -->
<g id="edge19" class="edge"><title>buildDependents&#45;&gt;buildDependents</title>
<path fill="none" stroke="yellow" d="M396.007,-77.8993C406.529,-76.4013 414,-72.1016 414,-65 414,-60.4506 410.934,-57.051 405.964,-54.8012"/>
<polygon fill="yellow" stroke="yellow" points="406.575,-51.3406 396.007,-52.1007 404.742,-58.0965 406.575,-51.3406"/>
</g>
<!-- buildNeeded&#45;&gt;buildNeeded -->
<g id="edge21" class="edge"><title>buildNeeded&#45;&gt;buildNeeded</title>
<path fill="none" stroke="red" d="M518.036,-78.2619C528.355,-77.2253 536,-72.8047 536,-65 536,-60.0001 532.862,-56.3891 527.894,-54.1668"/>
<polygon fill="red" stroke="red" points="528.583,-50.7319 518.036,-51.7381 526.909,-57.5287 528.583,-50.7319"/>
</g>
<!-- clean -->
<g id="node22" class="node"><title>clean</title>
<polygon fill="cyan" stroke="black" points="796,-625 742,-625 742,-589 796,-589 796,-625"/>
<text text-anchor="middle" x="769" y="-603.3" font-family="Times,serif" font-size="14.00">clean</text>
</g>
<!-- cleanAll -->
<g id="node31" class="node"><title>cleanAll</title>
<polygon fill="orange" stroke="black" points="898,-534 844,-534 844,-498 898,-498 898,-534"/>
<text text-anchor="middle" x="871" y="-512.3" font-family="Times,serif" font-size="14.00">clean</text>
</g>
<!-- clean&#45;&gt;cleanAll -->
<g id="edge35" class="edge"><title>clean&#45;&gt;cleanAll</title>
<path fill="none" stroke="blue" d="M788.667,-588.84C804.33,-575.173 826.43,-555.889 843.791,-540.741"/>
<polygon fill="blue" stroke="blue" points="846.16,-543.319 851.394,-534.107 841.558,-538.045 846.16,-543.319"/>
</g>
<!-- echo -->
<g id="node23" class="node"><title>echo</title>
<polygon fill="cyan" stroke="black" points="344,-625 290,-625 290,-589 344,-589 344,-625"/>
<text text-anchor="middle" x="317" y="-603.3" font-family="Times,serif" font-size="14.00">echo</text>
</g>
<!-- bndproperties -->
<g id="node24" class="node"><title>bndproperties</title>
<polygon fill="cyan" stroke="black" points="213.25,-625 122.75,-625 122.75,-589 213.25,-589 213.25,-625"/>
<text text-anchor="middle" x="168" y="-603.3" font-family="Times,serif" font-size="14.00">bndproperties</text>
</g>
<!-- findbugsMain&#45;&gt;check -->
<g id="edge32" class="edge"><title>findbugsMain&#45;&gt;check</title>
<path fill="none" stroke="green" d="M367.42,-425.809C373.432,-399.339 388.095,-348.194 417,-315 456.234,-269.943 519.747,-239.201 559.623,-223.134"/>
<polygon fill="green" stroke="green" points="560.949,-226.373 568.977,-219.459 558.39,-219.858 560.949,-226.373"/>
</g>
<!-- findbugsTest&#45;&gt;check -->
<g id="edge33" class="edge"><title>findbugsTest&#45;&gt;check</title>
<path fill="none" stroke="green" d="M603.528,-262.697C602.426,-254.983 601.102,-245.712 599.873,-237.112"/>
<polygon fill="green" stroke="green" points="603.323,-236.509 598.443,-227.104 596.393,-237.499 603.323,-236.509"/>
</g>
<!-- init -->
<g id="node28" class="node"><title>init</title>
<polygon fill="lightcyan" stroke="black" points="1028,-625 974,-625 974,-589 1028,-589 1028,-625"/>
<text text-anchor="middle" x="1001" y="-603.3" font-family="Times,serif" font-size="14.00">init</text>
</g>
<!-- wrapper -->
<g id="node29" class="node"><title>wrapper</title>
<polygon fill="orange" stroke="black" points="955.25,-625 894.75,-625 894.75,-589 955.25,-589 955.25,-625"/>
<text text-anchor="middle" x="925" y="-603.3" font-family="Times,serif" font-size="14.00">wrapper</text>
</g>
<!-- index -->
<g id="node30" class="node"><title>index</title>
<polygon fill="orange" stroke="black" points="1094,-534 1040,-534 1040,-498 1094,-498 1094,-534"/>
<text text-anchor="middle" x="1067" y="-512.3" font-family="Times,serif" font-size="14.00">index</text>
</g>
<!-- cleanAllNeeded -->
<g id="node32" class="node"><title>cleanAllNeeded</title>
<polygon fill="orange" stroke="black" points="914,-462 828,-462 828,-426 914,-426 914,-462"/>
<text text-anchor="middle" x="871" y="-440.3" font-family="Times,serif" font-size="14.00">cleanNeeded</text>
</g>
<!-- cleanAll&#45;&gt;cleanAllNeeded -->
<g id="edge36" class="edge"><title>cleanAll&#45;&gt;cleanAllNeeded</title>
<path fill="none" stroke="blue" d="M871,-497.697C871,-489.983 871,-480.712 871,-472.112"/>
<polygon fill="blue" stroke="blue" points="874.5,-472.104 871,-462.104 867.5,-472.104 874.5,-472.104"/>
</g>
<!-- distclean -->
<g id="node33" class="node"><title>distclean</title>
<polygon fill="orange" stroke="black" points="1015.25,-462 950.75,-462 950.75,-426 1015.25,-426 1015.25,-462"/>
<text text-anchor="middle" x="983" y="-440.3" font-family="Times,serif" font-size="14.00">distclean</text>
</g>
<!-- cleanAll&#45;&gt;distclean -->
<g id="edge38" class="edge"><title>cleanAll&#45;&gt;distclean</title>
<path fill="none" stroke="blue" d="M898.112,-498.055C912.861,-488.837 931.29,-477.319 947.206,-467.371"/>
<polygon fill="blue" stroke="blue" points="949.124,-470.3 955.749,-462.032 945.414,-464.364 949.124,-470.3"/>
</g>
<!-- cleanAllNeeded&#45;&gt;cleanAllNeeded -->
<g id="edge37" class="edge"><title>cleanAllNeeded&#45;&gt;cleanAllNeeded</title>
<path fill="none" stroke="red" d="M914.036,-457.262C924.355,-456.225 932,-451.805 932,-444 932,-439 928.862,-435.389 923.894,-433.167"/>
<polygon fill="red" stroke="red" points="924.583,-429.732 914.036,-430.738 922.909,-436.529 924.583,-429.732"/>
</g>
<!-- distcleanNeeded -->
<g id="node34" class="node"><title>distcleanNeeded</title>
<polygon fill="orange" stroke="black" points="998,-390 892,-390 892,-354 998,-354 998,-390"/>
<text text-anchor="middle" x="945" y="-368.3" font-family="Times,serif" font-size="14.00">distcleanNeeded</text>
</g>
<!-- distclean&#45;&gt;distcleanNeeded -->
<g id="edge39" class="edge"><title>distclean&#45;&gt;distcleanNeeded</title>
<path fill="none" stroke="black" d="M973.607,-425.697C969.235,-417.644 963.943,-407.894 959.105,-398.982"/>
<polygon fill="black" stroke="black" points="962.132,-397.223 954.285,-390.104 955.98,-400.563 962.132,-397.223"/>
</g>
<!-- distcleanNeeded&#45;&gt;distcleanNeeded -->
<g id="edge40" class="edge"><title>distcleanNeeded&#45;&gt;distcleanNeeded</title>
<path fill="none" stroke="red" d="M998.257,-384.899C1008.63,-383.401 1016,-379.102 1016,-372 1016,-367.451 1012.98,-364.051 1008.08,-361.801"/>
<polygon fill="red" stroke="red" points="1008.83,-358.378 998.257,-359.101 1006.97,-365.128 1008.83,-358.378"/>
</g>
</g>
</svg>
