<?xml version="1.0" encoding="UTF-8" standalone="no"?>
<!DOCTYPE svg PUBLIC "-//W3C//DTD SVG 1.1//EN"
 "http://www.w3.org/Graphics/SVG/1.1/DTD/svg11.dtd">
<!-- Generated by graphviz version 2.34.0 (20140110.0949)
 -->
<!-- Title: GradleSetup Pages: 1 -->
<svg width="1189pt" height="680pt"
 viewBox="0.00 0.00 1189.00 680.00" xmlns="http://www.w3.org/2000/svg" xmlns:xlink="http://www.w3.org/1999/xlink">
<g id="graph0" class="graph" transform="scale(1 1) rotate(0) translate(4 676)">
<title>GradleSetup</title>
<polygon fill="white" stroke="white" points="-4,4 -4,-676 1185,-676 1185,4 -4,4"/>
<text text-anchor="middle" x="61" y="-656.8" font-family="Times,serif" font-size="14.00">Gradle Build Setup</text>
<g id="clust1" class="cluster"><title>cluster1</title>
<polygon fill="lightgrey" stroke="black" points="8,-8 8,-641 867,-641 867,-8 8,-8"/>
<text text-anchor="middle" x="92.5" y="-15.8" font-family="Times,serif" font-size="14.00">Java Projects / Bnd Projects</text>
</g>
<g id="clust2" class="cluster"><title>cluster11</title>
</g>
<g id="clust3" class="cluster"><title>cluster12</title>
</g>
<g id="clust4" class="cluster"><title>cluster13</title>
</g>
<g id="clust5" class="cluster"><title>cluster14</title>
</g>
<g id="clust6" class="cluster"><title>cluster15</title>
</g>
<g id="clust7" class="cluster"><title>cluster16</title>
</g>
<g id="clust8" class="cluster"><title>cluster17</title>
</g>
<g id="clust9" class="cluster"><title>cluster2</title>
<polygon fill="lightgrey" stroke="black" points="981,-558 981,-633 1066,-633 1066,-558 981,-558"/>
<text text-anchor="middle" x="1023.5" y="-565.8" font-family="Times,serif" font-size="14.00">Root Project</text>
</g>
<g id="clust10" class="cluster"><title>cluster3</title>
<polygon fill="lightgrey" stroke="black" points="875,-315 875,-550 1173,-550 1173,-315 875,-315"/>
<text text-anchor="middle" x="915.5" y="-322.8" font-family="Times,serif" font-size="14.00">All Projects</text>
</g>
<g id="clust11" class="cluster"><title>cluster31</title>
</g>
<g id="clust12" class="cluster"><title>cluster32</title>
</g>
<!-- compileJava -->
<g id="node1" class="node"><title>compileJava</title>
<polygon fill="lightcyan" stroke="black" points="210.25,-625 125.75,-625 125.75,-589 210.25,-589 210.25,-625"/>
<text text-anchor="middle" x="168" y="-603.3" font-family="Times,serif" font-size="14.00">compileJava</text>
</g>
<!-- classes -->
<g id="node3" class="node"><title>classes</title>
<polygon fill="lightcyan" stroke="black" points="342,-534 288,-534 288,-498 342,-498 342,-534"/>
<text text-anchor="middle" x="315" y="-512.3" font-family="Times,serif" font-size="14.00">classes</text>
</g>
<!-- compileJava&#45;&gt;classes -->
<g id="edge1" class="edge"><title>compileJava&#45;&gt;classes</title>
<path fill="none" stroke="black" d="M183.29,-588.852C192.828,-578.897 205.773,-566.654 219,-558 237.254,-546.057 259.566,-536.281 278.084,-529.274"/>
<polygon fill="black" stroke="black" points="279.469,-532.494 287.655,-525.768 277.061,-525.921 279.469,-532.494"/>
</g>
<!-- processResources -->
<g id="node2" class="node"><title>processResources</title>
<polygon fill="lightcyan" stroke="black" points="341.25,-625 228.75,-625 228.75,-589 341.25,-589 341.25,-625"/>
<text text-anchor="middle" x="285" y="-603.3" font-family="Times,serif" font-size="14.00">processResources</text>
</g>
<!-- processResources&#45;&gt;classes -->
<g id="edge2" class="edge"><title>processResources&#45;&gt;classes</title>
<path fill="none" stroke="black" d="M290.784,-588.84C295.101,-576.035 301.079,-558.299 306.016,-543.654"/>
<polygon fill="black" stroke="black" points="309.356,-544.702 309.233,-534.107 302.723,-542.466 309.356,-544.702"/>
</g>
<!-- jar -->
<g id="node4" class="node"><title>jar</title>
<polygon fill="lightcyan" stroke="black" points="298,-390 244,-390 244,-354 298,-354 298,-390"/>
<text text-anchor="middle" x="271" y="-368.3" font-family="Times,serif" font-size="14.00">jar</text>
</g>
<!-- classes&#45;&gt;jar -->
<g id="edge6" class="edge"><title>classes&#45;&gt;jar</title>
<path fill="none" stroke="black" d="M315.663,-497.738C315.821,-479.407 314.495,-449.846 306,-426 302.595,-416.44 297.114,-406.904 291.491,-398.611"/>
<polygon fill="black" stroke="black" points="294.328,-396.561 285.66,-390.468 288.637,-400.636 294.328,-396.561"/>
</g>
<!-- bundle -->
<g id="node5" class="node"><title>bundle</title>
<polygon fill="cyan" stroke="black" points="297,-462 243,-462 243,-426 297,-426 297,-462"/>
<text text-anchor="middle" x="270" y="-440.3" font-family="Times,serif" font-size="14.00">bundle</text>
</g>
<!-- classes&#45;&gt;bundle -->
<g id="edge18" class="edge"><title>classes&#45;&gt;bundle</title>
<path fill="none" stroke="black" d="M303.876,-497.697C298.645,-489.559 292.3,-479.689 286.522,-470.701"/>
<polygon fill="black" stroke="black" points="289.347,-468.623 280.996,-462.104 283.459,-472.409 289.347,-468.623"/>
</g>
<!-- compileTestJava -->
<g id="node6" class="node"><title>compileTestJava</title>
<polygon fill="lightcyan" stroke="black" points="628,-462 520,-462 520,-426 628,-426 628,-462"/>
<text text-anchor="middle" x="574" y="-440.3" font-family="Times,serif" font-size="14.00">compileTestJava</text>
</g>
<!-- classes&#45;&gt;compileTestJava -->
<g id="edge5" class="edge"><title>classes&#45;&gt;compileTestJava</title>
<path fill="none" stroke="black" d="M342.295,-510.096C380.485,-502.928 451.829,-488.416 511,-470 515.287,-468.666 519.696,-467.174 524.095,-465.601"/>
<polygon fill="black" stroke="black" points="525.496,-468.814 533.657,-462.058 523.064,-462.25 525.496,-468.814"/>
</g>
<!-- test -->
<g id="node9" class="node"><title>test</title>
<polygon fill="lightcyan" stroke="black" points="420,-299 366,-299 366,-263 420,-263 420,-299"/>
<text text-anchor="middle" x="393" y="-277.3" font-family="Times,serif" font-size="14.00">test</text>
</g>
<!-- classes&#45;&gt;test -->
<g id="edge4" class="edge"><title>classes&#45;&gt;test</title>
<path fill="none" stroke="black" d="M320.736,-497.867C334.174,-457.724 367.782,-357.331 383.985,-308.929"/>
<polygon fill="black" stroke="black" points="387.4,-309.752 387.256,-299.158 380.763,-307.53 387.4,-309.752"/>
</g>
<!-- findbugsMain -->
<g id="node20" class="node"><title>findbugsMain</title>
<polygon fill="orange" stroke="black" points="850.25,-299 757.75,-299 757.75,-263 850.25,-263 850.25,-299"/>
<text text-anchor="middle" x="804" y="-277.3" font-family="Times,serif" font-size="14.00">findbugsMain</text>
</g>
<!-- classes&#45;&gt;findbugsMain -->
<g id="edge27" class="edge"><title>classes&#45;&gt;findbugsMain</title>
<path fill="none" stroke="black" d="M342.143,-514.052C433.748,-510.611 727.539,-497.506 759,-470 805.155,-429.647 808.353,-351.156 806.399,-309.503"/>
<polygon fill="black" stroke="black" points="809.878,-309.042 805.779,-299.272 802.89,-309.466 809.878,-309.042"/>
</g>
<!-- javadoc -->
<g id="node24" class="node"><title>javadoc</title>
<polygon fill="lightcyan" stroke="black" points="705.25,-462 646.75,-462 646.75,-426 705.25,-426 705.25,-462"/>
<text text-anchor="middle" x="676" y="-440.3" font-family="Times,serif" font-size="14.00">javadoc</text>
</g>
<!-- classes&#45;&gt;javadoc -->
<g id="edge3" class="edge"><title>classes&#45;&gt;javadoc</title>
<path fill="none" stroke="black" d="M342.175,-515.435C399.361,-515.463 535.472,-510.818 640,-470 642.073,-469.19 644.143,-468.239 646.182,-467.19"/>
<polygon fill="black" stroke="black" points="648.005,-470.178 654.85,-462.091 644.456,-464.145 648.005,-470.178"/>
</g>
<!-- uploadArchives -->
<g id="node11" class="node"><title>uploadArchives</title>
<polygon fill="lightcyan" stroke="black" points="342,-299 240,-299 240,-263 342,-263 342,-299"/>
<text text-anchor="middle" x="291" y="-277.3" font-family="Times,serif" font-size="14.00">uploadArchives</text>
</g>
<!-- jar&#45;&gt;uploadArchives -->
<g id="edge9" class="edge"><title>jar&#45;&gt;uploadArchives</title>
<path fill="none" stroke="black" d="M274.856,-353.84C277.706,-341.158 281.643,-323.64 284.915,-309.077"/>
<polygon fill="black" stroke="black" points="288.378,-309.632 287.156,-299.107 281.548,-308.097 288.378,-309.632"/>
</g>
<!-- assemble -->
<g id="node12" class="node"><title>assemble</title>
<polygon fill="lightcyan" stroke="black" points="221.25,-299 154.75,-299 154.75,-263 221.25,-263 221.25,-299"/>
<text text-anchor="middle" x="188" y="-277.3" font-family="Times,serif" font-size="14.00">assemble</text>
</g>
<!-- jar&#45;&gt;assemble -->
<g id="edge10" class="edge"><title>jar&#45;&gt;assemble</title>
<path fill="none" stroke="black" d="M254.997,-353.84C242.481,-340.419 224.914,-321.582 210.908,-306.564"/>
<polygon fill="black" stroke="black" points="213.334,-304.034 203.954,-299.107 208.215,-308.808 213.334,-304.034"/>
</g>
<!-- bundle&#45;&gt;compileJava -->
<g id="edge19" class="edge"><title>bundle&#45;&gt;compileJava</title>
<path fill="none" stroke="red" d="M259.163,-462.106C241.27,-490.348 205.443,-546.899 184.424,-580.075"/>
<polygon fill="red" stroke="red" points="181.311,-578.45 178.916,-588.77 187.224,-582.196 181.311,-578.45"/>
</g>
<!-- bundle&#45;&gt;jar -->
<g id="edge20" class="edge"><title>bundle&#45;&gt;jar</title>
<path fill="none" stroke="black" stroke-dasharray="5,2" d="M270.247,-425.697C270.357,-417.983 270.49,-408.712 270.613,-400.112"/>
<polygon fill="black" stroke="black" points="274.112,-400.153 270.756,-390.104 267.113,-400.053 274.112,-400.153"/>
</g>
<!-- bundle&#45;&gt;test -->
<g id="edge21" class="edge"><title>bundle&#45;&gt;test</title>
<path fill="none" stroke="black" d="M283.793,-425.534C291.288,-415.515 300.355,-402.481 307,-390 323.794,-358.454 311.359,-340.886 336,-315 342.036,-308.659 346.293,-311.152 354,-307 355.509,-306.187 357.037,-305.336 358.571,-304.459"/>
<polygon fill="black" stroke="black" points="360.526,-307.368 367.318,-299.237 356.937,-301.358 360.526,-307.368"/>
</g>
<!-- testClasses -->
<g id="node8" class="node"><title>testClasses</title>
<polygon fill="lightcyan" stroke="black" points="542,-390 466,-390 466,-354 542,-354 542,-390"/>
<text text-anchor="middle" x="504" y="-368.3" font-family="Times,serif" font-size="14.00">testClasses</text>
</g>
<!-- compileTestJava&#45;&gt;testClasses -->
<g id="edge7" class="edge"><title>compileTestJava&#45;&gt;testClasses</title>
<path fill="none" stroke="black" d="M556.697,-425.697C548.135,-417.135 537.656,-406.656 528.304,-397.304"/>
<polygon fill="black" stroke="black" points="530.65,-394.701 521.104,-390.104 525.701,-399.65 530.65,-394.701"/>
</g>
<!-- processTestResources -->
<g id="node7" class="node"><title>processTestResources</title>
<polygon fill="lightcyan" stroke="black" points="502,-462 366,-462 366,-426 502,-426 502,-462"/>
<text text-anchor="middle" x="434" y="-440.3" font-family="Times,serif" font-size="14.00">processTestResources</text>
</g>
<!-- processTestResources&#45;&gt;testClasses -->
<g id="edge8" class="edge"><title>processTestResources&#45;&gt;testClasses</title>
<path fill="none" stroke="black" d="M451.303,-425.697C459.865,-417.135 470.344,-406.656 479.696,-397.304"/>
<polygon fill="black" stroke="black" points="482.299,-399.65 486.896,-390.104 477.35,-394.701 482.299,-399.65"/>
</g>
<!-- testClasses&#45;&gt;test -->
<g id="edge11" class="edge"><title>testClasses&#45;&gt;test</title>
<path fill="none" stroke="black" d="M482.598,-353.84C465.476,-340.112 441.285,-320.715 422.355,-305.537"/>
<polygon fill="black" stroke="black" points="424.328,-302.632 414.336,-299.107 419.949,-308.094 424.328,-302.632"/>
</g>
<!-- findbugsTest -->
<g id="node22" class="node"><title>findbugsTest</title>
<polygon fill="orange" stroke="black" points="739.25,-299 652.75,-299 652.75,-263 739.25,-263 739.25,-299"/>
<text text-anchor="middle" x="696" y="-277.3" font-family="Times,serif" font-size="14.00">findbugsTest</text>
</g>
<!-- testClasses&#45;&gt;findbugsTest -->
<g id="edge28" class="edge"><title>testClasses&#45;&gt;findbugsTest</title>
<path fill="none" stroke="black" d="M541.02,-353.84C572.097,-339.434 616.637,-318.788 650.001,-303.323"/>
<polygon fill="black" stroke="black" points="651.493,-306.488 659.094,-299.107 648.549,-300.138 651.493,-306.488"/>
</g>
<!-- jacocoTestReport -->
<g id="node10" class="node"><title>jacocoTestReport</title>
<polygon fill="orange" stroke="black" points="522,-227 410,-227 410,-191 522,-191 522,-227"/>
<text text-anchor="middle" x="466" y="-205.3" font-family="Times,serif" font-size="14.00">jacocoTestReport</text>
</g>
<!-- test&#45;&gt;jacocoTestReport -->
<g id="edge33" class="edge"><title>test&#45;&gt;jacocoTestReport</title>
<path fill="none" stroke="black" d="M411.045,-262.697C420.062,-254.05 431.118,-243.449 440.943,-234.027"/>
<polygon fill="black" stroke="black" points="443.367,-236.552 448.163,-227.104 438.522,-231.499 443.367,-236.552"/>
</g>
<!-- check -->
<g id="node13" class="node"><title>check</title>
<polygon fill="cyan" stroke="black" points="418,-155 364,-155 364,-119 418,-119 418,-155"/>
<text text-anchor="middle" x="391" y="-133.3" font-family="Times,serif" font-size="14.00">check</text>
</g>
<!-- test&#45;&gt;check -->
<g id="edge14" class="edge"><title>test&#45;&gt;check</title>
<path fill="none" stroke="black" d="M392.759,-262.871C392.418,-238.67 391.792,-194.211 391.386,-165.393"/>
<polygon fill="black" stroke="black" points="394.883,-165.139 391.242,-155.189 387.883,-165.238 394.883,-165.139"/>
</g>
<!-- assemble&#45;&gt;check -->
<g id="edge13" class="edge"><title>assemble&#45;&gt;check</title>
<path fill="none" stroke="black" d="M214.662,-262.814C219.933,-259.904 225.531,-257.138 231,-255 269.163,-240.081 287.461,-258.54 321,-235 343.404,-219.275 337.944,-205.169 354,-183 358.839,-176.319 364.35,-169.327 369.614,-162.901"/>
<polygon fill="black" stroke="black" points="372.375,-165.055 376.081,-155.129 366.994,-160.578 372.375,-165.055"/>
</g>
<!-- release -->
<g id="node15" class="node"><title>release</title>
<polygon fill="cyan" stroke="black" points="120,-227 66,-227 66,-191 120,-191 120,-227"/>
<text text-anchor="middle" x="93" y="-205.3" font-family="Times,serif" font-size="14.00">release</text>
</g>
<!-- assemble&#45;&gt;release -->
<g id="edge22" class="edge"><title>assemble&#45;&gt;release</title>
<path fill="none" stroke="black" d="M164.517,-262.697C152.437,-253.796 137.546,-242.823 124.484,-233.199"/>
<polygon fill="black" stroke="black" points="126.34,-230.219 116.213,-227.104 122.187,-235.854 126.34,-230.219"/>
</g>
<!-- exportX -->
<g id="node17" class="node"><title>exportX</title>
<polygon fill="cyan" stroke="black" points="265.25,-227 168.75,-227 164.75,-223 164.75,-191 261.25,-191 265.25,-195 265.25,-227"/>
<polyline fill="none" stroke="black" points="261.25,-223 164.75,-223 "/>
<polyline fill="none" stroke="black" points="261.25,-223 261.25,-191 "/>
<polyline fill="none" stroke="black" points="261.25,-223 265.25,-227 "/>
<text text-anchor="middle" x="215" y="-205.3" font-family="Times,serif" font-size="14.00">export.&lt;name&gt;</text>
</g>
<!-- assemble&#45;&gt;exportX -->
<g id="edge23" class="edge"><title>assemble&#45;&gt;exportX</title>
<path fill="none" stroke="black" d="M194.674,-262.697C197.715,-254.813 201.383,-245.304 204.761,-236.546"/>
<polygon fill="black" stroke="black" points="208.069,-237.694 208.403,-227.104 201.538,-235.175 208.069,-237.694"/>
</g>
<!-- build -->
<g id="node23" class="node"><title>build</title>
<polygon fill="lightcyan" stroke="black" points="318,-83 264,-83 264,-47 318,-47 318,-83"/>
<text text-anchor="middle" x="291" y="-61.3" font-family="Times,serif" font-size="14.00">build</text>
</g>
<!-- assemble&#45;&gt;build -->
<g id="edge12" class="edge"><title>assemble&#45;&gt;build</title>
<path fill="none" stroke="black" d="M216.409,-262.821C221.223,-260.101 226.213,-257.398 231,-255 251.296,-244.831 264.761,-253.442 278,-235 308.093,-193.08 303.059,-129.292 296.901,-93.2645"/>
<polygon fill="black" stroke="black" points="300.266,-92.2182 294.992,-83.0298 293.385,-93.5021 300.266,-92.2182"/>
</g>
<!-- checkNeeded -->
<g id="node14" class="node"><title>checkNeeded</title>
<polygon fill="cyan" stroke="black" points="435.25,-83 346.75,-83 346.75,-47 435.25,-47 435.25,-83"/>
<text text-anchor="middle" x="391" y="-61.3" font-family="Times,serif" font-size="14.00">checkNeeded</text>
</g>
<!-- check&#45;&gt;checkNeeded -->
<g id="edge15" class="edge"><title>check&#45;&gt;checkNeeded</title>
<path fill="none" stroke="black" d="M391,-118.697C391,-110.983 391,-101.712 391,-93.1124"/>
<polygon fill="black" stroke="black" points="394.5,-93.1043 391,-83.1043 387.5,-93.1044 394.5,-93.1043"/>
</g>
<!-- check&#45;&gt;build -->
<g id="edge17" class="edge"><title>check&#45;&gt;build</title>
<path fill="none" stroke="black" d="M370.212,-118.764C366.842,-116.107 363.356,-113.438 360,-111 349.409,-103.306 337.571,-95.3612 326.731,-88.3285"/>
<polygon fill="black" stroke="black" points="328.6,-85.3688 318.295,-82.9062 324.815,-91.2574 328.6,-85.3688"/>
</g>
<!-- checkNeeded&#45;&gt;checkNeeded -->
<g id="edge16" class="edge"><title>checkNeeded&#45;&gt;checkNeeded</title>
<path fill="none" stroke="red" d="M435.306,-78.2025C445.507,-77.0649 453,-72.6641 453,-65 453,-60.0902 449.925,-56.5196 445.032,-54.2883"/>
<polygon fill="red" stroke="red" points="445.862,-50.8877 435.306,-51.7975 444.125,-57.6689 445.862,-50.8877"/>
</g>
<!-- releaseNeeded -->
<g id="node16" class="node"><title>releaseNeeded</title>
<polygon fill="cyan" stroke="black" points="121.25,-155 26.75,-155 26.75,-119 121.25,-119 121.25,-155"/>
<text text-anchor="middle" x="74" y="-133.3" font-family="Times,serif" font-size="14.00">releaseNeeded</text>
</g>
<!-- release&#45;&gt;releaseNeeded -->
<g id="edge25" class="edge"><title>release&#45;&gt;releaseNeeded</title>
<path fill="none" stroke="black" d="M88.3034,-190.697C86.1866,-182.898 83.638,-173.509 81.2822,-164.829"/>
<polygon fill="black" stroke="black" points="84.64,-163.838 78.6426,-155.104 77.8844,-165.672 84.64,-163.838"/>
</g>
<!-- releaseNeeded&#45;&gt;releaseNeeded -->
<g id="edge26" class="edge"><title>releaseNeeded&#45;&gt;releaseNeeded</title>
<path fill="none" stroke="red" d="M121.326,-150.101C131.571,-148.82 139,-144.453 139,-137 139,-132.225 135.951,-128.717 131.066,-126.476"/>
<polygon fill="red" stroke="red" points="131.889,-123.073 121.326,-123.899 130.098,-129.84 131.889,-123.073"/>
</g>
<!-- export -->
<g id="node18" class="node"><title>export</title>
<polygon fill="cyan" stroke="black" points="242,-155 188,-155 188,-119 242,-119 242,-155"/>
<text text-anchor="middle" x="215" y="-133.3" font-family="Times,serif" font-size="14.00">export</text>
</g>
<!-- exportX&#45;&gt;export -->
<g id="edge24" class="edge"><title>exportX&#45;&gt;export</title>
<path fill="none" stroke="black" d="M215,-190.697C215,-182.983 215,-173.712 215,-165.112"/>
<polygon fill="black" stroke="black" points="218.5,-165.104 215,-155.104 211.5,-165.104 218.5,-165.104"/>
</g>
<!-- findbugs -->
<g id="node19" class="node"><title>findbugs</title>
<polygon fill="orange" stroke="black" points="827,-227 763,-227 763,-191 827,-191 827,-227"/>
<text text-anchor="middle" x="795" y="-205.3" font-family="Times,serif" font-size="14.00">findbugs</text>
</g>
<!-- findbugs&#45;&gt;check -->
<g id="edge31" class="edge"><title>findbugs&#45;&gt;check</title>
<path fill="none" stroke="green" d="M765.002,-190.969C758.566,-187.898 751.686,-185.032 745,-183 633.262,-149.041 494.137,-140.694 428.544,-138.653"/>
<polygon fill="green" stroke="green" points="428.384,-135.147 418.291,-138.367 428.189,-142.145 428.384,-135.147"/>
</g>
<!-- findbugsMain&#45;&gt;findbugs -->
<g id="edge29" class="edge"><title>findbugsMain&#45;&gt;findbugs</title>
<path fill="none" stroke="black" d="M801.775,-262.697C800.783,-254.983 799.592,-245.712 798.486,-237.112"/>
<polygon fill="black" stroke="black" points="801.946,-236.576 797.199,-227.104 795.003,-237.469 801.946,-236.576"/>
</g>
<!-- findbugstest -->
<g id="node21" class="node"><title>findbugstest</title>
<polygon fill="orange" stroke="black" points="736.25,-227 653.75,-227 653.75,-191 736.25,-191 736.25,-227"/>
<text text-anchor="middle" x="695" y="-205.3" font-family="Times,serif" font-size="14.00">findbugstest</text>
</g>
<!-- findbugstest&#45;&gt;check -->
<g id="edge32" class="edge"><title>findbugstest&#45;&gt;check</title>
<path fill="none" stroke="green" d="M660.891,-190.923C654.088,-187.968 646.908,-185.157 640,-183 566.752,-160.124 477.53,-147.515 428.239,-141.812"/>
<polygon fill="green" stroke="green" points="428.384,-138.307 418.055,-140.667 427.602,-145.263 428.384,-138.307"/>
</g>
<!-- findbugsTest&#45;&gt;findbugstest -->
<g id="edge30" class="edge"><title>findbugsTest&#45;&gt;findbugstest</title>
<path fill="none" stroke="black" d="M695.753,-262.697C695.643,-254.983 695.51,-245.712 695.387,-237.112"/>
<polygon fill="black" stroke="black" points="698.887,-237.053 695.244,-227.104 691.888,-237.153 698.887,-237.053"/>
</g>
<!-- clean -->
<g id="node25" class="node"><title>clean</title>
<polygon fill="cyan" stroke="black" points="859,-625 805,-625 805,-589 859,-589 859,-625"/>
<text text-anchor="middle" x="832" y="-603.3" font-family="Times,serif" font-size="14.00">clean</text>
</g>
<!-- cleanAll -->
<g id="node29" class="node"><title>cleanAll</title>
<polygon fill="orange" stroke="black" points="951,-534 897,-534 897,-498 951,-498 951,-534"/>
<text text-anchor="middle" x="924" y="-512.3" font-family="Times,serif" font-size="14.00">clean</text>
</g>
<!-- clean&#45;&gt;cleanAll -->
<g id="edge34" class="edge"><title>clean&#45;&gt;cleanAll</title>
<path fill="none" stroke="blue" d="M849.739,-588.84C863.739,-575.296 883.441,-556.236 899.034,-541.152"/>
<polygon fill="blue" stroke="blue" points="901.562,-543.576 906.316,-534.107 896.695,-538.545 901.562,-543.576"/>
</g>
<!-- bndproperties -->
<g id="node26" class="node"><title>bndproperties</title>
<polygon fill="cyan" stroke="black" points="107.25,-625 16.75,-625 16.75,-589 107.25,-589 107.25,-625"/>
<text text-anchor="middle" x="62" y="-603.3" font-family="Times,serif" font-size="14.00">bndproperties</text>
</g>
<!-- wrapper -->
<g id="node27" class="node"><title>wrapper</title>
<polygon fill="orange" stroke="black" points="1053.25,-625 992.75,-625 992.75,-589 1053.25,-589 1053.25,-625"/>
<text text-anchor="middle" x="1023" y="-603.3" font-family="Times,serif" font-size="14.00">wrapper</text>
</g>
<!-- index -->
<g id="node28" class="node"><title>index</title>
<polygon fill="orange" stroke="black" points="1157,-534 1103,-534 1103,-498 1157,-498 1157,-534"/>
<text text-anchor="middle" x="1130" y="-512.3" font-family="Times,serif" font-size="14.00">index</text>
</g>
<!-- cleanAllNeeded -->
<g id="node30" class="node"><title>cleanAllNeeded</title>
<polygon fill="orange" stroke="black" points="1061,-462 975,-462 975,-426 1061,-426 1061,-462"/>
<text text-anchor="middle" x="1018" y="-440.3" font-family="Times,serif" font-size="14.00">cleanNeeded</text>
</g>
<!-- cleanAll&#45;&gt;cleanAllNeeded -->
<g id="edge35" class="edge"><title>cleanAll&#45;&gt;cleanAllNeeded</title>
<path fill="none" stroke="blue" d="M947.236,-497.697C959.188,-488.796 973.923,-477.823 986.847,-468.199"/>
<polygon fill="blue" stroke="blue" points="989.101,-470.884 995.031,-462.104 984.92,-465.27 989.101,-470.884"/>
</g>
<!-- distclean -->
<g id="node31" class="node"><title>distclean</title>
<polygon fill="orange" stroke="black" points="956.25,-462 891.75,-462 891.75,-426 956.25,-426 956.25,-462"/>
<text text-anchor="middle" x="924" y="-440.3" font-family="Times,serif" font-size="14.00">distclean</text>
</g>
<!-- cleanAll&#45;&gt;distclean -->
<g id="edge37" class="edge"><title>cleanAll&#45;&gt;distclean</title>
<path fill="none" stroke="blue" d="M924,-497.697C924,-489.983 924,-480.712 924,-472.112"/>
<polygon fill="blue" stroke="blue" points="927.5,-472.104 924,-462.104 920.5,-472.104 927.5,-472.104"/>
</g>
<!-- cleanAllNeeded&#45;&gt;cleanAllNeeded -->
<g id="edge36" class="edge"><title>cleanAllNeeded&#45;&gt;cleanAllNeeded</title>
<path fill="none" stroke="red" d="M1061.04,-457.262C1071.35,-456.225 1079,-451.805 1079,-444 1079,-439 1075.86,-435.389 1070.89,-433.167"/>
<polygon fill="red" stroke="red" points="1071.58,-429.732 1061.04,-430.738 1069.91,-436.529 1071.58,-429.732"/>
</g>
<!-- distcleanNeeded -->
<g id="node32" class="node"><title>distcleanNeeded</title>
<polygon fill="orange" stroke="black" points="997,-390 891,-390 891,-354 997,-354 997,-390"/>
<text text-anchor="middle" x="944" y="-368.3" font-family="Times,serif" font-size="14.00">distcleanNeeded</text>
</g>
<!-- distclean&#45;&gt;distcleanNeeded -->
<g id="edge38" class="edge"><title>distclean&#45;&gt;distcleanNeeded</title>
<path fill="none" stroke="black" d="M928.944,-425.697C931.172,-417.898 933.855,-408.509 936.335,-399.829"/>
<polygon fill="black" stroke="black" points="939.731,-400.681 939.113,-390.104 933,-398.758 939.731,-400.681"/>
</g>
<!-- distcleanNeeded&#45;&gt;distcleanNeeded -->
<g id="edge39" class="edge"><title>distcleanNeeded&#45;&gt;distcleanNeeded</title>
<path fill="none" stroke="red" d="M997.257,-384.899C1007.63,-383.401 1015,-379.102 1015,-372 1015,-367.451 1011.98,-364.051 1007.08,-361.801"/>
<polygon fill="red" stroke="red" points="1007.83,-358.378 997.257,-359.101 1005.97,-365.128 1007.83,-358.378"/>
</g>
</g>
</svg>
