<?xml version="1.0" encoding="UTF-8" standalone="no"?>
<!DOCTYPE svg PUBLIC "-//W3C//DTD SVG 1.1//EN"
 "http://www.w3.org/Graphics/SVG/1.1/DTD/svg11.dtd">
<!-- Generated by graphviz version 2.34.0 (20140110.0949)
 -->
<!-- Title: GradleSetup Pages: 1 -->
<svg width="1126pt" height="680pt"
 viewBox="0.00 0.00 1126.00 680.00" xmlns="http://www.w3.org/2000/svg" xmlns:xlink="http://www.w3.org/1999/xlink">
<g id="graph0" class="graph" transform="scale(1 1) rotate(0) translate(4 676)">
<title>GradleSetup</title>
<polygon fill="white" stroke="white" points="-4,4 -4,-676 1122,-676 1122,4 -4,4"/>
<text text-anchor="middle" x="61" y="-656.8" font-family="Times,serif" font-size="14.00">Gradle Build Setup</text>
<g id="clust1" class="cluster"><title>cluster1</title>
<polygon fill="lightgrey" stroke="black" points="8,-8 8,-641 804,-641 804,-8 8,-8"/>
<text text-anchor="middle" x="92.5" y="-15.8" font-family="Times,serif" font-size="14.00">Java Projects / Bnd Projects</text>
</g>
<g id="clust2" class="cluster"><title>cluster101</title>
</g>
<g id="clust3" class="cluster"><title>cluster102</title>
</g>
<g id="clust4" class="cluster"><title>cluster103</title>
</g>
<g id="clust5" class="cluster"><title>cluster104</title>
</g>
<g id="clust6" class="cluster"><title>cluster105</title>
</g>
<g id="clust7" class="cluster"><title>cluster106</title>
</g>
<g id="clust8" class="cluster"><title>cluster107</title>
</g>
<g id="clust9" class="cluster"><title>cluster108</title>
</g>
<g id="clust10" class="cluster"><title>cluster109</title>
</g>
<g id="clust12" class="cluster"><title>cluster2</title>
<polygon fill="lightgrey" stroke="black" points="886,-558 886,-633 1036,-633 1036,-558 886,-558"/>
<text text-anchor="middle" x="928.5" y="-565.8" font-family="Times,serif" font-size="14.00">Root Project</text>
</g>
<g id="clust13" class="cluster"><title>cluster3</title>
<polygon fill="lightgrey" stroke="black" points="812,-315 812,-550 1110,-550 1110,-315 812,-315"/>
<text text-anchor="middle" x="852.5" y="-322.8" font-family="Times,serif" font-size="14.00">All Projects</text>
</g>
<g id="clust14" class="cluster"><title>cluster301</title>
</g>
<g id="clust15" class="cluster"><title>cluster302</title>
</g>
<!-- compileJava -->
<g id="node1" class="node"><title>compileJava</title>
<polygon fill="lightcyan" stroke="black" points="545.25,-625 460.75,-625 460.75,-589 545.25,-589 545.25,-625"/>
<text text-anchor="middle" x="503" y="-603.3" font-family="Times,serif" font-size="14.00">compileJava</text>
</g>
<!-- compileJava&#45;&gt;compileJava -->
<g id="edge24" class="edge"><title>compileJava&#45;&gt;compileJava</title>
<path fill="none" stroke="red" d="M545.331,-623.577C555.48,-622.282 563,-616.756 563,-607 563,-600.75 559.914,-596.236 555.027,-593.459"/>
<polygon fill="red" stroke="red" points="555.92,-590.07 545.331,-590.423 553.828,-596.751 555.92,-590.07"/>
</g>
<!-- classes -->
<g id="node3" class="node"><title>classes</title>
<polygon fill="lightcyan" stroke="black" points="471,-534 417,-534 417,-498 471,-498 471,-534"/>
<text text-anchor="middle" x="444" y="-512.3" font-family="Times,serif" font-size="14.00">classes</text>
</g>
<!-- compileJava&#45;&gt;classes -->
<g id="edge1" class="edge"><title>compileJava&#45;&gt;classes</title>
<path fill="none" stroke="black" d="M491.624,-588.84C482.972,-575.789 470.925,-557.615 461.112,-542.813"/>
<polygon fill="black" stroke="black" points="463.783,-540.508 455.341,-534.107 457.949,-544.376 463.783,-540.508"/>
</g>
<!-- processResources -->
<g id="node2" class="node"><title>processResources</title>
<polygon fill="lightcyan" stroke="black" points="442.25,-625 329.75,-625 329.75,-589 442.25,-589 442.25,-625"/>
<text text-anchor="middle" x="386" y="-603.3" font-family="Times,serif" font-size="14.00">processResources</text>
</g>
<!-- processResources&#45;&gt;classes -->
<g id="edge2" class="edge"><title>processResources&#45;&gt;classes</title>
<path fill="none" stroke="black" d="M397.183,-588.84C405.688,-575.789 417.532,-557.615 427.178,-542.813"/>
<polygon fill="black" stroke="black" points="430.324,-544.396 432.851,-534.107 424.459,-540.574 430.324,-544.396"/>
</g>
<!-- jar -->
<g id="node4" class="node"><title>jar</title>
<polygon fill="lightcyan" stroke="black" points="292,-390 238,-390 238,-354 292,-354 292,-390"/>
<text text-anchor="middle" x="265" y="-368.3" font-family="Times,serif" font-size="14.00">jar</text>
</g>
<!-- classes&#45;&gt;jar -->
<g id="edge5" class="edge"><title>classes&#45;&gt;jar</title>
<path fill="none" stroke="black" d="M416.786,-513.44C364.343,-509.806 252.384,-498.785 229,-470 211.978,-449.046 227.35,-419.263 242.948,-398.24"/>
<polygon fill="black" stroke="black" points="245.916,-400.127 249.324,-390.095 240.404,-395.812 245.916,-400.127"/>
</g>
<!-- bundle -->
<g id="node5" class="node"><title>bundle</title>
<polygon fill="cyan" stroke="black" points="292,-462 238,-462 238,-426 292,-426 292,-462"/>
<text text-anchor="middle" x="265" y="-440.3" font-family="Times,serif" font-size="14.00">bundle</text>
</g>
<!-- classes&#45;&gt;bundle -->
<g id="edge22" class="edge"><title>classes&#45;&gt;bundle</title>
<path fill="none" stroke="black" d="M416.87,-510.017C386.237,-503.665 335.518,-490.922 296,-470 294.702,-469.313 293.405,-468.567 292.119,-467.778"/>
<polygon fill="black" stroke="black" points="294.095,-464.889 283.878,-462.086 290.117,-470.649 294.095,-464.889"/>
</g>
<!-- compileTestJava -->
<g id="node6" class="node"><title>compileTestJava</title>
<polygon fill="lightcyan" stroke="black" points="684,-462 576,-462 576,-426 684,-426 684,-462"/>
<text text-anchor="middle" x="630" y="-440.3" font-family="Times,serif" font-size="14.00">compileTestJava</text>
</g>
<!-- classes&#45;&gt;compileTestJava -->
<g id="edge4" class="edge"><title>classes&#45;&gt;compileTestJava</title>
<path fill="none" stroke="black" d="M471.436,-505.202C496.416,-496.225 534.28,-482.475 567,-470 570.505,-468.664 574.113,-467.273 577.746,-465.861"/>
<polygon fill="black" stroke="black" points="579.323,-469.003 587.361,-462.101 576.773,-462.483 579.323,-469.003"/>
</g>
<!-- test -->
<g id="node9" class="node"><title>test</title>
<polygon fill="lightcyan" stroke="black" points="747,-299 693,-299 693,-263 747,-263 747,-299"/>
<text text-anchor="middle" x="720" y="-277.3" font-family="Times,serif" font-size="14.00">test</text>
</g>
<!-- classes&#45;&gt;test -->
<g id="edge6" class="edge"><title>classes&#45;&gt;test</title>
<path fill="none" stroke="black" d="M471.219,-515.664C543.303,-516.781 736.345,-515.393 776,-470 817.14,-422.908 770.457,-346.655 740.768,-307.298"/>
<polygon fill="black" stroke="black" points="743.257,-304.795 734.369,-299.03 737.722,-309.08 743.257,-304.795"/>
</g>
<!-- javadoc -->
<g id="node21" class="node"><title>javadoc</title>
<polygon fill="lightcyan" stroke="black" points="761.25,-462 702.75,-462 702.75,-426 761.25,-426 761.25,-462"/>
<text text-anchor="middle" x="732" y="-440.3" font-family="Times,serif" font-size="14.00">javadoc</text>
</g>
<!-- classes&#45;&gt;javadoc -->
<g id="edge3" class="edge"><title>classes&#45;&gt;javadoc</title>
<path fill="none" stroke="black" d="M471.172,-513.937C518.542,-511.269 618.576,-501.993 696,-470 697.846,-469.237 699.692,-468.368 701.518,-467.422"/>
<polygon fill="black" stroke="black" points="703.558,-470.283 710.399,-462.193 700.006,-464.251 703.558,-470.283"/>
</g>
<!-- findbugsMain -->
<g id="node25" class="node"><title>findbugsMain</title>
<polygon fill="orange" stroke="black" points="403.25,-462 310.75,-462 310.75,-426 403.25,-426 403.25,-462"/>
<text text-anchor="middle" x="357" y="-440.3" font-family="Times,serif" font-size="14.00">findbugsMain</text>
</g>
<!-- classes&#45;&gt;findbugsMain -->
<g id="edge30" class="edge"><title>classes&#45;&gt;findbugsMain</title>
<path fill="none" stroke="black" d="M422.494,-497.697C411.537,-488.881 398.054,-478.032 386.175,-468.474"/>
<polygon fill="black" stroke="black" points="388.244,-465.646 378.258,-462.104 383.855,-471.1 388.244,-465.646"/>
</g>
<!-- uploadArchives -->
<g id="node10" class="node"><title>uploadArchives</title>
<polygon fill="lightcyan" stroke="black" points="375,-299 273,-299 273,-263 375,-263 375,-299"/>
<text text-anchor="middle" x="324" y="-277.3" font-family="Times,serif" font-size="14.00">uploadArchives</text>
</g>
<!-- jar&#45;&gt;uploadArchives -->
<g id="edge9" class="edge"><title>jar&#45;&gt;uploadArchives</title>
<path fill="none" stroke="black" d="M273.386,-353.818C279.197,-342.461 287.409,-327.434 296,-315 297.722,-312.508 299.596,-309.983 301.531,-307.496"/>
<polygon fill="black" stroke="black" points="304.609,-309.259 308.216,-299.297 299.184,-304.835 304.609,-309.259"/>
</g>
<!-- assemble -->
<g id="node11" class="node"><title>assemble</title>
<polygon fill="lightcyan" stroke="black" points="254.25,-299 187.75,-299 187.75,-263 254.25,-263 254.25,-299"/>
<text text-anchor="middle" x="221" y="-277.3" font-family="Times,serif" font-size="14.00">assemble</text>
</g>
<!-- jar&#45;&gt;assemble -->
<g id="edge10" class="edge"><title>jar&#45;&gt;assemble</title>
<path fill="none" stroke="black" d="M256.516,-353.84C250.125,-340.912 241.249,-322.958 233.969,-308.232"/>
<polygon fill="black" stroke="black" points="237.027,-306.521 229.458,-299.107 230.752,-309.623 237.027,-306.521"/>
</g>
<!-- bundle&#45;&gt;jar -->
<g id="edge23" class="edge"><title>bundle&#45;&gt;jar</title>
<path fill="none" stroke="black" stroke-dasharray="5,2" d="M265,-425.697C265,-417.983 265,-408.712 265,-400.112"/>
<polygon fill="black" stroke="black" points="268.5,-400.104 265,-390.104 261.5,-400.104 268.5,-400.104"/>
</g>
<!-- testClasses -->
<g id="node8" class="node"><title>testClasses</title>
<polygon fill="lightcyan" stroke="black" points="659,-390 583,-390 583,-354 659,-354 659,-390"/>
<text text-anchor="middle" x="621" y="-368.3" font-family="Times,serif" font-size="14.00">testClasses</text>
</g>
<!-- compileTestJava&#45;&gt;testClasses -->
<g id="edge7" class="edge"><title>compileTestJava&#45;&gt;testClasses</title>
<path fill="none" stroke="black" d="M627.775,-425.697C626.783,-417.983 625.592,-408.712 624.486,-400.112"/>
<polygon fill="black" stroke="black" points="627.946,-399.576 623.199,-390.104 621.003,-400.469 627.946,-399.576"/>
</g>
<!-- processTestResources -->
<g id="node7" class="node"><title>processTestResources</title>
<polygon fill="lightcyan" stroke="black" points="558,-462 422,-462 422,-426 558,-426 558,-462"/>
<text text-anchor="middle" x="490" y="-440.3" font-family="Times,serif" font-size="14.00">processTestResources</text>
</g>
<!-- processTestResources&#45;&gt;testClasses -->
<g id="edge8" class="edge"><title>processTestResources&#45;&gt;testClasses</title>
<path fill="none" stroke="black" d="M522.046,-425.876C539.492,-416.554 561.265,-404.919 579.943,-394.939"/>
<polygon fill="black" stroke="black" points="581.66,-397.99 588.831,-390.19 578.361,-391.816 581.66,-397.99"/>
</g>
<!-- testClasses&#45;&gt;test -->
<g id="edge11" class="edge"><title>testClasses&#45;&gt;test</title>
<path fill="none" stroke="black" d="M640.088,-353.84C655.154,-340.296 676.355,-321.236 693.135,-306.152"/>
<polygon fill="black" stroke="black" points="695.874,-308.396 700.97,-299.107 691.194,-303.19 695.874,-308.396"/>
</g>
<!-- findbugsTest -->
<g id="node26" class="node"><title>findbugsTest</title>
<polygon fill="orange" stroke="black" points="647.25,-299 560.75,-299 560.75,-263 647.25,-263 647.25,-299"/>
<text text-anchor="middle" x="604" y="-277.3" font-family="Times,serif" font-size="14.00">findbugsTest</text>
</g>
<!-- testClasses&#45;&gt;findbugsTest -->
<g id="edge31" class="edge"><title>testClasses&#45;&gt;findbugsTest</title>
<path fill="none" stroke="black" d="M617.722,-353.84C615.3,-341.158 611.954,-323.64 609.172,-309.077"/>
<polygon fill="black" stroke="black" points="612.582,-308.273 607.268,-299.107 605.706,-309.587 612.582,-308.273"/>
</g>
<!-- check -->
<g id="node12" class="node"><title>check</title>
<polygon fill="cyan" stroke="black" points="623,-227 569,-227 569,-191 623,-191 623,-227"/>
<text text-anchor="middle" x="596" y="-205.3" font-family="Times,serif" font-size="14.00">check</text>
</g>
<!-- test&#45;&gt;check -->
<g id="edge14" class="edge"><title>test&#45;&gt;check</title>
<path fill="none" stroke="black" d="M701.092,-262.97C697.263,-260.046 693.136,-257.235 689,-255 663.526,-241.237 652.474,-248.763 627,-235 625.707,-234.302 624.416,-233.547 623.134,-232.75"/>
<polygon fill="black" stroke="black" points="625.116,-229.865 614.908,-227.03 621.12,-235.612 625.116,-229.865"/>
</g>
<!-- jacocoTestReport -->
<g id="node24" class="node"><title>jacocoTestReport</title>
<polygon fill="orange" stroke="black" points="796,-227 684,-227 684,-191 796,-191 796,-227"/>
<text text-anchor="middle" x="740" y="-205.3" font-family="Times,serif" font-size="14.00">jacocoTestReport</text>
</g>
<!-- test&#45;&gt;jacocoTestReport -->
<g id="edge34" class="edge"><title>test&#45;&gt;jacocoTestReport</title>
<path fill="none" stroke="black" d="M724.944,-262.697C727.172,-254.898 729.855,-245.509 732.335,-236.829"/>
<polygon fill="black" stroke="black" points="735.731,-237.681 735.113,-227.104 729,-235.758 735.731,-237.681"/>
</g>
<!-- assemble&#45;&gt;check -->
<g id="edge13" class="edge"><title>assemble&#45;&gt;check</title>
<path fill="none" stroke="black" d="M246.595,-262.949C252.145,-259.879 258.119,-257.019 264,-255 317.878,-236.505 483.66,-219.969 558.569,-213.221"/>
<polygon fill="black" stroke="black" points="559.288,-216.671 568.938,-212.297 558.667,-209.698 559.288,-216.671"/>
</g>
<!-- release -->
<g id="node14" class="node"><title>release</title>
<polygon fill="cyan" stroke="black" points="244,-227 190,-227 190,-191 244,-191 244,-227"/>
<text text-anchor="middle" x="217" y="-205.3" font-family="Times,serif" font-size="14.00">release</text>
</g>
<!-- assemble&#45;&gt;release -->
<g id="edge25" class="edge"><title>assemble&#45;&gt;release</title>
<path fill="none" stroke="black" d="M220.011,-262.697C219.57,-254.983 219.041,-245.712 218.549,-237.112"/>
<polygon fill="black" stroke="black" points="222.042,-236.888 217.977,-227.104 215.054,-237.288 222.042,-236.888"/>
</g>
<!-- exportX -->
<g id="node16" class="node"><title>exportX</title>
<polygon fill="cyan" stroke="black" points="125.25,-227 28.75,-227 24.75,-223 24.75,-191 121.25,-191 125.25,-195 125.25,-227"/>
<polyline fill="none" stroke="black" points="121.25,-223 24.75,-223 "/>
<polyline fill="none" stroke="black" points="121.25,-223 121.25,-191 "/>
<polyline fill="none" stroke="black" points="121.25,-223 125.25,-227 "/>
<text text-anchor="middle" x="75" y="-205.3" font-family="Times,serif" font-size="14.00">export.&lt;name&gt;</text>
</g>
<!-- assemble&#45;&gt;exportX -->
<g id="edge26" class="edge"><title>assemble&#45;&gt;exportX</title>
<path fill="none" stroke="black" d="M187.505,-263.941C167.394,-254.299 141.56,-241.912 119.72,-231.441"/>
<polygon fill="black" stroke="black" points="121.164,-228.252 110.633,-227.084 118.137,-234.564 121.164,-228.252"/>
</g>
<!-- build -->
<g id="node18" class="node"><title>build</title>
<polygon fill="lightcyan" stroke="black" points="435,-155 381,-155 381,-119 435,-119 435,-155"/>
<text text-anchor="middle" x="408" y="-133.3" font-family="Times,serif" font-size="14.00">build</text>
</g>
<!-- assemble&#45;&gt;build -->
<g id="edge12" class="edge"><title>assemble&#45;&gt;build</title>
<path fill="none" stroke="black" d="M243.557,-262.871C276.972,-237.497 339.713,-189.854 377.292,-161.318"/>
<polygon fill="black" stroke="black" points="379.516,-164.024 385.363,-155.189 375.283,-158.449 379.516,-164.024"/>
</g>
<!-- checkNeeded -->
<g id="node13" class="node"><title>checkNeeded</title>
<polygon fill="cyan" stroke="black" points="649.25,-155 560.75,-155 560.75,-119 649.25,-119 649.25,-155"/>
<text text-anchor="middle" x="605" y="-133.3" font-family="Times,serif" font-size="14.00">checkNeeded</text>
</g>
<!-- check&#45;&gt;checkNeeded -->
<g id="edge15" class="edge"><title>check&#45;&gt;checkNeeded</title>
<path fill="none" stroke="black" d="M598.225,-190.697C599.217,-182.983 600.408,-173.712 601.514,-165.112"/>
<polygon fill="black" stroke="black" points="604.997,-165.469 602.801,-155.104 598.054,-164.576 604.997,-165.469"/>
</g>
<!-- check&#45;&gt;build -->
<g id="edge17" class="edge"><title>check&#45;&gt;build</title>
<path fill="none" stroke="black" d="M568.663,-197.821C535.99,-185.656 481.177,-165.247 444.802,-151.703"/>
<polygon fill="black" stroke="black" points="445.658,-148.287 435.065,-148.077 443.215,-154.847 445.658,-148.287"/>
</g>
<!-- checkNeeded&#45;&gt;checkNeeded -->
<g id="edge16" class="edge"><title>checkNeeded&#45;&gt;checkNeeded</title>
<path fill="none" stroke="red" d="M649.306,-150.203C659.507,-149.065 667,-144.664 667,-137 667,-132.09 663.925,-128.52 659.032,-126.288"/>
<polygon fill="red" stroke="red" points="659.862,-122.888 649.306,-123.797 658.125,-129.669 659.862,-122.888"/>
</g>
<!-- releaseNeeded -->
<g id="node15" class="node"><title>releaseNeeded</title>
<polygon fill="cyan" stroke="black" points="245.25,-155 150.75,-155 150.75,-119 245.25,-119 245.25,-155"/>
<text text-anchor="middle" x="198" y="-133.3" font-family="Times,serif" font-size="14.00">releaseNeeded</text>
</g>
<!-- release&#45;&gt;releaseNeeded -->
<g id="edge28" class="edge"><title>release&#45;&gt;releaseNeeded</title>
<path fill="none" stroke="black" d="M212.303,-190.697C210.187,-182.898 207.638,-173.509 205.282,-164.829"/>
<polygon fill="black" stroke="black" points="208.64,-163.838 202.643,-155.104 201.884,-165.672 208.64,-163.838"/>
</g>
<!-- releaseNeeded&#45;&gt;releaseNeeded -->
<g id="edge29" class="edge"><title>releaseNeeded&#45;&gt;releaseNeeded</title>
<path fill="none" stroke="red" d="M245.326,-150.101C255.571,-148.82 263,-144.453 263,-137 263,-132.225 259.951,-128.717 255.066,-126.476"/>
<polygon fill="red" stroke="red" points="255.889,-123.073 245.326,-123.899 254.098,-129.84 255.889,-123.073"/>
</g>
<!-- export -->
<g id="node17" class="node"><title>export</title>
<polygon fill="cyan" stroke="black" points="102,-155 48,-155 48,-119 102,-119 102,-155"/>
<text text-anchor="middle" x="75" y="-133.3" font-family="Times,serif" font-size="14.00">export</text>
</g>
<!-- exportX&#45;&gt;export -->
<g id="edge27" class="edge"><title>exportX&#45;&gt;export</title>
<path fill="none" stroke="black" d="M75,-190.697C75,-182.983 75,-173.712 75,-165.112"/>
<polygon fill="black" stroke="black" points="78.5001,-165.104 75,-155.104 71.5001,-165.104 78.5001,-165.104"/>
</g>
<!-- buildDependents -->
<g id="node19" class="node"><title>buildDependents</title>
<polygon fill="lightcyan" stroke="black" points="396,-83 288,-83 288,-47 396,-47 396,-83"/>
<text text-anchor="middle" x="342" y="-61.3" font-family="Times,serif" font-size="14.00">buildDependents</text>
</g>
<!-- build&#45;&gt;buildDependents -->
<g id="edge18" class="edge"><title>build&#45;&gt;buildDependents</title>
<path fill="none" stroke="black" d="M391.685,-118.697C383.693,-110.22 373.928,-99.8636 365.178,-90.5826"/>
<polygon fill="black" stroke="black" points="367.534,-87.9792 358.127,-83.1043 362.441,-92.7813 367.534,-87.9792"/>
</g>
<!-- buildNeeded -->
<g id="node20" class="node"><title>buildNeeded</title>
<polygon fill="lightcyan" stroke="black" points="518,-83 432,-83 432,-47 518,-47 518,-83"/>
<text text-anchor="middle" x="475" y="-61.3" font-family="Times,serif" font-size="14.00">buildNeeded</text>
</g>
<!-- build&#45;&gt;buildNeeded -->
<g id="edge20" class="edge"><title>build&#45;&gt;buildNeeded</title>
<path fill="none" stroke="black" d="M424.562,-118.697C432.675,-110.22 442.588,-99.8636 451.471,-90.5826"/>
<polygon fill="black" stroke="black" points="454.243,-92.7486 458.629,-83.1043 449.186,-87.9084 454.243,-92.7486"/>
</g>
<!-- buildDependents&#45;&gt;buildDependents -->
<g id="edge19" class="edge"><title>buildDependents&#45;&gt;buildDependents</title>
<path fill="none" stroke="yellow" d="M396.007,-77.8993C406.529,-76.4013 414,-72.1016 414,-65 414,-60.4506 410.934,-57.051 405.964,-54.8012"/>
<polygon fill="yellow" stroke="yellow" points="406.575,-51.3406 396.007,-52.1007 404.742,-58.0965 406.575,-51.3406"/>
</g>
<!-- buildNeeded&#45;&gt;buildNeeded -->
<g id="edge21" class="edge"><title>buildNeeded&#45;&gt;buildNeeded</title>
<path fill="none" stroke="red" d="M518.036,-78.2619C528.355,-77.2253 536,-72.8047 536,-65 536,-60.0001 532.862,-56.3891 527.894,-54.1668"/>
<polygon fill="red" stroke="red" points="528.583,-50.7319 518.036,-51.7381 526.909,-57.5287 528.583,-50.7319"/>
</g>
<!-- clean -->
<g id="node22" class="node"><title>clean</title>
<polygon fill="cyan" stroke="black" points="796,-625 742,-625 742,-589 796,-589 796,-625"/>
<text text-anchor="middle" x="769" y="-603.3" font-family="Times,serif" font-size="14.00">clean</text>
</g>
<!-- cleanAll -->
<g id="node30" class="node"><title>cleanAll</title>
<polygon fill="orange" stroke="black" points="898,-534 844,-534 844,-498 898,-498 898,-534"/>
<text text-anchor="middle" x="871" y="-512.3" font-family="Times,serif" font-size="14.00">clean</text>
</g>
<!-- clean&#45;&gt;cleanAll -->
<g id="edge35" class="edge"><title>clean&#45;&gt;cleanAll</title>
<path fill="none" stroke="blue" d="M788.667,-588.84C804.33,-575.173 826.43,-555.889 843.791,-540.741"/>
<polygon fill="blue" stroke="blue" points="846.16,-543.319 851.394,-534.107 841.558,-538.045 846.16,-543.319"/>
</g>
<!-- bndproperties -->
<g id="node23" class="node"><title>bndproperties</title>
<polygon fill="cyan" stroke="black" points="217.25,-625 126.75,-625 126.75,-589 217.25,-589 217.25,-625"/>
<text text-anchor="middle" x="172" y="-603.3" font-family="Times,serif" font-size="14.00">bndproperties</text>
</g>
<!-- findbugsMain&#45;&gt;check -->
<g id="edge32" class="edge"><title>findbugsMain&#45;&gt;check</title>
<path fill="none" stroke="green" d="M360.353,-425.75C366.276,-399.202 380.821,-347.953 410,-315 451.192,-268.479 518.15,-237.873 559.494,-222.279"/>
<polygon fill="green" stroke="green" points="560.738,-225.551 568.918,-218.817 558.324,-218.98 560.738,-225.551"/>
</g>
<!-- findbugsTest&#45;&gt;check -->
<g id="edge33" class="edge"><title>findbugsTest&#45;&gt;check</title>
<path fill="none" stroke="green" d="M602.022,-262.697C601.141,-254.983 600.081,-245.712 599.099,-237.112"/>
<polygon fill="green" stroke="green" points="602.568,-236.642 597.955,-227.104 595.613,-237.437 602.568,-236.642"/>
</g>
<!-- init -->
<g id="node27" class="node"><title>init</title>
<polygon fill="lightcyan" stroke="black" points="1028,-625 974,-625 974,-589 1028,-589 1028,-625"/>
<text text-anchor="middle" x="1001" y="-603.3" font-family="Times,serif" font-size="14.00">init</text>
</g>
<!-- wrapper -->
<g id="node28" class="node"><title>wrapper</title>
<polygon fill="orange" stroke="black" points="955.25,-625 894.75,-625 894.75,-589 955.25,-589 955.25,-625"/>
<text text-anchor="middle" x="925" y="-603.3" font-family="Times,serif" font-size="14.00">wrapper</text>
</g>
<!-- index -->
<g id="node29" class="node"><title>index</title>
<polygon fill="orange" stroke="black" points="1094,-534 1040,-534 1040,-498 1094,-498 1094,-534"/>
<text text-anchor="middle" x="1067" y="-512.3" font-family="Times,serif" font-size="14.00">index</text>
</g>
<!-- cleanAllNeeded -->
<g id="node31" class="node"><title>cleanAllNeeded</title>
<polygon fill="orange" stroke="black" points="914,-462 828,-462 828,-426 914,-426 914,-462"/>
<text text-anchor="middle" x="871" y="-440.3" font-family="Times,serif" font-size="14.00">cleanNeeded</text>
</g>
<!-- cleanAll&#45;&gt;cleanAllNeeded -->
<g id="edge36" class="edge"><title>cleanAll&#45;&gt;cleanAllNeeded</title>
<path fill="none" stroke="blue" d="M871,-497.697C871,-489.983 871,-480.712 871,-472.112"/>
<polygon fill="blue" stroke="blue" points="874.5,-472.104 871,-462.104 867.5,-472.104 874.5,-472.104"/>
</g>
<!-- distclean -->
<g id="node32" class="node"><title>distclean</title>
<polygon fill="orange" stroke="black" points="1015.25,-462 950.75,-462 950.75,-426 1015.25,-426 1015.25,-462"/>
<text text-anchor="middle" x="983" y="-440.3" font-family="Times,serif" font-size="14.00">distclean</text>
</g>
<!-- cleanAll&#45;&gt;distclean -->
<g id="edge38" class="edge"><title>cleanAll&#45;&gt;distclean</title>
<path fill="none" stroke="blue" d="M898.112,-498.055C912.861,-488.837 931.29,-477.319 947.206,-467.371"/>
<polygon fill="blue" stroke="blue" points="949.124,-470.3 955.749,-462.032 945.414,-464.364 949.124,-470.3"/>
</g>
<!-- cleanAllNeeded&#45;&gt;cleanAllNeeded -->
<g id="edge37" class="edge"><title>cleanAllNeeded&#45;&gt;cleanAllNeeded</title>
<path fill="none" stroke="red" d="M914.036,-457.262C924.355,-456.225 932,-451.805 932,-444 932,-439 928.862,-435.389 923.894,-433.167"/>
<polygon fill="red" stroke="red" points="924.583,-429.732 914.036,-430.738 922.909,-436.529 924.583,-429.732"/>
</g>
<!-- distcleanNeeded -->
<g id="node33" class="node"><title>distcleanNeeded</title>
<polygon fill="orange" stroke="black" points="998,-390 892,-390 892,-354 998,-354 998,-390"/>
<text text-anchor="middle" x="945" y="-368.3" font-family="Times,serif" font-size="14.00">distcleanNeeded</text>
</g>
<!-- distclean&#45;&gt;distcleanNeeded -->
<g id="edge39" class="edge"><title>distclean&#45;&gt;distcleanNeeded</title>
<path fill="none" stroke="black" d="M973.607,-425.697C969.235,-417.644 963.943,-407.894 959.105,-398.982"/>
<polygon fill="black" stroke="black" points="962.132,-397.223 954.285,-390.104 955.98,-400.563 962.132,-397.223"/>
</g>
<!-- distcleanNeeded&#45;&gt;distcleanNeeded -->
<g id="edge40" class="edge"><title>distcleanNeeded&#45;&gt;distcleanNeeded</title>
<path fill="none" stroke="red" d="M998.257,-384.899C1008.63,-383.401 1016,-379.102 1016,-372 1016,-367.451 1012.98,-364.051 1008.08,-361.801"/>
<polygon fill="red" stroke="red" points="1008.83,-358.378 998.257,-359.101 1006.97,-365.128 1008.83,-358.378"/>
</g>
</g>
</svg>
